M48
; DRILL file {KiCad 8.0.1} date 2024-05-15T16:11:38+0200
; FORMAT={-:-/ absolute / metric / decimal}
; #@! TF.CreationDate,2024-05-15T16:11:38+02:00
; #@! TF.GenerationSoftware,Kicad,Pcbnew,8.0.1
; #@! TF.FileFunction,Plated,1,4,PTH
FMAT,2
METRIC
; #@! TA.AperFunction,Plated,PTH,ViaDrill
T1C0.300
; #@! TA.AperFunction,Plated,PTH,ComponentDrill
T2C0.600
; #@! TA.AperFunction,Plated,PTH,ComponentDrill
T3C0.800
; #@! TA.AperFunction,Plated,PTH,ComponentDrill
T4C4.300
%
G90
G05
T1
X117.4Y-50.0
X117.4Y-52.8
X117.8Y-56.0
X119.4Y-56.0
X120.6Y-58.4
X121.4Y-66.2
X121.8Y-54.2
X123.6Y-49.925
X124.58Y-83.82
X124.6Y-54.2
X124.6Y-66.2
X124.6Y-76.8
X126.0Y-68.425
X126.2Y-113.2
X127.2Y-113.2
X130.0Y-104.8
X130.145Y-77.8
X130.145Y-82.2
X130.87Y-92.082
X131.2Y-103.6
X131.435Y-91.516
X132.0Y-90.95
X132.547Y-90.276
X132.6Y-98.0
X133.67Y-72.119
X134.0Y-102.4
X134.2Y-100.6
X134.235Y-71.553
X134.377Y-40.996
X134.801Y-70.988
X135.176Y-41.009
X135.4Y-70.4
X135.4Y-110.0
X135.976Y-40.976
X136.024Y-89.624
X136.6Y-109.0
X136.624Y-89.024
X136.8Y-41.0
X136.8Y-100.4
X137.0Y-86.8
X137.001Y-87.799
X137.6Y-99.0
X138.4Y-107.2
X139.0Y-118.8
X139.0Y-121.8
X139.0Y-123.0
X140.293Y-110.507
X140.4Y-84.4
X140.948Y-104.971
X141.0Y-95.0
X141.546Y-105.524
X142.148Y-104.973
X142.224Y-95.176
X142.393Y-112.607
X142.607Y-76.408
X142.729Y-106.756
X142.824Y-95.741
X143.372Y-96.324
X143.376Y-76.624
X143.976Y-77.224
X143.976Y-113.624
X144.0Y-107.774
X144.4Y-110.6
X144.585Y-92.791
X144.6Y-76.0
X144.636Y-108.436
X144.704Y-92.0
X145.0Y-95.18
X145.0Y-114.8
X145.176Y-75.376
X145.2Y-76.6
X145.231Y-78.231
X145.276Y-93.194
X145.351Y-91.4
X145.4Y-112.2
X145.6Y-95.78
X146.196Y-112.276
X146.2Y-92.4
X146.2Y-96.38
X146.336Y-105.136
X146.38Y-104.244
X146.464Y-77.033
X146.8Y-96.98
X146.867Y-89.167
X147.0Y-114.8
X147.084Y-106.084
X147.116Y-106.901
X147.137Y-105.215
X147.918Y-111.5
X148.017Y-88.017
X148.2Y-94.8
X148.6Y-98.8
X148.6Y-111.0
X149.2Y-114.8
X149.6Y-104.0
X149.749Y-79.1
X149.768Y-78.227
X149.773Y-77.373
X149.8Y-80.0
X150.0Y-112.6
X150.206Y-103.34
X151.134Y-97.334
X151.2Y-122.0
X151.379Y-108.348
X151.7Y-97.9
X151.927Y-107.576
X152.349Y-93.6
X153.147Y-93.841
X153.201Y-89.819
X153.201Y-89.019
X153.207Y-81.407
X153.3Y-99.5
X153.4Y-94.6
X153.521Y-104.279
X153.807Y-80.807
X154.0Y-112.0
X154.117Y-89.801
X154.192Y-94.758
X154.211Y-108.395
X154.343Y-95.543
X154.401Y-87.019
X154.401Y-89.019
X154.507Y-80.107
X154.6Y-52.0
X154.6Y-64.0
X155.0Y-49.0
X155.0Y-118.4
X155.2Y-87.019
X155.207Y-79.407
X155.282Y-63.583
X155.8Y-49.4
X155.8Y-118.0
X155.905Y-64.084
X155.907Y-78.707
X156.506Y-75.233
X156.6Y-49.8
X156.6Y-105.2
X156.601Y-97.952
X156.607Y-78.007
X156.8Y-117.2
X157.072Y-74.668
X157.311Y-77.304
X157.591Y-117.318
X157.638Y-74.102
X157.962Y-76.652
X158.2Y-55.0
X158.2Y-116.8
X158.799Y-64.248
X158.8Y-75.907
X159.0Y-116.4
X159.4Y-55.2
X159.4Y-63.0
X159.4Y-65.6
X159.4Y-76.6
X159.407Y-75.207
X159.6Y-60.4
X159.6Y-114.8
X160.248Y-101.799
X161.048Y-101.8
X161.8Y-42.8
X161.848Y-101.8
X161.896Y-43.694
X161.916Y-44.561
X162.6Y-50.6
X162.648Y-101.8
X163.0Y-71.4
X163.0Y-72.2
X163.4Y-54.8
X163.448Y-101.8
X163.757Y-73.601
X163.772Y-60.38
X164.2Y-72.2
X164.248Y-101.8
X164.5Y-64.5
X164.6Y-59.78
X164.6Y-71.4
X164.6Y-73.587
X165.048Y-101.8
X165.2Y-51.8
X165.2Y-61.8
X165.2Y-63.0
X165.6Y-61.0
X166.2Y-86.4
X166.4Y-104.2
X167.2Y-59.6
X167.6Y-108.8
X167.8Y-92.6
X167.8Y-95.2
X168.581Y-61.1
X168.6Y-54.2
X168.6Y-62.3
X168.6Y-63.1
X168.627Y-50.4
X168.627Y-53.0
X168.627Y-55.4
X168.627Y-56.4
X168.627Y-63.9
X168.627Y-64.88
X168.7Y-58.9
X169.0Y-113.0
X169.4Y-108.8
X170.8Y-91.2
X170.8Y-108.8
X172.4Y-91.2
X172.4Y-104.8
X173.276Y-85.8
T2
X116.775Y-40.0
X116.775Y-120.0
X117.72Y-37.72
X117.72Y-42.28
X117.72Y-117.72
X117.72Y-122.28
X120.0Y-36.775
X120.0Y-43.225
X120.0Y-116.775
X120.0Y-123.225
X122.28Y-37.72
X122.28Y-42.28
X122.28Y-117.72
X122.28Y-122.28
X123.225Y-40.0
X123.225Y-120.0
X166.775Y-40.0
X166.775Y-120.0
X167.72Y-37.72
X167.72Y-42.28
X167.72Y-117.72
X167.72Y-122.28
X170.0Y-36.775
X170.0Y-43.225
X170.0Y-116.775
X170.0Y-123.225
X172.28Y-37.72
X172.28Y-42.28
X172.28Y-117.72
X172.28Y-122.28
X173.225Y-40.0
X173.225Y-120.0
T3
X118.39Y-100.19
X118.39Y-102.73
X118.39Y-105.27
X118.39Y-107.81
X126.01Y-100.19
X126.01Y-102.73
X126.01Y-105.27
X126.01Y-107.81
X136.94Y-44.0
X136.94Y-46.0
X136.94Y-48.0
X136.94Y-50.0
X136.94Y-52.0
X136.94Y-54.0
X136.94Y-56.0
X136.94Y-58.0
X136.94Y-60.0
X136.94Y-62.0
X136.94Y-64.0
X136.94Y-66.0
X136.94Y-68.0
X136.94Y-70.0
X136.94Y-72.0
X136.94Y-74.0
X138.0Y-40.0
X138.0Y-38.0
X140.0Y-38.0
X140.0Y-40.0
X140.99Y-44.0
X140.99Y-46.0
X140.99Y-48.0
X140.99Y-50.0
X140.99Y-52.0
X140.99Y-54.0
X140.99Y-56.0
X140.99Y-58.0
X140.99Y-60.0
X140.99Y-62.0
X140.99Y-64.0
X140.99Y-66.0
X140.99Y-68.0
X140.99Y-70.0
X140.99Y-72.0
X140.99Y-74.0
X141.0Y-120.1
X141.0Y-122.1
X142.0Y-38.0
X142.0Y-40.0
X143.0Y-120.1
X143.0Y-122.1
X144.0Y-38.0
X144.0Y-40.0
X145.0Y-120.1
X145.0Y-122.1
X145.04Y-44.0
X145.04Y-46.0
X145.04Y-48.0
X145.04Y-50.0
X145.04Y-52.0
X145.04Y-54.0
X145.04Y-56.0
X145.04Y-58.0
X145.04Y-60.0
X145.04Y-62.0
X145.04Y-64.0
X145.04Y-66.0
X145.04Y-68.0
X145.04Y-70.0
X145.04Y-72.0
X145.04Y-74.0
X146.0Y-38.0
X146.0Y-40.0
X147.0Y-122.1
X147.0Y-120.1
X148.0Y-38.0
X148.0Y-40.0
X149.0Y-120.1
X149.0Y-122.1
X149.09Y-44.0
X149.09Y-46.0
X149.09Y-48.0
X149.09Y-50.0
X149.09Y-52.0
X149.09Y-54.0
X149.09Y-56.0
X149.09Y-58.0
X149.09Y-60.0
X149.09Y-62.0
X149.09Y-64.0
X149.09Y-66.0
X149.09Y-68.0
X149.09Y-70.0
X149.09Y-72.0
X149.09Y-74.0
X150.0Y-40.0
X150.0Y-38.0
X152.0Y-38.0
X152.0Y-40.0
X153.14Y-44.0
X153.14Y-46.0
X153.14Y-48.0
X153.14Y-50.0
X153.14Y-52.0
X153.14Y-54.0
X153.14Y-56.0
X153.14Y-58.0
X153.14Y-60.0
X153.14Y-62.0
X153.14Y-64.0
X153.14Y-66.0
X153.14Y-68.0
X153.14Y-70.0
X153.14Y-72.0
X153.14Y-74.0
T4
X120.0Y-40.0
X120.0Y-120.0
X170.0Y-40.0
X170.0Y-120.0
T2
G00X118.225Y-75.68
M15
G01X117.625Y-75.68
M16
G05
G00X118.225Y-84.32
M15
G01X117.625Y-84.32
M16
G05
G00X122.655Y-75.68
M15
G01X121.555Y-75.68
M16
G05
G00X122.655Y-84.32
M15
G01X121.555Y-84.32
M16
G05
M30
