%TF.GenerationSoftware,KiCad,Pcbnew,8.0.1*%
%TF.CreationDate,2024-05-15T13:39:00+02:00*%
%TF.ProjectId,STM32H7B0_devboard,53544d33-3248-4374-9230-5f646576626f,rev?*%
%TF.SameCoordinates,Original*%
%TF.FileFunction,Copper,L1,Top*%
%TF.FilePolarity,Positive*%
%FSLAX46Y46*%
G04 Gerber Fmt 4.6, Leading zero omitted, Abs format (unit mm)*
G04 Created by KiCad (PCBNEW 8.0.1) date 2024-05-15 13:39:00*
%MOMM*%
%LPD*%
G01*
G04 APERTURE LIST*
G04 Aperture macros list*
%AMRoundRect*
0 Rectangle with rounded corners*
0 $1 Rounding radius*
0 $2 $3 $4 $5 $6 $7 $8 $9 X,Y pos of 4 corners*
0 Add a 4 corners polygon primitive as box body*
4,1,4,$2,$3,$4,$5,$6,$7,$8,$9,$2,$3,0*
0 Add four circle primitives for the rounded corners*
1,1,$1+$1,$2,$3*
1,1,$1+$1,$4,$5*
1,1,$1+$1,$6,$7*
1,1,$1+$1,$8,$9*
0 Add four rect primitives between the rounded corners*
20,1,$1+$1,$2,$3,$4,$5,0*
20,1,$1+$1,$4,$5,$6,$7,0*
20,1,$1+$1,$6,$7,$8,$9,0*
20,1,$1+$1,$8,$9,$2,$3,0*%
%AMRotRect*
0 Rectangle, with rotation*
0 The origin of the aperture is its center*
0 $1 length*
0 $2 width*
0 $3 Rotation angle, in degrees counterclockwise*
0 Add horizontal line*
21,1,$1,$2,0,0,$3*%
G04 Aperture macros list end*
%TA.AperFunction,ComponentPad*%
%ADD10C,0.900000*%
%TD*%
%TA.AperFunction,ComponentPad*%
%ADD11C,8.600000*%
%TD*%
%TA.AperFunction,SMDPad,CuDef*%
%ADD12RotRect,1.000000X1.800000X135.000000*%
%TD*%
%TA.AperFunction,SMDPad,CuDef*%
%ADD13RoundRect,0.150000X0.150000X0.200000X-0.150000X0.200000X-0.150000X-0.200000X0.150000X-0.200000X0*%
%TD*%
%TA.AperFunction,SMDPad,CuDef*%
%ADD14RoundRect,0.200000X0.275000X-0.200000X0.275000X0.200000X-0.275000X0.200000X-0.275000X-0.200000X0*%
%TD*%
%TA.AperFunction,SMDPad,CuDef*%
%ADD15RoundRect,0.150000X0.587500X0.150000X-0.587500X0.150000X-0.587500X-0.150000X0.587500X-0.150000X0*%
%TD*%
%TA.AperFunction,SMDPad,CuDef*%
%ADD16RoundRect,0.135000X0.135000X0.185000X-0.135000X0.185000X-0.135000X-0.185000X0.135000X-0.185000X0*%
%TD*%
%TA.AperFunction,SMDPad,CuDef*%
%ADD17R,0.600000X2.000000*%
%TD*%
%TA.AperFunction,ComponentPad*%
%ADD18R,1.350000X1.350000*%
%TD*%
%TA.AperFunction,ComponentPad*%
%ADD19O,1.350000X1.350000*%
%TD*%
%TA.AperFunction,SMDPad,CuDef*%
%ADD20RoundRect,0.150000X-0.500000X0.150000X-0.500000X-0.150000X0.500000X-0.150000X0.500000X0.150000X0*%
%TD*%
%TA.AperFunction,SMDPad,CuDef*%
%ADD21RoundRect,0.075000X-0.575000X0.075000X-0.575000X-0.075000X0.575000X-0.075000X0.575000X0.075000X0*%
%TD*%
%TA.AperFunction,ComponentPad*%
%ADD22O,2.100000X1.000000*%
%TD*%
%TA.AperFunction,ComponentPad*%
%ADD23O,1.600000X1.000000*%
%TD*%
%TA.AperFunction,SMDPad,CuDef*%
%ADD24RoundRect,0.150000X-0.512500X-0.150000X0.512500X-0.150000X0.512500X0.150000X-0.512500X0.150000X0*%
%TD*%
%TA.AperFunction,SMDPad,CuDef*%
%ADD25RoundRect,0.135000X-0.226274X-0.035355X-0.035355X-0.226274X0.226274X0.035355X0.035355X0.226274X0*%
%TD*%
%TA.AperFunction,SMDPad,CuDef*%
%ADD26RoundRect,0.250000X-0.650000X0.325000X-0.650000X-0.325000X0.650000X-0.325000X0.650000X0.325000X0*%
%TD*%
%TA.AperFunction,SMDPad,CuDef*%
%ADD27R,2.700000X0.800000*%
%TD*%
%TA.AperFunction,SMDPad,CuDef*%
%ADD28RoundRect,0.250000X0.550000X-0.250000X0.550000X0.250000X-0.550000X0.250000X-0.550000X-0.250000X0*%
%TD*%
%TA.AperFunction,SMDPad,CuDef*%
%ADD29RoundRect,0.218750X-0.335876X-0.026517X-0.026517X-0.335876X0.335876X0.026517X0.026517X0.335876X0*%
%TD*%
%TA.AperFunction,SMDPad,CuDef*%
%ADD30R,0.889000X0.711200*%
%TD*%
%TA.AperFunction,SMDPad,CuDef*%
%ADD31R,0.660400X0.508000*%
%TD*%
%TA.AperFunction,SMDPad,CuDef*%
%ADD32RoundRect,0.135000X-0.135000X-0.185000X0.135000X-0.185000X0.135000X0.185000X-0.135000X0.185000X0*%
%TD*%
%TA.AperFunction,SMDPad,CuDef*%
%ADD33RoundRect,0.200000X-0.275000X0.200000X-0.275000X-0.200000X0.275000X-0.200000X0.275000X0.200000X0*%
%TD*%
%TA.AperFunction,SMDPad,CuDef*%
%ADD34RoundRect,0.140000X-0.021213X0.219203X-0.219203X0.021213X0.021213X-0.219203X0.219203X-0.021213X0*%
%TD*%
%TA.AperFunction,SMDPad,CuDef*%
%ADD35RoundRect,0.200000X0.335876X0.053033X0.053033X0.335876X-0.335876X-0.053033X-0.053033X-0.335876X0*%
%TD*%
%TA.AperFunction,SMDPad,CuDef*%
%ADD36RoundRect,0.135000X0.185000X-0.135000X0.185000X0.135000X-0.185000X0.135000X-0.185000X-0.135000X0*%
%TD*%
%TA.AperFunction,SMDPad,CuDef*%
%ADD37RoundRect,0.140000X0.219203X0.021213X0.021213X0.219203X-0.219203X-0.021213X-0.021213X-0.219203X0*%
%TD*%
%TA.AperFunction,SMDPad,CuDef*%
%ADD38RoundRect,0.200000X-0.335876X-0.053033X-0.053033X-0.335876X0.335876X0.053033X0.053033X0.335876X0*%
%TD*%
%TA.AperFunction,SMDPad,CuDef*%
%ADD39RoundRect,0.200000X-0.200000X-0.275000X0.200000X-0.275000X0.200000X0.275000X-0.200000X0.275000X0*%
%TD*%
%TA.AperFunction,SMDPad,CuDef*%
%ADD40RoundRect,0.250000X0.650000X-0.325000X0.650000X0.325000X-0.650000X0.325000X-0.650000X-0.325000X0*%
%TD*%
%TA.AperFunction,SMDPad,CuDef*%
%ADD41R,0.406400X0.762000*%
%TD*%
%TA.AperFunction,SMDPad,CuDef*%
%ADD42RoundRect,0.140000X0.021213X-0.219203X0.219203X-0.021213X-0.021213X0.219203X-0.219203X0.021213X0*%
%TD*%
%TA.AperFunction,SMDPad,CuDef*%
%ADD43RoundRect,0.140000X-0.219203X-0.021213X-0.021213X-0.219203X0.219203X0.021213X0.021213X0.219203X0*%
%TD*%
%TA.AperFunction,SMDPad,CuDef*%
%ADD44RoundRect,0.250000X0.375000X0.625000X-0.375000X0.625000X-0.375000X-0.625000X0.375000X-0.625000X0*%
%TD*%
%TA.AperFunction,ComponentPad*%
%ADD45R,1.600000X1.600000*%
%TD*%
%TA.AperFunction,ComponentPad*%
%ADD46C,1.600000*%
%TD*%
%TA.AperFunction,SMDPad,CuDef*%
%ADD47RoundRect,0.250000X-0.325000X-0.650000X0.325000X-0.650000X0.325000X0.650000X-0.325000X0.650000X0*%
%TD*%
%TA.AperFunction,SMDPad,CuDef*%
%ADD48RoundRect,0.075000X0.565685X-0.459619X-0.459619X0.565685X-0.565685X0.459619X0.459619X-0.565685X0*%
%TD*%
%TA.AperFunction,SMDPad,CuDef*%
%ADD49RoundRect,0.075000X0.565685X0.459619X0.459619X0.565685X-0.565685X-0.459619X-0.459619X-0.565685X0*%
%TD*%
%TA.AperFunction,SMDPad,CuDef*%
%ADD50RotRect,1.400000X1.200000X315.000000*%
%TD*%
%TA.AperFunction,SMDPad,CuDef*%
%ADD51RoundRect,0.135000X0.035355X-0.226274X0.226274X-0.035355X-0.035355X0.226274X-0.226274X0.035355X0*%
%TD*%
%TA.AperFunction,ViaPad*%
%ADD52C,0.600000*%
%TD*%
%TA.AperFunction,Conductor*%
%ADD53C,0.200000*%
%TD*%
%TA.AperFunction,Conductor*%
%ADD54C,0.300000*%
%TD*%
%TA.AperFunction,Conductor*%
%ADD55C,1.200000*%
%TD*%
%TA.AperFunction,Conductor*%
%ADD56C,0.177800*%
%TD*%
G04 APERTURE END LIST*
D10*
%TO.P,H2,1,1*%
%TO.N,GND*%
X166775000Y-40000000D03*
X167719581Y-37719581D03*
X167719581Y-42280419D03*
X170000000Y-36775000D03*
D11*
X170000000Y-40000000D03*
D10*
X170000000Y-43225000D03*
X172280419Y-37719581D03*
X172280419Y-42280419D03*
X173225000Y-40000000D03*
%TD*%
D12*
%TO.P,Y1,1,1*%
%TO.N,/LSE_IN*%
X150116117Y-110916117D03*
%TO.P,Y1,2,2*%
%TO.N,Net-(C9-Pad1)*%
X151883883Y-112683883D03*
%TD*%
D13*
%TO.P,D3,1,K*%
%TO.N,Net-(D3-K)*%
X122900000Y-67800000D03*
%TO.P,D3,2,A*%
%TO.N,Net-(D3-A)*%
X124300000Y-67800000D03*
%TD*%
D10*
%TO.P,H4,1,1*%
%TO.N,GND*%
X166775000Y-120000000D03*
X167719581Y-117719581D03*
X167719581Y-122280419D03*
X170000000Y-116775000D03*
D11*
X170000000Y-120000000D03*
D10*
X170000000Y-123225000D03*
X172280419Y-117719581D03*
X172280419Y-122280419D03*
X173225000Y-120000000D03*
%TD*%
D14*
%TO.P,R26,1*%
%TO.N,Net-(U3-NH_DQ3)*%
X169200000Y-94225001D03*
%TO.P,R26,2*%
%TO.N,/QSPI1_IO3*%
X169200000Y-92575001D03*
%TD*%
D15*
%TO.P,Q2,1,G*%
%TO.N,Net-(D3-A)*%
X120937500Y-69750000D03*
%TO.P,Q2,2,S*%
%TO.N,Net-(D3-K)*%
X120937500Y-67850000D03*
%TO.P,Q2,3,D*%
%TO.N,Net-(Q2-D)*%
X119062499Y-68800000D03*
%TD*%
D16*
%TO.P,R10,1*%
%TO.N,+3V3*%
X125109999Y-112200000D03*
%TO.P,R10,2*%
%TO.N,/I2C_SDA*%
X124090001Y-112200000D03*
%TD*%
D17*
%TO.P,U3,1,NCS*%
%TO.N,Net-(U3-NCS)*%
X168095001Y-102725000D03*
%TO.P,U3,2,Q-DQ1*%
%TO.N,Net-(U3-Q-DQ1)*%
X169365000Y-102725000D03*
%TO.P,U3,3,NW-DQ2*%
%TO.N,Net-(U3-NW-DQ2)*%
X170635000Y-102725000D03*
%TO.P,U3,4,VSS*%
%TO.N,GND*%
X171904999Y-102725000D03*
%TO.P,U3,5,D-DQ0*%
%TO.N,Net-(U3-D-DQ0)*%
X171904999Y-97275000D03*
%TO.P,U3,6,CLK*%
%TO.N,Net-(U3-CLK)*%
X170635000Y-97275000D03*
%TO.P,U3,7,NH_DQ3*%
%TO.N,Net-(U3-NH_DQ3)*%
X169365000Y-97275000D03*
%TO.P,U3,8,VCC*%
%TO.N,+3V3*%
X168095001Y-97275000D03*
%TD*%
D18*
%TO.P,A,1,Pin_1*%
%TO.N,/A0*%
X136940000Y-44000000D03*
D19*
%TO.P,A,2,Pin_2*%
%TO.N,/A1*%
X136940000Y-46000000D03*
%TO.P,A,3,Pin_3*%
%TO.N,/A2*%
X136940000Y-48000000D03*
%TO.P,A,4,Pin_4*%
%TO.N,/A3*%
X136940000Y-50000000D03*
%TO.P,A,5,Pin_5*%
%TO.N,/A4*%
X136940000Y-52000000D03*
%TO.P,A,6,Pin_6*%
%TO.N,/A5*%
X136940000Y-54000000D03*
%TO.P,A,7,Pin_7*%
%TO.N,Net-(J4-Pin_7)*%
X136940000Y-56000000D03*
%TO.P,A,8,Pin_8*%
%TO.N,Net-(J4-Pin_8)*%
X136940000Y-58000000D03*
%TO.P,A,9,Pin_9*%
%TO.N,/A8*%
X136940000Y-60000000D03*
%TO.P,A,10,Pin_10*%
%TO.N,/A9*%
X136940000Y-62000000D03*
%TO.P,A,11,Pin_11*%
%TO.N,/A10*%
X136940000Y-64000000D03*
%TO.P,A,12,Pin_12*%
%TO.N,Net-(J4-Pin_12)*%
X136940000Y-66000000D03*
%TO.P,A,13,Pin_13*%
%TO.N,Net-(J4-Pin_13)*%
X136940000Y-68000000D03*
%TO.P,A,14,Pin_14*%
%TO.N,Net-(J4-Pin_14)*%
X136940000Y-70000000D03*
%TO.P,A,15,Pin_15*%
%TO.N,Net-(J4-Pin_15)*%
X136940000Y-72000000D03*
%TO.P,A,16,Pin_16*%
%TO.N,/A15*%
X136940000Y-74000000D03*
%TD*%
D20*
%TO.P,J3,A1,GND*%
%TO.N,GND*%
X122745000Y-76800000D03*
%TO.P,J3,A4,VBUS*%
%TO.N,+5V*%
X122745000Y-77600000D03*
D21*
%TO.P,J3,A5,CC1*%
%TO.N,Net-(J3-CC1)*%
X122744999Y-78750000D03*
%TO.P,J3,A6,D+*%
%TO.N,Net-(J3-D+-PadA6)*%
X122745000Y-79750000D03*
%TO.P,J3,A7,D-*%
%TO.N,Net-(J3-D--PadA7)*%
X122745000Y-80250000D03*
%TO.P,J3,A8,SBU1*%
%TO.N,unconnected-(J3-SBU1-PadA8)*%
X122744999Y-81250000D03*
D20*
%TO.P,J3,A9,VBUS*%
%TO.N,+5V*%
X122745000Y-82400000D03*
%TO.P,J3,A12,GND*%
%TO.N,GND*%
X122745000Y-83200000D03*
%TO.P,J3,B1,GND*%
X122745000Y-83200000D03*
%TO.P,J3,B4,VBUS*%
%TO.N,+5V*%
X122745000Y-82400000D03*
D21*
%TO.P,J3,B5,CC2*%
%TO.N,Net-(J3-CC1)*%
X122745000Y-81750000D03*
%TO.P,J3,B6,D+*%
%TO.N,Net-(J3-D+-PadA6)*%
X122745000Y-80750000D03*
%TO.P,J3,B7,D-*%
%TO.N,Net-(J3-D--PadA7)*%
X122745000Y-79250000D03*
%TO.P,J3,B8,SBU2*%
%TO.N,unconnected-(J3-SBU2-PadB8)*%
X122745000Y-78250000D03*
D20*
%TO.P,J3,B9,VBUS*%
%TO.N,+5V*%
X122745000Y-77600000D03*
%TO.P,J3,B12,GND*%
%TO.N,GND*%
X122745000Y-76800000D03*
D22*
%TO.P,J3,S1,SHIELD*%
%TO.N,unconnected-(J3-SHIELD-PadS1)_2*%
X122105000Y-75680000D03*
D23*
%TO.N,unconnected-(J3-SHIELD-PadS1)_1*%
X117925000Y-75680000D03*
D22*
%TO.N,unconnected-(J3-SHIELD-PadS1)_0*%
X122105000Y-84320000D03*
D23*
%TO.N,unconnected-(J3-SHIELD-PadS1)*%
X117925000Y-84320000D03*
%TD*%
D24*
%TO.P,U4,1,GND*%
%TO.N,GND*%
X121862500Y-58500002D03*
%TO.P,U4,2,SW*%
%TO.N,/power/BUCK_SW*%
X121862500Y-59450001D03*
%TO.P,U4,3,VIN*%
%TO.N,/power/BUCK_EN*%
X121862500Y-60400000D03*
%TO.P,U4,4,VFB*%
%TO.N,/power/BUCK_FB*%
X124137500Y-60400000D03*
%TO.P,U4,5,EN*%
%TO.N,/power/BUCK_EN*%
X124137500Y-59450001D03*
%TO.P,U4,6,VBST*%
%TO.N,/power/BUCK_BST*%
X124137500Y-58500002D03*
%TD*%
D25*
%TO.P,R2,1*%
%TO.N,/LSE_OUT*%
X151239376Y-109200000D03*
%TO.P,R2,2*%
%TO.N,Net-(C9-Pad1)*%
X151960624Y-109921248D03*
%TD*%
D26*
%TO.P,C19,1*%
%TO.N,/power/BUCK_EN*%
X120000000Y-62724999D03*
%TO.P,C19,2*%
%TO.N,GND*%
X120000000Y-65675001D03*
%TD*%
D27*
%TO.P,L2,1*%
%TO.N,/power/BUCK_SW*%
X118600000Y-59350000D03*
%TO.P,L2,2*%
%TO.N,+3V3*%
X118600000Y-57050000D03*
%TD*%
D28*
%TO.P,SW1,1,C*%
%TO.N,GND*%
X137200000Y-122400000D03*
%TO.P,SW1,2,B*%
%TO.N,/BOOT0*%
X134900000Y-120650000D03*
%TO.P,SW1,3,A*%
%TO.N,+3V3*%
X137200000Y-118900000D03*
%TD*%
D29*
%TO.P,L1,1*%
%TO.N,+3.3VA*%
X156043153Y-103043153D03*
%TO.P,L1,2*%
%TO.N,+3V3*%
X157156847Y-104156847D03*
%TD*%
D30*
%TO.P,C18,1,1*%
%TO.N,Net-(D3-K)*%
X123000000Y-65901800D03*
D31*
%TO.P,C18,2,2*%
%TO.N,GND*%
X122530101Y-65050900D03*
D30*
%TO.P,C18,3,3*%
%TO.N,/power/BUCK_EN*%
X123000000Y-64200000D03*
D31*
%TO.P,C18,4*%
%TO.N,GND*%
X123469899Y-65050900D03*
%TD*%
D32*
%TO.P,R9,1*%
%TO.N,+3V3*%
X126090001Y-112200000D03*
%TO.P,R9,2*%
%TO.N,/I2C_SCL*%
X127109999Y-112200000D03*
%TD*%
D10*
%TO.P,H1,1,1*%
%TO.N,GND*%
X116775000Y-40000000D03*
X117719581Y-37719581D03*
X117719581Y-42280419D03*
X120000000Y-36775000D03*
D11*
X120000000Y-40000000D03*
D10*
X120000000Y-43225000D03*
X122280419Y-37719581D03*
X122280419Y-42280419D03*
X123225000Y-40000000D03*
%TD*%
D33*
%TO.P,R21,1*%
%TO.N,GND*%
X126200000Y-51375000D03*
%TO.P,R21,2*%
%TO.N,/power/BUCK_FB*%
X126200000Y-53025000D03*
%TD*%
D34*
%TO.P,C7,1*%
%TO.N,+3V3*%
X151339411Y-107460589D03*
%TO.P,C7,2*%
%TO.N,GND*%
X150660589Y-108139411D03*
%TD*%
D14*
%TO.P,R22,1*%
%TO.N,GND*%
X125560000Y-84625000D03*
%TO.P,R22,2*%
%TO.N,Net-(J3-CC1)*%
X125560000Y-82975000D03*
%TD*%
D35*
%TO.P,R1,1*%
%TO.N,Net-(D1-K)*%
X133383363Y-105783363D03*
%TO.P,R1,2*%
%TO.N,GND*%
X132216637Y-104616637D03*
%TD*%
D29*
%TO.P,D1,1,K*%
%TO.N,Net-(D1-K)*%
X134488217Y-106888217D03*
%TO.P,D1,2,A*%
%TO.N,+3V3*%
X135601911Y-108001911D03*
%TD*%
D36*
%TO.P,R6,1*%
%TO.N,/J1_SWCLK*%
X147000000Y-117099997D03*
%TO.P,R6,2*%
%TO.N,/SWCLK*%
X147000000Y-116079999D03*
%TD*%
D34*
%TO.P,C17,1*%
%TO.N,+3.3VA*%
X154739411Y-104060589D03*
%TO.P,C17,2*%
%TO.N,GND*%
X154060589Y-104739411D03*
%TD*%
D37*
%TO.P,C9,1*%
%TO.N,Net-(C9-Pad1)*%
X150600000Y-114200000D03*
%TO.P,C9,2*%
%TO.N,GND*%
X149921178Y-113521178D03*
%TD*%
%TO.P,C1,1*%
%TO.N,+3V3*%
X141539411Y-111939411D03*
%TO.P,C1,2*%
%TO.N,GND*%
X140860589Y-111260589D03*
%TD*%
D38*
%TO.P,R4,1*%
%TO.N,GND*%
X131085267Y-105748007D03*
%TO.P,R4,2*%
%TO.N,Net-(D2-K)*%
X132251993Y-106914733D03*
%TD*%
D39*
%TO.P,R19,1*%
%TO.N,Net-(D3-A)*%
X122975000Y-69800000D03*
%TO.P,R19,2*%
%TO.N,GND*%
X124625000Y-69800000D03*
%TD*%
D18*
%TO.P,J1,1,Pin_1*%
%TO.N,+3V3*%
X149000000Y-122099998D03*
D19*
%TO.P,J1,2,Pin_2*%
%TO.N,/J1_SWDIO*%
X149000000Y-120099997D03*
%TO.P,J1,3,Pin_3*%
%TO.N,GND*%
X146999999Y-122099998D03*
%TO.P,J1,4,Pin_4*%
%TO.N,/J1_SWCLK*%
X147000000Y-120099998D03*
%TO.P,J1,5,Pin_5*%
%TO.N,GND*%
X145000000Y-122099998D03*
%TO.P,J1,6,Pin_6*%
%TO.N,/J1_SWO*%
X144999999Y-120099998D03*
%TO.P,J1,7,Pin_7*%
%TO.N,unconnected-(J1-Pin_7-Pad7)*%
X143000000Y-122099998D03*
%TO.P,J1,8,Pin_8*%
%TO.N,unconnected-(J1-Pin_8-Pad8)*%
X143000000Y-120099998D03*
%TO.P,J1,9,Pin_9*%
%TO.N,GND*%
X141000000Y-122099998D03*
%TO.P,J1,10,Pin_10*%
%TO.N,/J1_NRST*%
X141000000Y-120099998D03*
%TD*%
D14*
%TO.P,R27,1*%
%TO.N,Net-(U3-CLK)*%
X170800000Y-94225001D03*
%TO.P,R27,2*%
%TO.N,/QSPI1_SCK*%
X170800000Y-92575001D03*
%TD*%
D40*
%TO.P,C22,1*%
%TO.N,+3V3*%
X119200000Y-52875001D03*
%TO.P,C22,2*%
%TO.N,GND*%
X119200000Y-49924999D03*
%TD*%
D41*
%TO.P,FL1,1,1*%
%TO.N,Net-(FL1-Pad1)*%
X130703900Y-79075001D03*
%TO.P,FL1,2,2*%
%TO.N,/USB_DN*%
X129891100Y-79075001D03*
%TO.P,FL1,3,3*%
%TO.N,/USB_DP*%
X129891100Y-80924999D03*
%TO.P,FL1,4,4*%
%TO.N,Net-(FL1-Pad4)*%
X130703900Y-80924999D03*
%TD*%
D37*
%TO.P,C11,1*%
%TO.N,Net-(C11-Pad1)*%
X156339411Y-107339411D03*
%TO.P,C11,2*%
%TO.N,GND*%
X155660589Y-106660589D03*
%TD*%
D42*
%TO.P,C5,1*%
%TO.N,+3V3*%
X145660589Y-88939411D03*
%TO.P,C5,2*%
%TO.N,GND*%
X146339411Y-88260589D03*
%TD*%
D18*
%TO.P,POWER,1,Pin_1*%
%TO.N,GND*%
X152000000Y-40000000D03*
D19*
%TO.P,POWER,2,Pin_2*%
%TO.N,+3V3*%
X152000000Y-37999999D03*
%TO.P,POWER,3,Pin_3*%
%TO.N,GND*%
X149999999Y-40000000D03*
%TO.P,POWER,4,Pin_4*%
%TO.N,+3V3*%
X150000000Y-38000000D03*
%TO.P,POWER,5,Pin_5*%
%TO.N,GND*%
X148000000Y-40000000D03*
%TO.P,POWER,6,Pin_6*%
%TO.N,+3V3*%
X147999999Y-38000000D03*
%TO.P,POWER,7,Pin_7*%
%TO.N,GND*%
X146000000Y-40000000D03*
%TO.P,POWER,8,Pin_8*%
%TO.N,+3V3*%
X146000000Y-38000000D03*
%TO.P,POWER,9,Pin_9*%
%TO.N,GND*%
X144000000Y-40000000D03*
%TO.P,POWER,10,Pin_10*%
%TO.N,+5V*%
X144000000Y-38000000D03*
%TO.P,POWER,11,Pin_11*%
%TO.N,GND*%
X142000000Y-40000000D03*
%TO.P,POWER,12,Pin_12*%
%TO.N,+5V*%
X142000000Y-38000000D03*
%TO.P,POWER,13,Pin_13*%
%TO.N,GND*%
X140000001Y-40000000D03*
%TO.P,POWER,14,Pin_14*%
%TO.N,+5V*%
X140000000Y-38000000D03*
%TO.P,POWER,15,Pin_15*%
%TO.N,GND*%
X138000000Y-40000000D03*
%TO.P,POWER,16,Pin_16*%
%TO.N,+5V*%
X138000001Y-38000000D03*
%TD*%
D26*
%TO.P,C20,1*%
%TO.N,/power/BUCK_EN*%
X126000000Y-62724999D03*
%TO.P,C20,2*%
%TO.N,GND*%
X126000000Y-65675001D03*
%TD*%
D43*
%TO.P,C8,1*%
%TO.N,/LSE_IN*%
X148460589Y-112060589D03*
%TO.P,C8,2*%
%TO.N,GND*%
X149139411Y-112739411D03*
%TD*%
D18*
%TO.P,B,1,Pin_1*%
%TO.N,Net-(J5-Pin_1)*%
X140990000Y-44000000D03*
D19*
%TO.P,B,2,Pin_2*%
%TO.N,Net-(J5-Pin_2)*%
X140990000Y-46000000D03*
%TO.P,B,3,Pin_3*%
%TO.N,Net-(J5-Pin_3)*%
X140990000Y-48000000D03*
%TO.P,B,4,Pin_4*%
%TO.N,Net-(J5-Pin_4)*%
X140990000Y-50000000D03*
%TO.P,B,5,Pin_5*%
%TO.N,/B4*%
X140990000Y-52000000D03*
%TO.P,B,6,Pin_6*%
%TO.N,/B5*%
X140990000Y-54000000D03*
%TO.P,B,7,Pin_7*%
%TO.N,Net-(J5-Pin_7)*%
X140990000Y-56000000D03*
%TO.P,B,8,Pin_8*%
%TO.N,Net-(J5-Pin_8)*%
X140990000Y-58000000D03*
%TO.P,B,9,Pin_9*%
%TO.N,/B8*%
X140990000Y-60000000D03*
%TO.P,B,10,Pin_10*%
%TO.N,/B9*%
X140990000Y-62000000D03*
%TO.P,B,11,Pin_11*%
%TO.N,Net-(J5-Pin_11)*%
X140990000Y-64000000D03*
%TO.P,B,12,Pin_12*%
%TO.N,Net-(J5-Pin_12)*%
X140990000Y-66000000D03*
%TO.P,B,13,Pin_13*%
%TO.N,Net-(J5-Pin_13)*%
X140990000Y-68000000D03*
%TO.P,B,14,Pin_14*%
%TO.N,Net-(J5-Pin_14)*%
X140990000Y-70000000D03*
%TO.P,B,15,Pin_15*%
%TO.N,Net-(J5-Pin_15)*%
X140990000Y-72000000D03*
%TO.P,B,16,Pin_16*%
%TO.N,Net-(J5-Pin_16)*%
X140990000Y-74000000D03*
%TD*%
D44*
%TO.P,F1,1*%
%TO.N,+5V*%
X121799999Y-72100000D03*
%TO.P,F1,2*%
%TO.N,Net-(Q2-D)*%
X119000001Y-72100000D03*
%TD*%
D40*
%TO.P,C23,1*%
%TO.N,+3V3*%
X121800000Y-52875001D03*
%TO.P,C23,2*%
%TO.N,GND*%
X121800000Y-49924999D03*
%TD*%
D34*
%TO.P,C2,1*%
%TO.N,+3V3*%
X149339411Y-109460589D03*
%TO.P,C2,2*%
%TO.N,GND*%
X148660589Y-110139411D03*
%TD*%
D45*
%TO.P,J2,1,Pin_1*%
%TO.N,GND*%
X118390000Y-100190000D03*
D46*
%TO.P,J2,2,Pin_2*%
X118390000Y-102730000D03*
%TO.P,J2,3,Pin_3*%
X118390000Y-105270000D03*
%TO.P,J2,4,Pin_4*%
X118390000Y-107810000D03*
%TO.P,J2,5,Pin_5*%
%TO.N,/I2C_SDA*%
X126010000Y-107810000D03*
%TO.P,J2,6,Pin_6*%
%TO.N,/I2C_SCL*%
X126010000Y-105270000D03*
%TO.P,J2,7,Pin_7*%
%TO.N,GND*%
X126010000Y-102730000D03*
%TO.P,J2,8,Pin_8*%
%TO.N,+3V3*%
X126010000Y-100190000D03*
%TD*%
D29*
%TO.P,D2,1,K*%
%TO.N,Net-(D2-K)*%
X133356847Y-108019587D03*
%TO.P,D2,2,A*%
%TO.N,/STATUS_LED*%
X134470541Y-109133281D03*
%TD*%
D47*
%TO.P,C21,1*%
%TO.N,/power/BUCK_SW*%
X121525000Y-56000000D03*
%TO.P,C21,2*%
%TO.N,/power/BUCK_BST*%
X124475000Y-56000000D03*
%TD*%
D10*
%TO.P,H3,1,1*%
%TO.N,GND*%
X116775000Y-120000000D03*
X117719581Y-117719581D03*
X117719581Y-122280419D03*
X120000000Y-116775000D03*
D11*
X120000000Y-120000000D03*
D10*
X120000000Y-123225000D03*
X122280419Y-117719581D03*
X122280419Y-122280419D03*
X123225000Y-120000000D03*
%TD*%
D14*
%TO.P,R24,1*%
%TO.N,/QSPI1_IO1*%
X169199999Y-107450000D03*
%TO.P,R24,2*%
%TO.N,Net-(U3-Q-DQ1)*%
X169199999Y-105800000D03*
%TD*%
D37*
%TO.P,C12,1*%
%TO.N,Net-(C12-Pad1)*%
X148339411Y-89539411D03*
%TO.P,C12,2*%
%TO.N,GND*%
X147660589Y-88860589D03*
%TD*%
D33*
%TO.P,R20,1*%
%TO.N,/power/BUCK_FB*%
X124600000Y-51375000D03*
%TO.P,R20,2*%
%TO.N,+3V3*%
X124600000Y-53025000D03*
%TD*%
D14*
%TO.P,R28,1*%
%TO.N,Net-(U3-D-DQ0)*%
X172399999Y-94250000D03*
%TO.P,R28,2*%
%TO.N,/QSPI1_IO0*%
X172399999Y-92600000D03*
%TD*%
%TO.P,R25,1*%
%TO.N,/QSPI1_IO2*%
X170800000Y-107425000D03*
%TO.P,R25,2*%
%TO.N,Net-(U3-NW-DQ2)*%
X170800000Y-105775000D03*
%TD*%
D48*
%TO.P,U1,1,PE2*%
%TO.N,/E2*%
X146184404Y-109669685D03*
%TO.P,U1,2,PE3*%
%TO.N,/E3*%
X146537957Y-109316132D03*
%TO.P,U1,3,PE4*%
%TO.N,/E4*%
X146891511Y-108962578D03*
%TO.P,U1,4,PE5*%
%TO.N,/E5*%
X147245064Y-108609025D03*
%TO.P,U1,5,PE6*%
%TO.N,/E6*%
X147598617Y-108255472D03*
%TO.P,U1,6,VBAT*%
%TO.N,+3V3*%
X147952171Y-107901918D03*
%TO.P,U1,7,PC13*%
%TO.N,/C13*%
X148305724Y-107548365D03*
%TO.P,U1,8,PC14*%
%TO.N,/LSE_IN*%
X148659278Y-107194811D03*
%TO.P,U1,9,PC15*%
%TO.N,/LSE_OUT*%
X149012831Y-106841258D03*
%TO.P,U1,10,VSS*%
%TO.N,GND*%
X149366384Y-106487705D03*
%TO.P,U1,11,VDD*%
%TO.N,+3V3*%
X149719938Y-106134151D03*
%TO.P,U1,12,PH0*%
%TO.N,/HSE_IN*%
X150073491Y-105780598D03*
%TO.P,U1,13,PH1*%
%TO.N,/HSE_OUT*%
X150427045Y-105427045D03*
%TO.P,U1,14,NRST*%
%TO.N,/NRST*%
X150780598Y-105073491D03*
%TO.P,U1,15,PC0*%
%TO.N,/STATUS_LED*%
X151134151Y-104719938D03*
%TO.P,U1,16,PC1*%
%TO.N,/C1*%
X151487705Y-104366384D03*
%TO.P,U1,17,PC2_C*%
%TO.N,/C2_C*%
X151841258Y-104012831D03*
%TO.P,U1,18,PC3_C*%
%TO.N,/C3_C*%
X152194811Y-103659278D03*
%TO.P,U1,19,VSSA*%
%TO.N,GND*%
X152548365Y-103305724D03*
%TO.P,U1,20,VREF+*%
%TO.N,unconnected-(U1-VREF+-Pad20)*%
X152901918Y-102952171D03*
%TO.P,U1,21,VDDA*%
%TO.N,+3.3VA*%
X153255472Y-102598617D03*
%TO.P,U1,22,PA0*%
%TO.N,/A0*%
X153609025Y-102245064D03*
%TO.P,U1,23,PA1*%
%TO.N,/A1*%
X153962578Y-101891511D03*
%TO.P,U1,24,PA2*%
%TO.N,/A2*%
X154316132Y-101537957D03*
%TO.P,U1,25,PA3*%
%TO.N,/A3*%
X154669685Y-101184404D03*
D49*
%TO.P,U1,26,VSS*%
%TO.N,GND*%
X154669685Y-98815596D03*
%TO.P,U1,27,VDD*%
%TO.N,+3V3*%
X154316132Y-98462043D03*
%TO.P,U1,28,PA4*%
%TO.N,/A4*%
X153962578Y-98108489D03*
%TO.P,U1,29,PA5*%
%TO.N,/A5*%
X153609025Y-97754936D03*
%TO.P,U1,30,PA6*%
%TO.N,/QSPI1_IO3*%
X153255472Y-97401383D03*
%TO.P,U1,31,PA7*%
%TO.N,/QSPI1_IO2*%
X152901918Y-97047829D03*
%TO.P,U1,32,PC4*%
%TO.N,/C4*%
X152548365Y-96694276D03*
%TO.P,U1,33,PC5*%
%TO.N,/C5*%
X152194811Y-96340722D03*
%TO.P,U1,34,PB0*%
%TO.N,/QSPI1_IO1*%
X151841258Y-95987169D03*
%TO.P,U1,35,PB1*%
%TO.N,/QSPI1_IO0*%
X151487705Y-95633616D03*
%TO.P,U1,36,PB2*%
%TO.N,/QSPI1_SCK*%
X151134151Y-95280062D03*
%TO.P,U1,37,PE7*%
%TO.N,/E7*%
X150780598Y-94926509D03*
%TO.P,U1,38,PE8*%
%TO.N,/E8*%
X150427045Y-94572955D03*
%TO.P,U1,39,PE9*%
%TO.N,/E9*%
X150073491Y-94219402D03*
%TO.P,U1,40,PE10*%
%TO.N,/E10*%
X149719938Y-93865849D03*
%TO.P,U1,41,PE11*%
%TO.N,/QSPI1_NSS*%
X149366384Y-93512295D03*
%TO.P,U1,42,PE12*%
%TO.N,/E12*%
X149012831Y-93158742D03*
%TO.P,U1,43,PE13*%
%TO.N,/E13*%
X148659278Y-92805189D03*
%TO.P,U1,44,PE14*%
%TO.N,/E14*%
X148305724Y-92451635D03*
%TO.P,U1,45,PE15*%
%TO.N,/E15*%
X147952171Y-92098082D03*
%TO.P,U1,46,PB10*%
%TO.N,/LCD_BACKLIGHT*%
X147598617Y-91744528D03*
%TO.P,U1,47,PB11*%
%TO.N,/LCD_RESET*%
X147245064Y-91390975D03*
%TO.P,U1,48,VCAP*%
%TO.N,Net-(C12-Pad1)*%
X146891511Y-91037422D03*
%TO.P,U1,49,VSS*%
%TO.N,GND*%
X146537957Y-90683868D03*
%TO.P,U1,50,VDD*%
%TO.N,+3V3*%
X146184404Y-90330315D03*
D48*
%TO.P,U1,51,PB12*%
%TO.N,/SPI2_NSS*%
X143815596Y-90330315D03*
%TO.P,U1,52,PB13*%
%TO.N,/SPI2_SCK*%
X143462043Y-90683868D03*
%TO.P,U1,53,PB14*%
%TO.N,/LCD_COMMAND*%
X143108489Y-91037422D03*
%TO.P,U1,54,PB15*%
%TO.N,/SPI2_MOSI*%
X142754936Y-91390975D03*
%TO.P,U1,55,PD8*%
%TO.N,/D8*%
X142401383Y-91744528D03*
%TO.P,U1,56,PD9*%
%TO.N,/D9*%
X142047829Y-92098082D03*
%TO.P,U1,57,PD10*%
%TO.N,/D10*%
X141694276Y-92451635D03*
%TO.P,U1,58,PD11*%
%TO.N,/D11*%
X141340722Y-92805189D03*
%TO.P,U1,59,PD12*%
%TO.N,/D12*%
X140987169Y-93158742D03*
%TO.P,U1,60,PD13*%
%TO.N,/D13*%
X140633616Y-93512295D03*
%TO.P,U1,61,PD14*%
%TO.N,/D14*%
X140280062Y-93865849D03*
%TO.P,U1,62,PD15*%
%TO.N,/D15*%
X139926509Y-94219402D03*
%TO.P,U1,63,PC6*%
%TO.N,/C6*%
X139572955Y-94572955D03*
%TO.P,U1,64,PC7*%
%TO.N,/C7*%
X139219402Y-94926509D03*
%TO.P,U1,65,PC8*%
%TO.N,/C8*%
X138865849Y-95280062D03*
%TO.P,U1,66,PC9*%
%TO.N,/C9*%
X138512295Y-95633616D03*
%TO.P,U1,67,PA8*%
%TO.N,/A8*%
X138158742Y-95987169D03*
%TO.P,U1,68,PA9*%
%TO.N,/A9*%
X137805189Y-96340722D03*
%TO.P,U1,69,PA10*%
%TO.N,/A10*%
X137451635Y-96694276D03*
%TO.P,U1,70,PA11*%
%TO.N,/USB_DN*%
X137098082Y-97047829D03*
%TO.P,U1,71,PA12*%
%TO.N,/USB_DP*%
X136744528Y-97401383D03*
%TO.P,U1,72,PA13*%
%TO.N,/SWDIO*%
X136390975Y-97754936D03*
%TO.P,U1,73,VCAP*%
%TO.N,Net-(C13-Pad1)*%
X136037422Y-98108489D03*
%TO.P,U1,74,VSS*%
%TO.N,GND*%
X135683868Y-98462043D03*
%TO.P,U1,75,VDD*%
%TO.N,+3V3*%
X135330315Y-98815596D03*
D49*
%TO.P,U1,76,PA14*%
%TO.N,/SWCLK*%
X135330315Y-101184404D03*
%TO.P,U1,77,PA15*%
%TO.N,/A15*%
X135683868Y-101537957D03*
%TO.P,U1,78,PC10*%
%TO.N,/C10*%
X136037422Y-101891511D03*
%TO.P,U1,79,PC11*%
%TO.N,/C11*%
X136390975Y-102245064D03*
%TO.P,U1,80,PC12*%
%TO.N,/C12*%
X136744528Y-102598617D03*
%TO.P,U1,81,PD0*%
%TO.N,/D0*%
X137098082Y-102952171D03*
%TO.P,U1,82,PD1*%
%TO.N,/D1*%
X137451635Y-103305724D03*
%TO.P,U1,83,PD2*%
%TO.N,/D2*%
X137805189Y-103659278D03*
%TO.P,U1,84,PD3*%
%TO.N,/D3*%
X138158742Y-104012831D03*
%TO.P,U1,85,PD4*%
%TO.N,/D4*%
X138512295Y-104366384D03*
%TO.P,U1,86,PD5*%
%TO.N,/D5*%
X138865849Y-104719938D03*
%TO.P,U1,87,PD6*%
%TO.N,/D6*%
X139219402Y-105073491D03*
%TO.P,U1,88,PD7*%
%TO.N,/D7*%
X139572955Y-105427045D03*
%TO.P,U1,89,PB3*%
%TO.N,/SWO*%
X139926509Y-105780598D03*
%TO.P,U1,90,PB4*%
%TO.N,/B4*%
X140280062Y-106134151D03*
%TO.P,U1,91,PB5*%
%TO.N,/B5*%
X140633616Y-106487705D03*
%TO.P,U1,92,PB6*%
%TO.N,/I2C_SCL*%
X140987169Y-106841258D03*
%TO.P,U1,93,PB7*%
%TO.N,/I2C_SDA*%
X141340722Y-107194811D03*
%TO.P,U1,94,BOOT0*%
%TO.N,/BOOT0*%
X141694276Y-107548365D03*
%TO.P,U1,95,PB8*%
%TO.N,/B8*%
X142047829Y-107901918D03*
%TO.P,U1,96,PB9*%
%TO.N,/B9*%
X142401383Y-108255472D03*
%TO.P,U1,97,PE0*%
%TO.N,/E0*%
X142754936Y-108609025D03*
%TO.P,U1,98,PE1*%
%TO.N,/E1*%
X143108489Y-108962578D03*
%TO.P,U1,99,VSS*%
%TO.N,GND*%
X143462043Y-109316132D03*
%TO.P,U1,100,VDD*%
%TO.N,+3V3*%
X143815596Y-109669685D03*
%TD*%
D34*
%TO.P,C13,1*%
%TO.N,Net-(C13-Pad1)*%
X134539411Y-96660589D03*
%TO.P,C13,2*%
%TO.N,GND*%
X133860589Y-97339411D03*
%TD*%
%TO.P,C16,1*%
%TO.N,+3.3VA*%
X155539411Y-104860589D03*
%TO.P,C16,2*%
%TO.N,GND*%
X154860589Y-105539411D03*
%TD*%
D36*
%TO.P,R7,1*%
%TO.N,/J1_SWO*%
X145000000Y-117099998D03*
%TO.P,R7,2*%
%TO.N,/SWO*%
X145000000Y-116080000D03*
%TD*%
D14*
%TO.P,R23,1*%
%TO.N,/QSPI1_NSS*%
X167599999Y-107425000D03*
%TO.P,R23,2*%
%TO.N,Net-(U3-NCS)*%
X167599999Y-105775000D03*
%TD*%
D18*
%TO.P,E,1,Pin_1*%
%TO.N,/E0*%
X153140000Y-44000000D03*
D19*
%TO.P,E,2,Pin_2*%
%TO.N,/E1*%
X153140000Y-46000000D03*
%TO.P,E,3,Pin_3*%
%TO.N,/E2*%
X153140000Y-48000000D03*
%TO.P,E,4,Pin_4*%
%TO.N,/E3*%
X153140000Y-50000000D03*
%TO.P,E,5,Pin_5*%
%TO.N,/E4*%
X153140000Y-52000000D03*
%TO.P,E,6,Pin_6*%
%TO.N,/E5*%
X153140000Y-54000000D03*
%TO.P,E,7,Pin_7*%
%TO.N,/E6*%
X153140000Y-56000000D03*
%TO.P,E,8,Pin_8*%
%TO.N,/E7*%
X153140000Y-58000000D03*
%TO.P,E,9,Pin_9*%
%TO.N,/E8*%
X153140000Y-60000000D03*
%TO.P,E,10,Pin_10*%
%TO.N,/E9*%
X153140000Y-62000000D03*
%TO.P,E,11,Pin_11*%
%TO.N,/E10*%
X153140000Y-64000000D03*
%TO.P,E,12,Pin_12*%
%TO.N,Net-(J8-Pin_12)*%
X153140000Y-66000000D03*
%TO.P,E,13,Pin_13*%
%TO.N,/E12*%
X153140000Y-68000000D03*
%TO.P,E,14,Pin_14*%
%TO.N,/E13*%
X153140000Y-70000000D03*
%TO.P,E,15,Pin_15*%
%TO.N,/E14*%
X153140000Y-72000000D03*
%TO.P,E,16,Pin_16*%
%TO.N,/E15*%
X153140000Y-74000000D03*
%TD*%
D43*
%TO.P,C6,1*%
%TO.N,+3V3*%
X155460589Y-96660589D03*
%TO.P,C6,2*%
%TO.N,GND*%
X156139411Y-97339411D03*
%TD*%
D50*
%TO.P,Y2,1,1*%
%TO.N,/HSE_IN*%
X152797919Y-108402081D03*
%TO.P,Y2,2,2*%
%TO.N,GND*%
X154353554Y-109957716D03*
%TO.P,Y2,3,3*%
%TO.N,Net-(C11-Pad1)*%
X155555635Y-108755635D03*
%TO.P,Y2,4,4*%
%TO.N,GND*%
X154000000Y-107200000D03*
%TD*%
D18*
%TO.P,C,1,Pin_1*%
%TO.N,Net-(J6-Pin_1)*%
X145040000Y-44000000D03*
D19*
%TO.P,C,2,Pin_2*%
%TO.N,/C1*%
X145040000Y-46000000D03*
%TO.P,C,3,Pin_3*%
%TO.N,/C2_C*%
X145040000Y-48000000D03*
%TO.P,C,4,Pin_4*%
%TO.N,/C3_C*%
X145040000Y-50000000D03*
%TO.P,C,5,Pin_5*%
%TO.N,/C4*%
X145040000Y-52000000D03*
%TO.P,C,6,Pin_6*%
%TO.N,/C5*%
X145040000Y-54000000D03*
%TO.P,C,7,Pin_7*%
%TO.N,/C6*%
X145040000Y-56000000D03*
%TO.P,C,8,Pin_8*%
%TO.N,/C7*%
X145040000Y-58000000D03*
%TO.P,C,9,Pin_9*%
%TO.N,/C8*%
X145040000Y-60000000D03*
%TO.P,C,10,Pin_10*%
%TO.N,/C9*%
X145040000Y-62000000D03*
%TO.P,C,11,Pin_11*%
%TO.N,/C10*%
X145040000Y-64000000D03*
%TO.P,C,12,Pin_12*%
%TO.N,/C11*%
X145040000Y-66000000D03*
%TO.P,C,13,Pin_13*%
%TO.N,/C12*%
X145040000Y-68000000D03*
%TO.P,C,14,Pin_14*%
%TO.N,/C13*%
X145040000Y-70000000D03*
%TO.P,C,15,Pin_15*%
%TO.N,unconnected-(J6-Pin_15-Pad15)*%
X145040000Y-72000000D03*
%TO.P,C,16,Pin_16*%
%TO.N,unconnected-(J6-Pin_16-Pad16)*%
X145040000Y-74000000D03*
%TD*%
D36*
%TO.P,R8,1*%
%TO.N,/J1_NRST*%
X141000000Y-117099998D03*
%TO.P,R8,2*%
%TO.N,/NRST*%
X141000000Y-116080000D03*
%TD*%
D24*
%TO.P,U5,1,I/O1*%
%TO.N,Net-(J3-D--PadA7)*%
X125760000Y-79050001D03*
%TO.P,U5,2,GND*%
%TO.N,GND*%
X125760000Y-80000000D03*
%TO.P,U5,3,I/O2*%
%TO.N,Net-(J3-D+-PadA6)*%
X125760000Y-80949999D03*
%TO.P,U5,4,I/O2*%
%TO.N,Net-(FL1-Pad4)*%
X128035000Y-80949999D03*
%TO.P,U5,5,VBUS*%
%TO.N,+5V*%
X128035000Y-80000000D03*
%TO.P,U5,6,I/O1*%
%TO.N,Net-(FL1-Pad1)*%
X128035000Y-79050001D03*
%TD*%
D36*
%TO.P,R11,1*%
%TO.N,/QSPI1_NSS*%
X165800000Y-106509999D03*
%TO.P,R11,2*%
%TO.N,+3V3*%
X165800000Y-105490001D03*
%TD*%
D18*
%TO.P,D,1,Pin_1*%
%TO.N,/D0*%
X149090000Y-44000000D03*
D19*
%TO.P,D,2,Pin_2*%
%TO.N,/D1*%
X149090000Y-46000000D03*
%TO.P,D,3,Pin_3*%
%TO.N,/D2*%
X149090000Y-48000000D03*
%TO.P,D,4,Pin_4*%
%TO.N,/D3*%
X149090000Y-50000000D03*
%TO.P,D,5,Pin_5*%
%TO.N,/D4*%
X149090000Y-52000000D03*
%TO.P,D,6,Pin_6*%
%TO.N,/D5*%
X149090000Y-54000000D03*
%TO.P,D,7,Pin_7*%
%TO.N,/D6*%
X149090000Y-56000000D03*
%TO.P,D,8,Pin_8*%
%TO.N,/D7*%
X149090000Y-58000000D03*
%TO.P,D,9,Pin_9*%
%TO.N,/D8*%
X149090000Y-60000000D03*
%TO.P,D,10,Pin_10*%
%TO.N,/D9*%
X149090000Y-62000000D03*
%TO.P,D,11,Pin_11*%
%TO.N,/D10*%
X149090000Y-64000000D03*
%TO.P,D,12,Pin_12*%
%TO.N,/D11*%
X149090000Y-66000000D03*
%TO.P,D,13,Pin_13*%
%TO.N,/D12*%
X149090000Y-68000000D03*
%TO.P,D,14,Pin_14*%
%TO.N,/D13*%
X149090000Y-70000000D03*
%TO.P,D,15,Pin_15*%
%TO.N,/D14*%
X149090000Y-72000000D03*
%TO.P,D,16,Pin_16*%
%TO.N,/D15*%
X149090000Y-74000000D03*
%TD*%
D37*
%TO.P,C3,1*%
%TO.N,+3V3*%
X142339411Y-111139411D03*
%TO.P,C3,2*%
%TO.N,GND*%
X141660589Y-110460589D03*
%TD*%
D36*
%TO.P,R5,1*%
%TO.N,/J1_SWDIO*%
X149000000Y-117099998D03*
%TO.P,R5,2*%
%TO.N,/SWDIO*%
X149000000Y-116080000D03*
%TD*%
D37*
%TO.P,C4,1*%
%TO.N,+3V3*%
X133939411Y-99400000D03*
%TO.P,C4,2*%
%TO.N,GND*%
X133260589Y-98721178D03*
%TD*%
D51*
%TO.P,R3,1*%
%TO.N,/HSE_OUT*%
X152439376Y-106360624D03*
%TO.P,R3,2*%
%TO.N,Net-(C11-Pad1)*%
X153160624Y-105639376D03*
%TD*%
D43*
%TO.P,C10,1*%
%TO.N,/HSE_IN*%
X152660589Y-110660589D03*
%TO.P,C10,2*%
%TO.N,GND*%
X153339411Y-111339411D03*
%TD*%
D52*
%TO.N,+3V3*%
X127200000Y-113200000D03*
X167117251Y-59200000D03*
X146866892Y-89167423D03*
X148600000Y-111000000D03*
X136600000Y-109000000D03*
X144400000Y-110600000D03*
X142392892Y-112607108D03*
X151927206Y-107575736D03*
X166400000Y-104200000D03*
X162600000Y-50600000D03*
X153299934Y-99500065D03*
X168627250Y-55400000D03*
X124600000Y-54200000D03*
X167800000Y-95200000D03*
X168627250Y-63900000D03*
X139000000Y-118800000D03*
X166600000Y-65800000D03*
X119400000Y-56000000D03*
X117400000Y-52800000D03*
X126200000Y-113200000D03*
X117800000Y-56000000D03*
X134200000Y-100600000D03*
X151200000Y-122000000D03*
X156600000Y-105200000D03*
X121800000Y-54200000D03*
%TO.N,GND*%
X121400000Y-66200000D03*
X131200000Y-103600000D03*
X126000000Y-68425000D03*
X139000000Y-123000000D03*
X123600000Y-49924999D03*
X172400000Y-104800000D03*
X124600000Y-66200000D03*
X168627250Y-56400000D03*
X168627250Y-50400000D03*
X154211003Y-108394579D03*
X124580000Y-83820000D03*
X154000000Y-112000000D03*
X124600000Y-76800000D03*
X148017158Y-88017158D03*
X168700000Y-58900000D03*
X168627250Y-64880000D03*
X156600758Y-97952229D03*
X117400000Y-50000000D03*
X120600000Y-58400000D03*
X165289750Y-54200000D03*
X130000000Y-104800000D03*
X153521320Y-104278680D03*
X168627250Y-53000000D03*
X139000000Y-121800000D03*
X132600000Y-98000000D03*
X151378949Y-108347778D03*
X150000000Y-112600000D03*
X147918007Y-111500085D03*
X140292892Y-110507108D03*
%TO.N,/STATUS_LED*%
X143975735Y-113624265D03*
X150206210Y-103340371D03*
X135400000Y-110000000D03*
X145400000Y-112200000D03*
%TO.N,/USB_DN*%
X130145000Y-77800000D03*
%TO.N,/USB_DP*%
X130145000Y-82200000D03*
%TO.N,/A0*%
X155000000Y-118400000D03*
%TO.N,/A3*%
X156800000Y-117200000D03*
%TO.N,/A2*%
X157590538Y-117318228D03*
%TO.N,/A1*%
X155800000Y-118000000D03*
%TO.N,/A4*%
X158200000Y-116800000D03*
%TO.N,/A5*%
X159000000Y-116400000D03*
%TO.N,/A15*%
X136800000Y-100400000D03*
%TO.N,Net-(J5-Pin_13)*%
X159600000Y-60400000D03*
%TO.N,Net-(J5-Pin_8)*%
X137000000Y-86800000D03*
%TO.N,Net-(J5-Pin_12)*%
X158200000Y-55000000D03*
%TO.N,Net-(J5-Pin_14)*%
X159400000Y-63000000D03*
%TO.N,Net-(J5-Pin_2)*%
X166200000Y-86400000D03*
%TO.N,/B8*%
X142729133Y-106756070D03*
%TO.N,Net-(J5-Pin_15)*%
X159400000Y-65600000D03*
%TO.N,Net-(J5-Pin_16)*%
X158799260Y-64247789D03*
%TO.N,Net-(J5-Pin_1)*%
X169000000Y-113000000D03*
%TO.N,/B5*%
X141545683Y-105523592D03*
%TO.N,Net-(J5-Pin_11)*%
X159400000Y-55200000D03*
%TO.N,Net-(J5-Pin_7)*%
X140400000Y-84400000D03*
X137000943Y-87799057D03*
%TO.N,Net-(J5-Pin_4)*%
X136624265Y-89024265D03*
%TO.N,/B4*%
X140948479Y-104970557D03*
%TO.N,/B9*%
X142148479Y-104973222D03*
%TO.N,Net-(J5-Pin_3)*%
X173275735Y-85800000D03*
%TO.N,/C13*%
X146464215Y-77032843D03*
X148600000Y-98800000D03*
%TO.N,/C9*%
X144600000Y-76000000D03*
%TO.N,/C3_C*%
X145276012Y-93194259D03*
%TO.N,/C4*%
X151700000Y-97900000D03*
%TO.N,/C8*%
X145200000Y-76600000D03*
%TO.N,/C1*%
X141000000Y-95000000D03*
%TO.N,/C11*%
X142824265Y-95741423D03*
X143375735Y-76624265D03*
%TO.N,/C2_C*%
X144585269Y-92790677D03*
%TO.N,/C12*%
X143372457Y-96324080D03*
X143975735Y-77224265D03*
%TO.N,/C6*%
X145175735Y-75375735D03*
%TO.N,/C5*%
X151134313Y-97334313D03*
%TO.N,Net-(J6-Pin_1)*%
X136024265Y-89624265D03*
%TO.N,/C7*%
X145231372Y-78231373D03*
%TO.N,/C10*%
X142606692Y-76407523D03*
X142224265Y-95175735D03*
%TO.N,/D2*%
X131435279Y-91516329D03*
X135176442Y-41009422D03*
X134235209Y-71553321D03*
%TO.N,/D0*%
X136800000Y-41000000D03*
X132547200Y-90275735D03*
X135400000Y-70400000D03*
%TO.N,/D4*%
X154600000Y-52000000D03*
X145000000Y-95179858D03*
X159400000Y-76600000D03*
X153201396Y-89019483D03*
%TO.N,/D9*%
X149748530Y-79100000D03*
%TO.N,/D6*%
X146200000Y-96379839D03*
X155200445Y-87019483D03*
X154117161Y-89800776D03*
%TO.N,/D7*%
X154401396Y-89018643D03*
X146800000Y-96979903D03*
X154401396Y-87019483D03*
%TO.N,/D3*%
X133669522Y-72119008D03*
X130869519Y-92081943D03*
X134376546Y-40996348D03*
%TO.N,/D8*%
X149800000Y-80000000D03*
%TO.N,/D10*%
X149767521Y-78226594D03*
%TO.N,/D11*%
X149772793Y-77372793D03*
%TO.N,/D5*%
X159407108Y-75207108D03*
X153200613Y-89819485D03*
X145600000Y-95779903D03*
%TO.N,/D1*%
X134800896Y-70987633D03*
X132000000Y-90949677D03*
X135975735Y-40975735D03*
%TO.N,/E8*%
X157072078Y-74667625D03*
X155281780Y-63582843D03*
X157310662Y-77303554D03*
%TO.N,/E1*%
X155800000Y-49400000D03*
X144636212Y-108436212D03*
X161047655Y-101800393D03*
%TO.N,/E4*%
X161915805Y-44561393D03*
X147136800Y-105214671D03*
X163447661Y-101800000D03*
%TO.N,/E10*%
X155907108Y-78707108D03*
%TO.N,/E13*%
X154507108Y-80107108D03*
%TO.N,/E2*%
X161847657Y-101799975D03*
X155000000Y-49000000D03*
X146379533Y-104243565D03*
%TO.N,/E12*%
X155207108Y-79407108D03*
%TO.N,/E6*%
X147115786Y-106901429D03*
X161800000Y-42800000D03*
X165047667Y-101800000D03*
%TO.N,/E5*%
X161896456Y-43693514D03*
X164247664Y-101800000D03*
X147084343Y-106084343D03*
%TO.N,/E3*%
X162647659Y-101800002D03*
X146335813Y-105135815D03*
%TO.N,/E14*%
X153807108Y-80807108D03*
%TO.N,/E9*%
X156506390Y-75233312D03*
X154600000Y-64000000D03*
X156607108Y-78007108D03*
%TO.N,/E7*%
X157962439Y-76651777D03*
X155904960Y-64084491D03*
X157637765Y-74101938D03*
%TO.N,/E0*%
X144000000Y-107773977D03*
X156600000Y-49800000D03*
X160247653Y-101799124D03*
%TO.N,/E15*%
X153207108Y-81407108D03*
%TO.N,Net-(J8-Pin_12)*%
X159600000Y-114800000D03*
X158800000Y-75907108D03*
%TO.N,/QSPI1_IO3*%
X154343359Y-95543359D03*
X167800000Y-92600000D03*
%TO.N,/QSPI1_IO2*%
X170800000Y-108800000D03*
X154191868Y-94757831D03*
%TO.N,/SWDIO*%
X137600000Y-99000000D03*
X149200000Y-114800000D03*
%TO.N,/SWCLK*%
X147000000Y-114800000D03*
X134000000Y-102400000D03*
%TO.N,/QSPI1_IO1*%
X169400000Y-108800000D03*
X153400000Y-94600000D03*
%TO.N,/QSPI1_IO0*%
X172400000Y-91200000D03*
X153147017Y-93841051D03*
%TO.N,/QSPI1_SCK*%
X152349257Y-93600000D03*
X170800000Y-91200000D03*
%TO.N,/SWO*%
X138400000Y-107200000D03*
X145000000Y-114800000D03*
%TO.N,/LCD_BACKLIGHT*%
X163400000Y-54800000D03*
%TO.N,/LCD_RESET*%
X146200000Y-92400000D03*
%TO.N,/SPI2_NSS*%
X163772206Y-60380220D03*
X164200000Y-72200000D03*
X163000000Y-72200000D03*
%TO.N,/SPI2_SCK*%
X168227250Y-61400000D03*
X164600000Y-73586880D03*
X145351471Y-91400000D03*
X165200000Y-61800000D03*
%TO.N,/LCD_COMMAND*%
X144703883Y-92000000D03*
X163757295Y-73601373D03*
X168227250Y-60600000D03*
X164500000Y-64500000D03*
%TO.N,/SPI2_MOSI*%
X164600000Y-71400000D03*
X165200000Y-59800000D03*
X168227250Y-59800000D03*
X163000000Y-71400000D03*
%TO.N,/QSPI1_NSS*%
X148200000Y-94800000D03*
X167600000Y-108800000D03*
%TO.N,/NRST*%
X146196348Y-112276381D03*
X149600000Y-104000000D03*
%TD*%
D53*
%TO.N,+3V3*%
X127090001Y-113200000D02*
X126090001Y-112200000D01*
X165800000Y-105490001D02*
X165800000Y-104800000D01*
X125109999Y-112200000D02*
X126090001Y-112200000D01*
X141539411Y-111939411D02*
X142339411Y-111139411D01*
X143809137Y-109669685D02*
X143815596Y-109669685D01*
X142339411Y-111139411D02*
X143239411Y-110239411D01*
X119400000Y-56250000D02*
X119400000Y-56000000D01*
X149000000Y-122099998D02*
X151100002Y-122099998D01*
X143815596Y-110015596D02*
X144400000Y-110600000D01*
X147952171Y-107901918D02*
X149339411Y-109289158D01*
X118600000Y-57050000D02*
X118600000Y-55600000D01*
X118600000Y-57050000D02*
X118600000Y-56800000D01*
X146638880Y-88939411D02*
X146866892Y-89167423D01*
X143239411Y-110239411D02*
X143809137Y-109669685D01*
X118350000Y-56800000D02*
X117800000Y-56250000D01*
X127200000Y-113200000D02*
X127090001Y-113200000D01*
X154316132Y-98462043D02*
X155460589Y-97317586D01*
X146184404Y-90330315D02*
X146184404Y-89463226D01*
X156600000Y-104713694D02*
X156600000Y-105200000D01*
X121800000Y-52875001D02*
X121800000Y-54200000D01*
X133939411Y-100339411D02*
X134200000Y-100600000D01*
X168095001Y-97275000D02*
X168095001Y-95495001D01*
X168095001Y-95495001D02*
X167800000Y-95200000D01*
X143815596Y-109669685D02*
X143815596Y-110015596D01*
X137200000Y-118900000D02*
X138900000Y-118900000D01*
X118600000Y-55600000D02*
X119200000Y-55000000D01*
X166999999Y-103600000D02*
X167000000Y-98370000D01*
X143463226Y-110015596D02*
X143239411Y-110239411D01*
X155460589Y-97317586D02*
X155460589Y-96660589D01*
X151927206Y-107575736D02*
X151824264Y-107575736D01*
X135330315Y-98815596D02*
X134523815Y-98815596D01*
X150585787Y-107000000D02*
X150878822Y-107000000D01*
X117475001Y-52875001D02*
X117400000Y-52800000D01*
X149339411Y-109460589D02*
X149339411Y-110323259D01*
X165800000Y-104800000D02*
X166999999Y-103600000D01*
X124600000Y-53025000D02*
X124600000Y-54200000D01*
X151824264Y-107575736D02*
X151800000Y-107600000D01*
X151812059Y-107460589D02*
X151927206Y-107575736D01*
X149339411Y-110323259D02*
X148662670Y-111000000D01*
X117800000Y-56250000D02*
X117800000Y-56000000D01*
X157156847Y-104156847D02*
X156600000Y-104713694D01*
X134523815Y-98815596D02*
X133939411Y-99400000D01*
X151339411Y-107460589D02*
X151812059Y-107460589D01*
X125109999Y-112200000D02*
X125200000Y-112200000D01*
X124450001Y-52875001D02*
X124600000Y-53025000D01*
X146184404Y-89463226D02*
X145660589Y-88939411D01*
X149719938Y-106134151D02*
X150585787Y-107000000D01*
X148662670Y-111000000D02*
X148600000Y-111000000D01*
X119200000Y-52875001D02*
X121800000Y-52875001D01*
X141539411Y-111939411D02*
X141725195Y-111939411D01*
X167000000Y-98370000D02*
X168095000Y-97275000D01*
X135601911Y-108001911D02*
X136600000Y-109000000D01*
X153299934Y-99478241D02*
X154316132Y-98462043D01*
X149339411Y-109289158D02*
X149339411Y-109460589D01*
X142207108Y-112607108D02*
X141539411Y-111939411D01*
X118850000Y-56800000D02*
X119400000Y-56250000D01*
X142392892Y-111192892D02*
X142339411Y-111139411D01*
X118600000Y-56800000D02*
X118350000Y-56800000D01*
X121800000Y-52875001D02*
X124450001Y-52875001D01*
X119200000Y-52875001D02*
X117475001Y-52875001D01*
X145660589Y-88939411D02*
X146638880Y-88939411D01*
X142392892Y-112607108D02*
X142392892Y-111192892D01*
X142392892Y-112607108D02*
X142207108Y-112607108D01*
X133939411Y-99400000D02*
X133939411Y-100339411D01*
X151100002Y-122099998D02*
X151200000Y-122000000D01*
X138900000Y-118900000D02*
X139000000Y-118800000D01*
X119200000Y-55000000D02*
X119200000Y-52875001D01*
X125200000Y-112200000D02*
X126200000Y-113200000D01*
X153299934Y-99500065D02*
X153299934Y-99478241D01*
X150878822Y-107000000D02*
X151339411Y-107460589D01*
X143815596Y-110015596D02*
X143463226Y-110015596D01*
X118600000Y-56800000D02*
X118850000Y-56800000D01*
%TO.N,GND*%
X146582842Y-88017158D02*
X146339411Y-88260589D01*
X146999999Y-122099998D02*
X145000000Y-122099998D01*
X121906000Y-65675001D02*
X121990500Y-65590500D01*
X121990500Y-65590500D02*
X122530101Y-65050900D01*
X154060589Y-104739411D02*
X153982052Y-104739411D01*
X121400000Y-66200000D02*
X120524999Y-66200000D01*
X150660589Y-108139411D02*
X151170582Y-108139411D01*
X150000000Y-112600000D02*
X149278822Y-112600000D01*
X150200000Y-107678822D02*
X150660589Y-108139411D01*
X143462043Y-109316132D02*
X142317586Y-110460589D01*
X148017158Y-88017158D02*
X146582842Y-88017158D01*
X131085267Y-105748007D02*
X132216637Y-104616637D01*
X140860589Y-111260589D02*
X141660589Y-110460589D01*
X156139411Y-97339411D02*
X156139411Y-97490882D01*
X150000000Y-113442356D02*
X149921178Y-113521178D01*
X154000000Y-107202081D02*
X154176777Y-107378858D01*
X154539411Y-106660589D02*
X154000000Y-107200000D01*
X154353554Y-109957716D02*
X154353554Y-110325268D01*
X154176777Y-107378858D02*
X154176777Y-108600000D01*
X139000000Y-122800000D02*
X139000000Y-123000000D01*
X124600000Y-66200000D02*
X125475001Y-66200000D01*
X124094000Y-65675001D02*
X124094000Y-65694000D01*
X133860589Y-97339411D02*
X133860589Y-98121178D01*
X120700002Y-58500002D02*
X120600000Y-58400000D01*
X171904999Y-104304999D02*
X171904999Y-102725000D01*
X154353554Y-109957716D02*
X154353554Y-111646446D01*
X120000000Y-65675001D02*
X121906000Y-65675001D01*
X154353554Y-111646446D02*
X154000000Y-112000000D01*
X154176777Y-108600000D02*
X154176777Y-108428805D01*
X131085267Y-105748007D02*
X130948007Y-105748007D01*
X121862500Y-58500002D02*
X120700002Y-58500002D01*
X122745000Y-83200000D02*
X123960000Y-83200001D01*
X154669685Y-98815596D02*
X154669685Y-98809137D01*
X141660589Y-110460589D02*
X140339411Y-110460589D01*
X154176777Y-109780939D02*
X154353554Y-109957716D01*
X154669685Y-98809137D02*
X156139411Y-97339411D01*
X147660589Y-88860589D02*
X147060589Y-88260589D01*
X142317586Y-110460589D02*
X141660589Y-110460589D01*
X121400000Y-66181000D02*
X121400000Y-66200000D01*
X147660589Y-88373727D02*
X148017158Y-88017158D01*
X146537957Y-90683868D02*
X147660589Y-89561236D01*
X134561236Y-97339411D02*
X133860589Y-97339411D01*
X122530101Y-65050900D02*
X123469899Y-65050900D01*
X125760000Y-80349999D02*
X125760000Y-80000000D01*
X124749999Y-49924999D02*
X123600000Y-49924999D01*
X125475001Y-66200000D02*
X126000000Y-65675001D01*
X140292892Y-110507108D02*
X140292892Y-110692892D01*
X135683868Y-98462043D02*
X134561236Y-97339411D01*
X130948007Y-105748007D02*
X130000000Y-104800000D01*
X150000000Y-112600000D02*
X150000000Y-113442356D01*
X119200000Y-49924999D02*
X117475001Y-49924999D01*
X126200000Y-51375000D02*
X124749999Y-49924999D01*
X123960000Y-83200001D02*
X125385000Y-84625000D01*
X149366384Y-106487705D02*
X150200000Y-107321321D01*
X140699998Y-122400000D02*
X141000000Y-122099998D01*
X137200000Y-122400000D02*
X139000000Y-122400000D01*
X132216637Y-104616637D02*
X131200000Y-103600000D01*
X156139411Y-97490882D02*
X156600758Y-97952229D01*
X147918007Y-110524266D02*
X147918007Y-111500085D01*
X124625000Y-69800000D02*
X126000000Y-68425000D01*
X155660589Y-106660589D02*
X154539411Y-106660589D01*
X154353554Y-110325268D02*
X153339411Y-111339411D01*
X147660589Y-89561236D02*
X147660589Y-88860589D01*
X140292892Y-110692892D02*
X140860589Y-111260589D01*
X132600000Y-98000000D02*
X133260589Y-97339411D01*
X154060589Y-104739411D02*
X154860589Y-105539411D01*
X139000000Y-122400000D02*
X139000000Y-121800000D01*
X149278822Y-112600000D02*
X149139411Y-112739411D01*
X154000000Y-107200000D02*
X154000000Y-107202081D01*
X148660589Y-110139411D02*
X148302862Y-110139411D01*
X139000000Y-122400000D02*
X140699998Y-122400000D01*
X150200000Y-107321321D02*
X150200000Y-107678822D01*
X121990500Y-65590500D02*
X121400000Y-66181000D01*
X154176777Y-108600000D02*
X154176777Y-109780939D01*
X125560000Y-84625000D02*
X126392500Y-83792500D01*
X126463052Y-80349999D02*
X125760000Y-80349999D01*
X133860589Y-98121178D02*
X133260589Y-98721178D01*
X121800000Y-49924999D02*
X119200000Y-49924999D01*
X154176777Y-108428805D02*
X154211003Y-108394579D01*
X133260589Y-97339411D02*
X133860589Y-97339411D01*
X143899998Y-123200000D02*
X142100002Y-123200000D01*
X147060589Y-88260589D02*
X146339411Y-88260589D01*
X153982052Y-104739411D02*
X152548365Y-103305724D01*
X149139411Y-112739411D02*
X149921178Y-113521178D01*
X126000000Y-65675001D02*
X124094000Y-65675001D01*
X139000000Y-122400000D02*
X139000000Y-122800000D01*
X127000000Y-80886947D02*
X126463052Y-80349999D01*
X117475001Y-49924999D02*
X117400000Y-50000000D01*
X127000000Y-83185000D02*
X127000000Y-80886947D01*
X133260589Y-98660589D02*
X133260589Y-98721178D01*
X124094000Y-65694000D02*
X124600000Y-66200000D01*
X124094000Y-65675001D02*
X123469899Y-65050900D01*
X142100002Y-123200000D02*
X141000000Y-122099998D01*
X153339411Y-111339411D02*
X154000000Y-112000000D01*
X151170582Y-108139411D02*
X151378949Y-108347778D01*
X147660589Y-88860589D02*
X147660589Y-88373727D01*
X172400000Y-104800000D02*
X171904999Y-104304999D01*
X145000000Y-122099998D02*
X143899998Y-123200000D01*
X126392500Y-83792500D02*
X127000000Y-83185000D01*
X126000000Y-65675001D02*
X126000000Y-68425000D01*
X121800000Y-49924999D02*
X123600000Y-49924999D01*
X120524999Y-66200000D02*
X120000000Y-65675001D01*
X148302862Y-110139411D02*
X147918007Y-110524266D01*
X140339411Y-110460589D02*
X140292892Y-110507108D01*
X122745000Y-76800000D02*
X124600000Y-76800000D01*
X125385000Y-84625000D02*
X125560000Y-84625000D01*
X132600000Y-98000000D02*
X133260589Y-98660589D01*
%TO.N,/LSE_IN*%
X149400000Y-107935533D02*
X148659278Y-107194811D01*
X148971645Y-112060589D02*
X150116117Y-110916117D01*
X150116117Y-110916117D02*
X150116117Y-108980869D01*
X150116117Y-108980869D02*
X149400000Y-108264752D01*
X148460589Y-112060589D02*
X148971645Y-112060589D01*
X149400000Y-108264752D02*
X149400000Y-107935533D01*
%TO.N,Net-(C9-Pad1)*%
X151883883Y-112683883D02*
X151883883Y-109997989D01*
X151883883Y-112916117D02*
X151883883Y-112683883D01*
X150600000Y-114200000D02*
X151883883Y-112916117D01*
X151883883Y-109997989D02*
X151960624Y-109921248D01*
%TO.N,/HSE_IN*%
X150892893Y-106600000D02*
X151800000Y-106600000D01*
X150073491Y-105780598D02*
X150892893Y-106600000D01*
X152797919Y-107597919D02*
X152797919Y-108402081D01*
X152797919Y-110523259D02*
X152660589Y-110660589D01*
X151800000Y-106600000D02*
X152797919Y-107597919D01*
X152797919Y-108402081D02*
X152797919Y-110523259D01*
%TO.N,Net-(C11-Pad1)*%
X155998642Y-105998642D02*
X156339411Y-106339411D01*
X155401358Y-105998642D02*
X155998642Y-105998642D01*
X155198642Y-106201358D02*
X155401358Y-105998642D01*
X156339411Y-106339411D02*
X156339411Y-107339411D01*
X154039376Y-105639376D02*
X154601358Y-106201358D01*
X153160624Y-105639376D02*
X154039376Y-105639376D01*
X156339411Y-107971859D02*
X155555635Y-108755635D01*
X156339411Y-107339411D02*
X156339411Y-107971859D01*
X154601358Y-106201358D02*
X155198642Y-106201358D01*
%TO.N,Net-(C12-Pad1)*%
X146891511Y-90987311D02*
X146891511Y-91037422D01*
X148339411Y-89539411D02*
X146891511Y-90987311D01*
%TO.N,Net-(C13-Pad1)*%
X135987311Y-98108489D02*
X134539411Y-96660589D01*
X136037422Y-98108489D02*
X135987311Y-98108489D01*
%TO.N,+3.3VA*%
X153255472Y-102598617D02*
X153277439Y-102598617D01*
X155139411Y-104460589D02*
X155539411Y-104860589D01*
X153277439Y-102598617D02*
X154739411Y-104060589D01*
X155143153Y-103943153D02*
X156043153Y-103043153D01*
X155025717Y-104060589D02*
X155025717Y-104346895D01*
X154739411Y-104060589D02*
X155025717Y-104060589D01*
X154739411Y-104060589D02*
X155139411Y-104460589D01*
X155143153Y-103943153D02*
X155025717Y-104060589D01*
X155025717Y-104346895D02*
X155139411Y-104460589D01*
%TO.N,/power/BUCK_EN*%
X123000000Y-60400000D02*
X123000000Y-59925002D01*
X126000000Y-62724999D02*
X124475001Y-62724999D01*
X124475001Y-62724999D02*
X123000000Y-64200000D01*
X121862500Y-60400000D02*
X123000000Y-60400000D01*
X123000000Y-64200000D02*
X123000000Y-60400000D01*
X120000000Y-62724999D02*
X121524999Y-62724999D01*
X123475001Y-59450001D02*
X124137500Y-59450001D01*
X123000000Y-59925002D02*
X123475001Y-59450001D01*
X121524999Y-62724999D02*
X123000000Y-64200000D01*
%TO.N,Net-(D3-K)*%
X122900000Y-66001800D02*
X123000000Y-65901800D01*
X122850000Y-67850000D02*
X122900000Y-67800000D01*
X120937500Y-67850000D02*
X122850000Y-67850000D01*
X122900000Y-67800000D02*
X122900000Y-66001800D01*
%TO.N,/power/BUCK_BST*%
X124475000Y-57325000D02*
X124475000Y-56000000D01*
X124137500Y-58500002D02*
X124137500Y-57662500D01*
X124137500Y-57662500D02*
X124475000Y-57325000D01*
%TO.N,/power/BUCK_SW*%
X121525000Y-56000000D02*
X123000000Y-57475000D01*
X121862500Y-59450001D02*
X118700001Y-59450001D01*
X123000000Y-58800000D02*
X122349999Y-59450001D01*
X118700001Y-59450001D02*
X118600000Y-59350000D01*
X122349999Y-59450001D02*
X121862500Y-59450001D01*
X123000000Y-57475000D02*
X123000000Y-58800000D01*
%TO.N,Net-(D1-K)*%
X133383363Y-105783363D02*
X134488217Y-106888217D01*
%TO.N,Net-(D2-K)*%
X132251992Y-106914734D02*
X133356846Y-108019588D01*
%TO.N,/STATUS_LED*%
X135400000Y-110000000D02*
X135337260Y-110000000D01*
X150206210Y-103340371D02*
X150206210Y-103791997D01*
X135337260Y-110000000D02*
X134470541Y-109133281D01*
X150206210Y-103791997D02*
X151134151Y-104719938D01*
X145400000Y-112200000D02*
X143975735Y-113624265D01*
%TO.N,Net-(D3-A)*%
X120937500Y-69750000D02*
X122925000Y-69750000D01*
X122925000Y-69750000D02*
X122975000Y-69800000D01*
X124300000Y-67800000D02*
X124300000Y-68475000D01*
X124300000Y-68475000D02*
X122975000Y-69800000D01*
D54*
%TO.N,+5V*%
X121940305Y-82200000D02*
X121876193Y-82200000D01*
X121740305Y-78000000D02*
X120600000Y-78000000D01*
D53*
X123277410Y-77600000D02*
X123677410Y-78000000D01*
X127160000Y-80000000D02*
X128035000Y-80000000D01*
X126760000Y-79600000D02*
X127160000Y-80000000D01*
X126760000Y-78400000D02*
X126760000Y-79600000D01*
D54*
X122745000Y-82400000D02*
X122140305Y-82400000D01*
X121876193Y-82200000D02*
X121676193Y-82000000D01*
D53*
X123677410Y-78000000D02*
X126360000Y-78000000D01*
D54*
X122140305Y-77600000D02*
X121740305Y-78000000D01*
D53*
X122745000Y-77600000D02*
X123277410Y-77600000D01*
D54*
X122140305Y-82400000D02*
X121940305Y-82200000D01*
D53*
X126360000Y-78000000D02*
X126760000Y-78400000D01*
D54*
X121676193Y-82000000D02*
X120600000Y-82000000D01*
D55*
X121799999Y-72100000D02*
X121800000Y-74000000D01*
D54*
X122745000Y-77600000D02*
X122140305Y-77600000D01*
D53*
%TO.N,Net-(Q2-D)*%
X119000001Y-68862498D02*
X119062499Y-68800000D01*
X119000001Y-72100000D02*
X119000001Y-68862498D01*
%TO.N,Net-(FL1-Pad4)*%
X130238299Y-80243999D02*
X130703899Y-80709600D01*
X128697499Y-80949999D02*
X129403499Y-80243999D01*
X130703899Y-80709600D02*
X130703899Y-80924999D01*
X128035000Y-80949999D02*
X128697499Y-80949999D01*
X129403499Y-80243999D02*
X130238299Y-80243999D01*
%TO.N,Net-(FL1-Pad1)*%
X130703899Y-79290400D02*
X130703900Y-79075000D01*
X129403499Y-79756002D02*
X130238299Y-79756001D01*
X128035000Y-79050001D02*
X128697499Y-79050001D01*
X130238299Y-79756001D02*
X130703899Y-79290400D01*
X128697499Y-79050001D02*
X129403499Y-79756002D01*
%TO.N,/USB_DN*%
X129891100Y-78703601D02*
X130200700Y-78394001D01*
X129891100Y-78053900D02*
X129891100Y-79075001D01*
X130145000Y-77800000D02*
X129891100Y-78053900D01*
X129891100Y-79075001D02*
X129891100Y-78703601D01*
D56*
X133663900Y-80863900D02*
X131400000Y-78600000D01*
X137098082Y-97028172D02*
X133663900Y-93593990D01*
X133663900Y-93593990D02*
X133663900Y-80863900D01*
D53*
X131194001Y-78394001D02*
X131400000Y-78600000D01*
X130200700Y-78394001D02*
X131194001Y-78394001D01*
D56*
X137098082Y-97047829D02*
X137098082Y-97028172D01*
%TO.N,/USB_DP*%
X133136100Y-83136100D02*
X131400000Y-81400000D01*
D53*
X129891100Y-81946100D02*
X129891100Y-80924999D01*
X131194001Y-81605999D02*
X131400000Y-81400000D01*
D56*
X136744528Y-97401383D02*
X136724871Y-97401383D01*
D53*
X130145000Y-82200000D02*
X129891100Y-81946100D01*
D56*
X133136100Y-93812612D02*
X133136100Y-83136100D01*
D53*
X129891100Y-80924999D02*
X129891100Y-81505999D01*
X129991100Y-81605999D02*
X131194001Y-81605999D01*
D56*
X136724871Y-97401383D02*
X133136100Y-93812612D01*
D53*
X129891100Y-81505999D02*
X129991100Y-81605999D01*
%TO.N,/J1_SWO*%
X145000000Y-117099996D02*
X145000000Y-120099997D01*
%TO.N,/J1_SWDIO*%
X149000001Y-117099997D02*
X149000001Y-120099998D01*
%TO.N,/J1_NRST*%
X140999999Y-117099997D02*
X140999999Y-120099998D01*
%TO.N,/J1_SWCLK*%
X147000000Y-117099999D02*
X147000000Y-120100000D01*
%TO.N,/I2C_SDA*%
X126010000Y-107810000D02*
X126010000Y-110280001D01*
X133800000Y-114735533D02*
X141340722Y-107194811D01*
X126010000Y-110280001D02*
X124090001Y-112200000D01*
X126625534Y-114735533D02*
X133800000Y-114735533D01*
X124090001Y-112200000D02*
X126625534Y-114735533D01*
%TO.N,/I2C_SCL*%
X127109999Y-112200000D02*
X127200000Y-112109999D01*
X127109999Y-112200000D02*
X129109999Y-114200000D01*
X133628427Y-114200000D02*
X140987169Y-106841258D01*
X127200000Y-112109999D02*
X127200000Y-106460000D01*
X129109999Y-114200000D02*
X133628427Y-114200000D01*
X127200000Y-106460000D02*
X126010000Y-105270000D01*
%TO.N,Net-(J3-CC1)*%
X122062590Y-78750000D02*
X121395000Y-79417590D01*
X122744999Y-78750000D02*
X122062590Y-78750000D01*
X123960000Y-81750000D02*
X125185000Y-82975000D01*
X121395000Y-81082411D02*
X122062589Y-81750000D01*
X122062589Y-81750000D02*
X122745000Y-81750000D01*
X121395000Y-79417590D02*
X121395000Y-81082411D01*
X125185000Y-82975000D02*
X125560000Y-82975000D01*
X122745000Y-81750000D02*
X123960000Y-81750000D01*
%TO.N,Net-(J3-D+-PadA6)*%
X121795000Y-80017590D02*
X121795000Y-80482410D01*
X122745000Y-80750000D02*
X125560002Y-80750000D01*
X122062590Y-80750001D02*
X122745000Y-80750000D01*
X122745000Y-79750000D02*
X122062590Y-79750000D01*
X121795000Y-80482410D02*
X122062590Y-80750001D01*
X122062590Y-79750000D02*
X121795000Y-80017590D01*
X125560002Y-80750000D02*
X125760000Y-80949999D01*
%TO.N,Net-(J3-D--PadA7)*%
X122745000Y-79250000D02*
X125560001Y-79250000D01*
X125560001Y-79250000D02*
X125760000Y-79050001D01*
X123427409Y-79250000D02*
X122745000Y-79250000D01*
X122745000Y-80250000D02*
X123427410Y-80250001D01*
X123694999Y-79517591D02*
X123427409Y-79250000D01*
X123694999Y-79982412D02*
X123694999Y-79517591D01*
X123427410Y-80250001D02*
X123694999Y-79982412D01*
%TO.N,/A9*%
X134452800Y-92988333D02*
X134452800Y-86702942D01*
X134452800Y-86702942D02*
X138415000Y-82740742D01*
X138415000Y-63475000D02*
X136940000Y-62000000D01*
X137805189Y-96340722D02*
X134452800Y-92988333D01*
X138415000Y-82740742D02*
X138415000Y-63475000D01*
%TO.N,/A0*%
X155043322Y-103000000D02*
X154363961Y-103000000D01*
X158015758Y-103815758D02*
X156384242Y-102184242D01*
X154363961Y-103000000D02*
X153609025Y-102245064D01*
X155000000Y-110881372D02*
X157200000Y-108681372D01*
X155000000Y-118400000D02*
X155000000Y-110881372D01*
X155859080Y-102184242D02*
X155043322Y-103000000D01*
X157200000Y-108681372D02*
X157200000Y-105156678D01*
X158015758Y-104340920D02*
X158015758Y-103815758D01*
X157200000Y-105156678D02*
X158015758Y-104340920D01*
X156384242Y-102184242D02*
X155859080Y-102184242D01*
%TO.N,/A8*%
X134852800Y-86868628D02*
X134852800Y-92681228D01*
X134985786Y-92814214D02*
X134852800Y-92681227D01*
X136940000Y-60000000D02*
X138815000Y-61875000D01*
X138815000Y-61875000D02*
X138815000Y-82906428D01*
X138158742Y-95987169D02*
X134985786Y-92814214D01*
X138815000Y-82906428D02*
X134852800Y-86868628D01*
X134852800Y-92681228D02*
X134985786Y-92814214D01*
%TO.N,/A3*%
X158000000Y-109012744D02*
X156800000Y-110212743D01*
X154669685Y-101184404D02*
X156515775Y-101184404D01*
X158815758Y-103484388D02*
X158815758Y-104672292D01*
X158000000Y-105488050D02*
X158000000Y-109012744D01*
X156800000Y-110212743D02*
X156800000Y-117200000D01*
X156515775Y-101184404D02*
X158815758Y-103484388D01*
X158815758Y-104672292D02*
X158000000Y-105488050D01*
%TO.N,/A2*%
X153727530Y-100570923D02*
X154056204Y-100242249D01*
X159215758Y-103318703D02*
X159215758Y-104837978D01*
X156681461Y-100784404D02*
X159215758Y-103318703D01*
X154056204Y-100242249D02*
X154442249Y-100242249D01*
X159215758Y-104837978D02*
X158400000Y-105653736D01*
X154316132Y-101537957D02*
X153727530Y-100949355D01*
X157590538Y-109987892D02*
X157590538Y-117318228D01*
X158400000Y-105653736D02*
X158400000Y-109178430D01*
X154442249Y-100242249D02*
X154984404Y-100784404D01*
X158400000Y-109178430D02*
X157590538Y-109987892D01*
X153727530Y-100949355D02*
X153727530Y-100570923D01*
X154984404Y-100784404D02*
X156681461Y-100784404D01*
%TO.N,/A1*%
X154997524Y-102480112D02*
X155877637Y-101600000D01*
X154551179Y-102480112D02*
X154997524Y-102480112D01*
X153962578Y-101891511D02*
X154551179Y-102480112D01*
X158415758Y-104506606D02*
X157600000Y-105322364D01*
X155800000Y-110647058D02*
X155800000Y-118000000D01*
X156365685Y-101600000D02*
X158415758Y-103650073D01*
X157600000Y-105322364D02*
X157600000Y-108847058D01*
X158415758Y-103650073D02*
X158415758Y-104506606D01*
X155877637Y-101600000D02*
X156365685Y-101600000D01*
X157600000Y-108847058D02*
X155800000Y-110647058D01*
%TO.N,/A4*%
X158809711Y-105809711D02*
X159615758Y-105003664D01*
X159615758Y-105003664D02*
X159615758Y-103153018D01*
X156847147Y-100384404D02*
X155184404Y-100384404D01*
X153548463Y-100100065D02*
X153051405Y-100100065D01*
X153848528Y-99800000D02*
X153548463Y-100100065D01*
X155184404Y-100384404D02*
X154600000Y-99800000D01*
X152699934Y-99251536D02*
X153051405Y-98900065D01*
X158200000Y-116800000D02*
X158190538Y-116790538D01*
X153962578Y-98108489D02*
X153962578Y-98179201D01*
X154600000Y-99800000D02*
X153848528Y-99800000D01*
X153962578Y-98137487D02*
X153962578Y-98108489D01*
X158190538Y-116790538D02*
X158190538Y-109953577D01*
X153200000Y-98900065D02*
X153962578Y-98137487D01*
X158809711Y-109334405D02*
X158809711Y-105809711D01*
X153051405Y-98900065D02*
X153200000Y-98900065D01*
X153051405Y-100100065D02*
X152699934Y-99748594D01*
X158190538Y-109953577D02*
X158809711Y-109334405D01*
X152699934Y-99748594D02*
X152699934Y-99251536D01*
X159615758Y-103153018D02*
X156847147Y-100384404D01*
%TO.N,/A5*%
X159209710Y-109500091D02*
X159000000Y-109709800D01*
X155302292Y-95998642D02*
X155661312Y-95998642D01*
X159000000Y-109709800D02*
X159000000Y-116400000D01*
X159209711Y-105990289D02*
X159209710Y-109500091D01*
X153609025Y-97691909D02*
X155302292Y-95998642D01*
X157200000Y-97537330D02*
X157200000Y-100171573D01*
X160015758Y-105184242D02*
X159209711Y-105990289D01*
X153609025Y-97754936D02*
X153609025Y-97691909D01*
X155661312Y-95998642D02*
X157200000Y-97537330D01*
X157200000Y-100171573D02*
X160015758Y-102987333D01*
X160015758Y-102987333D02*
X160015758Y-105184242D01*
%TO.N,/A15*%
X136800000Y-100421825D02*
X135683868Y-101537957D01*
X136800000Y-100400000D02*
X136800000Y-100421825D01*
%TO.N,/A10*%
X134052800Y-93295441D02*
X134052800Y-86537256D01*
X138015000Y-65075000D02*
X136940000Y-64000000D01*
X138015000Y-82575056D02*
X138015000Y-65075000D01*
X134052800Y-86537256D02*
X138015000Y-82575056D01*
X137451635Y-96694276D02*
X134052800Y-93295441D01*
%TO.N,Net-(J5-Pin_13)*%
X157200000Y-60400000D02*
X153825000Y-57025000D01*
X142400000Y-65811572D02*
X142000000Y-66211573D01*
X159600000Y-60400000D02*
X157200000Y-60400000D01*
X153825000Y-57025000D02*
X143575000Y-57025000D01*
X142400000Y-64377259D02*
X142400000Y-65811572D01*
X142800000Y-63977258D02*
X142400000Y-64377259D01*
X143575000Y-57025000D02*
X142800000Y-57800000D01*
X142800000Y-57800000D02*
X142800000Y-63977258D01*
X142000000Y-66211573D02*
X142000000Y-66990000D01*
X142000000Y-66990000D02*
X140990000Y-68000000D01*
%TO.N,Net-(J5-Pin_8)*%
X137000000Y-86800000D02*
X140015000Y-83785000D01*
X140015000Y-58975000D02*
X140990000Y-58000000D01*
X140015000Y-83785000D02*
X140015000Y-58975000D01*
%TO.N,Net-(J5-Pin_12)*%
X142000000Y-65600000D02*
X142000000Y-64200000D01*
X142400000Y-63800000D02*
X142400000Y-55800000D01*
X140990000Y-66000000D02*
X141600000Y-66000000D01*
X141600000Y-66000000D02*
X142000000Y-65600000D01*
X142000000Y-64200000D02*
X142400000Y-63800000D01*
X143200000Y-55000000D02*
X158200000Y-55000000D01*
X142400000Y-55800000D02*
X143200000Y-55000000D01*
%TO.N,Net-(J5-Pin_14)*%
X142800000Y-65977258D02*
X142400000Y-66377258D01*
X154965686Y-59000000D02*
X144000000Y-59000000D01*
X142400000Y-67811574D02*
X142000000Y-68211574D01*
X143200000Y-64142944D02*
X142800000Y-64542944D01*
X142000000Y-68990000D02*
X140990000Y-70000000D01*
X142400000Y-66377258D02*
X142400000Y-67811574D01*
X143200000Y-59800000D02*
X143200000Y-64142944D01*
X142800000Y-64542944D02*
X142800000Y-65977258D01*
X158965686Y-63000000D02*
X154965686Y-59000000D01*
X144000000Y-59000000D02*
X143200000Y-59800000D01*
X142000000Y-68211574D02*
X142000000Y-68990000D01*
X159400000Y-63000000D02*
X158965686Y-63000000D01*
%TO.N,Net-(J5-Pin_2)*%
X142000000Y-42800000D02*
X143000000Y-41800000D01*
X162234314Y-41800000D02*
X166834315Y-46400000D01*
X145000000Y-41800000D02*
X162234314Y-41800000D01*
X145000000Y-41800000D02*
X145200000Y-41800000D01*
X140990000Y-46000000D02*
X142000000Y-44990000D01*
X142000000Y-44990000D02*
X142000000Y-44000000D01*
X173600000Y-86400000D02*
X166200000Y-86400000D01*
X166834315Y-46400000D02*
X173600000Y-46400000D01*
X143000000Y-41800000D02*
X145000000Y-41800000D01*
X173600000Y-46400000D02*
X174000000Y-46800000D01*
X174000000Y-86000000D02*
X173600000Y-86400000D01*
X174000000Y-46800000D02*
X174000000Y-86000000D01*
X142000000Y-44000000D02*
X142000000Y-42800000D01*
%TO.N,/B8*%
X142729133Y-107220614D02*
X142729133Y-106756070D01*
X142047829Y-107901918D02*
X142729133Y-107220614D01*
%TO.N,Net-(J5-Pin_15)*%
X143200000Y-64708630D02*
X143600000Y-64308630D01*
X143600000Y-61600000D02*
X144200000Y-61000000D01*
X144200000Y-61000000D02*
X156400000Y-61000000D01*
X143600000Y-64308630D02*
X143600000Y-61600000D01*
X159400000Y-64000000D02*
X159400000Y-65600000D01*
X143200000Y-66142944D02*
X143200000Y-64708630D01*
X142400000Y-70590000D02*
X142400000Y-68377260D01*
X142800000Y-66542944D02*
X143200000Y-66142944D01*
X156400000Y-61000000D02*
X159400000Y-64000000D01*
X140990000Y-72000000D02*
X142400000Y-70590000D01*
X142800000Y-67977260D02*
X142800000Y-66542944D01*
X142400000Y-68377260D02*
X142800000Y-67977260D01*
%TO.N,Net-(J5-Pin_16)*%
X157817157Y-62982843D02*
X144678298Y-62982843D01*
X144678298Y-62982843D02*
X144000000Y-63661141D01*
X144000000Y-63661141D02*
X144000000Y-64474314D01*
X144000000Y-64474314D02*
X143600000Y-64874315D01*
X143600000Y-64874315D02*
X143600000Y-66308630D01*
X158799260Y-64247789D02*
X158799260Y-63964946D01*
X140990000Y-74000000D02*
X141400000Y-74000000D01*
X143200000Y-66708630D02*
X143200000Y-68142945D01*
X142800000Y-68542945D02*
X142800000Y-72190000D01*
X158799260Y-63964946D02*
X157817157Y-62982843D01*
X142800000Y-72190000D02*
X140990000Y-74000000D01*
X143600000Y-66308630D02*
X143200000Y-66708630D01*
X143200000Y-68142945D02*
X142800000Y-68542945D01*
%TO.N,Net-(J5-Pin_1)*%
X145200000Y-41400000D02*
X162400000Y-41400000D01*
X169200000Y-113200000D02*
X169000000Y-113000000D01*
X140990000Y-43244315D02*
X142834315Y-41400000D01*
X140990000Y-44000000D02*
X140990000Y-43244315D01*
X162400000Y-41400000D02*
X167000000Y-46000000D01*
X174400000Y-46400000D02*
X174400000Y-46800000D01*
X174400000Y-113000000D02*
X174200000Y-113200000D01*
X174200000Y-113200000D02*
X169200000Y-113200000D01*
X174000000Y-46000000D02*
X174400000Y-46400000D01*
X142834315Y-41400000D02*
X145200000Y-41400000D01*
X174400000Y-46800000D02*
X174400000Y-113000000D01*
X167000000Y-46000000D02*
X174000000Y-46000000D01*
%TO.N,/B5*%
X140633616Y-106487705D02*
X140633616Y-106435659D01*
X140633616Y-106435659D02*
X141545683Y-105523592D01*
%TO.N,Net-(J5-Pin_11)*%
X142000000Y-53600000D02*
X142575000Y-53025000D01*
X142000000Y-63634314D02*
X142000000Y-53600000D01*
X142575000Y-53025000D02*
X157225000Y-53025000D01*
X140990000Y-64000000D02*
X141634314Y-64000000D01*
X157225000Y-53025000D02*
X159400000Y-55200000D01*
X141634314Y-64000000D02*
X142000000Y-63634314D01*
%TO.N,Net-(J5-Pin_7)*%
X140400000Y-84400000D02*
X137000943Y-87799057D01*
%TO.N,Net-(J5-Pin_4)*%
X136624265Y-89024265D02*
X136400943Y-88800943D01*
X136400943Y-88800943D02*
X136400943Y-86451857D01*
X136400943Y-86451857D02*
X139615000Y-83237800D01*
X139615000Y-83237800D02*
X139615000Y-51375000D01*
X139615000Y-51375000D02*
X140990000Y-50000000D01*
%TO.N,/B4*%
X140280062Y-106134151D02*
X140948479Y-105465734D01*
X140948479Y-105465734D02*
X140948479Y-104970557D01*
%TO.N,/B9*%
X143400000Y-106400000D02*
X143400000Y-107256855D01*
X142148479Y-104973222D02*
X142148479Y-105148479D01*
X142148479Y-105148479D02*
X143400000Y-106400000D01*
X143400000Y-107256855D02*
X142401383Y-108255472D01*
%TO.N,Net-(J5-Pin_3)*%
X143165686Y-42200000D02*
X162068628Y-42200000D01*
X142400000Y-42965686D02*
X143165686Y-42200000D01*
X162068628Y-42200000D02*
X166668630Y-46800000D01*
X140990000Y-48000000D02*
X142400000Y-46590000D01*
X142400000Y-46590000D02*
X142400000Y-42965686D01*
X173600000Y-85475735D02*
X173275735Y-85800000D01*
X173200000Y-46800000D02*
X173600000Y-47200000D01*
X173600000Y-47200000D02*
X173600000Y-85475735D01*
X166668630Y-46800000D02*
X173200000Y-46800000D01*
%TO.N,/C13*%
X148600000Y-98800000D02*
X150400000Y-100600000D01*
X150400000Y-102298052D02*
X149000000Y-103698052D01*
X146400000Y-76968628D02*
X146464215Y-77032843D01*
X146400000Y-71360000D02*
X146400000Y-74800000D01*
X149000000Y-103698052D02*
X149000000Y-105298453D01*
X146400000Y-74800000D02*
X146400000Y-76968628D01*
X145040000Y-70000000D02*
X146400000Y-71360000D01*
X150400000Y-100600000D02*
X150400000Y-102298052D01*
X149000000Y-105298453D02*
X147717123Y-106581330D01*
X147717123Y-106959764D02*
X148305724Y-107548365D01*
X147717123Y-106581330D02*
X147717123Y-106959764D01*
%TO.N,/C9*%
X135252800Y-91452800D02*
X135252800Y-92374121D01*
X137224265Y-89481335D02*
X135252800Y-91452800D01*
X143200000Y-78848529D02*
X143200000Y-82600000D01*
X144600000Y-76000000D02*
X144600000Y-77448529D01*
X135252800Y-92374121D02*
X138512295Y-95633616D01*
X144600000Y-77448529D02*
X143200000Y-78848529D01*
X143200000Y-82600000D02*
X137224265Y-88575735D01*
X137224265Y-88575735D02*
X137224265Y-89481335D01*
%TO.N,/C3_C*%
X151606210Y-99807301D02*
X151606210Y-103070677D01*
X145276012Y-93477103D02*
X151606210Y-99807301D01*
X145276012Y-93194259D02*
X145276012Y-93477103D01*
X151606210Y-103070677D02*
X152194811Y-103659278D01*
%TO.N,/C4*%
X151959763Y-97282878D02*
X152548365Y-96694276D01*
X151959763Y-97640237D02*
X151959763Y-97282878D01*
X151700000Y-97900000D02*
X151959763Y-97640237D01*
%TO.N,/C8*%
X145200000Y-77414215D02*
X145200000Y-76600000D01*
X143600000Y-79014215D02*
X145200000Y-77414215D01*
X135800000Y-92214213D02*
X135800000Y-91471286D01*
X137624265Y-88741421D02*
X143600000Y-82765686D01*
X137624265Y-89647020D02*
X137624265Y-88741421D01*
X143600000Y-82765686D02*
X143600000Y-79014215D01*
X135800000Y-91471286D02*
X137624265Y-89647020D01*
X138865849Y-95280062D02*
X135800000Y-92214213D01*
%TO.N,/C1*%
X141000000Y-95000000D02*
X142157089Y-93842911D01*
X150806210Y-100138673D02*
X150806210Y-103684889D01*
X144510448Y-93842911D02*
X150806210Y-100138673D01*
X142157089Y-93842911D02*
X144510448Y-93842911D01*
X150806210Y-103684889D02*
X151487705Y-104366384D01*
%TO.N,/C11*%
X142824265Y-95741423D02*
X142624265Y-95941423D01*
X144000000Y-67040000D02*
X144000000Y-68474314D01*
X142624265Y-96141421D02*
X137109224Y-101656462D01*
X143600000Y-74800000D02*
X143600000Y-76400000D01*
X143600000Y-76400000D02*
X143375735Y-76624265D01*
X136979577Y-101656462D02*
X136390975Y-102245064D01*
X137109224Y-101656462D02*
X136979577Y-101656462D01*
X142624265Y-95941423D02*
X142624265Y-96141421D01*
X145040000Y-66000000D02*
X144000000Y-67040000D01*
X143600000Y-68874315D02*
X143600000Y-74800000D01*
X144000000Y-68474314D02*
X143600000Y-68874315D01*
%TO.N,/C2_C*%
X144585269Y-93352046D02*
X151206210Y-99972987D01*
X151206210Y-103377783D02*
X151841258Y-104012831D01*
X151206210Y-99972987D02*
X151206210Y-103377783D01*
X144585269Y-92790677D02*
X144585269Y-93352046D01*
%TO.N,/C12*%
X143007292Y-96324080D02*
X143372457Y-96324080D01*
X136744528Y-102586844D02*
X143007292Y-96324080D01*
X144000000Y-69040000D02*
X144000000Y-74800000D01*
X136744528Y-102598617D02*
X136744528Y-102586844D01*
X145040000Y-68000000D02*
X144000000Y-69040000D01*
X144000000Y-74800000D02*
X144000000Y-77200000D01*
X144000000Y-77200000D02*
X143975735Y-77224265D01*
%TO.N,/C6*%
X137000000Y-92000000D02*
X137000000Y-91402658D01*
X144600000Y-82897058D02*
X144600000Y-79711274D01*
X139572955Y-94572955D02*
X137000000Y-92000000D01*
X138424265Y-89978390D02*
X138424265Y-89072793D01*
X137000000Y-91402658D02*
X138424265Y-89978390D01*
X138424265Y-89072793D02*
X144600000Y-82897058D01*
X145831372Y-78479902D02*
X145831372Y-76031372D01*
X144600000Y-79711274D02*
X145831372Y-78479902D01*
X145831372Y-76031372D02*
X145175735Y-75375735D01*
%TO.N,/C5*%
X151201220Y-97334313D02*
X152194811Y-96340722D01*
X151134313Y-97334313D02*
X151201220Y-97334313D01*
%TO.N,Net-(J6-Pin_1)*%
X136000943Y-89600943D02*
X136000943Y-86286171D01*
X136000943Y-86286171D02*
X139215000Y-83072114D01*
X136024265Y-89624265D02*
X136000943Y-89600943D01*
X139215000Y-83072114D02*
X139215000Y-50396141D01*
X142000000Y-48368859D02*
X142000000Y-47555686D01*
X145040000Y-44515686D02*
X145040000Y-44000000D01*
X141393859Y-48975000D02*
X142000000Y-48368859D01*
X139215000Y-50396141D02*
X140636141Y-48975000D01*
X140636141Y-48975000D02*
X141393859Y-48975000D01*
X142000000Y-47555686D02*
X145040000Y-44515686D01*
%TO.N,/C7*%
X145231372Y-78231373D02*
X144000000Y-79462745D01*
X138024265Y-89812705D02*
X136400000Y-91436972D01*
X136400000Y-92107107D02*
X139219402Y-94926509D01*
X144000000Y-82931371D02*
X138024265Y-88907107D01*
X136400000Y-91436972D02*
X136400000Y-92107107D01*
X144000000Y-79462745D02*
X144000000Y-82931371D01*
X138024265Y-88907107D02*
X138024265Y-89812705D01*
%TO.N,/C10*%
X144000000Y-66474314D02*
X143600000Y-66874315D01*
X145040000Y-64000000D02*
X144000000Y-65040000D01*
X143200000Y-68708630D02*
X143200000Y-74800000D01*
X143200000Y-75814215D02*
X142606692Y-76407523D01*
X143600000Y-68308630D02*
X143200000Y-68708630D01*
X143200000Y-74800000D02*
X143200000Y-75814215D01*
X142224265Y-95175735D02*
X142224265Y-95975735D01*
X143600000Y-66874315D02*
X143600000Y-68308630D01*
X144000000Y-65040000D02*
X144000000Y-66474314D01*
X142224265Y-95975735D02*
X137200000Y-101000000D01*
X136928933Y-101000000D02*
X136037422Y-101891511D01*
X137200000Y-101000000D02*
X136928933Y-101000000D01*
%TO.N,/D13*%
X139000000Y-91099716D02*
X139624265Y-90475451D01*
X150465000Y-71375000D02*
X149090000Y-70000000D01*
X139000000Y-91878679D02*
X139000000Y-91099716D01*
X139624265Y-89569851D02*
X147600000Y-81594116D01*
X139624265Y-90475451D02*
X139624265Y-89569851D01*
X147600000Y-81594116D02*
X147600000Y-78131372D01*
X150465000Y-75266371D02*
X150465000Y-71375000D01*
X140633616Y-93512295D02*
X139000000Y-91878679D01*
X147600000Y-78131372D02*
X150465000Y-75266371D01*
%TO.N,/D2*%
X137123696Y-104340771D02*
X133960871Y-104340771D01*
X131800000Y-91881050D02*
X131435279Y-91516329D01*
X137805189Y-103659278D02*
X137123696Y-104340771D01*
X134235209Y-71553321D02*
X134200896Y-71519008D01*
X133960871Y-104340771D02*
X131200000Y-101579899D01*
X134200896Y-71519008D02*
X134200896Y-42399104D01*
X131800000Y-96820099D02*
X131800000Y-93800000D01*
X131200000Y-101579899D02*
X131200000Y-97420099D01*
X135176442Y-41423558D02*
X135176442Y-41009422D01*
X134200896Y-42399104D02*
X135176442Y-41423558D01*
X131200000Y-97420099D02*
X131800000Y-96820099D01*
X131800000Y-93800000D02*
X131800000Y-91881050D01*
%TO.N,/D0*%
X132000000Y-101248529D02*
X132000000Y-97751471D01*
X136509481Y-103540772D02*
X134292243Y-103540772D01*
X134292243Y-103540772D02*
X132000000Y-101248529D01*
X132600000Y-97151471D02*
X132600000Y-93800000D01*
X136800000Y-41000000D02*
X135400000Y-42400000D01*
X135400000Y-42400000D02*
X135400000Y-70400000D01*
X137098082Y-102952171D02*
X136509481Y-103540772D01*
X132000000Y-97751471D02*
X132600000Y-97151471D01*
X132600000Y-90328535D02*
X132547200Y-90275735D01*
X132600000Y-93800000D02*
X132600000Y-90328535D01*
%TO.N,/D4*%
X149090000Y-52000000D02*
X150065000Y-51025000D01*
X153625000Y-51025000D02*
X154600000Y-52000000D01*
X138512295Y-104366384D02*
X145000000Y-97878679D01*
X145000000Y-97878679D02*
X145000000Y-95179858D01*
X159400000Y-80588230D02*
X159400000Y-76600000D01*
X153201396Y-86786834D02*
X159400000Y-80588230D01*
X153201396Y-89019483D02*
X153201396Y-86786834D01*
X150065000Y-51025000D02*
X153625000Y-51025000D01*
%TO.N,/D12*%
X139600000Y-91065400D02*
X140024265Y-90641135D01*
X148000000Y-81759802D02*
X148000000Y-78297057D01*
X150865000Y-75432056D02*
X150865000Y-69775000D01*
X148000000Y-78297057D02*
X150865000Y-75432056D01*
X140987169Y-93158742D02*
X139600000Y-91771573D01*
X140024265Y-90641135D02*
X140024265Y-89735537D01*
X140024265Y-89735537D02*
X148000000Y-81759802D01*
X150865000Y-69775000D02*
X149090000Y-68000000D01*
X139600000Y-91771573D02*
X139600000Y-91065400D01*
%TO.N,/D9*%
X149200000Y-79600000D02*
X149200000Y-82256860D01*
X149748530Y-79100000D02*
X149700000Y-79100000D01*
X149700000Y-79100000D02*
X149200000Y-79600000D01*
X141228430Y-91278683D02*
X142047829Y-92098082D01*
X141228430Y-90228430D02*
X141228430Y-91278683D01*
X149200000Y-82256860D02*
X141228430Y-90228430D01*
%TO.N,/D15*%
X138824265Y-89238479D02*
X146800000Y-81262743D01*
X137600000Y-91892893D02*
X137600000Y-91368342D01*
X146800000Y-77800000D02*
X149090000Y-75510000D01*
X137600000Y-91368342D02*
X138824265Y-90144075D01*
X146800000Y-81262743D02*
X146800000Y-77800000D01*
X138824265Y-90144075D02*
X138824265Y-89238479D01*
X149090000Y-75510000D02*
X149090000Y-74000000D01*
X139926509Y-94219402D02*
X137600000Y-91892893D01*
%TO.N,/D6*%
X155200445Y-87019483D02*
X155200445Y-89068123D01*
X155200445Y-89068123D02*
X154467792Y-89800776D01*
X154467792Y-89800776D02*
X154117161Y-89800776D01*
X139219402Y-105073491D02*
X146200000Y-98092893D01*
X146200000Y-98092893D02*
X146200000Y-96379839D01*
%TO.N,/D7*%
X154401396Y-89018643D02*
X154401396Y-87019483D01*
X146800000Y-98200000D02*
X146800000Y-96979903D01*
X139572955Y-105427045D02*
X146800000Y-98200000D01*
%TO.N,/D14*%
X147200000Y-77965686D02*
X150065000Y-75100686D01*
X150065000Y-72975000D02*
X149090000Y-72000000D01*
X139224265Y-90309765D02*
X139224265Y-89404165D01*
X140280062Y-93865849D02*
X138400000Y-91985787D01*
X138400000Y-91985787D02*
X138400000Y-91134030D01*
X150065000Y-75100686D02*
X150065000Y-72975000D01*
X139224265Y-89404165D02*
X147200000Y-81428430D01*
X138400000Y-91134030D02*
X139224265Y-90309765D01*
X147200000Y-81428430D02*
X147200000Y-77965686D01*
%TO.N,/D3*%
X131400000Y-93800000D02*
X131400000Y-92612424D01*
X131400000Y-96654413D02*
X131400000Y-93800000D01*
X133635209Y-72084695D02*
X133635209Y-42164791D01*
X134376546Y-41423454D02*
X134376546Y-40996348D01*
X133635209Y-42164791D02*
X134376546Y-41423454D01*
X137430802Y-104740771D02*
X133795185Y-104740771D01*
X130800000Y-97254413D02*
X131400000Y-96654413D01*
X130800000Y-101745584D02*
X130800000Y-97254413D01*
X133669522Y-72119008D02*
X133635209Y-72084695D01*
X131400000Y-92612424D02*
X130869519Y-92081943D01*
X133795185Y-104740771D02*
X130800000Y-101745584D01*
X138158742Y-104012831D02*
X137430802Y-104740771D01*
%TO.N,/D8*%
X141628430Y-90971575D02*
X142401383Y-91744528D01*
X149600000Y-82422545D02*
X141628430Y-90394116D01*
X149600000Y-80200000D02*
X149600000Y-82422545D01*
X149800000Y-80000000D02*
X149600000Y-80200000D01*
X141628430Y-90394116D02*
X141628430Y-90971575D01*
%TO.N,/D10*%
X140824265Y-91581624D02*
X141694276Y-92451635D01*
X149767521Y-78226594D02*
X149767521Y-78232479D01*
X148800000Y-79200000D02*
X148800000Y-82091174D01*
X149767521Y-78232479D02*
X148800000Y-79200000D01*
X148800000Y-82091174D02*
X140824265Y-90066909D01*
X140824265Y-90066909D02*
X140824265Y-91581624D01*
%TO.N,/D11*%
X149772793Y-77372793D02*
X149627207Y-77372793D01*
X140200000Y-91031086D02*
X140200000Y-91664467D01*
X148400000Y-81925488D02*
X140424265Y-89901223D01*
X140200000Y-91664467D02*
X141340722Y-92805189D01*
X140424265Y-89901223D02*
X140424265Y-90806821D01*
X149627207Y-77372793D02*
X148400000Y-78600000D01*
X140424265Y-90806821D02*
X140200000Y-91031086D01*
X148400000Y-78600000D02*
X148400000Y-81925488D01*
%TO.N,/D5*%
X160039369Y-80514547D02*
X160039369Y-75839369D01*
X153249923Y-89819485D02*
X153801396Y-89268012D01*
X153200613Y-89819485D02*
X153249923Y-89819485D01*
X138865849Y-104719938D02*
X145600000Y-97985787D01*
X145600000Y-97985787D02*
X145600000Y-95779903D01*
X153801396Y-86752520D02*
X160039369Y-80514547D01*
X153801396Y-89268012D02*
X153801396Y-86752520D01*
X160039369Y-75839369D02*
X159407108Y-75207108D01*
%TO.N,/D1*%
X135975735Y-41258579D02*
X134800896Y-42433418D01*
X135975735Y-40975735D02*
X135975735Y-41258579D01*
X131600000Y-101414214D02*
X131600000Y-97585785D01*
X134126557Y-103940772D02*
X131600000Y-101414214D01*
X137451635Y-103305724D02*
X136816587Y-103940772D01*
X136816587Y-103940772D02*
X134126557Y-103940772D01*
X134800896Y-42433418D02*
X134800896Y-70987633D01*
X132200000Y-94000000D02*
X132200000Y-93800000D01*
X132200000Y-96985785D02*
X132200000Y-94000000D01*
X132200000Y-91149677D02*
X132000000Y-90949677D01*
X131600000Y-97585785D02*
X132200000Y-96985785D01*
X132200000Y-94000000D02*
X132200000Y-91149677D01*
%TO.N,/E8*%
X157310662Y-80980510D02*
X151801358Y-86489814D01*
X151801358Y-86489814D02*
X151801358Y-92067273D01*
X155281780Y-72877327D02*
X157072078Y-74667625D01*
X151200000Y-93800000D02*
X150427045Y-94572955D01*
X151200000Y-92668631D02*
X151200000Y-93800000D01*
X155281780Y-63582843D02*
X155281780Y-72877327D01*
X157310662Y-77303554D02*
X157310662Y-80980510D01*
X151801358Y-92067273D02*
X151200000Y-92668631D01*
%TO.N,/E1*%
X161047655Y-87875386D02*
X162161521Y-86761521D01*
X144636212Y-108436212D02*
X144573977Y-108373977D01*
X171200000Y-70400000D02*
X171200000Y-49600000D01*
X170800000Y-49200000D02*
X170400000Y-49200000D01*
X171200000Y-49600000D02*
X170800000Y-49200000D01*
X143697090Y-108373977D02*
X143108489Y-108962578D01*
X170400000Y-49200000D02*
X156000000Y-49200000D01*
X144573977Y-108373977D02*
X143697090Y-108373977D01*
X162161521Y-86761521D02*
X171200000Y-77723042D01*
X156000000Y-49200000D02*
X155800000Y-49400000D01*
X161047655Y-101800393D02*
X161047655Y-87875386D01*
X171200000Y-77723042D02*
X171200000Y-70400000D01*
%TO.N,/E4*%
X146115786Y-108186853D02*
X146115786Y-106204371D01*
X165354412Y-48000000D02*
X161915805Y-44561393D01*
X172000000Y-48000000D02*
X171800000Y-48000000D01*
X166610050Y-84010049D02*
X172400000Y-78220099D01*
X146891511Y-108962578D02*
X146115786Y-108186853D01*
X147105486Y-105214671D02*
X147136800Y-105214671D01*
X172400000Y-78220099D02*
X172400000Y-49000000D01*
X163447661Y-101800000D02*
X163447661Y-87172438D01*
X163447661Y-87172438D02*
X166610050Y-84010049D01*
X172400000Y-48400000D02*
X172000000Y-48000000D01*
X171800000Y-48000000D02*
X165354412Y-48000000D01*
X172400000Y-49000000D02*
X172400000Y-48400000D01*
X146115786Y-106204371D02*
X147105486Y-105214671D01*
%TO.N,/E10*%
X150400000Y-92337259D02*
X150400000Y-93185787D01*
X150400000Y-93185787D02*
X149719938Y-93865849D01*
X155907108Y-78707108D02*
X155907108Y-81252692D01*
X151001358Y-91735901D02*
X150400000Y-92337259D01*
X151001358Y-86158442D02*
X151001358Y-91735901D01*
X155907108Y-81252692D02*
X151001358Y-86158442D01*
%TO.N,/E13*%
X150201358Y-91263109D02*
X148659278Y-92805189D01*
X154507108Y-81521323D02*
X150201358Y-85827072D01*
X154507108Y-80107108D02*
X154507108Y-81521323D01*
X150201358Y-85827072D02*
X150201358Y-91263109D01*
%TO.N,/E2*%
X161847657Y-87641070D02*
X162744364Y-86744364D01*
X171600000Y-49200000D02*
X171200000Y-48800000D01*
X155200000Y-48800000D02*
X155000000Y-49000000D01*
X171600000Y-49400000D02*
X171600000Y-49200000D01*
X171200000Y-48800000D02*
X155200000Y-48800000D01*
X161847657Y-101799975D02*
X161847657Y-87641070D01*
X145315786Y-108801067D02*
X145315786Y-105307313D01*
X146184404Y-109669685D02*
X145315786Y-108801067D01*
X162744364Y-86744364D02*
X171600000Y-77888728D01*
X145315786Y-105307313D02*
X146379533Y-104243565D01*
X171600000Y-77888728D02*
X171600000Y-49400000D01*
%TO.N,/E12*%
X150601358Y-91570215D02*
X149012831Y-93158742D01*
X155207108Y-81387007D02*
X150601358Y-85992757D01*
X150601358Y-85992757D02*
X150601358Y-91570215D01*
X155207108Y-79407108D02*
X155207108Y-81387007D01*
%TO.N,/E6*%
X147598617Y-108255472D02*
X147010016Y-107666871D01*
X161851471Y-42800000D02*
X161800000Y-42800000D01*
X166251471Y-47200000D02*
X161851471Y-42800000D01*
X147010016Y-107666871D02*
X147010016Y-107007199D01*
X147010016Y-107007199D02*
X147115786Y-106901429D01*
X173200000Y-47600000D02*
X172800000Y-47200000D01*
X172800000Y-47200000D02*
X166251471Y-47200000D01*
X173200000Y-78551471D02*
X173200000Y-47600000D01*
X165047667Y-101800000D02*
X165047667Y-86703804D01*
X165047667Y-86703804D02*
X173200000Y-78551471D01*
%TO.N,/E5*%
X172400000Y-47600000D02*
X168400000Y-47600000D01*
X164247664Y-86938121D02*
X172392893Y-78792892D01*
X172800000Y-48000000D02*
X172400000Y-47600000D01*
X165802942Y-47600000D02*
X161896456Y-43693514D01*
X164247664Y-101800000D02*
X164247664Y-86938121D01*
X146515786Y-107879747D02*
X146515786Y-106484214D01*
X146915657Y-106084343D02*
X147084343Y-106084343D01*
X172800000Y-78385785D02*
X172800000Y-48400000D01*
X168400000Y-47600000D02*
X165802942Y-47600000D01*
X172392893Y-78792892D02*
X172800000Y-78385785D01*
X172800000Y-48400000D02*
X172800000Y-48000000D01*
X146515786Y-106484214D02*
X146915657Y-106084343D01*
X147245064Y-108609025D02*
X146515786Y-107879747D01*
%TO.N,/E3*%
X145715786Y-108493961D02*
X145715786Y-105755842D01*
X146537957Y-109316132D02*
X145715786Y-108493961D01*
X162647659Y-101800002D02*
X162647659Y-87406754D01*
X162647659Y-87406754D02*
X172000000Y-78054413D01*
X154740000Y-48400000D02*
X153140000Y-50000000D01*
X171600000Y-48400000D02*
X154740000Y-48400000D01*
X172000000Y-78054413D02*
X172000000Y-48800000D01*
X172000000Y-48800000D02*
X171600000Y-48400000D01*
X145715786Y-105755842D02*
X146335813Y-105135815D01*
%TO.N,/E14*%
X153807108Y-80807108D02*
X153807108Y-81655637D01*
X149801358Y-85661386D02*
X149801358Y-90956001D01*
X149801358Y-90956001D02*
X148305724Y-92451635D01*
X153807108Y-81655637D02*
X149801358Y-85661386D01*
%TO.N,/E9*%
X154600000Y-73326922D02*
X156506390Y-75233312D01*
X151401358Y-91901587D02*
X150800000Y-92502945D01*
X150800000Y-93492893D02*
X150073491Y-94219402D01*
X151401358Y-86324128D02*
X151401358Y-91901587D01*
X154600000Y-64000000D02*
X154600000Y-73326922D01*
X156607108Y-78007108D02*
X156607108Y-81118378D01*
X156607108Y-81118378D02*
X151401358Y-86324128D01*
X150800000Y-92502945D02*
X150800000Y-93492893D01*
%TO.N,/E7*%
X155904960Y-72369133D02*
X157637765Y-74101938D01*
X151600000Y-92834317D02*
X152201358Y-92232959D01*
X152201358Y-86655500D02*
X157962439Y-80894419D01*
X157962439Y-80894419D02*
X157962439Y-76651777D01*
X152201358Y-92232959D02*
X152201358Y-86655500D01*
X155904960Y-64084491D02*
X155904960Y-72369133D01*
X150780598Y-94926509D02*
X151600000Y-94107107D01*
X151600000Y-94107107D02*
X151600000Y-92834317D01*
%TO.N,/E0*%
X170800000Y-50000000D02*
X170400000Y-49600000D01*
X170800000Y-77557356D02*
X170800000Y-71200000D01*
X160247653Y-101799124D02*
X160247653Y-88109702D01*
X170800000Y-71200000D02*
X170800000Y-50000000D01*
X160247653Y-88109702D02*
X163578678Y-84778678D01*
X170200000Y-49600000D02*
X156800000Y-49600000D01*
X156800000Y-49600000D02*
X156600000Y-49800000D01*
X170400000Y-49600000D02*
X170200000Y-49600000D01*
X163578678Y-84778678D02*
X170800000Y-77557356D01*
X143589984Y-107773977D02*
X144000000Y-107773977D01*
X142754936Y-108609025D02*
X143589984Y-107773977D01*
%TO.N,/E15*%
X153207108Y-81407108D02*
X153207108Y-81592892D01*
X149401358Y-90648895D02*
X147952171Y-92098082D01*
X149401358Y-85398642D02*
X149401358Y-90648895D01*
X153207108Y-81592892D02*
X149401358Y-85398642D01*
%TO.N,Net-(J8-Pin_12)*%
X152601358Y-92200000D02*
X157600000Y-97198642D01*
X158800000Y-75907108D02*
X158800000Y-80622544D01*
X160415758Y-105349928D02*
X159609711Y-106155975D01*
X152601358Y-86821186D02*
X152601358Y-92200000D01*
X159609710Y-114790290D02*
X159600000Y-114800000D01*
X160415758Y-102815758D02*
X160415758Y-105349928D01*
X157600000Y-97198642D02*
X157600000Y-100000000D01*
X158800000Y-80622544D02*
X152601358Y-86821186D01*
X159609711Y-106155975D02*
X159609710Y-114790290D01*
X157600000Y-100000000D02*
X160415758Y-102815758D01*
%TO.N,/QSPI1_IO3*%
X153255472Y-97401383D02*
X153998642Y-96658213D01*
X167824999Y-92575001D02*
X167800000Y-92600000D01*
X153998642Y-96400000D02*
X153998642Y-95888076D01*
X153998642Y-95888076D02*
X154343359Y-95543359D01*
X169200000Y-92575001D02*
X167824999Y-92575001D01*
X153998642Y-96658213D02*
X153998642Y-96400000D01*
%TO.N,/QSPI1_IO2*%
X153490520Y-95459179D02*
X153490520Y-96459227D01*
X170800000Y-108800000D02*
X170800000Y-107425000D01*
X153490520Y-96459227D02*
X152901918Y-97047829D01*
X154191868Y-94757831D02*
X153490520Y-95459179D01*
%TO.N,/SWDIO*%
X137600000Y-98963961D02*
X136390975Y-97754936D01*
X149000000Y-116080000D02*
X149000000Y-115000000D01*
X137600000Y-99000000D02*
X137600000Y-98963961D01*
X149000000Y-115000000D02*
X149200000Y-114800000D01*
%TO.N,/SWCLK*%
X134000000Y-102400000D02*
X134114719Y-102400000D01*
X134114719Y-102400000D02*
X135330315Y-101184404D01*
X147000000Y-116079999D02*
X147000000Y-114800000D01*
%TO.N,/QSPI1_IO1*%
X153228427Y-94600000D02*
X153400000Y-94600000D01*
X151841258Y-95987169D02*
X153228427Y-94600000D01*
X169400000Y-107650001D02*
X169199999Y-107450000D01*
X169400000Y-108800000D02*
X169400000Y-107650001D01*
%TO.N,/QSPI1_IO0*%
X151487705Y-95633616D02*
X153147017Y-93974304D01*
X153147017Y-93974304D02*
X153147017Y-93841051D01*
X172399999Y-92600000D02*
X172400000Y-91200000D01*
%TO.N,/QSPI1_SCK*%
X152349257Y-94064956D02*
X151134151Y-95280062D01*
X170800000Y-92575001D02*
X170800000Y-91200000D01*
X152349257Y-93600000D02*
X152349257Y-94064956D01*
%TO.N,/SWO*%
X138400000Y-107200000D02*
X138507107Y-107200000D01*
X138507107Y-107200000D02*
X139926509Y-105780598D01*
X145000000Y-116080000D02*
X145000000Y-114800000D01*
%TO.N,/LCD_BACKLIGHT*%
X163248529Y-72800000D02*
X160965686Y-72800000D01*
X163000000Y-65800000D02*
X163600000Y-66400000D01*
X149000000Y-84765686D02*
X149000000Y-86800000D01*
X163400000Y-54800000D02*
X163400000Y-59903897D01*
X149000000Y-86800000D02*
X149001358Y-86801358D01*
X160965686Y-72800000D02*
X149000000Y-84765686D01*
X163000000Y-60303897D02*
X163000000Y-65800000D01*
X149001358Y-86801358D02*
X149001358Y-90341787D01*
X163400000Y-59903897D02*
X163000000Y-60303897D01*
X163600000Y-72448529D02*
X163248529Y-72800000D01*
X149001358Y-90341787D02*
X147598617Y-91744528D01*
X163600000Y-66400000D02*
X163600000Y-72448529D01*
%TO.N,/LCD_RESET*%
X146200000Y-92400000D02*
X146236039Y-92400000D01*
X146236039Y-92400000D02*
X147245064Y-91390975D01*
%TO.N,/SPI2_NSS*%
X143815596Y-89384404D02*
X143815596Y-90330315D01*
X163400000Y-65400000D02*
X163400000Y-60752426D01*
X164000000Y-66000000D02*
X163400000Y-65400000D01*
X163400000Y-60752426D02*
X163772206Y-60380220D01*
X161000000Y-72200000D02*
X143815596Y-89384404D01*
X163000000Y-72200000D02*
X161000000Y-72200000D01*
X164000000Y-72000000D02*
X164000000Y-66000000D01*
X164200000Y-72200000D02*
X164000000Y-72000000D01*
%TO.N,/SPI2_SCK*%
X144178175Y-91400000D02*
X143462043Y-90683868D01*
X165600000Y-61400000D02*
X165200000Y-61800000D01*
X165643761Y-72404771D02*
X165643761Y-70443761D01*
X164600000Y-63600000D02*
X164600000Y-62400000D01*
X165643761Y-70443761D02*
X165200000Y-70000000D01*
X165200000Y-70000000D02*
X165200000Y-64200000D01*
X145351471Y-91400000D02*
X144178175Y-91400000D01*
X164600000Y-62400000D02*
X165200000Y-61800000D01*
X164600000Y-73586880D02*
X164600000Y-73448532D01*
X165200000Y-64200000D02*
X164600000Y-63600000D01*
X168227250Y-61400000D02*
X165600000Y-61400000D01*
X164600000Y-73448532D02*
X165643761Y-72404771D01*
%TO.N,/LCD_COMMAND*%
X168227250Y-60600000D02*
X165551471Y-60600000D01*
X163757295Y-73491234D02*
X165200000Y-72048529D01*
X144703883Y-92000000D02*
X144071067Y-92000000D01*
X165551471Y-60600000D02*
X164200000Y-61951471D01*
X164800000Y-70751471D02*
X164800000Y-64800000D01*
X163757295Y-73601373D02*
X163757295Y-73491234D01*
X165200000Y-72048529D02*
X165200000Y-71151471D01*
X164200000Y-64200000D02*
X164500000Y-64500000D01*
X164200000Y-61951471D02*
X164200000Y-64200000D01*
X144071067Y-92000000D02*
X143108489Y-91037422D01*
X164800000Y-64800000D02*
X164500000Y-64500000D01*
X165200000Y-71151471D02*
X164800000Y-70751471D01*
%TO.N,/SPI2_MOSI*%
X163800000Y-65000000D02*
X163800000Y-61200000D01*
X142754936Y-91390975D02*
X142028430Y-90664469D01*
X164600000Y-71400000D02*
X164400000Y-71200000D01*
X142028430Y-90559802D02*
X149194116Y-83394116D01*
X168227250Y-59800000D02*
X165200000Y-59800000D01*
X164400000Y-71200000D02*
X164400000Y-65600000D01*
X142028430Y-90664469D02*
X142028430Y-90559802D01*
X161188232Y-71400000D02*
X163000000Y-71400000D01*
X164400000Y-65600000D02*
X163800000Y-65000000D01*
X163800000Y-61200000D02*
X165200000Y-59800000D01*
X149194116Y-83394116D02*
X161188232Y-71400000D01*
%TO.N,/QSPI1_NSS*%
X148200000Y-94678679D02*
X148200000Y-94800000D01*
X167600000Y-108800000D02*
X167599999Y-107425000D01*
X166714999Y-107425000D02*
X165800000Y-106510001D01*
X149366384Y-93512295D02*
X148200000Y-94678679D01*
X167600000Y-107425000D02*
X166714999Y-107425000D01*
%TO.N,/LSE_OUT*%
X149800000Y-107628427D02*
X149800000Y-108099066D01*
X150840734Y-108801358D02*
X151239376Y-109200000D01*
X149012831Y-106841258D02*
X149800000Y-107628427D01*
X150502292Y-108801358D02*
X150840734Y-108801358D01*
X149800000Y-108099066D02*
X150502292Y-108801358D01*
%TO.N,/HSE_OUT*%
X150427045Y-105427045D02*
X151134350Y-106134350D01*
X152213102Y-106134350D02*
X152439376Y-106360624D01*
X151134350Y-106134350D02*
X152213102Y-106134350D01*
%TO.N,/NRST*%
X149707107Y-104000000D02*
X149600000Y-104000000D01*
X146196348Y-112403652D02*
X142520000Y-116080000D01*
X146196348Y-112276381D02*
X146196348Y-112403652D01*
X142520000Y-116080000D02*
X141000000Y-116080000D01*
X150780598Y-105073491D02*
X149707107Y-104000000D01*
%TO.N,Net-(U3-NCS)*%
X168095000Y-102725000D02*
X168095000Y-105280000D01*
X168095000Y-105280000D02*
X167599999Y-105775000D01*
%TO.N,/power/BUCK_FB*%
X124600000Y-51425000D02*
X126200000Y-53025000D01*
X126200000Y-53025000D02*
X126200000Y-58999999D01*
X124600000Y-51375000D02*
X124600000Y-51425000D01*
X124799999Y-60400000D02*
X124137500Y-60400000D01*
X126200000Y-58999999D02*
X124799999Y-60400000D01*
%TO.N,Net-(U3-Q-DQ1)*%
X169364999Y-102725000D02*
X169364999Y-105635001D01*
X169364999Y-105635001D02*
X169200000Y-105800001D01*
%TO.N,Net-(U3-NW-DQ2)*%
X170635000Y-105610000D02*
X170800000Y-105775000D01*
X170635000Y-102725000D02*
X170635000Y-105610000D01*
%TO.N,Net-(U3-NH_DQ3)*%
X169364999Y-94390000D02*
X169200000Y-94225001D01*
X169364999Y-97275000D02*
X169364999Y-94390000D01*
%TO.N,Net-(U3-CLK)*%
X170635000Y-97275000D02*
X170635000Y-94390000D01*
X170635000Y-94390000D02*
X170800000Y-94225001D01*
%TO.N,Net-(U3-D-DQ0)*%
X171905000Y-94745000D02*
X172399999Y-94250000D01*
X171904999Y-97275000D02*
X171905000Y-94745000D01*
%TO.N,/BOOT0*%
X134900000Y-114342641D02*
X141694276Y-107548365D01*
X134900000Y-120650000D02*
X134900000Y-114342641D01*
%TD*%
%TA.AperFunction,Conductor*%
%TO.N,+5V*%
G36*
X144943039Y-36419685D02*
G01*
X144988794Y-36472489D01*
X145000000Y-36524000D01*
X145000000Y-37040819D01*
X144980315Y-37107858D01*
X144927511Y-37153613D01*
X144858353Y-37163557D01*
X144794797Y-37134532D01*
X144792463Y-37132457D01*
X144711130Y-37058314D01*
X144525987Y-36943677D01*
X144525985Y-36943676D01*
X144322931Y-36865013D01*
X144322921Y-36865010D01*
X144250001Y-36851378D01*
X144250000Y-36851379D01*
X144250000Y-37684314D01*
X144245606Y-37679920D01*
X144154394Y-37627259D01*
X144052661Y-37600000D01*
X143947339Y-37600000D01*
X143845606Y-37627259D01*
X143754394Y-37679920D01*
X143750000Y-37684314D01*
X143750000Y-36851379D01*
X143749998Y-36851378D01*
X143677078Y-36865010D01*
X143677068Y-36865013D01*
X143474014Y-36943676D01*
X143474012Y-36943677D01*
X143288869Y-37058314D01*
X143288868Y-37058314D01*
X143127945Y-37205014D01*
X143098954Y-37243405D01*
X143042845Y-37285041D01*
X142973133Y-37289732D01*
X142911951Y-37255990D01*
X142901046Y-37243405D01*
X142872054Y-37205014D01*
X142711131Y-37058314D01*
X142525987Y-36943677D01*
X142525985Y-36943676D01*
X142322931Y-36865013D01*
X142322921Y-36865010D01*
X142250001Y-36851378D01*
X142250000Y-36851379D01*
X142250000Y-37684314D01*
X142245606Y-37679920D01*
X142154394Y-37627259D01*
X142052661Y-37600000D01*
X141947339Y-37600000D01*
X141845606Y-37627259D01*
X141754394Y-37679920D01*
X141750000Y-37684314D01*
X141750000Y-36851379D01*
X141749998Y-36851378D01*
X141677078Y-36865010D01*
X141677068Y-36865013D01*
X141474014Y-36943676D01*
X141474012Y-36943677D01*
X141288869Y-37058314D01*
X141288868Y-37058314D01*
X141127945Y-37205014D01*
X141098954Y-37243405D01*
X141042845Y-37285041D01*
X140973133Y-37289732D01*
X140911951Y-37255990D01*
X140901046Y-37243405D01*
X140872054Y-37205014D01*
X140711131Y-37058314D01*
X140525987Y-36943677D01*
X140525985Y-36943676D01*
X140322931Y-36865013D01*
X140322921Y-36865010D01*
X140250001Y-36851378D01*
X140250000Y-36851379D01*
X140250000Y-37684314D01*
X140245606Y-37679920D01*
X140154394Y-37627259D01*
X140052661Y-37600000D01*
X139947339Y-37600000D01*
X139845606Y-37627259D01*
X139754394Y-37679920D01*
X139750000Y-37684314D01*
X139750000Y-36851379D01*
X139749998Y-36851378D01*
X139677078Y-36865010D01*
X139677068Y-36865013D01*
X139474014Y-36943676D01*
X139474012Y-36943677D01*
X139288869Y-37058314D01*
X139288868Y-37058314D01*
X139127944Y-37205015D01*
X139098953Y-37243405D01*
X139042844Y-37285040D01*
X138973132Y-37289731D01*
X138911950Y-37255988D01*
X138901046Y-37243403D01*
X138872058Y-37205017D01*
X138872056Y-37205015D01*
X138711132Y-37058314D01*
X138525988Y-36943677D01*
X138525986Y-36943676D01*
X138322932Y-36865013D01*
X138322922Y-36865010D01*
X138250002Y-36851378D01*
X138250001Y-36851379D01*
X138250001Y-37684314D01*
X138245607Y-37679920D01*
X138154395Y-37627259D01*
X138052662Y-37600000D01*
X137947340Y-37600000D01*
X137845607Y-37627259D01*
X137754395Y-37679920D01*
X137750001Y-37684314D01*
X137750001Y-36851379D01*
X137749999Y-36851378D01*
X137677079Y-36865010D01*
X137677069Y-36865013D01*
X137474015Y-36943676D01*
X137474013Y-36943677D01*
X137288870Y-37058314D01*
X137288869Y-37058314D01*
X137127946Y-37205014D01*
X136996716Y-37378791D01*
X136899652Y-37573719D01*
X136849495Y-37749999D01*
X136849496Y-37750000D01*
X137684315Y-37750000D01*
X137679921Y-37754394D01*
X137627260Y-37845606D01*
X137600001Y-37947339D01*
X137600001Y-38052661D01*
X137627260Y-38154394D01*
X137679921Y-38245606D01*
X137684315Y-38250000D01*
X136849496Y-38250000D01*
X136899652Y-38426280D01*
X136996717Y-38621211D01*
X137078342Y-38729300D01*
X137103034Y-38794661D01*
X137088469Y-38862996D01*
X137039271Y-38912608D01*
X136971061Y-38927746D01*
X136905495Y-38903604D01*
X136891707Y-38891707D01*
X136600000Y-38600000D01*
X127200000Y-38600000D01*
X127199999Y-38600000D01*
X126400000Y-39399999D01*
X126400000Y-42948638D01*
X126380315Y-43015677D01*
X126363681Y-43036319D01*
X123036319Y-46363681D01*
X122974996Y-46397166D01*
X122948638Y-46400000D01*
X119399999Y-46400000D01*
X116600000Y-49199999D01*
X116600000Y-49943647D01*
X116599220Y-49957531D01*
X116594435Y-49999998D01*
X116594435Y-50000002D01*
X116599220Y-50042468D01*
X116600000Y-50056352D01*
X116600000Y-52743647D01*
X116599220Y-52757531D01*
X116594435Y-52799998D01*
X116594435Y-52800002D01*
X116599220Y-52842468D01*
X116600000Y-52856352D01*
X116600000Y-73400000D01*
X118257131Y-73400000D01*
X118298288Y-73409122D01*
X118298812Y-73407542D01*
X118305665Y-73409812D01*
X118305667Y-73409814D01*
X118472204Y-73464999D01*
X118574992Y-73475500D01*
X119425009Y-73475499D01*
X119425017Y-73475498D01*
X119425020Y-73475498D01*
X119481303Y-73469748D01*
X119527798Y-73464999D01*
X119694335Y-73409814D01*
X119694336Y-73409812D01*
X119701190Y-73407542D01*
X119701713Y-73409122D01*
X119742871Y-73400000D01*
X121058320Y-73400000D01*
X121098423Y-73408892D01*
X121099022Y-73407086D01*
X121272301Y-73464505D01*
X121272308Y-73464506D01*
X121375018Y-73474999D01*
X121549998Y-73474999D01*
X121549999Y-73474998D01*
X121549999Y-73400000D01*
X122049999Y-73400000D01*
X122049999Y-73474999D01*
X122224971Y-73474999D01*
X122224985Y-73474998D01*
X122263398Y-73471074D01*
X122332091Y-73483843D01*
X122382975Y-73531724D01*
X122400000Y-73594432D01*
X122400000Y-74476000D01*
X122380315Y-74543039D01*
X122327511Y-74588794D01*
X122276000Y-74600000D01*
X120600000Y-74600000D01*
X120600000Y-75346528D01*
X120594660Y-75382526D01*
X120592947Y-75388170D01*
X120554500Y-75581456D01*
X120554500Y-75581459D01*
X120554500Y-75778541D01*
X120554500Y-75778543D01*
X120554499Y-75778543D01*
X120592947Y-75971829D01*
X120594661Y-75977478D01*
X120600000Y-76013473D01*
X120600000Y-77400000D01*
X120963681Y-77763681D01*
X120997166Y-77825004D01*
X121000000Y-77851362D01*
X121000000Y-78148638D01*
X120980315Y-78215677D01*
X120963681Y-78236319D01*
X120600000Y-78599999D01*
X120600000Y-81400000D01*
X120963681Y-81763681D01*
X120997166Y-81825004D01*
X121000000Y-81851362D01*
X121000000Y-82148638D01*
X120980315Y-82215677D01*
X120963681Y-82236319D01*
X120600000Y-82599999D01*
X120600000Y-82876000D01*
X120580315Y-82943039D01*
X120527511Y-82988794D01*
X120476000Y-83000000D01*
X119324000Y-83000000D01*
X119256961Y-82980315D01*
X119211206Y-82927511D01*
X119200000Y-82876000D01*
X119200000Y-75918948D01*
X119202383Y-75894756D01*
X119225500Y-75778543D01*
X119225500Y-75581456D01*
X119202383Y-75465243D01*
X119200000Y-75441051D01*
X119200000Y-74600000D01*
X115524000Y-74600000D01*
X115456961Y-74580315D01*
X115411206Y-74527511D01*
X115400000Y-74476000D01*
X115400000Y-48651362D01*
X115419685Y-48584323D01*
X115436319Y-48563681D01*
X118763681Y-45236319D01*
X118825004Y-45202834D01*
X118851362Y-45200000D01*
X122400000Y-45200000D01*
X125200000Y-42400000D01*
X125200000Y-38851362D01*
X125219685Y-38784323D01*
X125236319Y-38763681D01*
X126563681Y-37436319D01*
X126625004Y-37402834D01*
X126651362Y-37400000D01*
X136600000Y-37400000D01*
X136600000Y-36524000D01*
X136619685Y-36456961D01*
X136672489Y-36411206D01*
X136724000Y-36400000D01*
X144876000Y-36400000D01*
X144943039Y-36419685D01*
G37*
%TD.AperFunction*%
%TA.AperFunction,Conductor*%
G36*
X139679920Y-37754394D02*
G01*
X139627259Y-37845606D01*
X139600000Y-37947339D01*
X139600000Y-38052661D01*
X139627259Y-38154394D01*
X139679920Y-38245606D01*
X139684314Y-38250000D01*
X138315687Y-38250000D01*
X138320081Y-38245606D01*
X138372742Y-38154394D01*
X138400001Y-38052661D01*
X138400001Y-37947339D01*
X138372742Y-37845606D01*
X138320081Y-37754394D01*
X138315687Y-37750000D01*
X139684314Y-37750000D01*
X139679920Y-37754394D01*
G37*
%TD.AperFunction*%
%TA.AperFunction,Conductor*%
G36*
X141679920Y-37754394D02*
G01*
X141627259Y-37845606D01*
X141600000Y-37947339D01*
X141600000Y-38052661D01*
X141627259Y-38154394D01*
X141679920Y-38245606D01*
X141684314Y-38250000D01*
X140315686Y-38250000D01*
X140320080Y-38245606D01*
X140372741Y-38154394D01*
X140400000Y-38052661D01*
X140400000Y-37947339D01*
X140372741Y-37845606D01*
X140320080Y-37754394D01*
X140315686Y-37750000D01*
X141684314Y-37750000D01*
X141679920Y-37754394D01*
G37*
%TD.AperFunction*%
%TA.AperFunction,Conductor*%
G36*
X143679920Y-37754394D02*
G01*
X143627259Y-37845606D01*
X143600000Y-37947339D01*
X143600000Y-38052661D01*
X143627259Y-38154394D01*
X143679920Y-38245606D01*
X143684314Y-38250000D01*
X142315686Y-38250000D01*
X142320080Y-38245606D01*
X142372741Y-38154394D01*
X142400000Y-38052661D01*
X142400000Y-37947339D01*
X142372741Y-37845606D01*
X142320080Y-37754394D01*
X142315686Y-37750000D01*
X143684314Y-37750000D01*
X143679920Y-37754394D01*
G37*
%TD.AperFunction*%
%TD*%
M02*
