%TF.GenerationSoftware,KiCad,Pcbnew,8.0.1*%
%TF.CreationDate,2024-05-18T20:09:52+02:00*%
%TF.ProjectId,STM32H7B0_devboard,53544d33-3248-4374-9230-5f646576626f,rev?*%
%TF.SameCoordinates,Original*%
%TF.FileFunction,Paste,Top*%
%TF.FilePolarity,Positive*%
%FSLAX46Y46*%
G04 Gerber Fmt 4.6, Leading zero omitted, Abs format (unit mm)*
G04 Created by KiCad (PCBNEW 8.0.1) date 2024-05-18 20:09:52*
%MOMM*%
%LPD*%
G01*
G04 APERTURE LIST*
G04 Aperture macros list*
%AMRoundRect*
0 Rectangle with rounded corners*
0 $1 Rounding radius*
0 $2 $3 $4 $5 $6 $7 $8 $9 X,Y pos of 4 corners*
0 Add a 4 corners polygon primitive as box body*
4,1,4,$2,$3,$4,$5,$6,$7,$8,$9,$2,$3,0*
0 Add four circle primitives for the rounded corners*
1,1,$1+$1,$2,$3*
1,1,$1+$1,$4,$5*
1,1,$1+$1,$6,$7*
1,1,$1+$1,$8,$9*
0 Add four rect primitives between the rounded corners*
20,1,$1+$1,$2,$3,$4,$5,0*
20,1,$1+$1,$4,$5,$6,$7,0*
20,1,$1+$1,$6,$7,$8,$9,0*
20,1,$1+$1,$8,$9,$2,$3,0*%
%AMRotRect*
0 Rectangle, with rotation*
0 The origin of the aperture is its center*
0 $1 length*
0 $2 width*
0 $3 Rotation angle, in degrees counterclockwise*
0 Add horizontal line*
21,1,$1,$2,0,0,$3*%
G04 Aperture macros list end*
%ADD10RoundRect,0.200000X0.275000X-0.200000X0.275000X0.200000X-0.275000X0.200000X-0.275000X-0.200000X0*%
%ADD11RoundRect,0.150000X0.587500X0.150000X-0.587500X0.150000X-0.587500X-0.150000X0.587500X-0.150000X0*%
%ADD12RoundRect,0.135000X0.135000X0.185000X-0.135000X0.185000X-0.135000X-0.185000X0.135000X-0.185000X0*%
%ADD13R,0.600000X2.000000*%
%ADD14RoundRect,0.150000X-0.500000X0.150000X-0.500000X-0.150000X0.500000X-0.150000X0.500000X0.150000X0*%
%ADD15RoundRect,0.075000X-0.575000X0.075000X-0.575000X-0.075000X0.575000X-0.075000X0.575000X0.075000X0*%
%ADD16RoundRect,0.150000X-0.512500X-0.150000X0.512500X-0.150000X0.512500X0.150000X-0.512500X0.150000X0*%
%ADD17RoundRect,0.135000X-0.226274X-0.035355X-0.035355X-0.226274X0.226274X0.035355X0.035355X0.226274X0*%
%ADD18RoundRect,0.250000X-0.650000X0.325000X-0.650000X-0.325000X0.650000X-0.325000X0.650000X0.325000X0*%
%ADD19R,2.700000X0.800000*%
%ADD20RoundRect,0.135000X-0.135000X-0.185000X0.135000X-0.185000X0.135000X0.185000X-0.135000X0.185000X0*%
%ADD21RoundRect,0.135000X-0.185000X0.135000X-0.185000X-0.135000X0.185000X-0.135000X0.185000X0.135000X0*%
%ADD22RoundRect,0.218750X-0.335876X-0.026517X-0.026517X-0.335876X0.335876X0.026517X0.026517X0.335876X0*%
%ADD23R,0.889000X0.711200*%
%ADD24R,0.660400X0.508000*%
%ADD25RoundRect,0.135000X0.185000X-0.135000X0.185000X0.135000X-0.185000X0.135000X-0.185000X-0.135000X0*%
%ADD26RoundRect,0.150000X-0.587500X-0.150000X0.587500X-0.150000X0.587500X0.150000X-0.587500X0.150000X0*%
%ADD27RoundRect,0.150000X0.150000X0.200000X-0.150000X0.200000X-0.150000X-0.200000X0.150000X-0.200000X0*%
%ADD28RoundRect,0.200000X-0.275000X0.200000X-0.275000X-0.200000X0.275000X-0.200000X0.275000X0.200000X0*%
%ADD29RoundRect,0.140000X-0.021213X0.219203X-0.219203X0.021213X0.021213X-0.219203X0.219203X-0.021213X0*%
%ADD30RoundRect,0.200000X0.335876X0.053033X0.053033X0.335876X-0.335876X-0.053033X-0.053033X-0.335876X0*%
%ADD31RoundRect,0.140000X0.219203X0.021213X0.021213X0.219203X-0.219203X-0.021213X-0.021213X-0.219203X0*%
%ADD32RoundRect,0.200000X-0.335876X-0.053033X-0.053033X-0.335876X0.335876X0.053033X0.053033X0.335876X0*%
%ADD33RoundRect,0.200000X-0.200000X-0.275000X0.200000X-0.275000X0.200000X0.275000X-0.200000X0.275000X0*%
%ADD34RoundRect,0.250000X0.650000X-0.325000X0.650000X0.325000X-0.650000X0.325000X-0.650000X-0.325000X0*%
%ADD35R,0.406400X0.762000*%
%ADD36RoundRect,0.140000X0.021213X-0.219203X0.219203X-0.021213X-0.021213X0.219203X-0.219203X0.021213X0*%
%ADD37RoundRect,0.140000X-0.219203X-0.021213X-0.021213X-0.219203X0.219203X0.021213X0.021213X0.219203X0*%
%ADD38RoundRect,0.250000X0.375000X0.625000X-0.375000X0.625000X-0.375000X-0.625000X0.375000X-0.625000X0*%
%ADD39RoundRect,0.140000X-0.170000X0.140000X-0.170000X-0.140000X0.170000X-0.140000X0.170000X0.140000X0*%
%ADD40RoundRect,0.250000X-0.325000X-0.650000X0.325000X-0.650000X0.325000X0.650000X-0.325000X0.650000X0*%
%ADD41RotRect,1.000000X1.800000X135.000000*%
%ADD42RoundRect,0.075000X0.565685X-0.459619X-0.459619X0.565685X-0.565685X0.459619X0.459619X-0.565685X0*%
%ADD43RoundRect,0.075000X0.565685X0.459619X0.459619X0.565685X-0.565685X-0.459619X-0.459619X-0.565685X0*%
%ADD44RotRect,1.400000X1.200000X315.000000*%
%ADD45RoundRect,0.135000X0.035355X-0.226274X0.226274X-0.035355X-0.035355X0.226274X-0.226274X0.035355X0*%
G04 APERTURE END LIST*
D10*
%TO.C,R26*%
X169200000Y-94225001D03*
X169200000Y-92575001D03*
%TD*%
D11*
%TO.C,Q2*%
X120937500Y-69750000D03*
X120937500Y-67850000D03*
X119062499Y-68800000D03*
%TD*%
D12*
%TO.C,R10*%
X125109999Y-112200000D03*
X124090001Y-112200000D03*
%TD*%
D13*
%TO.C,U3*%
X168095001Y-102725000D03*
X169365000Y-102725000D03*
X170635000Y-102725000D03*
X171904999Y-102725000D03*
X171904999Y-97275000D03*
X170635000Y-97275000D03*
X169365000Y-97275000D03*
X168095001Y-97275000D03*
%TD*%
D14*
%TO.C,J3*%
X122745000Y-76800000D03*
X122745000Y-77600000D03*
D15*
X122744999Y-78750000D03*
X122745000Y-79750000D03*
X122745000Y-80250000D03*
X122744999Y-81250000D03*
D14*
X122745000Y-82400000D03*
X122745000Y-83200000D03*
X122745000Y-83200000D03*
X122745000Y-82400000D03*
D15*
X122745000Y-81750000D03*
X122745000Y-80750000D03*
X122745000Y-79250000D03*
X122745000Y-78250000D03*
D14*
X122745000Y-77600000D03*
X122745000Y-76800000D03*
%TD*%
D16*
%TO.C,U4*%
X121862500Y-58500002D03*
X121862500Y-59450001D03*
X121862500Y-60400000D03*
X124137500Y-60400000D03*
X124137500Y-59450001D03*
X124137500Y-58500002D03*
%TD*%
D17*
%TO.C,R2*%
X151239376Y-109200000D03*
X151960624Y-109921248D03*
%TD*%
D18*
%TO.C,C19*%
X120000000Y-62724999D03*
X120000000Y-65675001D03*
%TD*%
D19*
%TO.C,L2*%
X118600000Y-59350000D03*
X118600000Y-57050000D03*
%TD*%
D20*
%TO.C,R18*%
X166207252Y-62800000D03*
X167227250Y-62800000D03*
%TD*%
D21*
%TO.C,R16*%
X166427250Y-63890001D03*
X166427250Y-64909999D03*
%TD*%
D22*
%TO.C,L1*%
X156043153Y-103043153D03*
X157156847Y-104156847D03*
%TD*%
D23*
%TO.C,C18*%
X123000000Y-65901800D03*
D24*
X122530101Y-65050900D03*
D23*
X123000000Y-64200000D03*
D24*
X123469899Y-65050900D03*
%TD*%
D20*
%TO.C,R9*%
X126090001Y-112200000D03*
X127109999Y-112200000D03*
%TD*%
D25*
%TO.C,R13*%
X163427250Y-51509999D03*
X163427250Y-50490001D03*
%TD*%
D26*
%TO.C,Q1*%
X165289750Y-50850000D03*
X165289750Y-52750000D03*
X167164751Y-51800000D03*
%TD*%
D27*
%TO.C,D3*%
X122900000Y-67800000D03*
X124300000Y-67800000D03*
%TD*%
D28*
%TO.C,R21*%
X126200000Y-51375000D03*
X126200000Y-53025000D03*
%TD*%
D29*
%TO.C,C7*%
X151339411Y-107460589D03*
X150660589Y-108139411D03*
%TD*%
D10*
%TO.C,R22*%
X125560000Y-84625000D03*
X125560000Y-82975000D03*
%TD*%
D30*
%TO.C,R1*%
X133383363Y-105783363D03*
X132216637Y-104616637D03*
%TD*%
D22*
%TO.C,D1*%
X134488217Y-106888217D03*
X135601911Y-108001911D03*
%TD*%
D25*
%TO.C,R6*%
X147000000Y-117099997D03*
X147000000Y-116079999D03*
%TD*%
D29*
%TO.C,C17*%
X154739411Y-104060589D03*
X154060589Y-104739411D03*
%TD*%
D31*
%TO.C,C9*%
X150600000Y-114200000D03*
X149921178Y-113521178D03*
%TD*%
%TO.C,C1*%
X141539411Y-111939411D03*
X140860589Y-111260589D03*
%TD*%
D32*
%TO.C,R4*%
X131085267Y-105748007D03*
X132251993Y-106914733D03*
%TD*%
D33*
%TO.C,R19*%
X122975000Y-69800000D03*
X124625000Y-69800000D03*
%TD*%
D10*
%TO.C,R27*%
X170800000Y-94225001D03*
X170800000Y-92575001D03*
%TD*%
D34*
%TO.C,C22*%
X119200000Y-52875001D03*
X119200000Y-49924999D03*
%TD*%
D35*
%TO.C,FL1*%
X130703900Y-79075001D03*
X129891100Y-79075001D03*
X129891100Y-80924999D03*
X130703900Y-80924999D03*
%TD*%
D31*
%TO.C,C11*%
X156339411Y-107339411D03*
X155660589Y-106660589D03*
%TD*%
D36*
%TO.C,C5*%
X145660589Y-88939411D03*
X146339411Y-88260589D03*
%TD*%
D18*
%TO.C,C20*%
X126000000Y-62724999D03*
X126000000Y-65675001D03*
%TD*%
D37*
%TO.C,C8*%
X148460589Y-112060589D03*
X149139411Y-112739411D03*
%TD*%
D20*
%TO.C,R12*%
X166627250Y-54200000D03*
X167647248Y-54200000D03*
%TD*%
D38*
%TO.C,F1*%
X121799999Y-72100000D03*
X119000001Y-72100000D03*
%TD*%
D34*
%TO.C,C23*%
X121800000Y-52875001D03*
X121800000Y-49924999D03*
%TD*%
D29*
%TO.C,C2*%
X149339411Y-109460589D03*
X148660589Y-110139411D03*
%TD*%
D39*
%TO.C,C14*%
X167627250Y-55400000D03*
X167627250Y-56360000D03*
%TD*%
D22*
%TO.C,D2*%
X133356847Y-108019587D03*
X134470541Y-109133281D03*
%TD*%
D40*
%TO.C,C21*%
X121525000Y-56000000D03*
X124475000Y-56000000D03*
%TD*%
D10*
%TO.C,R24*%
X169199999Y-107450000D03*
X169199999Y-105800000D03*
%TD*%
D31*
%TO.C,C12*%
X148339411Y-89539411D03*
X147660589Y-88860589D03*
%TD*%
D28*
%TO.C,R20*%
X124600000Y-51375000D03*
X124600000Y-53025000D03*
%TD*%
D10*
%TO.C,R28*%
X172399999Y-94250000D03*
X172399999Y-92600000D03*
%TD*%
D20*
%TO.C,R15*%
X166207252Y-60400000D03*
X167227250Y-60400000D03*
%TD*%
D41*
%TO.C,Y1*%
X150116117Y-110916117D03*
X151883883Y-112683883D03*
%TD*%
D10*
%TO.C,R25*%
X170800000Y-107425000D03*
X170800000Y-105775000D03*
%TD*%
D42*
%TO.C,U1*%
X146184404Y-109669685D03*
X146537957Y-109316132D03*
X146891511Y-108962578D03*
X147245064Y-108609025D03*
X147598617Y-108255472D03*
X147952171Y-107901918D03*
X148305724Y-107548365D03*
X148659278Y-107194811D03*
X149012831Y-106841258D03*
X149366384Y-106487705D03*
X149719938Y-106134151D03*
X150073491Y-105780598D03*
X150427045Y-105427045D03*
X150780598Y-105073491D03*
X151134151Y-104719938D03*
X151487705Y-104366384D03*
X151841258Y-104012831D03*
X152194811Y-103659278D03*
X152548365Y-103305724D03*
X152901918Y-102952171D03*
X153255472Y-102598617D03*
X153609025Y-102245064D03*
X153962578Y-101891511D03*
X154316132Y-101537957D03*
X154669685Y-101184404D03*
D43*
X154669685Y-98815596D03*
X154316132Y-98462043D03*
X153962578Y-98108489D03*
X153609025Y-97754936D03*
X153255472Y-97401383D03*
X152901918Y-97047829D03*
X152548365Y-96694276D03*
X152194811Y-96340722D03*
X151841258Y-95987169D03*
X151487705Y-95633616D03*
X151134151Y-95280062D03*
X150780598Y-94926509D03*
X150427045Y-94572955D03*
X150073491Y-94219402D03*
X149719938Y-93865849D03*
X149366384Y-93512295D03*
X149012831Y-93158742D03*
X148659278Y-92805189D03*
X148305724Y-92451635D03*
X147952171Y-92098082D03*
X147598617Y-91744528D03*
X147245064Y-91390975D03*
X146891511Y-91037422D03*
X146537957Y-90683868D03*
X146184404Y-90330315D03*
D42*
X143815596Y-90330315D03*
X143462043Y-90683868D03*
X143108489Y-91037422D03*
X142754936Y-91390975D03*
X142401383Y-91744528D03*
X142047829Y-92098082D03*
X141694276Y-92451635D03*
X141340722Y-92805189D03*
X140987169Y-93158742D03*
X140633616Y-93512295D03*
X140280062Y-93865849D03*
X139926509Y-94219402D03*
X139572955Y-94572955D03*
X139219402Y-94926509D03*
X138865849Y-95280062D03*
X138512295Y-95633616D03*
X138158742Y-95987169D03*
X137805189Y-96340722D03*
X137451635Y-96694276D03*
X137098082Y-97047829D03*
X136744528Y-97401383D03*
X136390975Y-97754936D03*
X136037422Y-98108489D03*
X135683868Y-98462043D03*
X135330315Y-98815596D03*
D43*
X135330315Y-101184404D03*
X135683868Y-101537957D03*
X136037422Y-101891511D03*
X136390975Y-102245064D03*
X136744528Y-102598617D03*
X137098082Y-102952171D03*
X137451635Y-103305724D03*
X137805189Y-103659278D03*
X138158742Y-104012831D03*
X138512295Y-104366384D03*
X138865849Y-104719938D03*
X139219402Y-105073491D03*
X139572955Y-105427045D03*
X139926509Y-105780598D03*
X140280062Y-106134151D03*
X140633616Y-106487705D03*
X140987169Y-106841258D03*
X141340722Y-107194811D03*
X141694276Y-107548365D03*
X142047829Y-107901918D03*
X142401383Y-108255472D03*
X142754936Y-108609025D03*
X143108489Y-108962578D03*
X143462043Y-109316132D03*
X143815596Y-109669685D03*
%TD*%
D29*
%TO.C,C13*%
X134539411Y-96660589D03*
X133860589Y-97339411D03*
%TD*%
%TO.C,C16*%
X155539411Y-104860589D03*
X154860589Y-105539411D03*
%TD*%
D25*
%TO.C,R7*%
X145000000Y-117099998D03*
X145000000Y-116080000D03*
%TD*%
D10*
%TO.C,R23*%
X167599999Y-107425000D03*
X167599999Y-105775000D03*
%TD*%
D37*
%TO.C,C6*%
X155460589Y-96660589D03*
X156139411Y-97339411D03*
%TD*%
D44*
%TO.C,Y2*%
X152797919Y-108402081D03*
X154353554Y-109957716D03*
X155555635Y-108755635D03*
X154000000Y-107200000D03*
%TD*%
D39*
%TO.C,C15*%
X167627250Y-63920000D03*
X167627250Y-64880000D03*
%TD*%
D25*
%TO.C,R8*%
X141000000Y-117099998D03*
X141000000Y-116080000D03*
%TD*%
D16*
%TO.C,U5*%
X125760000Y-79050001D03*
X125760000Y-80000000D03*
X125760000Y-80949999D03*
X128035000Y-80949999D03*
X128035000Y-80000000D03*
X128035000Y-79050001D03*
%TD*%
D25*
%TO.C,R11*%
X165800000Y-106509999D03*
X165800000Y-105490001D03*
%TD*%
D31*
%TO.C,C3*%
X142339411Y-111139411D03*
X141660589Y-110460589D03*
%TD*%
D20*
%TO.C,R29*%
X137490001Y-123200000D03*
X138509999Y-123200000D03*
%TD*%
D25*
%TO.C,R5*%
X149000000Y-117099998D03*
X149000000Y-116080000D03*
%TD*%
%TO.C,R14*%
X163427250Y-53709999D03*
X163427250Y-52690001D03*
%TD*%
D31*
%TO.C,C4*%
X133939411Y-99400000D03*
X133260589Y-98721178D03*
%TD*%
D12*
%TO.C,R17*%
X167227250Y-61600000D03*
X166207252Y-61600000D03*
%TD*%
D45*
%TO.C,R3*%
X152439376Y-106360624D03*
X153160624Y-105639376D03*
%TD*%
D37*
%TO.C,C10*%
X152660589Y-110660589D03*
X153339411Y-111339411D03*
%TD*%
M02*
