%TF.GenerationSoftware,KiCad,Pcbnew,8.0.1*%
%TF.CreationDate,2024-05-18T20:09:52+02:00*%
%TF.ProjectId,STM32H7B0_devboard,53544d33-3248-4374-9230-5f646576626f,rev?*%
%TF.SameCoordinates,Original*%
%TF.FileFunction,Copper,L4,Bot*%
%TF.FilePolarity,Positive*%
%FSLAX46Y46*%
G04 Gerber Fmt 4.6, Leading zero omitted, Abs format (unit mm)*
G04 Created by KiCad (PCBNEW 8.0.1) date 2024-05-18 20:09:52*
%MOMM*%
%LPD*%
G01*
G04 APERTURE LIST*
G04 Aperture macros list*
%AMFreePoly0*
4,1,6,1.000000,0.000000,0.500000,-0.750000,-0.500000,-0.750000,-0.500000,0.750000,0.500000,0.750000,1.000000,0.000000,1.000000,0.000000,$1*%
%AMFreePoly1*
4,1,6,0.500000,-0.750000,-0.650000,-0.750000,-0.150000,0.000000,-0.650000,0.750000,0.500000,0.750000,0.500000,-0.750000,0.500000,-0.750000,$1*%
G04 Aperture macros list end*
%TA.AperFunction,ComponentPad*%
%ADD10C,0.900000*%
%TD*%
%TA.AperFunction,ComponentPad*%
%ADD11C,8.600000*%
%TD*%
%TA.AperFunction,ComponentPad*%
%ADD12R,1.350000X1.350000*%
%TD*%
%TA.AperFunction,ComponentPad*%
%ADD13O,1.350000X1.350000*%
%TD*%
%TA.AperFunction,ComponentPad*%
%ADD14O,2.100000X1.000000*%
%TD*%
%TA.AperFunction,ComponentPad*%
%ADD15O,1.600000X1.000000*%
%TD*%
%TA.AperFunction,ComponentPad*%
%ADD16R,1.600000X1.600000*%
%TD*%
%TA.AperFunction,ComponentPad*%
%ADD17C,1.600000*%
%TD*%
%TA.AperFunction,SMDPad,CuDef*%
%ADD18FreePoly0,180.000000*%
%TD*%
%TA.AperFunction,SMDPad,CuDef*%
%ADD19FreePoly1,180.000000*%
%TD*%
%TA.AperFunction,SMDPad,CuDef*%
%ADD20FreePoly0,90.000000*%
%TD*%
%TA.AperFunction,SMDPad,CuDef*%
%ADD21FreePoly1,90.000000*%
%TD*%
%TA.AperFunction,SMDPad,CuDef*%
%ADD22FreePoly0,270.000000*%
%TD*%
%TA.AperFunction,SMDPad,CuDef*%
%ADD23FreePoly1,270.000000*%
%TD*%
%TA.AperFunction,ConnectorPad*%
%ADD24R,3.000000X0.350000*%
%TD*%
%TA.AperFunction,SMDPad,CuDef*%
%ADD25FreePoly0,135.000000*%
%TD*%
%TA.AperFunction,SMDPad,CuDef*%
%ADD26FreePoly1,135.000000*%
%TD*%
%TA.AperFunction,SMDPad,CuDef*%
%ADD27FreePoly0,0.000000*%
%TD*%
%TA.AperFunction,SMDPad,CuDef*%
%ADD28FreePoly1,0.000000*%
%TD*%
%TA.AperFunction,ViaPad*%
%ADD29C,0.600000*%
%TD*%
%TA.AperFunction,Conductor*%
%ADD30C,0.200000*%
%TD*%
G04 APERTURE END LIST*
D10*
%TO.P,H4,1,1*%
%TO.N,GND*%
X166775000Y-120000000D03*
X167719581Y-117719581D03*
X167719581Y-122280419D03*
X170000000Y-116775000D03*
D11*
X170000000Y-120000000D03*
D10*
X170000000Y-123225000D03*
X172280419Y-117719581D03*
X172280419Y-122280419D03*
X173225000Y-120000000D03*
%TD*%
D12*
%TO.P,J4,1,Pin_1*%
%TO.N,/A0*%
X136940000Y-44000000D03*
D13*
%TO.P,J4,2,Pin_2*%
%TO.N,/A1*%
X136940000Y-46000000D03*
%TO.P,J4,3,Pin_3*%
%TO.N,/A2*%
X136940000Y-48000000D03*
%TO.P,J4,4,Pin_4*%
%TO.N,/A3*%
X136940000Y-50000000D03*
%TO.P,J4,5,Pin_5*%
%TO.N,/A4*%
X136940000Y-52000000D03*
%TO.P,J4,6,Pin_6*%
%TO.N,/A5*%
X136940000Y-54000000D03*
%TO.P,J4,7,Pin_7*%
%TO.N,Net-(J4-Pin_7)*%
X136940000Y-56000000D03*
%TO.P,J4,8,Pin_8*%
%TO.N,Net-(J4-Pin_8)*%
X136940000Y-58000000D03*
%TO.P,J4,9,Pin_9*%
%TO.N,/A8*%
X136940000Y-60000000D03*
%TO.P,J4,10,Pin_10*%
%TO.N,/A9*%
X136940000Y-62000000D03*
%TO.P,J4,11,Pin_11*%
%TO.N,/A10*%
X136940000Y-64000000D03*
%TO.P,J4,12,Pin_12*%
%TO.N,Net-(J4-Pin_12)*%
X136940000Y-66000000D03*
%TO.P,J4,13,Pin_13*%
%TO.N,Net-(J4-Pin_13)*%
X136940000Y-68000000D03*
%TO.P,J4,14,Pin_14*%
%TO.N,Net-(J4-Pin_14)*%
X136940000Y-70000000D03*
%TO.P,J4,15,Pin_15*%
%TO.N,Net-(J4-Pin_15)*%
X136940000Y-72000000D03*
%TO.P,J4,16,Pin_16*%
%TO.N,/A15*%
X136940000Y-74000000D03*
%TD*%
D14*
%TO.P,J3,S1,SHIELD*%
%TO.N,unconnected-(J3-SHIELD-PadS1)_2*%
X122105000Y-75680000D03*
D15*
%TO.N,unconnected-(J3-SHIELD-PadS1)_1*%
X117925000Y-75680000D03*
D14*
%TO.N,unconnected-(J3-SHIELD-PadS1)_0*%
X122105000Y-84320000D03*
D15*
%TO.N,unconnected-(J3-SHIELD-PadS1)*%
X117925000Y-84320000D03*
%TD*%
D10*
%TO.P,H1,1,1*%
%TO.N,GND*%
X116775000Y-40000000D03*
X117719581Y-37719581D03*
X117719581Y-42280419D03*
X120000000Y-36775000D03*
D11*
X120000000Y-40000000D03*
D10*
X120000000Y-43225000D03*
X122280419Y-37719581D03*
X122280419Y-42280419D03*
X123225000Y-40000000D03*
%TD*%
D12*
%TO.P,J1,1,Pin_1*%
%TO.N,+3V3*%
X149000000Y-122099998D03*
D13*
%TO.P,J1,2,Pin_2*%
%TO.N,/J1_SWDIO*%
X149000000Y-120099997D03*
%TO.P,J1,3,Pin_3*%
%TO.N,GND*%
X146999999Y-122099998D03*
%TO.P,J1,4,Pin_4*%
%TO.N,/J1_SWCLK*%
X147000000Y-120099998D03*
%TO.P,J1,5,Pin_5*%
%TO.N,GND*%
X145000000Y-122099998D03*
%TO.P,J1,6,Pin_6*%
%TO.N,/J1_SWO*%
X144999999Y-120099998D03*
%TO.P,J1,7,Pin_7*%
%TO.N,unconnected-(J1-Pin_7-Pad7)*%
X143000000Y-122099998D03*
%TO.P,J1,8,Pin_8*%
%TO.N,unconnected-(J1-Pin_8-Pad8)*%
X143000000Y-120099998D03*
%TO.P,J1,9,Pin_9*%
%TO.N,GND*%
X141000000Y-122099998D03*
%TO.P,J1,10,Pin_10*%
%TO.N,/J1_NRST*%
X141000000Y-120099998D03*
%TD*%
D12*
%TO.P,J9,1,Pin_1*%
%TO.N,GND*%
X152000000Y-40000000D03*
D13*
%TO.P,J9,2,Pin_2*%
%TO.N,+3V3*%
X152000000Y-37999999D03*
%TO.P,J9,3,Pin_3*%
%TO.N,GND*%
X149999999Y-40000000D03*
%TO.P,J9,4,Pin_4*%
%TO.N,+3V3*%
X150000000Y-38000000D03*
%TO.P,J9,5,Pin_5*%
%TO.N,GND*%
X148000000Y-40000000D03*
%TO.P,J9,6,Pin_6*%
%TO.N,+3V3*%
X147999999Y-38000000D03*
%TO.P,J9,7,Pin_7*%
%TO.N,GND*%
X146000000Y-40000000D03*
%TO.P,J9,8,Pin_8*%
%TO.N,+3V3*%
X146000000Y-38000000D03*
%TO.P,J9,9,Pin_9*%
%TO.N,GND*%
X144000000Y-40000000D03*
%TO.P,J9,10,Pin_10*%
%TO.N,+5V*%
X144000000Y-38000000D03*
%TO.P,J9,11,Pin_11*%
%TO.N,GND*%
X142000000Y-40000000D03*
%TO.P,J9,12,Pin_12*%
%TO.N,+5V*%
X142000000Y-38000000D03*
%TO.P,J9,13,Pin_13*%
%TO.N,GND*%
X140000001Y-40000000D03*
%TO.P,J9,14,Pin_14*%
%TO.N,+5V*%
X140000000Y-38000000D03*
%TO.P,J9,15,Pin_15*%
%TO.N,GND*%
X138000000Y-40000000D03*
%TO.P,J9,16,Pin_16*%
%TO.N,+5V*%
X138000001Y-38000000D03*
%TD*%
D12*
%TO.P,J5,1,Pin_1*%
%TO.N,Net-(J5-Pin_1)*%
X140990000Y-44000000D03*
D13*
%TO.P,J5,2,Pin_2*%
%TO.N,Net-(J5-Pin_2)*%
X140990000Y-46000000D03*
%TO.P,J5,3,Pin_3*%
%TO.N,Net-(J5-Pin_3)*%
X140990000Y-48000000D03*
%TO.P,J5,4,Pin_4*%
%TO.N,Net-(J5-Pin_4)*%
X140990000Y-50000000D03*
%TO.P,J5,5,Pin_5*%
%TO.N,/B4*%
X140990000Y-52000000D03*
%TO.P,J5,6,Pin_6*%
%TO.N,/B5*%
X140990000Y-54000000D03*
%TO.P,J5,7,Pin_7*%
%TO.N,Net-(J5-Pin_7)*%
X140990000Y-56000000D03*
%TO.P,J5,8,Pin_8*%
%TO.N,Net-(J5-Pin_8)*%
X140990000Y-58000000D03*
%TO.P,J5,9,Pin_9*%
%TO.N,/B8*%
X140990000Y-60000000D03*
%TO.P,J5,10,Pin_10*%
%TO.N,/B9*%
X140990000Y-62000000D03*
%TO.P,J5,11,Pin_11*%
%TO.N,Net-(J5-Pin_11)*%
X140990000Y-64000000D03*
%TO.P,J5,12,Pin_12*%
%TO.N,Net-(J5-Pin_12)*%
X140990000Y-66000000D03*
%TO.P,J5,13,Pin_13*%
%TO.N,Net-(J5-Pin_13)*%
X140990000Y-68000000D03*
%TO.P,J5,14,Pin_14*%
%TO.N,Net-(J5-Pin_14)*%
X140990000Y-70000000D03*
%TO.P,J5,15,Pin_15*%
%TO.N,Net-(J5-Pin_15)*%
X140990000Y-72000000D03*
%TO.P,J5,16,Pin_16*%
%TO.N,Net-(J5-Pin_16)*%
X140990000Y-74000000D03*
%TD*%
D16*
%TO.P,J2,1,Pin_1*%
%TO.N,GND*%
X118390000Y-100190000D03*
D17*
%TO.P,J2,2,Pin_2*%
X118390000Y-102730000D03*
%TO.P,J2,3,Pin_3*%
X118390000Y-105270000D03*
%TO.P,J2,4,Pin_4*%
X118390000Y-107810000D03*
%TO.P,J2,5,Pin_5*%
%TO.N,/I2C_SDA*%
X126010000Y-107810000D03*
%TO.P,J2,6,Pin_6*%
%TO.N,/I2C_SCL*%
X126010000Y-105270000D03*
%TO.P,J2,7,Pin_7*%
%TO.N,GND*%
X126010000Y-102730000D03*
%TO.P,J2,8,Pin_8*%
%TO.N,+3V3*%
X126010000Y-100190000D03*
%TD*%
D10*
%TO.P,H3,1,1*%
%TO.N,GND*%
X116775000Y-120000000D03*
X117719581Y-117719581D03*
X117719581Y-122280419D03*
X120000000Y-116775000D03*
D11*
X120000000Y-120000000D03*
D10*
X120000000Y-123225000D03*
X122280419Y-117719581D03*
X122280419Y-122280419D03*
X123225000Y-120000000D03*
%TD*%
D12*
%TO.P,J8,1,Pin_1*%
%TO.N,/E0*%
X153140000Y-44000000D03*
D13*
%TO.P,J8,2,Pin_2*%
%TO.N,/E1*%
X153140000Y-46000000D03*
%TO.P,J8,3,Pin_3*%
%TO.N,/E2*%
X153140000Y-48000000D03*
%TO.P,J8,4,Pin_4*%
%TO.N,/E3*%
X153140000Y-50000000D03*
%TO.P,J8,5,Pin_5*%
%TO.N,/E4*%
X153140000Y-52000000D03*
%TO.P,J8,6,Pin_6*%
%TO.N,/E5*%
X153140000Y-54000000D03*
%TO.P,J8,7,Pin_7*%
%TO.N,/E6*%
X153140000Y-56000000D03*
%TO.P,J8,8,Pin_8*%
%TO.N,/E7*%
X153140000Y-58000000D03*
%TO.P,J8,9,Pin_9*%
%TO.N,/E8*%
X153140000Y-60000000D03*
%TO.P,J8,10,Pin_10*%
%TO.N,/E9*%
X153140000Y-62000000D03*
%TO.P,J8,11,Pin_11*%
%TO.N,/E10*%
X153140000Y-64000000D03*
%TO.P,J8,12,Pin_12*%
%TO.N,Net-(J8-Pin_12)*%
X153140000Y-66000000D03*
%TO.P,J8,13,Pin_13*%
%TO.N,/E12*%
X153140000Y-68000000D03*
%TO.P,J8,14,Pin_14*%
%TO.N,/E13*%
X153140000Y-70000000D03*
%TO.P,J8,15,Pin_15*%
%TO.N,/E14*%
X153140000Y-72000000D03*
%TO.P,J8,16,Pin_16*%
%TO.N,/E15*%
X153140000Y-74000000D03*
%TD*%
D12*
%TO.P,J6,1,Pin_1*%
%TO.N,Net-(J6-Pin_1)*%
X145040000Y-44000000D03*
D13*
%TO.P,J6,2,Pin_2*%
%TO.N,/C1*%
X145040000Y-46000000D03*
%TO.P,J6,3,Pin_3*%
%TO.N,/C2_C*%
X145040000Y-48000000D03*
%TO.P,J6,4,Pin_4*%
%TO.N,/C3_C*%
X145040000Y-50000000D03*
%TO.P,J6,5,Pin_5*%
%TO.N,/C4*%
X145040000Y-52000000D03*
%TO.P,J6,6,Pin_6*%
%TO.N,/C5*%
X145040000Y-54000000D03*
%TO.P,J6,7,Pin_7*%
%TO.N,/C6*%
X145040000Y-56000000D03*
%TO.P,J6,8,Pin_8*%
%TO.N,/C7*%
X145040000Y-58000000D03*
%TO.P,J6,9,Pin_9*%
%TO.N,/C8*%
X145040000Y-60000000D03*
%TO.P,J6,10,Pin_10*%
%TO.N,/C9*%
X145040000Y-62000000D03*
%TO.P,J6,11,Pin_11*%
%TO.N,/C10*%
X145040000Y-64000000D03*
%TO.P,J6,12,Pin_12*%
%TO.N,/C11*%
X145040000Y-66000000D03*
%TO.P,J6,13,Pin_13*%
%TO.N,/C12*%
X145040000Y-68000000D03*
%TO.P,J6,14,Pin_14*%
%TO.N,/C13*%
X145040000Y-70000000D03*
%TO.P,J6,15,Pin_15*%
%TO.N,unconnected-(J6-Pin_15-Pad15)*%
X145040000Y-72000000D03*
%TO.P,J6,16,Pin_16*%
%TO.N,unconnected-(J6-Pin_16-Pad16)*%
X145040000Y-74000000D03*
%TD*%
D12*
%TO.P,J7,1,Pin_1*%
%TO.N,/D0*%
X149090000Y-44000000D03*
D13*
%TO.P,J7,2,Pin_2*%
%TO.N,/D1*%
X149090000Y-46000000D03*
%TO.P,J7,3,Pin_3*%
%TO.N,/D2*%
X149090000Y-48000000D03*
%TO.P,J7,4,Pin_4*%
%TO.N,/D3*%
X149090000Y-50000000D03*
%TO.P,J7,5,Pin_5*%
%TO.N,/D4*%
X149090000Y-52000000D03*
%TO.P,J7,6,Pin_6*%
%TO.N,/D5*%
X149090000Y-54000000D03*
%TO.P,J7,7,Pin_7*%
%TO.N,/D6*%
X149090000Y-56000000D03*
%TO.P,J7,8,Pin_8*%
%TO.N,/D7*%
X149090000Y-58000000D03*
%TO.P,J7,9,Pin_9*%
%TO.N,/D8*%
X149090000Y-60000000D03*
%TO.P,J7,10,Pin_10*%
%TO.N,/D9*%
X149090000Y-62000000D03*
%TO.P,J7,11,Pin_11*%
%TO.N,/D10*%
X149090000Y-64000000D03*
%TO.P,J7,12,Pin_12*%
%TO.N,/D11*%
X149090000Y-66000000D03*
%TO.P,J7,13,Pin_13*%
%TO.N,/D12*%
X149090000Y-68000000D03*
%TO.P,J7,14,Pin_14*%
%TO.N,/D13*%
X149090000Y-70000000D03*
%TO.P,J7,15,Pin_15*%
%TO.N,/D14*%
X149090000Y-72000000D03*
%TO.P,J7,16,Pin_16*%
%TO.N,/D15*%
X149090000Y-74000000D03*
%TD*%
D10*
%TO.P,H2,1,1*%
%TO.N,GND*%
X166775000Y-40000000D03*
X167719581Y-37719581D03*
X167719581Y-42280419D03*
X170000000Y-36775000D03*
D11*
X170000000Y-40000000D03*
D10*
X170000000Y-43225000D03*
X172280419Y-37719581D03*
X172280419Y-42280419D03*
X173225000Y-40000000D03*
%TD*%
D18*
%TO.P,JP16,1,A*%
%TO.N,/SPI2_SCK*%
X161924999Y-63000000D03*
D19*
%TO.P,JP16,2,B*%
%TO.N,Net-(J5-Pin_14)*%
X160475001Y-63000000D03*
%TD*%
D20*
%TO.P,JP9,1,A*%
%TO.N,/QSPI1_SCK*%
X169000000Y-88924999D03*
D21*
%TO.P,JP9,2,B*%
%TO.N,Net-(J5-Pin_3)*%
X169000000Y-87475001D03*
%TD*%
D20*
%TO.P,JP1,1,A*%
%TO.N,/QSPI1_IO3*%
X171800000Y-88924999D03*
D21*
%TO.P,JP1,2,B*%
%TO.N,Net-(J4-Pin_7)*%
X171800000Y-87475001D03*
%TD*%
D22*
%TO.P,JP2,1,A*%
%TO.N,/QSPI1_IO2*%
X171800000Y-110600000D03*
D23*
%TO.P,JP2,2,B*%
%TO.N,Net-(J4-Pin_8)*%
X171800000Y-112049998D03*
%TD*%
D24*
%TO.P,U2,1,GND*%
%TO.N,GND*%
X171200000Y-64900000D03*
%TO.P,U2,2,VCI*%
%TO.N,+3V3*%
X171200000Y-64400000D03*
%TO.P,U2,3,IM2*%
X171200000Y-63900000D03*
%TO.P,U2,4,IM1*%
X171200000Y-63400000D03*
%TO.P,U2,5,RES*%
%TO.N,/LCD_RST*%
X171200000Y-62900000D03*
%TO.P,U2,6,CS*%
%TO.N,/LCD_NSS*%
X171200000Y-62400000D03*
%TO.P,U2,7,SCL*%
%TO.N,/SPI2_SCK*%
X171200000Y-61900000D03*
%TO.P,U2,8,DC*%
%TO.N,/LCD_COMMAND*%
X171200000Y-61400000D03*
%TO.P,U2,9,RD*%
%TO.N,GND*%
X171200000Y-60900000D03*
%TO.P,U2,10,SDA*%
%TO.N,/SPI2_MOSI*%
X171200000Y-60400000D03*
%TO.P,U2,11,DB0*%
%TO.N,GND*%
X171200000Y-59900000D03*
%TO.P,U2,12,DB1*%
X171200000Y-59400000D03*
%TO.P,U2,13,DB2*%
X171200000Y-58900000D03*
%TO.P,U2,14,DB3*%
X171200000Y-58400000D03*
%TO.P,U2,15,DB4*%
X171200000Y-57900000D03*
%TO.P,U2,16,DB5*%
X171200000Y-57400000D03*
%TO.P,U2,17,DB6*%
X171200000Y-56900000D03*
%TO.P,U2,18,DB7*%
X171200000Y-56400000D03*
%TO.P,U2,19,SDO*%
%TO.N,unconnected-(U2-SDO-Pad19)*%
X171200000Y-55900000D03*
%TO.P,U2,20,LEDA*%
%TO.N,+3V3*%
X171200000Y-55400000D03*
%TO.P,U2,21,LEDK*%
%TO.N,/LCD_LEDK*%
X171200000Y-54900000D03*
%TO.P,U2,22,LEDK*%
X171200000Y-54400000D03*
%TO.P,U2,23,LEDK*%
X171200000Y-53900000D03*
%TO.P,U2,24,LEDK*%
X171200000Y-53400000D03*
%TO.P,U2,25,GND*%
%TO.N,GND*%
X171200000Y-52900000D03*
%TO.P,U2,26,NC*%
%TO.N,unconnected-(U2-NC-Pad26)*%
X171200000Y-52400000D03*
%TO.P,U2,27,NC*%
%TO.N,unconnected-(U2-NC-Pad27)*%
X171200000Y-51900000D03*
%TO.P,U2,28,NC*%
%TO.N,unconnected-(U2-NC-Pad28)*%
X171200000Y-51400000D03*
%TO.P,U2,29,NC*%
%TO.N,unconnected-(U2-NC-Pad29)*%
X171200000Y-50900000D03*
%TO.P,U2,30,GND*%
%TO.N,GND*%
X171200000Y-50400000D03*
%TD*%
D20*
%TO.P,JP3,1,A*%
%TO.N,/USB_DN*%
X131400000Y-79000000D03*
D21*
%TO.P,JP3,2,B*%
%TO.N,Net-(J4-Pin_12)*%
X131400000Y-77550002D03*
%TD*%
D22*
%TO.P,JP20,1,A*%
%TO.N,/QSPI1_NSS*%
X166200000Y-110600000D03*
D23*
%TO.P,JP20,2,B*%
%TO.N,Net-(J8-Pin_12)*%
X166200000Y-112049998D03*
%TD*%
D18*
%TO.P,JP17,1,A*%
%TO.N,/LCD_COMMAND*%
X161924999Y-65600000D03*
D19*
%TO.P,JP17,2,B*%
%TO.N,Net-(J5-Pin_15)*%
X160475001Y-65600000D03*
%TD*%
D25*
%TO.P,JP19,1,A*%
%TO.N,/STATUS_LED*%
X134426346Y-109089086D03*
D26*
%TO.P,JP19,2,B*%
%TO.N,Net-(J6-Pin_1)*%
X133401042Y-108063782D03*
%TD*%
D27*
%TO.P,JP21,1,A*%
%TO.N,/BOOT0*%
X134275001Y-123200000D03*
D28*
%TO.P,JP21,2,B*%
%TO.N,Net-(JP21-B)*%
X135724999Y-123200000D03*
%TD*%
D20*
%TO.P,JP8,1,A*%
%TO.N,/QSPI1_IO0*%
X166200000Y-88924999D03*
D21*
%TO.P,JP8,2,B*%
%TO.N,Net-(J5-Pin_2)*%
X166200000Y-87475001D03*
%TD*%
D22*
%TO.P,JP4,1,A*%
%TO.N,/USB_DP*%
X131400000Y-80950002D03*
D23*
%TO.P,JP4,2,B*%
%TO.N,Net-(J4-Pin_13)*%
X131400000Y-82400000D03*
%TD*%
D25*
%TO.P,JP6,1,A*%
%TO.N,/SWCLK*%
X135225304Y-99225304D03*
D26*
%TO.P,JP6,2,B*%
%TO.N,Net-(J4-Pin_15)*%
X134200000Y-98200000D03*
%TD*%
D25*
%TO.P,JP5,1,A*%
%TO.N,/SWDIO*%
X137225304Y-97225304D03*
D26*
%TO.P,JP5,2,B*%
%TO.N,Net-(J4-Pin_14)*%
X136200000Y-96200000D03*
%TD*%
D18*
%TO.P,JP15,1,A*%
%TO.N,/SPI2_NSS*%
X161924999Y-60400000D03*
D19*
%TO.P,JP15,2,B*%
%TO.N,Net-(J5-Pin_13)*%
X160475001Y-60400000D03*
%TD*%
D20*
%TO.P,JP11,1,A*%
%TO.N,/I2C_SCL*%
X128000000Y-105200000D03*
D21*
%TO.P,JP11,2,B*%
%TO.N,Net-(J5-Pin_7)*%
X128000000Y-103750002D03*
%TD*%
D18*
%TO.P,JP14,1,A*%
%TO.N,/LCD_RESET*%
X161924999Y-68200000D03*
D19*
%TO.P,JP14,2,B*%
%TO.N,Net-(J5-Pin_12)*%
X160475001Y-68200000D03*
%TD*%
D20*
%TO.P,JP12,1,A*%
%TO.N,/I2C_SDA*%
X124000000Y-105124999D03*
D21*
%TO.P,JP12,2,B*%
%TO.N,Net-(J5-Pin_8)*%
X124000000Y-103675001D03*
%TD*%
D18*
%TO.P,JP13,1,A*%
%TO.N,/LCD_BACKLIGHT*%
X161924999Y-55200000D03*
D19*
%TO.P,JP13,2,B*%
%TO.N,Net-(J5-Pin_11)*%
X160475001Y-55200000D03*
%TD*%
D18*
%TO.P,JP18,1,A*%
%TO.N,/SPI2_MOSI*%
X161924999Y-57800000D03*
D19*
%TO.P,JP18,2,B*%
%TO.N,Net-(J5-Pin_16)*%
X160475001Y-57800000D03*
%TD*%
D27*
%TO.P,JP22,1,A*%
%TO.N,/BOOT0*%
X134275001Y-120600000D03*
D28*
%TO.P,JP22,2,B*%
%TO.N,GND*%
X135724999Y-120600000D03*
%TD*%
D22*
%TO.P,JP7,1,A*%
%TO.N,/QSPI1_IO1*%
X169000000Y-110600000D03*
D23*
%TO.P,JP7,2,B*%
%TO.N,Net-(J5-Pin_1)*%
X169000000Y-112049998D03*
%TD*%
D25*
%TO.P,JP10,1,A*%
%TO.N,/SWO*%
X132800000Y-101600000D03*
D26*
%TO.P,JP10,2,B*%
%TO.N,Net-(J5-Pin_4)*%
X131774696Y-100574696D03*
%TD*%
D29*
%TO.N,+3V3*%
X139400000Y-123200000D03*
X146866892Y-89167423D03*
X148600000Y-111000000D03*
X136600000Y-109000000D03*
X144400000Y-110600000D03*
X142392892Y-112607108D03*
X151927206Y-107575736D03*
X166400000Y-104200000D03*
X153299934Y-99500065D03*
X168627250Y-55400000D03*
X124600000Y-54200000D03*
X167800000Y-95200000D03*
X168627250Y-63900000D03*
X127200000Y-113200000D03*
X119400000Y-56000000D03*
X117400000Y-52800000D03*
X126200000Y-113200000D03*
X117800000Y-56000000D03*
X162600000Y-50600000D03*
X167200000Y-59600000D03*
X134200000Y-100600000D03*
X151200000Y-122000000D03*
X156600000Y-105200000D03*
X121800000Y-54200000D03*
%TO.N,GND*%
X121400000Y-66200000D03*
X165200000Y-51800000D03*
X131200000Y-103600000D03*
X126000000Y-68425000D03*
X136800000Y-120600000D03*
X123600000Y-49924999D03*
X172400000Y-104800000D03*
X124600000Y-66200000D03*
X168627250Y-56400000D03*
X168627250Y-50400000D03*
X154211003Y-108394579D03*
X124580000Y-83820000D03*
X154000000Y-112000000D03*
X124600000Y-76800000D03*
X148017158Y-88017158D03*
X168700000Y-58900000D03*
X168627250Y-64880000D03*
X156600758Y-97952229D03*
X117400000Y-50000000D03*
X120600000Y-58400000D03*
X130000000Y-104800000D03*
X153521320Y-104278680D03*
X168627250Y-53000000D03*
X132600000Y-98000000D03*
X151378949Y-108347778D03*
X150000000Y-112600000D03*
X147918007Y-111500085D03*
X140292892Y-110507108D03*
X143000000Y-123400000D03*
%TO.N,/STATUS_LED*%
X143975735Y-113624265D03*
X150206210Y-103340371D03*
X135400000Y-110000000D03*
X145400000Y-112200000D03*
%TO.N,/USB_DN*%
X130145000Y-77800000D03*
%TO.N,/USB_DP*%
X130145000Y-82200000D03*
%TO.N,/A0*%
X155000000Y-118400000D03*
%TO.N,/A3*%
X156800000Y-117200000D03*
%TO.N,/A2*%
X157590538Y-117318228D03*
%TO.N,/A1*%
X155800000Y-118000000D03*
%TO.N,/A4*%
X158200000Y-116800000D03*
%TO.N,/A5*%
X159000000Y-116400000D03*
%TO.N,/A15*%
X136800000Y-100400000D03*
%TO.N,Net-(J5-Pin_13)*%
X159600000Y-60400000D03*
%TO.N,Net-(J5-Pin_8)*%
X137000000Y-86800000D03*
%TO.N,Net-(J5-Pin_12)*%
X158200000Y-55000000D03*
%TO.N,Net-(J5-Pin_14)*%
X159400000Y-63000000D03*
%TO.N,Net-(J5-Pin_2)*%
X166200000Y-86400000D03*
%TO.N,/B8*%
X142729133Y-106756070D03*
%TO.N,Net-(J5-Pin_15)*%
X159400000Y-65600000D03*
%TO.N,Net-(J5-Pin_16)*%
X158799260Y-64247789D03*
%TO.N,Net-(J5-Pin_1)*%
X169000000Y-113000000D03*
%TO.N,/B5*%
X141545683Y-105523592D03*
%TO.N,Net-(J5-Pin_11)*%
X159400000Y-55200000D03*
%TO.N,Net-(J5-Pin_7)*%
X140400000Y-84400000D03*
X137000943Y-87799057D03*
%TO.N,Net-(J5-Pin_4)*%
X136624265Y-89024265D03*
%TO.N,/B4*%
X140948479Y-104970557D03*
%TO.N,/B9*%
X142148479Y-104973222D03*
%TO.N,Net-(J5-Pin_3)*%
X173275735Y-85800000D03*
%TO.N,/C13*%
X146464215Y-77032843D03*
X148600000Y-98800000D03*
%TO.N,/C9*%
X144600000Y-76000000D03*
%TO.N,/C3_C*%
X145276012Y-93194259D03*
%TO.N,/C4*%
X151700000Y-97900000D03*
%TO.N,/C8*%
X145200000Y-76600000D03*
%TO.N,/C1*%
X141000000Y-95000000D03*
%TO.N,/C11*%
X142824265Y-95741423D03*
X143375735Y-76624265D03*
%TO.N,/C2_C*%
X144585269Y-92790677D03*
%TO.N,/C12*%
X143372457Y-96324080D03*
X143975735Y-77224265D03*
%TO.N,/C6*%
X145175735Y-75375735D03*
%TO.N,/C5*%
X151134313Y-97334313D03*
%TO.N,Net-(J6-Pin_1)*%
X136024265Y-89624265D03*
%TO.N,/C7*%
X145231372Y-78231373D03*
%TO.N,/C10*%
X142606692Y-76407523D03*
X142224265Y-95175735D03*
%TO.N,/D2*%
X131435279Y-91516329D03*
X135176442Y-41009422D03*
X134235209Y-71553321D03*
%TO.N,/D0*%
X136800000Y-41000000D03*
X132547200Y-90275735D03*
X135400000Y-70400000D03*
%TO.N,/D4*%
X154600000Y-52000000D03*
X145000000Y-95179858D03*
X159400000Y-76600000D03*
X153201396Y-89019483D03*
%TO.N,/D9*%
X149748530Y-79100000D03*
%TO.N,/D6*%
X146200000Y-96379839D03*
X155200445Y-87019483D03*
X154117161Y-89800776D03*
%TO.N,/D7*%
X154401396Y-89018643D03*
X146800000Y-96979903D03*
X154401396Y-87019483D03*
%TO.N,/D3*%
X133669522Y-72119008D03*
X130869519Y-92081943D03*
X134376546Y-40996348D03*
%TO.N,/D8*%
X149800000Y-80000000D03*
%TO.N,/D10*%
X149767521Y-78226594D03*
%TO.N,/D11*%
X149772793Y-77372793D03*
%TO.N,/D5*%
X159407108Y-75207108D03*
X153200613Y-89819485D03*
X145600000Y-95779903D03*
%TO.N,/D1*%
X134800896Y-70987633D03*
X132000000Y-90949677D03*
X135975735Y-40975735D03*
%TO.N,/E8*%
X157072078Y-74667625D03*
X155281780Y-63582843D03*
X157310662Y-77303554D03*
%TO.N,/E1*%
X155800000Y-49400000D03*
X144636212Y-108436212D03*
X161047655Y-101800393D03*
%TO.N,/E4*%
X161915805Y-44561393D03*
X147136800Y-105214671D03*
X163447661Y-101800000D03*
%TO.N,/E10*%
X155907108Y-78707108D03*
%TO.N,/E13*%
X154507108Y-80107108D03*
%TO.N,/E2*%
X161847657Y-101799975D03*
X155000000Y-49000000D03*
X146379533Y-104243565D03*
%TO.N,/E12*%
X155207108Y-79407108D03*
%TO.N,/E6*%
X147115786Y-106901429D03*
X161800000Y-42800000D03*
X165047667Y-101800000D03*
%TO.N,/E5*%
X161896456Y-43693514D03*
X164247664Y-101800000D03*
X147084343Y-106084343D03*
%TO.N,/E3*%
X162647659Y-101800002D03*
X146335813Y-105135815D03*
%TO.N,/E14*%
X153807108Y-80807108D03*
%TO.N,/E9*%
X156506390Y-75233312D03*
X154600000Y-64000000D03*
X156607108Y-78007108D03*
%TO.N,/E7*%
X157962439Y-76651777D03*
X155904960Y-64084491D03*
X157637765Y-74101938D03*
%TO.N,/E0*%
X144000000Y-107773977D03*
X156600000Y-49800000D03*
X160247653Y-101799124D03*
%TO.N,/E15*%
X153207108Y-81407108D03*
%TO.N,Net-(J8-Pin_12)*%
X159600000Y-114800000D03*
X158800000Y-75907108D03*
%TO.N,/QSPI1_IO3*%
X154343359Y-95543359D03*
X167800000Y-92600000D03*
%TO.N,/QSPI1_IO2*%
X170800000Y-108800000D03*
X154191868Y-94757831D03*
%TO.N,/SWDIO*%
X137600000Y-99000000D03*
X149200000Y-114800000D03*
%TO.N,/SWCLK*%
X147000000Y-114800000D03*
X134000000Y-102400000D03*
%TO.N,/QSPI1_IO1*%
X169400000Y-108800000D03*
X153400000Y-94600000D03*
%TO.N,/QSPI1_IO0*%
X172400000Y-91200000D03*
X153147017Y-93841051D03*
%TO.N,/QSPI1_SCK*%
X152349257Y-93600000D03*
X170800000Y-91200000D03*
%TO.N,/SWO*%
X138400000Y-107200000D03*
X145000000Y-114800000D03*
%TO.N,/LCD_BACKLIGHT*%
X163400000Y-54800000D03*
%TO.N,/LCD_RESET*%
X146200000Y-92400000D03*
X165200000Y-63000000D03*
%TO.N,/SPI2_NSS*%
X163772206Y-60380220D03*
X165600000Y-61000000D03*
X164200000Y-72200000D03*
X163000000Y-72200000D03*
%TO.N,/SPI2_SCK*%
X164600000Y-73586880D03*
X145351471Y-91400000D03*
X165200000Y-61800000D03*
%TO.N,/LCD_COMMAND*%
X144703883Y-92000000D03*
X163757295Y-73601373D03*
X168581466Y-61100000D03*
X164500000Y-64500000D03*
%TO.N,/SPI2_MOSI*%
X164600000Y-71400000D03*
X164600000Y-59780220D03*
X163000000Y-71400000D03*
%TO.N,/QSPI1_NSS*%
X148200000Y-94800000D03*
X167600000Y-108800000D03*
%TO.N,/NRST*%
X146196348Y-112276381D03*
X149600000Y-104000000D03*
%TO.N,/LCD_LEDK*%
X168600000Y-54200000D03*
%TO.N,/LCD_NSS*%
X168600000Y-62300000D03*
%TO.N,/LCD_RST*%
X168600000Y-63100003D03*
%TO.N,/BOOT0*%
X135000000Y-118800000D03*
%TO.N,Net-(JP21-B)*%
X136600000Y-123200000D03*
%TD*%
D30*
%TO.N,+3V3*%
X171200000Y-63900000D02*
X168627250Y-63900000D01*
X168627250Y-55400000D02*
X171200000Y-55400000D01*
X167627250Y-63920000D02*
X167417249Y-63920000D01*
X171200000Y-63400000D02*
X171200000Y-63900000D01*
X171200000Y-64400000D02*
X171200000Y-63900000D01*
X167647250Y-63900000D02*
X167627250Y-63920000D01*
%TO.N,GND*%
X171200000Y-57400000D02*
X169627250Y-57400000D01*
X135724999Y-120600000D02*
X136800000Y-120600000D01*
X168647250Y-64900000D02*
X168627250Y-64880000D01*
X168700000Y-58900000D02*
X169700000Y-59900000D01*
X169127250Y-56900000D02*
X168627250Y-56400000D01*
X168700000Y-58900000D02*
X169200000Y-59400000D01*
X171200000Y-56400000D02*
X168627250Y-56400000D01*
X169700000Y-59900000D02*
X171200000Y-59900000D01*
X171200000Y-57900000D02*
X171200000Y-58400000D01*
X173000000Y-59925000D02*
X173000000Y-60875000D01*
X169200000Y-58400000D02*
X171200000Y-58400000D01*
X169627250Y-57400000D02*
X168627250Y-56400000D01*
X171200000Y-56400000D02*
X171200000Y-56900000D01*
X171200000Y-58900000D02*
X171200000Y-59400000D01*
X169700000Y-57900000D02*
X171200000Y-57900000D01*
X171200000Y-57400000D02*
X171200000Y-57900000D01*
X171200000Y-50400000D02*
X168627250Y-50400000D01*
X171200000Y-58400000D02*
X171200000Y-58900000D01*
X171200000Y-52900000D02*
X168727250Y-52900000D01*
X168700000Y-58900000D02*
X171200000Y-58900000D01*
X171200000Y-56900000D02*
X169127250Y-56900000D01*
X168700000Y-58900000D02*
X169200000Y-58400000D01*
X168727250Y-52900000D02*
X168627250Y-53000000D01*
X168587250Y-56360000D02*
X168627250Y-56400000D01*
X172975000Y-59900000D02*
X173000000Y-59925000D01*
X171200000Y-64900000D02*
X168647250Y-64900000D01*
X172975000Y-60900000D02*
X171200000Y-60900000D01*
X171180000Y-64880000D02*
X171200000Y-64900000D01*
X171200000Y-59400000D02*
X171200000Y-59900000D01*
X173000000Y-60875000D02*
X172975000Y-60900000D01*
X171200000Y-59900000D02*
X172975000Y-59900000D01*
X168700000Y-58900000D02*
X169700000Y-57900000D01*
X169200000Y-59400000D02*
X171200000Y-59400000D01*
X171200000Y-56900000D02*
X171200000Y-57400000D01*
%TO.N,/STATUS_LED*%
X145400000Y-112200000D02*
X148800000Y-108800000D01*
X134489086Y-109089086D02*
X135400000Y-110000000D01*
X148800000Y-108800000D02*
X148800000Y-103951471D01*
X138434314Y-107800000D02*
X135715432Y-107800000D01*
X134426346Y-109089086D02*
X134489086Y-109089086D01*
X148800000Y-103951471D02*
X149411100Y-103340371D01*
X149411100Y-103340371D02*
X150206210Y-103340371D01*
X135715432Y-107800000D02*
X134426346Y-109089086D01*
X143975735Y-113341421D02*
X138434314Y-107800000D01*
X143975735Y-113624265D02*
X143975735Y-113341421D01*
%TO.N,/USB_DN*%
X130345000Y-78326200D02*
X131018800Y-79000000D01*
X130345000Y-78000000D02*
X130345000Y-78326200D01*
X131018800Y-79000000D02*
X131400000Y-79000000D01*
X130145000Y-77800000D02*
X130345000Y-78000000D01*
%TO.N,/USB_DP*%
X131018662Y-80950002D02*
X131400000Y-80950002D01*
X130345000Y-81623664D02*
X131018662Y-80950002D01*
X130145000Y-82200000D02*
X130345000Y-82000000D01*
X130345000Y-82000000D02*
X130345000Y-81623664D01*
%TO.N,/I2C_SDA*%
X124000000Y-105800000D02*
X124000000Y-105124999D01*
X126010000Y-107810000D02*
X124000000Y-105800000D01*
%TO.N,/I2C_SCL*%
X126010000Y-105270000D02*
X127930000Y-105270000D01*
X127930000Y-105270000D02*
X128000000Y-105200000D01*
%TO.N,Net-(J4-Pin_8)*%
X166634314Y-113600000D02*
X164834314Y-115400000D01*
X164834314Y-115400000D02*
X127551471Y-115400000D01*
X171800000Y-112049998D02*
X171800000Y-112800000D01*
X129400000Y-91400000D02*
X129400000Y-58200000D01*
X129600000Y-58000000D02*
X136940000Y-58000000D01*
X129400000Y-58200000D02*
X129600000Y-58000000D01*
X127551471Y-115400000D02*
X122600000Y-110448529D01*
X122600000Y-98200000D02*
X129400000Y-91400000D01*
X171000000Y-113600000D02*
X166634314Y-113600000D01*
X122600000Y-110448529D02*
X122600000Y-98200000D01*
X171800000Y-112800000D02*
X171000000Y-113600000D01*
%TO.N,Net-(J4-Pin_7)*%
X136940000Y-56000000D02*
X129200000Y-56000000D01*
X173000000Y-114000000D02*
X174000000Y-113000000D01*
X122200000Y-98034315D02*
X122200000Y-110614215D01*
X129000000Y-56200000D02*
X129000000Y-91234314D01*
X127385785Y-115800000D02*
X165000000Y-115800000D01*
X129000000Y-91234314D02*
X122200000Y-98034315D01*
X174000000Y-88920001D02*
X172555000Y-87475001D01*
X172555000Y-87475001D02*
X171800000Y-87475001D01*
X165000000Y-115800000D02*
X166800000Y-114000000D01*
X122200000Y-110614215D02*
X127385785Y-115800000D01*
X166800000Y-114000000D02*
X173000000Y-114000000D01*
X129200000Y-56000000D02*
X129000000Y-56200000D01*
X174000000Y-113000000D02*
X174000000Y-88920001D01*
%TO.N,Net-(J4-Pin_14)*%
X136200000Y-95200000D02*
X138400000Y-93000000D01*
X136200000Y-96200000D02*
X136200000Y-95200000D01*
X138400000Y-71460000D02*
X136940000Y-70000000D01*
X138400000Y-93000000D02*
X138400000Y-71460000D01*
%TO.N,/A0*%
X136940000Y-44000000D02*
X126600000Y-54340000D01*
X126391669Y-118200000D02*
X150600000Y-118200000D01*
X126600000Y-54340000D02*
X126600000Y-68673529D01*
X126600000Y-68673529D02*
X119800000Y-75473529D01*
X119800000Y-111608331D02*
X126391669Y-118200000D01*
X119800000Y-75473529D02*
X119800000Y-111608331D01*
X154800000Y-118200000D02*
X155000000Y-118400000D01*
X150600000Y-118200000D02*
X154800000Y-118200000D01*
%TO.N,Net-(J4-Pin_15)*%
X137600000Y-76600000D02*
X135965000Y-74965000D01*
X134200000Y-96034314D02*
X137600000Y-92634314D01*
X134200000Y-96765685D02*
X134200000Y-96034314D01*
X135965000Y-72975000D02*
X136940000Y-72000000D01*
X135965000Y-74965000D02*
X135965000Y-72975000D01*
X137600000Y-92634314D02*
X137600000Y-76600000D01*
X134917157Y-97482843D02*
X134200000Y-96765685D01*
X134200000Y-98200000D02*
X134917157Y-97482843D01*
%TO.N,Net-(J4-Pin_12)*%
X132200000Y-76750002D02*
X132200000Y-70740000D01*
X132200000Y-70740000D02*
X136940000Y-66000000D01*
X131400000Y-77550002D02*
X132200000Y-76750002D01*
%TO.N,/A3*%
X156800000Y-117200000D02*
X156600000Y-117000000D01*
X156600000Y-117000000D02*
X126888727Y-117000000D01*
X127800000Y-54837058D02*
X132637058Y-50000000D01*
X121000000Y-111111273D02*
X121000000Y-97537256D01*
X127800000Y-90737256D02*
X127800000Y-54837058D01*
X121000000Y-97537256D02*
X127800000Y-90737256D01*
X126888727Y-117000000D02*
X121000000Y-111111273D01*
X132637058Y-50000000D02*
X136940000Y-50000000D01*
%TO.N,Net-(J4-Pin_13)*%
X132155000Y-82400000D02*
X132600000Y-81955000D01*
X131400000Y-82400000D02*
X132155000Y-82400000D01*
X132600000Y-81955000D02*
X132600000Y-72340000D01*
X132600000Y-72340000D02*
X136940000Y-68000000D01*
%TO.N,/A2*%
X120600000Y-111276959D02*
X126723041Y-117400000D01*
X156551471Y-117800000D02*
X157108766Y-117800000D01*
X120600000Y-97371571D02*
X120600000Y-111276959D01*
X156151471Y-117400000D02*
X156551471Y-117800000D01*
X134071372Y-48000000D02*
X127400000Y-54671372D01*
X127400000Y-90571570D02*
X120600000Y-97371571D01*
X157108766Y-117800000D02*
X157590538Y-117318228D01*
X127400000Y-54671372D02*
X127400000Y-90571570D01*
X136940000Y-48000000D02*
X134071372Y-48000000D01*
X150600000Y-117400000D02*
X156151471Y-117400000D01*
X126723041Y-117400000D02*
X150600000Y-117400000D01*
%TO.N,/A1*%
X120200000Y-111442645D02*
X126557355Y-117800000D01*
X136940000Y-46000000D02*
X135505686Y-46000000D01*
X150600000Y-117800000D02*
X155600000Y-117800000D01*
X127000000Y-90405884D02*
X120200000Y-97205886D01*
X135505686Y-46000000D02*
X127452843Y-54052843D01*
X127000000Y-54505686D02*
X127000000Y-90405884D01*
X120200000Y-97205886D02*
X120200000Y-111442645D01*
X127452843Y-54052843D02*
X127400000Y-54105686D01*
X127452843Y-54052843D02*
X127000000Y-54505686D01*
X155600000Y-117800000D02*
X155800000Y-118000000D01*
X126557355Y-117800000D02*
X150600000Y-117800000D01*
%TO.N,/A4*%
X128200000Y-90902942D02*
X121400000Y-97702943D01*
X136940000Y-52000000D02*
X131202744Y-52000000D01*
X131202744Y-52000000D02*
X128200000Y-55002744D01*
X158000000Y-116600000D02*
X158200000Y-116800000D01*
X121400000Y-110945587D02*
X127054413Y-116600000D01*
X128200000Y-55002744D02*
X128200000Y-90902942D01*
X150400000Y-116600000D02*
X150600000Y-116600000D01*
X150400000Y-116600000D02*
X158000000Y-116600000D01*
X121400000Y-97702943D02*
X121400000Y-110945587D01*
X127054413Y-116600000D02*
X150400000Y-116600000D01*
%TO.N,/A5*%
X150600000Y-116200000D02*
X158800000Y-116200000D01*
X158800000Y-116200000D02*
X159000000Y-116400000D01*
X128600000Y-91068628D02*
X121800000Y-97868628D01*
X129768430Y-54000000D02*
X128600000Y-55168430D01*
X128600000Y-55168430D02*
X128600000Y-91068628D01*
X136940000Y-54000000D02*
X129768430Y-54000000D01*
X121800000Y-97868628D02*
X121800000Y-110779901D01*
X121800000Y-110779901D02*
X127220099Y-116200000D01*
X127220099Y-116200000D02*
X150600000Y-116200000D01*
%TO.N,/A15*%
X136800000Y-98800000D02*
X136800000Y-100400000D01*
X134600000Y-96200000D02*
X134600000Y-96600000D01*
X136940000Y-74000000D02*
X138000000Y-75060000D01*
X134600000Y-96600000D02*
X136800000Y-98800000D01*
X138000000Y-75060000D02*
X138000000Y-92800000D01*
X138000000Y-92800000D02*
X134600000Y-96200000D01*
%TO.N,Net-(J5-Pin_13)*%
X160475001Y-60400000D02*
X159600000Y-60400000D01*
%TO.N,Net-(J5-Pin_8)*%
X124000000Y-99800000D02*
X124000000Y-103675001D01*
X137000000Y-86800000D02*
X124000000Y-99800000D01*
%TO.N,Net-(J5-Pin_12)*%
X160475001Y-68200000D02*
X158200000Y-65924999D01*
X158200000Y-65924999D02*
X158200000Y-55000000D01*
%TO.N,Net-(J5-Pin_14)*%
X160475001Y-63000000D02*
X159400000Y-63000000D01*
%TO.N,Net-(J5-Pin_2)*%
X166200000Y-86400000D02*
X166200000Y-87475001D01*
%TO.N,/B8*%
X142400000Y-61410000D02*
X140990000Y-60000000D01*
X140400000Y-102268628D02*
X140400000Y-85965686D01*
X142729133Y-106756070D02*
X142748479Y-106736724D01*
X140815000Y-83400785D02*
X140815000Y-76119545D01*
X141400000Y-84965685D02*
X141400000Y-83985785D01*
X142748479Y-104617107D02*
X140400000Y-102268628D01*
X141400000Y-83985785D02*
X140815000Y-83400785D01*
X142748479Y-106736724D02*
X142748479Y-104617107D01*
X140815000Y-76119545D02*
X142400000Y-74534545D01*
X142400000Y-74534545D02*
X142400000Y-61410000D01*
X140400000Y-85965686D02*
X141400000Y-84965685D01*
%TO.N,Net-(J5-Pin_15)*%
X160475001Y-65600000D02*
X159400000Y-65600000D01*
%TO.N,Net-(J5-Pin_16)*%
X158800000Y-59475001D02*
X158800000Y-64247049D01*
X160475001Y-57800000D02*
X158800000Y-59475001D01*
X158800000Y-64247049D02*
X158799260Y-64247789D01*
%TO.N,Net-(J5-Pin_1)*%
X169000000Y-113000000D02*
X169000000Y-112049998D01*
%TO.N,/B5*%
X139600000Y-55390000D02*
X140990000Y-54000000D01*
X141545683Y-105523592D02*
X141548479Y-105520796D01*
X139600000Y-102600000D02*
X139600000Y-55390000D01*
X141548479Y-104548479D02*
X139600000Y-102600000D01*
X141548479Y-105520796D02*
X141548479Y-104548479D01*
%TO.N,Net-(J5-Pin_11)*%
X159400000Y-55200000D02*
X160475001Y-55200000D01*
%TO.N,Net-(J5-Pin_7)*%
X140400000Y-84400000D02*
X140015000Y-84015000D01*
X137000943Y-87799057D02*
X128000000Y-96800000D01*
X140015000Y-84015000D02*
X140015000Y-56975000D01*
X128000000Y-96800000D02*
X128000000Y-103750002D01*
X140015000Y-56975000D02*
X140990000Y-56000000D01*
%TO.N,Net-(J5-Pin_4)*%
X136600000Y-89897059D02*
X136600000Y-92785784D01*
X136624265Y-89872794D02*
X136600000Y-89897059D01*
X136624265Y-89024265D02*
X136624265Y-89872794D01*
X131774696Y-97611088D02*
X131774696Y-100574696D01*
X136600000Y-92785784D02*
X131774696Y-97611088D01*
%TO.N,/B4*%
X140948479Y-104970557D02*
X139200000Y-103222078D01*
X139200000Y-103222078D02*
X139200000Y-53790000D01*
X139200000Y-53790000D02*
X140990000Y-52000000D01*
%TO.N,/B9*%
X140000000Y-102434314D02*
X140000000Y-85800000D01*
X140415000Y-75953859D02*
X141965000Y-74403859D01*
X141965000Y-62975000D02*
X140990000Y-62000000D01*
X140000000Y-85800000D02*
X141000000Y-84800000D01*
X140415000Y-83566470D02*
X140415000Y-75953859D01*
X141000000Y-84800000D02*
X141000000Y-84151471D01*
X142148479Y-104582793D02*
X140000000Y-102434314D01*
X142148479Y-104973222D02*
X142148479Y-104582793D01*
X141000000Y-84151471D02*
X140415000Y-83566470D01*
X141965000Y-74403859D02*
X141965000Y-62975000D01*
%TO.N,Net-(J5-Pin_3)*%
X173275735Y-85800000D02*
X170675001Y-85800000D01*
X170675001Y-85800000D02*
X169000000Y-87475001D01*
%TO.N,/C13*%
X148400000Y-80297056D02*
X146464215Y-78361272D01*
X148600000Y-98800000D02*
X146131372Y-98800000D01*
X146131372Y-98800000D02*
X144400000Y-97068628D01*
X144400000Y-97068628D02*
X144400000Y-94365686D01*
X144400000Y-94365686D02*
X143200000Y-93165686D01*
X143200000Y-90854414D02*
X148400000Y-85654414D01*
X146464215Y-78361272D02*
X146464215Y-77032843D01*
X143200000Y-93165686D02*
X143200000Y-90854414D01*
X148400000Y-85654414D02*
X148400000Y-80297056D01*
%TO.N,/C9*%
X145400000Y-76000000D02*
X146015000Y-75385000D01*
X144600000Y-76000000D02*
X145400000Y-76000000D01*
X146015000Y-75385000D02*
X146015000Y-62975000D01*
X146015000Y-62975000D02*
X145040000Y-62000000D01*
%TO.N,/C3_C*%
X143600000Y-91020100D02*
X148800000Y-85820100D01*
X148800000Y-85820100D02*
X148800000Y-80131371D01*
X145276012Y-93194259D02*
X145070271Y-93400000D01*
X147215000Y-78546371D02*
X147215000Y-52175000D01*
X144000000Y-93400000D02*
X143600000Y-93000000D01*
X148800000Y-80131371D02*
X147215000Y-78546371D01*
X145070271Y-93400000D02*
X144000000Y-93400000D01*
X143600000Y-93000000D02*
X143600000Y-91020100D01*
X147215000Y-52175000D02*
X145040000Y-50000000D01*
%TO.N,/C4*%
X151700000Y-97900000D02*
X151417155Y-97900000D01*
X151382842Y-97934313D02*
X151099999Y-97934313D01*
X141615000Y-83069413D02*
X141615000Y-76550686D01*
X141200000Y-94351471D02*
X141200000Y-86297055D01*
X151417155Y-97900000D02*
X151382842Y-97934313D01*
X142200000Y-83654413D02*
X141615000Y-83069413D01*
X143200000Y-74965686D02*
X143200000Y-53840000D01*
X142200000Y-85297055D02*
X142200000Y-83654413D01*
X141200000Y-86297055D02*
X142200000Y-85297055D01*
X141615000Y-76550686D02*
X143200000Y-74965686D01*
X143200000Y-53840000D02*
X145040000Y-52000000D01*
X151099999Y-97934313D02*
X149234312Y-99800000D01*
X149234312Y-99800000D02*
X146000000Y-99800000D01*
X146000000Y-99800000D02*
X141600000Y-95400000D01*
X141600000Y-94751471D02*
X141200000Y-94351471D01*
X141600000Y-95400000D02*
X141600000Y-94751471D01*
%TO.N,/C8*%
X145200000Y-76600000D02*
X145365686Y-76600000D01*
X146415000Y-75550686D02*
X146415000Y-61375000D01*
X145365686Y-76600000D02*
X146415000Y-75550686D01*
X146415000Y-61375000D02*
X145040000Y-60000000D01*
%TO.N,/C1*%
X141215000Y-76385000D02*
X142800000Y-74800000D01*
X142800000Y-61244314D02*
X142200000Y-60644314D01*
X142800000Y-74800000D02*
X142800000Y-61244314D01*
X141800000Y-83820099D02*
X141215000Y-83235099D01*
X141000000Y-95000000D02*
X140800000Y-94800000D01*
X141800000Y-85131370D02*
X141800000Y-83820099D01*
X141215000Y-83235099D02*
X141215000Y-76385000D01*
X140800000Y-94800000D02*
X140800000Y-86131370D01*
X142200000Y-48840000D02*
X145040000Y-46000000D01*
X140800000Y-86131370D02*
X141800000Y-85131370D01*
X142200000Y-60644314D02*
X142200000Y-48840000D01*
%TO.N,/C11*%
X142415000Y-82738042D02*
X142415000Y-77585000D01*
X143000000Y-83323043D02*
X142415000Y-82738042D01*
X142824265Y-94844365D02*
X142000000Y-94020100D01*
X142824265Y-95741423D02*
X142824265Y-94844365D01*
X142415000Y-77585000D02*
X143375735Y-76624265D01*
X142000000Y-94020100D02*
X142000000Y-86628426D01*
X143000000Y-85628427D02*
X143000000Y-83323043D01*
X142000000Y-86628426D02*
X143000000Y-85628427D01*
%TO.N,/C2_C*%
X144585269Y-92790677D02*
X144000000Y-92205408D01*
X147715000Y-78480685D02*
X147715000Y-50675000D01*
X144000000Y-92205408D02*
X144000000Y-91185786D01*
X144000000Y-91185786D02*
X149200000Y-85985786D01*
X149200000Y-85985786D02*
X149200000Y-79965685D01*
X149200000Y-79965685D02*
X147715000Y-78480685D01*
X147715000Y-50675000D02*
X145040000Y-48000000D01*
%TO.N,/C12*%
X143424265Y-96272272D02*
X143372457Y-96324080D01*
X142400000Y-90200000D02*
X142400000Y-90400000D01*
X142400000Y-93854414D02*
X143424265Y-94878679D01*
X143400000Y-83157358D02*
X143399999Y-84600000D01*
X143424265Y-94878679D02*
X143424265Y-96272272D01*
X143399999Y-85800001D02*
X142600000Y-86600000D01*
X142815000Y-77985000D02*
X142815000Y-78400000D01*
X143575735Y-77224265D02*
X142815000Y-77985000D01*
X142815000Y-78400000D02*
X142815000Y-82572357D01*
X142400000Y-90200000D02*
X142400000Y-93854414D01*
X142815000Y-82572357D02*
X143021322Y-82778679D01*
X142600000Y-86600000D02*
X142400000Y-86800000D01*
X143975735Y-77224265D02*
X143575735Y-77224265D01*
X143399999Y-84600000D02*
X143399999Y-85800001D01*
X143021322Y-82778679D02*
X143400000Y-83157358D01*
X142400000Y-86800000D02*
X142400000Y-90200000D01*
%TO.N,/C6*%
X145040000Y-56000000D02*
X144000000Y-57040000D01*
X145175735Y-75375735D02*
X144024265Y-75375735D01*
X144024265Y-75375735D02*
X144000000Y-75400000D01*
X144000000Y-57040000D02*
X144000000Y-75400000D01*
%TO.N,/C5*%
X149068626Y-99400000D02*
X146165686Y-99400000D01*
X144575735Y-76975735D02*
X143600000Y-76000000D01*
X143600000Y-55440000D02*
X145040000Y-54000000D01*
X142800000Y-93688728D02*
X142800000Y-86965686D01*
X142800000Y-86965686D02*
X143799999Y-85965687D01*
X144000000Y-97234314D02*
X144000000Y-94888728D01*
X151134313Y-97334313D02*
X149068626Y-99400000D01*
X146165686Y-99400000D02*
X144000000Y-97234314D01*
X144000000Y-94888728D02*
X142800000Y-93688728D01*
X143600000Y-76000000D02*
X143600000Y-55440000D01*
X143215000Y-78833529D02*
X144575735Y-77472794D01*
X143799999Y-85965687D02*
X143800000Y-82991673D01*
X143800000Y-82991673D02*
X143215000Y-82406672D01*
X143215000Y-82406672D02*
X143215000Y-78833529D01*
X144575735Y-77472794D02*
X144575735Y-76975735D01*
%TO.N,Net-(J6-Pin_1)*%
X133401042Y-104001042D02*
X133401042Y-108063782D01*
X130585813Y-101185813D02*
X133401042Y-104001042D01*
X130585813Y-97814187D02*
X130585813Y-101185813D01*
X136024265Y-92375735D02*
X130585813Y-97814187D01*
X136024265Y-89624265D02*
X136024265Y-92375735D01*
%TO.N,/C7*%
X145231372Y-77417157D02*
X146815000Y-75833529D01*
X146815000Y-75833529D02*
X146815000Y-59775000D01*
X146815000Y-59775000D02*
X145040000Y-58000000D01*
X145231372Y-78231373D02*
X145231372Y-77417157D01*
%TO.N,/C10*%
X141600000Y-86462741D02*
X142600000Y-85462741D01*
X141600000Y-94185785D02*
X141600000Y-86462741D01*
X142015000Y-76785000D02*
X142385785Y-76414215D01*
X142600000Y-83488728D02*
X142015000Y-82903727D01*
X142000000Y-94951470D02*
X142000000Y-94585786D01*
X142015000Y-82903727D02*
X142015000Y-76785000D01*
X142224265Y-95175735D02*
X142000000Y-94951470D01*
X142600000Y-76414215D02*
X142606692Y-76407523D01*
X142600000Y-85462741D02*
X142600000Y-83488728D01*
X142385785Y-76414215D02*
X142600000Y-76414215D01*
X142000000Y-94585786D02*
X141600000Y-94185785D01*
%TO.N,/D2*%
X147600000Y-43641372D02*
X147600000Y-46510000D01*
X131400000Y-91481050D02*
X131400000Y-89834314D01*
X145958628Y-42000000D02*
X147600000Y-43641372D01*
X135176442Y-41024971D02*
X136151471Y-42000000D01*
X131400000Y-89834314D02*
X134600000Y-86634314D01*
X134600000Y-86634314D02*
X134600000Y-71918112D01*
X136151471Y-42000000D02*
X145958628Y-42000000D01*
X134600000Y-71918112D02*
X134235209Y-71553321D01*
X147600000Y-46510000D02*
X149090000Y-48000000D01*
X135176442Y-41009422D02*
X135176442Y-41024971D01*
X131435279Y-91516329D02*
X131400000Y-91481050D01*
%TO.N,/D0*%
X136800000Y-41000000D02*
X146090000Y-41000000D01*
X132547200Y-89852800D02*
X135400000Y-87000000D01*
X135400000Y-87000000D02*
X135400000Y-70400000D01*
X146090000Y-41000000D02*
X149090000Y-44000000D01*
X132547200Y-90275735D02*
X132547200Y-89852800D01*
%TO.N,/D4*%
X160007108Y-74475736D02*
X160007108Y-75992892D01*
X150114943Y-91885057D02*
X148294801Y-91885057D01*
X160007108Y-75992892D02*
X159400000Y-76600000D01*
X157200000Y-54600000D02*
X157200000Y-59800000D01*
X157200000Y-71668628D02*
X158065686Y-72534314D01*
X157200000Y-59800000D02*
X157200000Y-70600000D01*
X152980517Y-89019483D02*
X150114943Y-91885057D01*
X157200000Y-70600000D02*
X157200000Y-71668628D01*
X148294801Y-91885057D02*
X145000000Y-95179858D01*
X158065686Y-72534314D02*
X160007108Y-74475736D01*
X153201396Y-89019483D02*
X152980517Y-89019483D01*
X154600000Y-52000000D02*
X157200000Y-54600000D01*
%TO.N,/D9*%
X150865000Y-77999590D02*
X150865000Y-63775000D01*
X149748530Y-79100000D02*
X149764590Y-79100000D01*
X149764590Y-79100000D02*
X150865000Y-77999590D01*
X150865000Y-63775000D02*
X149090000Y-62000000D01*
%TO.N,/D6*%
X155200445Y-86970003D02*
X151665000Y-83434558D01*
X151665000Y-83434558D02*
X151665000Y-58575000D01*
X148900729Y-92685057D02*
X150400000Y-92685057D01*
X153917937Y-90000000D02*
X154117161Y-89800776D01*
X151665000Y-58575000D02*
X149090000Y-56000000D01*
X146200000Y-96379839D02*
X146200000Y-95385786D01*
X146200000Y-95385786D02*
X148900729Y-92685057D01*
X155200445Y-87019483D02*
X155200445Y-86970003D01*
X151183571Y-92685057D02*
X153034314Y-90834314D01*
X153868628Y-90000000D02*
X153917937Y-90000000D01*
X153034314Y-90834314D02*
X153868628Y-90000000D01*
X150400000Y-92685057D02*
X151183571Y-92685057D01*
%TO.N,/D7*%
X154717161Y-89334408D02*
X154401396Y-89018643D01*
X151265000Y-60175000D02*
X149090000Y-58000000D01*
X146800000Y-96979903D02*
X146800000Y-95351471D01*
X151265000Y-83883087D02*
X151265000Y-60175000D01*
X154401396Y-87019483D02*
X151265000Y-83883087D01*
X149066414Y-93085057D02*
X151349257Y-93085057D01*
X154034315Y-90400000D02*
X154600000Y-90400000D01*
X151349257Y-93085057D02*
X154034315Y-90400000D01*
X154717161Y-90282839D02*
X154717161Y-89334408D01*
X146800000Y-95351471D02*
X149066414Y-93085057D01*
X154600000Y-90400000D02*
X154717161Y-90282839D01*
%TO.N,/D3*%
X130869519Y-92081943D02*
X130835279Y-92047703D01*
X134200000Y-72649486D02*
X133669522Y-72119008D01*
X147200000Y-48110000D02*
X149090000Y-50000000D01*
X134376546Y-41058055D02*
X135718491Y-42400000D01*
X147200000Y-43807058D02*
X147200000Y-48110000D01*
X145792942Y-42400000D02*
X147200000Y-43807058D01*
X130835279Y-89833350D02*
X134200000Y-86468628D01*
X134200000Y-86468628D02*
X134200000Y-72649486D01*
X134376546Y-40996348D02*
X134376546Y-41058055D01*
X135718491Y-42400000D02*
X145792942Y-42400000D01*
X130835279Y-92047703D02*
X130835279Y-89833350D01*
%TO.N,/D8*%
X149800000Y-80000000D02*
X148115000Y-78315000D01*
X148115000Y-60975000D02*
X149090000Y-60000000D01*
X148115000Y-78315000D02*
X148115000Y-60975000D01*
%TO.N,/D10*%
X150465000Y-65375000D02*
X149090000Y-64000000D01*
X149767521Y-78226594D02*
X150465000Y-77529115D01*
X150465000Y-77529115D02*
X150465000Y-65375000D01*
%TO.N,/D11*%
X149772793Y-77372793D02*
X150065000Y-77080586D01*
X150065000Y-66975000D02*
X149090000Y-66000000D01*
X150065000Y-77080586D02*
X150065000Y-66975000D01*
%TO.N,/D5*%
X156707108Y-70600000D02*
X156707108Y-71741422D01*
X149090000Y-54000000D02*
X152115000Y-57025000D01*
X153180515Y-89819485D02*
X150714943Y-92285057D01*
X159407108Y-74441423D02*
X159407108Y-75207108D01*
X154825000Y-57025000D02*
X155800000Y-58000000D01*
X145600000Y-95420100D02*
X145600000Y-95779903D01*
X156707108Y-71741422D02*
X159407108Y-74441423D01*
X156707108Y-58907108D02*
X156707108Y-70600000D01*
X152115000Y-57025000D02*
X154825000Y-57025000D01*
X148735043Y-92285057D02*
X145600000Y-95420100D01*
X153200613Y-89819485D02*
X153180515Y-89819485D01*
X155800000Y-58000000D02*
X156707108Y-58907108D01*
X150714943Y-92285057D02*
X148735043Y-92285057D01*
%TO.N,/D1*%
X135000000Y-86800000D02*
X135000000Y-71186737D01*
X148000000Y-43475686D02*
X148000000Y-44910000D01*
X131947200Y-90896877D02*
X131947200Y-89852800D01*
X136200000Y-41200000D02*
X136200000Y-41248529D01*
X136551471Y-41600000D02*
X146124314Y-41600000D01*
X131947200Y-89852800D02*
X135000000Y-86800000D01*
X148000000Y-44910000D02*
X149090000Y-46000000D01*
X135000000Y-71186737D02*
X134800896Y-70987633D01*
X146124314Y-41600000D02*
X148000000Y-43475686D01*
X135975735Y-40975735D02*
X136200000Y-41200000D01*
X132000000Y-90949677D02*
X131947200Y-90896877D01*
X136200000Y-41248529D02*
X136551471Y-41600000D01*
%TO.N,/E8*%
X153140000Y-60000000D02*
X155281780Y-62141780D01*
X155281780Y-62141780D02*
X155281780Y-63582843D01*
X157310662Y-77303554D02*
X157310662Y-74906209D01*
X157310662Y-74906209D02*
X157072078Y-74667625D01*
%TO.N,/E1*%
X144636212Y-108436212D02*
X145600000Y-107472424D01*
X145600000Y-103757355D02*
X148757355Y-100600000D01*
X150400000Y-100600000D02*
X156137257Y-100600000D01*
X157937257Y-102400000D02*
X159924403Y-102400000D01*
X145600000Y-107472424D02*
X145600000Y-103757355D01*
X155800000Y-48660000D02*
X153140000Y-46000000D01*
X161047655Y-101847651D02*
X161047655Y-101800393D01*
X156137257Y-100600000D02*
X157937257Y-102400000D01*
X155800000Y-49400000D02*
X155800000Y-48660000D01*
X159924403Y-102400000D02*
X160495306Y-102400000D01*
X160495306Y-102400000D02*
X161047655Y-101847651D01*
X148757355Y-100600000D02*
X150400000Y-100600000D01*
%TO.N,/E4*%
X157440202Y-103600000D02*
X161200000Y-103600000D01*
X147136800Y-105214671D02*
X147385329Y-105214671D01*
X147385329Y-105214671D02*
X147600000Y-105000000D01*
X147600000Y-105000000D02*
X147600000Y-103454413D01*
X152000000Y-50860000D02*
X153140000Y-52000000D01*
X160154412Y-42800000D02*
X152500000Y-42800000D01*
X161696190Y-103600000D02*
X163447661Y-101848529D01*
X155640199Y-101800000D02*
X157440202Y-103600000D01*
X163447661Y-101848529D02*
X163447661Y-101800000D01*
X161915805Y-44561393D02*
X160154412Y-42800000D01*
X147600000Y-103454413D02*
X149254413Y-101800000D01*
X152000000Y-43300000D02*
X152000000Y-50860000D01*
X149254413Y-101800000D02*
X150400000Y-101800000D01*
X161200000Y-103600000D02*
X161696190Y-103600000D01*
X150400000Y-101800000D02*
X155640199Y-101800000D01*
X152500000Y-42800000D02*
X152000000Y-43300000D01*
%TO.N,/E10*%
X155907108Y-69388249D02*
X155907108Y-78707108D01*
X152165000Y-65435000D02*
X152165000Y-66453859D01*
X153543859Y-67025000D02*
X155907108Y-69388249D01*
X153140000Y-64460000D02*
X152165000Y-65435000D01*
X152165000Y-66453859D02*
X152736141Y-67025000D01*
X152736141Y-67025000D02*
X153543859Y-67025000D01*
X153140000Y-64000000D02*
X153140000Y-64460000D01*
%TO.N,/E13*%
X153140000Y-70000000D02*
X154515000Y-71375000D01*
X154515000Y-80099216D02*
X154507108Y-80107108D01*
X154515000Y-71375000D02*
X154515000Y-80099216D01*
%TO.N,/E2*%
X161847657Y-101848920D02*
X161847657Y-101799975D01*
X146800000Y-103123041D02*
X148923043Y-101000000D01*
X155971571Y-101000000D02*
X157771572Y-102800000D01*
X160324406Y-102800000D02*
X160896577Y-102800000D01*
X160896577Y-102800000D02*
X161847657Y-101848920D01*
X155000000Y-49000000D02*
X154140000Y-49000000D01*
X157771572Y-102800000D02*
X160324406Y-102800000D01*
X148923043Y-101000000D02*
X155971571Y-101000000D01*
X146379533Y-104243565D02*
X146800000Y-103823098D01*
X154140000Y-49000000D02*
X153140000Y-48000000D01*
X146800000Y-103823098D02*
X146800000Y-103123041D01*
%TO.N,/E12*%
X155207108Y-70067108D02*
X155207108Y-79407108D01*
X153140000Y-68000000D02*
X155207108Y-70067108D01*
%TO.N,/E6*%
X161800000Y-42800000D02*
X161000000Y-42000000D01*
X162496193Y-104400000D02*
X165047667Y-101848526D01*
X165047667Y-101848526D02*
X165047667Y-101800000D01*
X155308828Y-102600000D02*
X149585786Y-102600000D01*
X162200000Y-104400000D02*
X157108828Y-104400000D01*
X161000000Y-42000000D02*
X152168629Y-42000000D01*
X148400000Y-105617215D02*
X147115786Y-106901429D01*
X152168629Y-42000000D02*
X151200000Y-42968629D01*
X162200000Y-104400000D02*
X162496193Y-104400000D01*
X148400000Y-103785785D02*
X148400000Y-105617215D01*
X157108828Y-104400000D02*
X155308828Y-102600000D01*
X149585786Y-102600000D02*
X148400000Y-103785785D01*
X151200000Y-54060000D02*
X153140000Y-56000000D01*
X151200000Y-42968629D02*
X151200000Y-54060000D01*
%TO.N,/E5*%
X160551471Y-42400000D02*
X152334315Y-42400000D01*
X151600000Y-52460000D02*
X153140000Y-54000000D01*
X155474514Y-102200000D02*
X157274514Y-104000000D01*
X148000000Y-105200000D02*
X148000000Y-103620099D01*
X149420101Y-102200000D02*
X150400000Y-102200000D01*
X147115657Y-106084343D02*
X148000000Y-105200000D01*
X150400000Y-102200000D02*
X155474514Y-102200000D01*
X164247664Y-101848526D02*
X164247664Y-101800000D01*
X161896456Y-43693514D02*
X161844985Y-43693514D01*
X161844985Y-43693514D02*
X160551471Y-42400000D01*
X157274514Y-104000000D02*
X161600000Y-104000000D01*
X161600000Y-104000000D02*
X162096190Y-104000000D01*
X152334315Y-42400000D02*
X151600000Y-43134315D01*
X147084343Y-106084343D02*
X147115657Y-106084343D01*
X148000000Y-103620099D02*
X149420101Y-102200000D01*
X162096190Y-104000000D02*
X164247664Y-101848526D01*
X151600000Y-43134315D02*
X151600000Y-52460000D01*
%TO.N,/E3*%
X157605887Y-103200000D02*
X160800000Y-103200000D01*
X161296161Y-103200000D02*
X162647659Y-101848502D01*
X162647659Y-101848502D02*
X162647659Y-101800002D01*
X149088728Y-101400000D02*
X150400000Y-101400000D01*
X160800000Y-103200000D02*
X161296161Y-103200000D01*
X146335813Y-105135815D02*
X147200000Y-104271628D01*
X147200000Y-104271628D02*
X147200000Y-103288727D01*
X155805885Y-101400000D02*
X157605887Y-103200000D01*
X147200000Y-103288727D02*
X149088728Y-101400000D01*
X150400000Y-101400000D02*
X155805885Y-101400000D01*
%TO.N,/E14*%
X154115000Y-72975000D02*
X154115000Y-74685000D01*
X153807108Y-75007108D02*
X153807108Y-80807108D01*
X153800000Y-75000000D02*
X153807108Y-75007108D01*
X153140000Y-72000000D02*
X154115000Y-72975000D01*
X154115000Y-74685000D02*
X153800000Y-75000000D01*
%TO.N,/E9*%
X156506390Y-77906390D02*
X156607108Y-78007108D01*
X153140000Y-62000000D02*
X154600000Y-63460000D01*
X154600000Y-63460000D02*
X154600000Y-64000000D01*
X156506390Y-75233312D02*
X156506390Y-77906390D01*
%TO.N,/E7*%
X157962439Y-74426612D02*
X157962439Y-76651777D01*
X155904960Y-60764960D02*
X155904960Y-64084491D01*
X157637765Y-74101938D02*
X157962439Y-74426612D01*
X153140000Y-58000000D02*
X155904960Y-60764960D01*
%TO.N,/E0*%
X147895834Y-100895834D02*
X148591668Y-100200000D01*
X156600000Y-47460000D02*
X153140000Y-44000000D01*
X156302943Y-100200000D02*
X157902944Y-101800000D01*
X148591668Y-100200000D02*
X150400000Y-100200000D01*
X157902944Y-101800000D02*
X159675874Y-101800000D01*
X156600000Y-49800000D02*
X156600000Y-47460000D01*
X145200000Y-103591669D02*
X147895834Y-100895834D01*
X145200000Y-106573977D02*
X145200000Y-105400000D01*
X145200000Y-105400000D02*
X145200000Y-103591669D01*
X159675874Y-101800000D02*
X160246777Y-101800000D01*
X160246777Y-101800000D02*
X160247653Y-101799124D01*
X150400000Y-100200000D02*
X156302943Y-100200000D01*
X144000000Y-107773977D02*
X145200000Y-106573977D01*
%TO.N,/E15*%
X153140000Y-74000000D02*
X153140000Y-81340000D01*
X153140000Y-81340000D02*
X153207108Y-81407108D01*
%TO.N,Net-(J8-Pin_12)*%
X156307108Y-71907108D02*
X156307108Y-69167108D01*
X158800000Y-75907108D02*
X158800000Y-74400000D01*
X164868628Y-114800000D02*
X166200000Y-113468628D01*
X158800000Y-74400000D02*
X156307108Y-71907108D01*
X156307108Y-69167108D02*
X153140000Y-66000000D01*
X166200000Y-113468628D02*
X166200000Y-112049998D01*
X159600000Y-114800000D02*
X164868628Y-114800000D01*
%TO.N,/QSPI1_IO3*%
X171800000Y-89600000D02*
X171800000Y-88924999D01*
X172814215Y-90200000D02*
X172400000Y-90200000D01*
X154791868Y-94509302D02*
X154000000Y-93717434D01*
X172414214Y-92600000D02*
X173400000Y-91614214D01*
X154000000Y-93717434D02*
X154000000Y-92514943D01*
X172400000Y-90200000D02*
X171800000Y-89600000D01*
X173400000Y-90785785D02*
X172814215Y-90200000D01*
X154343359Y-95543359D02*
X154791868Y-95094850D01*
X166800000Y-91600000D02*
X167800000Y-92600000D01*
X154914943Y-91600000D02*
X166800000Y-91600000D01*
X154791868Y-95094850D02*
X154791868Y-94509302D01*
X167800000Y-92600000D02*
X172414214Y-92600000D01*
X154000000Y-92514943D02*
X154914943Y-91600000D01*
X173400000Y-91614214D02*
X173400000Y-90785785D01*
%TO.N,/QSPI1_IO2*%
X170800000Y-108800000D02*
X170800000Y-109600000D01*
X170800000Y-109600000D02*
X171800000Y-110600000D01*
X169000000Y-100400000D02*
X170600000Y-102000000D01*
X158200000Y-100400000D02*
X169000000Y-100400000D01*
X170600000Y-102000000D02*
X170600000Y-108600000D01*
X170600000Y-108600000D02*
X170800000Y-108800000D01*
X153743359Y-95206340D02*
X153743359Y-95943359D01*
X153743359Y-95943359D02*
X158200000Y-100400000D01*
X154191868Y-94757831D02*
X153743359Y-95206340D01*
%TO.N,/SWDIO*%
X147600000Y-114600000D02*
X147600000Y-114551471D01*
X137225304Y-97225304D02*
X137225304Y-98625304D01*
X146531372Y-114200000D02*
X139465686Y-107134314D01*
X137225304Y-98625304D02*
X137600000Y-99000000D01*
X147600000Y-114551471D02*
X147248529Y-114200000D01*
X147800000Y-114800000D02*
X147600000Y-114600000D01*
X139465686Y-106851471D02*
X138814215Y-106200000D01*
X147248529Y-114200000D02*
X146531372Y-114200000D01*
X137600000Y-105400000D02*
X137600000Y-99000000D01*
X138814215Y-106200000D02*
X138400000Y-106200000D01*
X139465686Y-107134314D02*
X139465686Y-106851471D01*
X138400000Y-106200000D02*
X137600000Y-105400000D01*
X149200000Y-114800000D02*
X147800000Y-114800000D01*
%TO.N,/SWCLK*%
X135225304Y-99225304D02*
X135225304Y-101174696D01*
X138648529Y-106600000D02*
X138200000Y-106600000D01*
X146565686Y-114800000D02*
X141382843Y-109617157D01*
X138200000Y-106600000D02*
X134000000Y-102400000D01*
X147000000Y-114800000D02*
X146565686Y-114800000D01*
X139000000Y-106951471D02*
X138648529Y-106600000D01*
X135225304Y-101174696D02*
X134000000Y-102400000D01*
X139000000Y-107234314D02*
X139000000Y-106951471D01*
X141382843Y-109617157D02*
X141482843Y-109717157D01*
X141382843Y-109617157D02*
X139000000Y-107234314D01*
%TO.N,/QSPI1_IO1*%
X169400000Y-108800000D02*
X169400000Y-110200000D01*
X153400000Y-94600000D02*
X153343359Y-94656641D01*
X168800000Y-100800000D02*
X168834314Y-100800000D01*
X169400000Y-101365686D02*
X169400000Y-108800000D01*
X153343359Y-96109045D02*
X158034315Y-100800000D01*
X169400000Y-110200000D02*
X169000000Y-110600000D01*
X153343359Y-94656641D02*
X153343359Y-96109045D01*
X158034315Y-100800000D02*
X168800000Y-100800000D01*
X169317157Y-101282843D02*
X169400000Y-101365686D01*
X168834314Y-100800000D02*
X169317157Y-101282843D01*
%TO.N,/QSPI1_IO0*%
X153147017Y-93841051D02*
X152788068Y-94200000D01*
X166200000Y-88924999D02*
X166200000Y-90800000D01*
X171048529Y-90600000D02*
X171448529Y-91000000D01*
X152100728Y-94200000D02*
X151749257Y-93848529D01*
X170351471Y-90800000D02*
X170551471Y-90600000D01*
X154200000Y-90800000D02*
X166200000Y-90800000D01*
X166200000Y-90800000D02*
X170351471Y-90800000D01*
X152788068Y-94200000D02*
X152100728Y-94200000D01*
X170551471Y-90600000D02*
X171048529Y-90600000D01*
X151749257Y-93250743D02*
X154200000Y-90800000D01*
X151749257Y-93848529D02*
X151749257Y-93250743D01*
X171448529Y-91000000D02*
X172200000Y-91000000D01*
X172200000Y-91000000D02*
X172400000Y-91200000D01*
%TO.N,/QSPI1_SCK*%
X172648529Y-91800000D02*
X173000000Y-91448529D01*
X170800000Y-91200000D02*
X171400000Y-91800000D01*
X172648529Y-90600000D02*
X171614215Y-90600000D01*
X169800000Y-90200000D02*
X169000000Y-89400000D01*
X171614215Y-90600000D02*
X171214214Y-90200000D01*
X171214214Y-90200000D02*
X169800000Y-90200000D01*
X173000000Y-90951471D02*
X172648529Y-90600000D01*
X154749257Y-91200000D02*
X170800000Y-91200000D01*
X152349257Y-93600000D02*
X154749257Y-91200000D01*
X173000000Y-91448529D02*
X173000000Y-90951471D01*
X171400000Y-91800000D02*
X172648529Y-91800000D01*
X169000000Y-89400000D02*
X169000000Y-88924999D01*
%TO.N,/SWO*%
X145000000Y-113800000D02*
X138400000Y-107200000D01*
X132800000Y-101600000D02*
X132800000Y-102048529D01*
X145000000Y-114800000D02*
X145000000Y-113800000D01*
X133834314Y-103082843D02*
X134117157Y-103082843D01*
X132800000Y-102048529D02*
X133834314Y-103082843D01*
X138234314Y-107200000D02*
X138400000Y-107200000D01*
X134117157Y-103082843D02*
X138234314Y-107200000D01*
%TO.N,/LCD_BACKLIGHT*%
X163000000Y-55200000D02*
X163400000Y-54800000D01*
X161924999Y-55200000D02*
X163000000Y-55200000D01*
X163427250Y-54772750D02*
X163400000Y-54800000D01*
%TO.N,/LCD_RESET*%
X159180517Y-88419483D02*
X165200000Y-82400000D01*
X163200000Y-68200000D02*
X165200000Y-66200000D01*
X161924999Y-68200000D02*
X163200000Y-68200000D01*
X150180517Y-88419483D02*
X159180517Y-88419483D01*
X165200000Y-82400000D02*
X165200000Y-66200000D01*
X146200000Y-92400000D02*
X150180517Y-88419483D01*
X165200000Y-66200000D02*
X165200000Y-63000000D01*
%TO.N,/SPI2_NSS*%
X163400000Y-60400000D02*
X163752426Y-60400000D01*
X163000000Y-72200000D02*
X164200000Y-72200000D01*
X165600000Y-61000000D02*
X164980220Y-60380220D01*
X163400000Y-60400000D02*
X161924999Y-60400000D01*
X163752426Y-60400000D02*
X163772206Y-60380220D01*
X164980220Y-60380220D02*
X163772206Y-60380220D01*
%TO.N,/SPI2_SCK*%
X146634314Y-91400000D02*
X145351471Y-91400000D01*
X168848529Y-61700000D02*
X165300000Y-61700000D01*
X150014832Y-88019483D02*
X146634314Y-91400000D01*
X159014831Y-88019483D02*
X150014832Y-88019483D01*
X163124999Y-61800000D02*
X165200000Y-61800000D01*
X161924999Y-63000000D02*
X163124999Y-61800000D01*
X164600000Y-82434314D02*
X159014831Y-88019483D01*
X169048529Y-61900000D02*
X168848529Y-61700000D01*
X165300000Y-61700000D02*
X165200000Y-61800000D01*
X171200000Y-61900000D02*
X169048529Y-61900000D01*
X164600000Y-73586880D02*
X164600000Y-82434314D01*
%TO.N,/LCD_COMMAND*%
X144703883Y-91047588D02*
X144703883Y-92000000D01*
X163024999Y-64500000D02*
X164500000Y-64500000D01*
X158780517Y-87619483D02*
X149849147Y-87619483D01*
X163800000Y-73644078D02*
X163800000Y-82600000D01*
X149849147Y-87619483D02*
X146868628Y-90600000D01*
X169114215Y-61400000D02*
X168814215Y-61100000D01*
X146868628Y-90600000D02*
X145151471Y-90600000D01*
X163800000Y-82600000D02*
X158780517Y-87619483D01*
X171200000Y-61400000D02*
X169114215Y-61400000D01*
X145151471Y-90600000D02*
X144703883Y-91047588D01*
X168814215Y-61100000D02*
X168581466Y-61100000D01*
X163757295Y-73601373D02*
X163800000Y-73644078D01*
X161924999Y-65600000D02*
X163024999Y-64500000D01*
%TO.N,/SPI2_MOSI*%
X163000000Y-71400000D02*
X164600000Y-71400000D01*
X171200000Y-60400000D02*
X167000000Y-60400000D01*
X163905219Y-59780220D02*
X161924999Y-57800000D01*
X164600000Y-59780220D02*
X163905219Y-59780220D01*
X167000000Y-60400000D02*
X166380220Y-59780220D01*
X166380220Y-59780220D02*
X164600000Y-59780220D01*
%TO.N,/QSPI1_NSS*%
X167600000Y-103400000D02*
X167600000Y-103600000D01*
X148600000Y-95200000D02*
X151868628Y-95200000D01*
X151868628Y-95200000D02*
X155434315Y-98765686D01*
X167600000Y-101800000D02*
X167600000Y-103400000D01*
X155434315Y-98765686D02*
X157868629Y-101200000D01*
X167600000Y-109200000D02*
X166200000Y-110600000D01*
X167600000Y-108800000D02*
X167600000Y-109200000D01*
X167600000Y-103600000D02*
X167600000Y-108800000D01*
X148200000Y-94800000D02*
X148600000Y-95200000D01*
X157868629Y-101200000D02*
X167000000Y-101200000D01*
X167000000Y-101200000D02*
X167600000Y-101800000D01*
%TO.N,/NRST*%
X146196348Y-112003652D02*
X149600000Y-108600000D01*
X149600000Y-108600000D02*
X149600000Y-104000000D01*
X146196348Y-112276381D02*
X146196348Y-112003652D01*
%TO.N,/LCD_LEDK*%
X171200000Y-53900000D02*
X171200000Y-53400000D01*
X170900000Y-54200000D02*
X171200000Y-53900000D01*
X171200000Y-54400000D02*
X171200000Y-53900000D01*
X168600000Y-54200000D02*
X171000000Y-54200000D01*
X168600000Y-54200000D02*
X170900000Y-54200000D01*
X171200000Y-54900000D02*
X171200000Y-54400000D01*
X171000000Y-54200000D02*
X171200000Y-54400000D01*
%TO.N,/LCD_NSS*%
X168700000Y-62400000D02*
X168600000Y-62300000D01*
X171200000Y-62400000D02*
X168700000Y-62400000D01*
%TO.N,/LCD_RST*%
X168600000Y-63100003D02*
X169099997Y-63100003D01*
X169300000Y-62900000D02*
X171200000Y-62900000D01*
X169099997Y-63100003D02*
X169300000Y-62900000D01*
%TO.N,/BOOT0*%
X134275001Y-119524999D02*
X135000000Y-118800000D01*
X134275001Y-120600000D02*
X134275001Y-119524999D01*
X134275001Y-123200000D02*
X134275001Y-120600000D01*
%TO.N,Net-(JP21-B)*%
X136600000Y-123200000D02*
X135724999Y-123200000D01*
%TD*%
M02*
