%TF.GenerationSoftware,KiCad,Pcbnew,8.0.1*%
%TF.CreationDate,2024-05-15T16:11:42+02:00*%
%TF.ProjectId,STM32H7B0_devboard,53544d33-3248-4374-9230-5f646576626f,rev?*%
%TF.SameCoordinates,Original*%
%TF.FileFunction,Legend,Bot*%
%TF.FilePolarity,Positive*%
%FSLAX46Y46*%
G04 Gerber Fmt 4.6, Leading zero omitted, Abs format (unit mm)*
G04 Created by KiCad (PCBNEW 8.0.1) date 2024-05-15 16:11:42*
%MOMM*%
%LPD*%
G01*
G04 APERTURE LIST*
%ADD10C,0.100000*%
%ADD11C,0.150000*%
%ADD12C,0.120000*%
G04 APERTURE END LIST*
D10*
X171641353Y-49065252D02*
X171238972Y-49065252D01*
X171238972Y-49065252D02*
X171455639Y-49312871D01*
X171455639Y-49312871D02*
X171362782Y-49312871D01*
X171362782Y-49312871D02*
X171300877Y-49343823D01*
X171300877Y-49343823D02*
X171269925Y-49374776D01*
X171269925Y-49374776D02*
X171238972Y-49436680D01*
X171238972Y-49436680D02*
X171238972Y-49591442D01*
X171238972Y-49591442D02*
X171269925Y-49653347D01*
X171269925Y-49653347D02*
X171300877Y-49684300D01*
X171300877Y-49684300D02*
X171362782Y-49715252D01*
X171362782Y-49715252D02*
X171548496Y-49715252D01*
X171548496Y-49715252D02*
X171610401Y-49684300D01*
X171610401Y-49684300D02*
X171641353Y-49653347D01*
X170836591Y-49065252D02*
X170774686Y-49065252D01*
X170774686Y-49065252D02*
X170712782Y-49096204D01*
X170712782Y-49096204D02*
X170681829Y-49127157D01*
X170681829Y-49127157D02*
X170650877Y-49189061D01*
X170650877Y-49189061D02*
X170619924Y-49312871D01*
X170619924Y-49312871D02*
X170619924Y-49467633D01*
X170619924Y-49467633D02*
X170650877Y-49591442D01*
X170650877Y-49591442D02*
X170681829Y-49653347D01*
X170681829Y-49653347D02*
X170712782Y-49684300D01*
X170712782Y-49684300D02*
X170774686Y-49715252D01*
X170774686Y-49715252D02*
X170836591Y-49715252D01*
X170836591Y-49715252D02*
X170898496Y-49684300D01*
X170898496Y-49684300D02*
X170929448Y-49653347D01*
X170929448Y-49653347D02*
X170960401Y-49591442D01*
X170960401Y-49591442D02*
X170991353Y-49467633D01*
X170991353Y-49467633D02*
X170991353Y-49312871D01*
X170991353Y-49312871D02*
X170960401Y-49189061D01*
X170960401Y-49189061D02*
X170929448Y-49127157D01*
X170929448Y-49127157D02*
X170898496Y-49096204D01*
X170898496Y-49096204D02*
X170836591Y-49065252D01*
X158896115Y-120262475D02*
X158896115Y-119262475D01*
X158896115Y-119262475D02*
X158324687Y-120262475D01*
X158324687Y-120262475D02*
X158324687Y-119262475D01*
X157705639Y-120262475D02*
X157800877Y-120214856D01*
X157800877Y-120214856D02*
X157848496Y-120167236D01*
X157848496Y-120167236D02*
X157896115Y-120071998D01*
X157896115Y-120071998D02*
X157896115Y-119786284D01*
X157896115Y-119786284D02*
X157848496Y-119691046D01*
X157848496Y-119691046D02*
X157800877Y-119643427D01*
X157800877Y-119643427D02*
X157705639Y-119595808D01*
X157705639Y-119595808D02*
X157562782Y-119595808D01*
X157562782Y-119595808D02*
X157467544Y-119643427D01*
X157467544Y-119643427D02*
X157419925Y-119691046D01*
X157419925Y-119691046D02*
X157372306Y-119786284D01*
X157372306Y-119786284D02*
X157372306Y-120071998D01*
X157372306Y-120071998D02*
X157419925Y-120167236D01*
X157419925Y-120167236D02*
X157467544Y-120214856D01*
X157467544Y-120214856D02*
X157562782Y-120262475D01*
X157562782Y-120262475D02*
X157705639Y-120262475D01*
X157181830Y-120357713D02*
X156419925Y-120357713D01*
X155991353Y-119262475D02*
X155896115Y-119262475D01*
X155896115Y-119262475D02*
X155800877Y-119310094D01*
X155800877Y-119310094D02*
X155753258Y-119357713D01*
X155753258Y-119357713D02*
X155705639Y-119452951D01*
X155705639Y-119452951D02*
X155658020Y-119643427D01*
X155658020Y-119643427D02*
X155658020Y-119881522D01*
X155658020Y-119881522D02*
X155705639Y-120071998D01*
X155705639Y-120071998D02*
X155753258Y-120167236D01*
X155753258Y-120167236D02*
X155800877Y-120214856D01*
X155800877Y-120214856D02*
X155896115Y-120262475D01*
X155896115Y-120262475D02*
X155991353Y-120262475D01*
X155991353Y-120262475D02*
X156086591Y-120214856D01*
X156086591Y-120214856D02*
X156134210Y-120167236D01*
X156134210Y-120167236D02*
X156181829Y-120071998D01*
X156181829Y-120071998D02*
X156229448Y-119881522D01*
X156229448Y-119881522D02*
X156229448Y-119643427D01*
X156229448Y-119643427D02*
X156181829Y-119452951D01*
X156181829Y-119452951D02*
X156134210Y-119357713D01*
X156134210Y-119357713D02*
X156086591Y-119310094D01*
X156086591Y-119310094D02*
X155991353Y-119262475D01*
X158705639Y-120872419D02*
X158610401Y-120872419D01*
X158610401Y-120872419D02*
X158515163Y-120920038D01*
X158515163Y-120920038D02*
X158467544Y-120967657D01*
X158467544Y-120967657D02*
X158419925Y-121062895D01*
X158419925Y-121062895D02*
X158372306Y-121253371D01*
X158372306Y-121253371D02*
X158372306Y-121491466D01*
X158372306Y-121491466D02*
X158419925Y-121681942D01*
X158419925Y-121681942D02*
X158467544Y-121777180D01*
X158467544Y-121777180D02*
X158515163Y-121824800D01*
X158515163Y-121824800D02*
X158610401Y-121872419D01*
X158610401Y-121872419D02*
X158705639Y-121872419D01*
X158705639Y-121872419D02*
X158800877Y-121824800D01*
X158800877Y-121824800D02*
X158848496Y-121777180D01*
X158848496Y-121777180D02*
X158896115Y-121681942D01*
X158896115Y-121681942D02*
X158943734Y-121491466D01*
X158943734Y-121491466D02*
X158943734Y-121253371D01*
X158943734Y-121253371D02*
X158896115Y-121062895D01*
X158896115Y-121062895D02*
X158848496Y-120967657D01*
X158848496Y-120967657D02*
X158800877Y-120920038D01*
X158800877Y-120920038D02*
X158705639Y-120872419D01*
X157467544Y-120872419D02*
X157943734Y-120872419D01*
X157943734Y-120872419D02*
X157991353Y-121348609D01*
X157991353Y-121348609D02*
X157943734Y-121300990D01*
X157943734Y-121300990D02*
X157848496Y-121253371D01*
X157848496Y-121253371D02*
X157610401Y-121253371D01*
X157610401Y-121253371D02*
X157515163Y-121300990D01*
X157515163Y-121300990D02*
X157467544Y-121348609D01*
X157467544Y-121348609D02*
X157419925Y-121443847D01*
X157419925Y-121443847D02*
X157419925Y-121681942D01*
X157419925Y-121681942D02*
X157467544Y-121777180D01*
X157467544Y-121777180D02*
X157515163Y-121824800D01*
X157515163Y-121824800D02*
X157610401Y-121872419D01*
X157610401Y-121872419D02*
X157848496Y-121872419D01*
X157848496Y-121872419D02*
X157943734Y-121824800D01*
X157943734Y-121824800D02*
X157991353Y-121777180D01*
X156991353Y-121491466D02*
X156229449Y-121491466D01*
X155800877Y-120967657D02*
X155753258Y-120920038D01*
X155753258Y-120920038D02*
X155658020Y-120872419D01*
X155658020Y-120872419D02*
X155419925Y-120872419D01*
X155419925Y-120872419D02*
X155324687Y-120920038D01*
X155324687Y-120920038D02*
X155277068Y-120967657D01*
X155277068Y-120967657D02*
X155229449Y-121062895D01*
X155229449Y-121062895D02*
X155229449Y-121158133D01*
X155229449Y-121158133D02*
X155277068Y-121300990D01*
X155277068Y-121300990D02*
X155848496Y-121872419D01*
X155848496Y-121872419D02*
X155229449Y-121872419D01*
X154610401Y-120872419D02*
X154515163Y-120872419D01*
X154515163Y-120872419D02*
X154419925Y-120920038D01*
X154419925Y-120920038D02*
X154372306Y-120967657D01*
X154372306Y-120967657D02*
X154324687Y-121062895D01*
X154324687Y-121062895D02*
X154277068Y-121253371D01*
X154277068Y-121253371D02*
X154277068Y-121491466D01*
X154277068Y-121491466D02*
X154324687Y-121681942D01*
X154324687Y-121681942D02*
X154372306Y-121777180D01*
X154372306Y-121777180D02*
X154419925Y-121824800D01*
X154419925Y-121824800D02*
X154515163Y-121872419D01*
X154515163Y-121872419D02*
X154610401Y-121872419D01*
X154610401Y-121872419D02*
X154705639Y-121824800D01*
X154705639Y-121824800D02*
X154753258Y-121777180D01*
X154753258Y-121777180D02*
X154800877Y-121681942D01*
X154800877Y-121681942D02*
X154848496Y-121491466D01*
X154848496Y-121491466D02*
X154848496Y-121253371D01*
X154848496Y-121253371D02*
X154800877Y-121062895D01*
X154800877Y-121062895D02*
X154753258Y-120967657D01*
X154753258Y-120967657D02*
X154705639Y-120920038D01*
X154705639Y-120920038D02*
X154610401Y-120872419D01*
X153896115Y-120967657D02*
X153848496Y-120920038D01*
X153848496Y-120920038D02*
X153753258Y-120872419D01*
X153753258Y-120872419D02*
X153515163Y-120872419D01*
X153515163Y-120872419D02*
X153419925Y-120920038D01*
X153419925Y-120920038D02*
X153372306Y-120967657D01*
X153372306Y-120967657D02*
X153324687Y-121062895D01*
X153324687Y-121062895D02*
X153324687Y-121158133D01*
X153324687Y-121158133D02*
X153372306Y-121300990D01*
X153372306Y-121300990D02*
X153943734Y-121872419D01*
X153943734Y-121872419D02*
X153324687Y-121872419D01*
X152467544Y-121205752D02*
X152467544Y-121872419D01*
X152705639Y-120824800D02*
X152943734Y-121539085D01*
X152943734Y-121539085D02*
X152324687Y-121539085D01*
G36*
X160401325Y-87491263D02*
G01*
X160501902Y-87487742D01*
X160602133Y-87477179D01*
X160692951Y-87461465D01*
X160792589Y-87437747D01*
X160892689Y-87407564D01*
X160984089Y-87374515D01*
X160984089Y-87086308D01*
X160898111Y-87137519D01*
X160804573Y-87184994D01*
X160713135Y-87222546D01*
X160686113Y-87231877D01*
X160590610Y-87258297D01*
X160485372Y-87274612D01*
X160405722Y-87278283D01*
X160306895Y-87272513D01*
X160209363Y-87252227D01*
X160117944Y-87212556D01*
X160078925Y-87185959D01*
X160012734Y-87112674D01*
X159974019Y-87019763D01*
X159962665Y-86918269D01*
X159973794Y-86818503D01*
X160014906Y-86725899D01*
X160041800Y-86694054D01*
X160120385Y-86635985D01*
X160152198Y-86620781D01*
X160248941Y-86587045D01*
X160320725Y-86569002D01*
X160468736Y-86535296D01*
X160567243Y-86509788D01*
X160663105Y-86477503D01*
X160710048Y-86458115D01*
X160799056Y-86409565D01*
X160877199Y-86346657D01*
X160881507Y-86342344D01*
X160943610Y-86263205D01*
X160985388Y-86169769D01*
X161006842Y-86062037D01*
X161009979Y-85996008D01*
X161003487Y-85896529D01*
X160979504Y-85790627D01*
X160937851Y-85695665D01*
X160878525Y-85611643D01*
X160825331Y-85558325D01*
X160742183Y-85497190D01*
X160653087Y-85452644D01*
X160615771Y-85438646D01*
X160519142Y-85413046D01*
X160413171Y-85399262D01*
X160337334Y-85396636D01*
X160238960Y-85400667D01*
X160137522Y-85412760D01*
X160089672Y-85421060D01*
X159992310Y-85444141D01*
X159958269Y-85453300D01*
X159861507Y-85482287D01*
X159816608Y-85497752D01*
X159816608Y-85776189D01*
X159901258Y-85725019D01*
X159944591Y-85702916D01*
X160037373Y-85662708D01*
X160068178Y-85651625D01*
X160163433Y-85626026D01*
X160266625Y-85611626D01*
X160322191Y-85609616D01*
X160425686Y-85616841D01*
X160525635Y-85641819D01*
X160617286Y-85689901D01*
X160631891Y-85700963D01*
X160701546Y-85778655D01*
X160739052Y-85875443D01*
X160746196Y-85950579D01*
X160733297Y-86048463D01*
X160726657Y-86066838D01*
X160670969Y-86147438D01*
X160587473Y-86202774D01*
X160496034Y-86239086D01*
X160393510Y-86267117D01*
X160248429Y-86299846D01*
X160147588Y-86326694D01*
X160043136Y-86365222D01*
X159952896Y-86411511D01*
X159867166Y-86473915D01*
X159831263Y-86508918D01*
X159767270Y-86596124D01*
X159727970Y-86687654D01*
X159705218Y-86792373D01*
X159698883Y-86894822D01*
X159704540Y-86995913D01*
X159723614Y-87093950D01*
X159746755Y-87159092D01*
X159795468Y-87247449D01*
X159862809Y-87325724D01*
X159878157Y-87339344D01*
X159964300Y-87398539D01*
X160066291Y-87443194D01*
X160166326Y-87469899D01*
X160278004Y-87485922D01*
X160379963Y-87491114D01*
X160401325Y-87491263D01*
G37*
G36*
X158810327Y-85640879D02*
G01*
X159451221Y-85640879D01*
X159451221Y-85427899D01*
X157894417Y-85427899D01*
X157894417Y-85640879D01*
X158532868Y-85640879D01*
X158532868Y-87460000D01*
X158810327Y-87460000D01*
X158810327Y-85640879D01*
G37*
G36*
X157713677Y-85427899D02*
G01*
X157344870Y-85427899D01*
X156992184Y-86465931D01*
X156636566Y-85427899D01*
X156265806Y-85427899D01*
X156265806Y-87460000D01*
X156521772Y-87460000D01*
X156521772Y-85679469D01*
X156885205Y-86735575D01*
X157094277Y-86735575D01*
X157459665Y-85679469D01*
X157459665Y-87460000D01*
X157713677Y-87460000D01*
X157713677Y-85427899D01*
G37*
G36*
X155373342Y-87491263D02*
G01*
X155475100Y-87487965D01*
X155510607Y-87485401D01*
X155610265Y-87474780D01*
X155656175Y-87467815D01*
X155753068Y-87449986D01*
X155794417Y-87440949D01*
X155892521Y-87415343D01*
X155943405Y-87399916D01*
X155943405Y-87124410D01*
X155852985Y-87169981D01*
X155806629Y-87191332D01*
X155712532Y-87227686D01*
X155668387Y-87241158D01*
X155571342Y-87263047D01*
X155534054Y-87269002D01*
X155433304Y-87277703D01*
X155399232Y-87278283D01*
X155291887Y-87271536D01*
X155187181Y-87247815D01*
X155090782Y-87201428D01*
X155050453Y-87170327D01*
X154986311Y-87093658D01*
X154945925Y-86999815D01*
X154929889Y-86900674D01*
X154928820Y-86864535D01*
X154938364Y-86762844D01*
X154971356Y-86665261D01*
X155027914Y-86583898D01*
X155049476Y-86562651D01*
X155133406Y-86505207D01*
X155234986Y-86469038D01*
X155341499Y-86454676D01*
X155380181Y-86453719D01*
X155590718Y-86453719D01*
X155590718Y-86240739D01*
X155380181Y-86240739D01*
X155278601Y-86234248D01*
X155182048Y-86211808D01*
X155088855Y-86163723D01*
X155082205Y-86158674D01*
X155013889Y-86081335D01*
X154981741Y-85988908D01*
X154976692Y-85925666D01*
X154990568Y-85821550D01*
X155036918Y-85730928D01*
X155075366Y-85691681D01*
X155160568Y-85641673D01*
X155262205Y-85616107D01*
X155362107Y-85609616D01*
X155465530Y-85614852D01*
X155568432Y-85629090D01*
X155609769Y-85636971D01*
X155709626Y-85660647D01*
X155803455Y-85689833D01*
X155881856Y-85719036D01*
X155881856Y-85478702D01*
X155781420Y-85455060D01*
X155679427Y-85433682D01*
X155586322Y-85417152D01*
X155489511Y-85403869D01*
X155389760Y-85397137D01*
X155355268Y-85396636D01*
X155251015Y-85401651D01*
X155152943Y-85416694D01*
X155090997Y-85432295D01*
X154997647Y-85467315D01*
X154908475Y-85518553D01*
X154879483Y-85540251D01*
X154802333Y-85616790D01*
X154747226Y-85705725D01*
X154714161Y-85807056D01*
X154703312Y-85905888D01*
X154703140Y-85920781D01*
X154712490Y-86020577D01*
X154727076Y-86073677D01*
X154772587Y-86162560D01*
X154796441Y-86193356D01*
X154870639Y-86259689D01*
X154956124Y-86307469D01*
X155058782Y-86343323D01*
X155069993Y-86346252D01*
X154975287Y-86378340D01*
X154882903Y-86426919D01*
X154805512Y-86488712D01*
X154762247Y-86537250D01*
X154708786Y-86622979D01*
X154680669Y-86696496D01*
X154660849Y-86792328D01*
X154655268Y-86882609D01*
X154661863Y-86984298D01*
X154686226Y-87092343D01*
X154728541Y-87188982D01*
X154788808Y-87274213D01*
X154842847Y-87328108D01*
X154924706Y-87386830D01*
X155019465Y-87432814D01*
X155067550Y-87449741D01*
X155163189Y-87473381D01*
X155268757Y-87487208D01*
X155373342Y-87491263D01*
G37*
G36*
X154255198Y-87276329D02*
G01*
X154221004Y-87191332D01*
X154152825Y-87119575D01*
X154081590Y-87044322D01*
X154036357Y-86996427D01*
X153968064Y-86923688D01*
X153896909Y-86847133D01*
X153830423Y-86774971D01*
X153807745Y-86750230D01*
X153739914Y-86675979D01*
X153671014Y-86600589D01*
X153668039Y-86597334D01*
X153601013Y-86523142D01*
X153596231Y-86517711D01*
X153545429Y-86458115D01*
X153484091Y-86381479D01*
X153430146Y-86308639D01*
X153377987Y-86224470D01*
X153359316Y-86186517D01*
X153326591Y-86093005D01*
X153311865Y-85993020D01*
X153311444Y-85973049D01*
X153321223Y-85874007D01*
X153354571Y-85781700D01*
X153411584Y-85706824D01*
X153498000Y-85647588D01*
X153595801Y-85617305D01*
X153689043Y-85609616D01*
X153798989Y-85618615D01*
X153897804Y-85640654D01*
X154000844Y-85675917D01*
X154108108Y-85724403D01*
X154200723Y-85774909D01*
X154238590Y-85797683D01*
X154238590Y-85522177D01*
X154142993Y-85483105D01*
X154047626Y-85451190D01*
X153961130Y-85428387D01*
X153859991Y-85409039D01*
X153759538Y-85398620D01*
X153692951Y-85396636D01*
X153588881Y-85402063D01*
X153489894Y-85418343D01*
X153426727Y-85435226D01*
X153330678Y-85473440D01*
X153244949Y-85526165D01*
X153208862Y-85555394D01*
X153139467Y-85630713D01*
X153087482Y-85713794D01*
X153077948Y-85733203D01*
X153044221Y-85830148D01*
X153029815Y-85929210D01*
X153028611Y-85969630D01*
X153037060Y-86070586D01*
X153062408Y-86171954D01*
X153088695Y-86239762D01*
X153135808Y-86328259D01*
X153166364Y-86373607D01*
X153227621Y-86454270D01*
X153287020Y-86527480D01*
X153351721Y-86602264D01*
X153381297Y-86635924D01*
X153448411Y-86710422D01*
X153508304Y-86775631D01*
X153576478Y-86847793D01*
X153605024Y-86877236D01*
X153674450Y-86946845D01*
X153698813Y-86971025D01*
X153769448Y-87041861D01*
X153811653Y-87084842D01*
X153882117Y-87157871D01*
X153949621Y-87229076D01*
X153966503Y-87247020D01*
X153014933Y-87247020D01*
X153014933Y-87460000D01*
X154255198Y-87460000D01*
X154255198Y-87276329D01*
G37*
G36*
X152591416Y-85427899D02*
G01*
X152313468Y-85427899D01*
X152313468Y-86272002D01*
X151557780Y-86272002D01*
X151557780Y-85427899D01*
X151279832Y-85427899D01*
X151279832Y-87460000D01*
X151557780Y-87460000D01*
X151557780Y-86484982D01*
X152313468Y-86484982D01*
X152313468Y-87460000D01*
X152591416Y-87460000D01*
X152591416Y-85427899D01*
G37*
G36*
X149926727Y-85640879D02*
G01*
X150904187Y-85640879D01*
X150904187Y-85427899D01*
X149618981Y-85427899D01*
X149618981Y-85537320D01*
X150349267Y-87460000D01*
X150637473Y-87460000D01*
X149926727Y-85640879D01*
G37*
G36*
X149182763Y-87460000D02*
G01*
X148578506Y-87460000D01*
X148556298Y-87459862D01*
X148450382Y-87455036D01*
X148334553Y-87440147D01*
X148231021Y-87415332D01*
X148125774Y-87373835D01*
X148037264Y-87318827D01*
X147994674Y-87281794D01*
X147926530Y-87195088D01*
X147885538Y-87105395D01*
X147861936Y-87002800D01*
X147855547Y-86904591D01*
X147856818Y-86879190D01*
X148133007Y-86879190D01*
X148141122Y-86980246D01*
X148173078Y-87080461D01*
X148235589Y-87160558D01*
X148279644Y-87189941D01*
X148373831Y-87225404D01*
X148480786Y-87242882D01*
X148578506Y-87247020D01*
X148905303Y-87247020D01*
X148905303Y-86484982D01*
X148578506Y-86484982D01*
X148523330Y-86486463D01*
X148424106Y-86498309D01*
X148330216Y-86525794D01*
X148240963Y-86579748D01*
X148227890Y-86592195D01*
X148171066Y-86675592D01*
X148141547Y-86773347D01*
X148133007Y-86879190D01*
X147856818Y-86879190D01*
X147859532Y-86824959D01*
X147877239Y-86727490D01*
X147914093Y-86629736D01*
X147968876Y-86544577D01*
X148014517Y-86496051D01*
X148094764Y-86437752D01*
X148189153Y-86396841D01*
X148284926Y-86375073D01*
X148219553Y-86361861D01*
X148126168Y-86326713D01*
X148090341Y-86305813D01*
X148015282Y-86239762D01*
X147990629Y-86205349D01*
X147949825Y-86115198D01*
X147933797Y-86046877D01*
X147926378Y-85946671D01*
X147926409Y-85943740D01*
X148205303Y-85943740D01*
X148208429Y-86004259D01*
X148233433Y-86105925D01*
X148294207Y-86191891D01*
X148375998Y-86240709D01*
X148479456Y-86265665D01*
X148584368Y-86272002D01*
X148905303Y-86272002D01*
X148905303Y-85640879D01*
X148584368Y-85640879D01*
X148490121Y-85645275D01*
X148383761Y-85665677D01*
X148292742Y-85711221D01*
X148254487Y-85751399D01*
X148215635Y-85842213D01*
X148205303Y-85943740D01*
X147926409Y-85943740D01*
X147926543Y-85931242D01*
X147936972Y-85829465D01*
X147968754Y-85726486D01*
X148021724Y-85637734D01*
X148095882Y-85563210D01*
X148164942Y-85517225D01*
X148258014Y-85475601D01*
X148364549Y-85446927D01*
X148466582Y-85432656D01*
X148578506Y-85427899D01*
X149182763Y-85427899D01*
X149182763Y-87460000D01*
G37*
G36*
X146921872Y-85975021D02*
G01*
X146968461Y-86061574D01*
X146992882Y-86157208D01*
X147004286Y-86220736D01*
X147014863Y-86319385D01*
X147016123Y-86340054D01*
X147020237Y-86438576D01*
X147019198Y-86475895D01*
X147011444Y-86575352D01*
X147005214Y-86628999D01*
X146988485Y-86729225D01*
X146978799Y-86772665D01*
X146948429Y-86868932D01*
X146880530Y-86928527D01*
X146840280Y-86912530D01*
X146791340Y-86824053D01*
X146768667Y-86726294D01*
X146759005Y-86657166D01*
X146750104Y-86558743D01*
X146749513Y-86548756D01*
X146745219Y-86449323D01*
X146746030Y-86416245D01*
X146753524Y-86316943D01*
X146759868Y-86259799D01*
X146775505Y-86161605D01*
X146788176Y-86105238D01*
X146821423Y-86012128D01*
X146886392Y-85959371D01*
X146921872Y-85975021D01*
G37*
G36*
X146923856Y-85397672D02*
G01*
X147037395Y-85413214D01*
X147139462Y-85447406D01*
X147230057Y-85500248D01*
X147309180Y-85571741D01*
X147376831Y-85661884D01*
X147387110Y-85678767D01*
X147433606Y-85770511D01*
X147471946Y-85874467D01*
X147502128Y-85990635D01*
X147520400Y-86092362D01*
X147533452Y-86201905D01*
X147541283Y-86319263D01*
X147543893Y-86444438D01*
X147543730Y-86476404D01*
X147539815Y-86599403D01*
X147530679Y-86714617D01*
X147516322Y-86822046D01*
X147496744Y-86921689D01*
X147464930Y-87035296D01*
X147424960Y-87136737D01*
X147376831Y-87226015D01*
X147344440Y-87273418D01*
X147271052Y-87354235D01*
X147186193Y-87416403D01*
X147089862Y-87459920D01*
X146982060Y-87484787D01*
X146883461Y-87491263D01*
X146843231Y-87490226D01*
X146729985Y-87474685D01*
X146627901Y-87440493D01*
X146536979Y-87387650D01*
X146457221Y-87316158D01*
X146388625Y-87226015D01*
X146368727Y-87192653D01*
X146324391Y-87100499D01*
X146291096Y-87006874D01*
X146264061Y-86903126D01*
X146256466Y-86866225D01*
X146239865Y-86761651D01*
X146229697Y-86662785D01*
X146223596Y-86557048D01*
X146221563Y-86444438D01*
X146499023Y-86444438D01*
X146500503Y-86546676D01*
X146506519Y-86664922D01*
X146517161Y-86772553D01*
X146532431Y-86869571D01*
X146556863Y-86971981D01*
X146593789Y-87072142D01*
X146625719Y-87131528D01*
X146695636Y-87213059D01*
X146781550Y-87261977D01*
X146883461Y-87278283D01*
X146951902Y-87271036D01*
X147041942Y-87232988D01*
X147116835Y-87162329D01*
X147170690Y-87072142D01*
X147207997Y-86972816D01*
X147232680Y-86870749D01*
X147248108Y-86773755D01*
X147258860Y-86665909D01*
X147264938Y-86547211D01*
X147266434Y-86444438D01*
X147265849Y-86377777D01*
X147262483Y-86277668D01*
X147255120Y-86174679D01*
X147242498Y-86072212D01*
X147230880Y-86007180D01*
X147205636Y-85907334D01*
X147170690Y-85815757D01*
X147138820Y-85756370D01*
X147069310Y-85674840D01*
X146984191Y-85625922D01*
X146883461Y-85609616D01*
X146813743Y-85616914D01*
X146722497Y-85655232D01*
X146647247Y-85726394D01*
X146593789Y-85817222D01*
X146556863Y-85916859D01*
X146532431Y-86019006D01*
X146517161Y-86115935D01*
X146506519Y-86223597D01*
X146500503Y-86341993D01*
X146499023Y-86444438D01*
X146221563Y-86444438D01*
X146221729Y-86411620D01*
X146224924Y-86301113D01*
X146232187Y-86197386D01*
X146245468Y-86087141D01*
X146264061Y-85985750D01*
X146272377Y-85949867D01*
X146301499Y-85849073D01*
X146341198Y-85749134D01*
X146388625Y-85661884D01*
X146421278Y-85614481D01*
X146495112Y-85533663D01*
X146580315Y-85471496D01*
X146676886Y-85427979D01*
X146784826Y-85403112D01*
X146883461Y-85396636D01*
X146923856Y-85397672D01*
G37*
G36*
X145912840Y-87741367D02*
G01*
X144485484Y-87741367D01*
X144485484Y-87897683D01*
X145912840Y-87897683D01*
X145912840Y-87741367D01*
G37*
G36*
X143184159Y-86137669D02*
G01*
X143209169Y-86093774D01*
X143274080Y-86014221D01*
X143353663Y-85955952D01*
X143394559Y-85935865D01*
X143489764Y-85906600D01*
X143593998Y-85896845D01*
X143660623Y-85900150D01*
X143768731Y-85921839D01*
X143866041Y-85963770D01*
X143952551Y-86025943D01*
X144028262Y-86108360D01*
X144065929Y-86163612D01*
X144113012Y-86255392D01*
X144148796Y-86357854D01*
X144173279Y-86470997D01*
X144185050Y-86573443D01*
X144188974Y-86683307D01*
X144186064Y-86773792D01*
X144176141Y-86872884D01*
X144159176Y-86971514D01*
X144141713Y-87041306D01*
X144106816Y-87140270D01*
X144061479Y-87232365D01*
X144024690Y-87288297D01*
X143958859Y-87361203D01*
X143880251Y-87420921D01*
X143795710Y-87460969D01*
X143698586Y-87484393D01*
X143599371Y-87491263D01*
X143531655Y-87487637D01*
X143424024Y-87463845D01*
X143330231Y-87417847D01*
X143250276Y-87349642D01*
X143184159Y-87259232D01*
X143159246Y-87460000D01*
X142932588Y-87460000D01*
X142932588Y-86692588D01*
X143184159Y-86692588D01*
X143187578Y-86788087D01*
X143197836Y-86887983D01*
X143217864Y-86986779D01*
X143250593Y-87078981D01*
X143290998Y-87150080D01*
X143362456Y-87223084D01*
X143453130Y-87266154D01*
X143554431Y-87278283D01*
X143656784Y-87265939D01*
X143747871Y-87222107D01*
X143808729Y-87162358D01*
X143858757Y-87077515D01*
X143890387Y-86985680D01*
X143910048Y-86887006D01*
X143919866Y-86793196D01*
X143923726Y-86692588D01*
X143920307Y-86598433D01*
X143910048Y-86499637D01*
X143891966Y-86407280D01*
X143858757Y-86309616D01*
X143819020Y-86238276D01*
X143747871Y-86165512D01*
X143656784Y-86122061D01*
X143554431Y-86109825D01*
X143453130Y-86122061D01*
X143362456Y-86165512D01*
X143301383Y-86224667D01*
X143250593Y-86309616D01*
X143217864Y-86401329D01*
X143197836Y-86499637D01*
X143188019Y-86592394D01*
X143184159Y-86692588D01*
X142932588Y-86692588D01*
X142932588Y-85334110D01*
X143184159Y-85334110D01*
X143184159Y-86137669D01*
G37*
G36*
X141893056Y-85902011D02*
G01*
X141996470Y-85920566D01*
X142090542Y-85952615D01*
X142185205Y-86004801D01*
X142241643Y-86047763D01*
X142316059Y-86122187D01*
X142378188Y-86208591D01*
X142423098Y-86295450D01*
X142458147Y-86389727D01*
X142483182Y-86489378D01*
X142498203Y-86594403D01*
X142503210Y-86704801D01*
X142500057Y-86793621D01*
X142487251Y-86897885D01*
X142464594Y-86994635D01*
X142424403Y-87100817D01*
X142370027Y-87196181D01*
X142301465Y-87280725D01*
X142248647Y-87330070D01*
X142160491Y-87391751D01*
X142061618Y-87438628D01*
X141952030Y-87470702D01*
X141852520Y-87486123D01*
X141745568Y-87491263D01*
X141676325Y-87489278D01*
X141573835Y-87478860D01*
X141472993Y-87459511D01*
X141406529Y-87442078D01*
X141307633Y-87411006D01*
X141209699Y-87374026D01*
X141209699Y-87131249D01*
X141272531Y-87160649D01*
X141368839Y-87200514D01*
X141467620Y-87235296D01*
X141534848Y-87254103D01*
X141637750Y-87272238D01*
X141743126Y-87278283D01*
X141831225Y-87273474D01*
X141935547Y-87252103D01*
X142034955Y-87207624D01*
X142115352Y-87141507D01*
X142164269Y-87077179D01*
X142209508Y-86981284D01*
X142233046Y-86883586D01*
X142240893Y-86774166D01*
X142240893Y-86766350D01*
X141151081Y-86766350D01*
X141151081Y-86642274D01*
X141152567Y-86578030D01*
X141154780Y-86553370D01*
X141402651Y-86553370D01*
X142231123Y-86553370D01*
X142227093Y-86522947D01*
X142203371Y-86421994D01*
X142164689Y-86329644D01*
X142157936Y-86317225D01*
X142097193Y-86234307D01*
X142018632Y-86169420D01*
X141981864Y-86149167D01*
X141883649Y-86118206D01*
X141785624Y-86109825D01*
X141751911Y-86110749D01*
X141654045Y-86126507D01*
X141563363Y-86168932D01*
X141490823Y-86238053D01*
X141441242Y-86328178D01*
X141432197Y-86353709D01*
X141410038Y-86448958D01*
X141402651Y-86553370D01*
X141154780Y-86553370D01*
X141161645Y-86476892D01*
X141183432Y-86365316D01*
X141217103Y-86264423D01*
X141262658Y-86174212D01*
X141320097Y-86094682D01*
X141388138Y-86027448D01*
X141479760Y-85966590D01*
X141584566Y-85924666D01*
X141684893Y-85903800D01*
X141794905Y-85896845D01*
X141893056Y-85902011D01*
G37*
G36*
X140851639Y-85928108D02*
G01*
X140590788Y-85928108D01*
X140146266Y-87214291D01*
X139700767Y-85928108D01*
X139439427Y-85928108D01*
X139983600Y-87460000D01*
X140307466Y-87460000D01*
X140851639Y-85928108D01*
G37*
G36*
X139040334Y-87460000D02*
G01*
X138813189Y-87460000D01*
X138788764Y-87259232D01*
X138743837Y-87326077D01*
X138667956Y-87400626D01*
X138576928Y-87452968D01*
X138470753Y-87483105D01*
X138367690Y-87491263D01*
X138279500Y-87485698D01*
X138182943Y-87463785D01*
X138091695Y-87420921D01*
X138044692Y-87387758D01*
X137968811Y-87314637D01*
X137911933Y-87233831D01*
X137876753Y-87166189D01*
X137839224Y-87069870D01*
X137814235Y-86975422D01*
X137798264Y-86886788D01*
X137787528Y-86789071D01*
X137784056Y-86694054D01*
X138049197Y-86694054D01*
X138052616Y-86788332D01*
X138062875Y-86887494D01*
X138082536Y-86986046D01*
X138114166Y-87078492D01*
X138153903Y-87149926D01*
X138225052Y-87223084D01*
X138315758Y-87266154D01*
X138418004Y-87278283D01*
X138519655Y-87266154D01*
X138610467Y-87223084D01*
X138671296Y-87163686D01*
X138722330Y-87078981D01*
X138755059Y-86986779D01*
X138775087Y-86887983D01*
X138784904Y-86794202D01*
X138788764Y-86692588D01*
X138785345Y-86598189D01*
X138775087Y-86498660D01*
X138756683Y-86406060D01*
X138722330Y-86308639D01*
X138681685Y-86237967D01*
X138610467Y-86165512D01*
X138519655Y-86122061D01*
X138418004Y-86109825D01*
X138315758Y-86122061D01*
X138225052Y-86165512D01*
X138164194Y-86224667D01*
X138114166Y-86309616D01*
X138082536Y-86401451D01*
X138062875Y-86500125D01*
X138053057Y-86593584D01*
X138049197Y-86694054D01*
X137784056Y-86694054D01*
X137783949Y-86691123D01*
X137786268Y-86611950D01*
X137796572Y-86506265D01*
X137813258Y-86409267D01*
X137830325Y-86340268D01*
X137864969Y-86242724D01*
X137910467Y-86152323D01*
X137937326Y-86110523D01*
X138006361Y-86031033D01*
X138090230Y-85966699D01*
X138173312Y-85926929D01*
X138268747Y-85903667D01*
X138366224Y-85896845D01*
X138417103Y-85898923D01*
X138520742Y-85917683D01*
X138615352Y-85955952D01*
X138661384Y-85984683D01*
X138734840Y-86054412D01*
X138788764Y-86137669D01*
X138788764Y-85334110D01*
X139040334Y-85334110D01*
X139040334Y-87460000D01*
G37*
G36*
X136795874Y-85897047D02*
G01*
X136907867Y-85906709D01*
X137009521Y-85930867D01*
X137100838Y-85969518D01*
X137194307Y-86032931D01*
X137263224Y-86102986D01*
X137312055Y-86171806D01*
X137359729Y-86266007D01*
X137395483Y-86372883D01*
X137416175Y-86471627D01*
X137428590Y-86579172D01*
X137432728Y-86695519D01*
X137430087Y-86788950D01*
X137419359Y-86897860D01*
X137400377Y-86998016D01*
X137366706Y-87106649D01*
X137321151Y-87202676D01*
X137263712Y-87286099D01*
X137182545Y-87366040D01*
X137086932Y-87426347D01*
X136993480Y-87462411D01*
X136889416Y-87484050D01*
X136774738Y-87491263D01*
X136661090Y-87484101D01*
X136557919Y-87462617D01*
X136465223Y-87426811D01*
X136370318Y-87366935D01*
X136289672Y-87287564D01*
X136241121Y-87219307D01*
X136193723Y-87125655D01*
X136158174Y-87019192D01*
X136137602Y-86920686D01*
X136125258Y-86813284D01*
X136121144Y-86696985D01*
X136121267Y-86692588D01*
X136387857Y-86692588D01*
X136388250Y-86727429D01*
X136394146Y-86825792D01*
X136409968Y-86928872D01*
X136439842Y-87031278D01*
X136488485Y-87126852D01*
X136508113Y-87153915D01*
X136584515Y-87224898D01*
X136677804Y-87266304D01*
X136776203Y-87278283D01*
X136799313Y-87277691D01*
X136904728Y-87256988D01*
X136993257Y-87206708D01*
X137064898Y-87126852D01*
X137082969Y-87097304D01*
X137122468Y-87007217D01*
X137149327Y-86900704D01*
X137162460Y-86794031D01*
X137166015Y-86692588D01*
X137165622Y-86657929D01*
X137159726Y-86560087D01*
X137143904Y-86457572D01*
X137114030Y-86355753D01*
X137065387Y-86260767D01*
X137045746Y-86233792D01*
X136969115Y-86163038D01*
X136875311Y-86121765D01*
X136776203Y-86109825D01*
X136753155Y-86110415D01*
X136648044Y-86131051D01*
X136559821Y-86181169D01*
X136488485Y-86260767D01*
X136470502Y-86290128D01*
X136431194Y-86379673D01*
X136404465Y-86485583D01*
X136391395Y-86591678D01*
X136387857Y-86692588D01*
X136121267Y-86692588D01*
X136123785Y-86602532D01*
X136134513Y-86492558D01*
X136153495Y-86391576D01*
X136187166Y-86282268D01*
X136232721Y-86185909D01*
X136290160Y-86102498D01*
X136371187Y-86022366D01*
X136466379Y-85961915D01*
X136559247Y-85925765D01*
X136662522Y-85904075D01*
X136776203Y-85896845D01*
X136795874Y-85897047D01*
G37*
G36*
X135187312Y-85898738D02*
G01*
X135285933Y-85908676D01*
X135383042Y-85927131D01*
X135447125Y-85943282D01*
X135542678Y-85971286D01*
X135637543Y-86003824D01*
X135637543Y-86255882D01*
X135578314Y-86223337D01*
X135485349Y-86181617D01*
X135387438Y-86148415D01*
X135319966Y-86131532D01*
X135217613Y-86115252D01*
X135113886Y-86109825D01*
X135029256Y-86114527D01*
X134929241Y-86136345D01*
X134835450Y-86185052D01*
X134775022Y-86257821D01*
X134744131Y-86353250D01*
X134736287Y-86451765D01*
X134736287Y-86490844D01*
X135074319Y-86490844D01*
X135096101Y-86491019D01*
X135202661Y-86497164D01*
X135305310Y-86512085D01*
X135404047Y-86535785D01*
X135494798Y-86570312D01*
X135581402Y-86623170D01*
X135654152Y-86691612D01*
X135665686Y-86705751D01*
X135715825Y-86795660D01*
X135741872Y-86895227D01*
X135749406Y-86999357D01*
X135744340Y-87084669D01*
X135721824Y-87186289D01*
X135674962Y-87284044D01*
X135605303Y-87364256D01*
X135538541Y-87413744D01*
X135441782Y-87459511D01*
X135345459Y-87483325D01*
X135239427Y-87491263D01*
X135142035Y-87484727D01*
X135038431Y-87462441D01*
X134938520Y-87424340D01*
X134855172Y-87375596D01*
X134777595Y-87306000D01*
X134714794Y-87219665D01*
X134710903Y-87245901D01*
X134692812Y-87342274D01*
X134687339Y-87365464D01*
X134655687Y-87460000D01*
X134403140Y-87460000D01*
X134429329Y-87389623D01*
X134455112Y-87287133D01*
X134469574Y-87184494D01*
X134476422Y-87099280D01*
X134481748Y-87001006D01*
X134483740Y-86901172D01*
X134483740Y-86703824D01*
X134736287Y-86703824D01*
X134736287Y-86757557D01*
X134738461Y-86816341D01*
X134752303Y-86913199D01*
X134781716Y-87012547D01*
X134797048Y-87048544D01*
X134848967Y-87131867D01*
X134924354Y-87205010D01*
X134983907Y-87240430D01*
X135077616Y-87269625D01*
X135177878Y-87278283D01*
X135221141Y-87276601D01*
X135321344Y-87256490D01*
X135409420Y-87209406D01*
X135430143Y-87191088D01*
X135483244Y-87102817D01*
X135497836Y-87001311D01*
X135483346Y-86898894D01*
X135431891Y-86814221D01*
X135356664Y-86760122D01*
X135263852Y-86726782D01*
X135251073Y-86724002D01*
X135154136Y-86708868D01*
X135055268Y-86703824D01*
X134736287Y-86703824D01*
X134483740Y-86703824D01*
X134483740Y-86589030D01*
X134485440Y-86483036D01*
X134491317Y-86384117D01*
X134505233Y-86285191D01*
X134522117Y-86225355D01*
X134564981Y-86135722D01*
X134631263Y-86057069D01*
X134674192Y-86021983D01*
X134762848Y-85969103D01*
X134854989Y-85934459D01*
X134919958Y-85918003D01*
X135019242Y-85902135D01*
X135120725Y-85896845D01*
X135187312Y-85898738D01*
G37*
G36*
X133838450Y-85928108D02*
G01*
X133609839Y-85928108D01*
X133585415Y-86231458D01*
X133538818Y-86137749D01*
X133479627Y-86058732D01*
X133399971Y-85988785D01*
X133391974Y-85983307D01*
X133296975Y-85934081D01*
X133200194Y-85907062D01*
X133093491Y-85896930D01*
X133082274Y-85896845D01*
X132980076Y-85903762D01*
X132875586Y-85927671D01*
X132780636Y-85968658D01*
X132754012Y-85984284D01*
X132754012Y-86248066D01*
X132831407Y-86187586D01*
X132926577Y-86140200D01*
X133030325Y-86114685D01*
X133104256Y-86109825D01*
X133213769Y-86119198D01*
X133309787Y-86147316D01*
X133401677Y-86201356D01*
X133461339Y-86259790D01*
X133515622Y-86342924D01*
X133554396Y-86442362D01*
X133575600Y-86542743D01*
X133584930Y-86655607D01*
X133585415Y-86690146D01*
X133585415Y-87460000D01*
X133838450Y-87460000D01*
X133838450Y-85928108D01*
G37*
G36*
X131394068Y-86137669D02*
G01*
X131419078Y-86093774D01*
X131483989Y-86014221D01*
X131563572Y-85955952D01*
X131604468Y-85935865D01*
X131699673Y-85906600D01*
X131803907Y-85896845D01*
X131870532Y-85900150D01*
X131978641Y-85921839D01*
X132075950Y-85963770D01*
X132162460Y-86025943D01*
X132238171Y-86108360D01*
X132275838Y-86163612D01*
X132322922Y-86255392D01*
X132358705Y-86357854D01*
X132383188Y-86470997D01*
X132394959Y-86573443D01*
X132398883Y-86683307D01*
X132395973Y-86773792D01*
X132386050Y-86872884D01*
X132369085Y-86971514D01*
X132351622Y-87041306D01*
X132316726Y-87140270D01*
X132271388Y-87232365D01*
X132234599Y-87288297D01*
X132168768Y-87361203D01*
X132090160Y-87420921D01*
X132005619Y-87460969D01*
X131908495Y-87484393D01*
X131809281Y-87491263D01*
X131741564Y-87487637D01*
X131633933Y-87463845D01*
X131540140Y-87417847D01*
X131460185Y-87349642D01*
X131394068Y-87259232D01*
X131369155Y-87460000D01*
X131142498Y-87460000D01*
X131142498Y-86692588D01*
X131394068Y-86692588D01*
X131397487Y-86788087D01*
X131407745Y-86887983D01*
X131427773Y-86986779D01*
X131460502Y-87078981D01*
X131500907Y-87150080D01*
X131572365Y-87223084D01*
X131663039Y-87266154D01*
X131764340Y-87278283D01*
X131866693Y-87265939D01*
X131957780Y-87222107D01*
X132018638Y-87162358D01*
X132068667Y-87077515D01*
X132100296Y-86985680D01*
X132119958Y-86887006D01*
X132129775Y-86793196D01*
X132133635Y-86692588D01*
X132130216Y-86598433D01*
X132119958Y-86499637D01*
X132101876Y-86407280D01*
X132068667Y-86309616D01*
X132028929Y-86238276D01*
X131957780Y-86165512D01*
X131866693Y-86122061D01*
X131764340Y-86109825D01*
X131663039Y-86122061D01*
X131572365Y-86165512D01*
X131511293Y-86224667D01*
X131460502Y-86309616D01*
X131427773Y-86401329D01*
X131407745Y-86499637D01*
X131397928Y-86592394D01*
X131394068Y-86692588D01*
X131142498Y-86692588D01*
X131142498Y-85334110D01*
X131394068Y-85334110D01*
X131394068Y-86137669D01*
G37*
X171038972Y-66115252D02*
X171410401Y-66115252D01*
X171224687Y-66115252D02*
X171224687Y-65465252D01*
X171224687Y-65465252D02*
X171286591Y-65558109D01*
X171286591Y-65558109D02*
X171348496Y-65620014D01*
X171348496Y-65620014D02*
X171410401Y-65650966D01*
D11*
X158442902Y-62148809D02*
X158907188Y-62148809D01*
X158907188Y-62148809D02*
X159000045Y-62117856D01*
X159000045Y-62117856D02*
X159061950Y-62055952D01*
X159061950Y-62055952D02*
X159092902Y-61963094D01*
X159092902Y-61963094D02*
X159092902Y-61901190D01*
X159092902Y-62458332D02*
X158442902Y-62458332D01*
X158442902Y-62458332D02*
X158442902Y-62705951D01*
X158442902Y-62705951D02*
X158473854Y-62767856D01*
X158473854Y-62767856D02*
X158504807Y-62798809D01*
X158504807Y-62798809D02*
X158566711Y-62829761D01*
X158566711Y-62829761D02*
X158659569Y-62829761D01*
X158659569Y-62829761D02*
X158721473Y-62798809D01*
X158721473Y-62798809D02*
X158752426Y-62767856D01*
X158752426Y-62767856D02*
X158783378Y-62705951D01*
X158783378Y-62705951D02*
X158783378Y-62458332D01*
X159092902Y-63448809D02*
X159092902Y-63077380D01*
X159092902Y-63263094D02*
X158442902Y-63263094D01*
X158442902Y-63263094D02*
X158535759Y-63201190D01*
X158535759Y-63201190D02*
X158597664Y-63139285D01*
X158597664Y-63139285D02*
X158628616Y-63077380D01*
X158442902Y-64005952D02*
X158442902Y-63882142D01*
X158442902Y-63882142D02*
X158473854Y-63820238D01*
X158473854Y-63820238D02*
X158504807Y-63789285D01*
X158504807Y-63789285D02*
X158597664Y-63727380D01*
X158597664Y-63727380D02*
X158721473Y-63696428D01*
X158721473Y-63696428D02*
X158969092Y-63696428D01*
X158969092Y-63696428D02*
X159030997Y-63727380D01*
X159030997Y-63727380D02*
X159061950Y-63758333D01*
X159061950Y-63758333D02*
X159092902Y-63820238D01*
X159092902Y-63820238D02*
X159092902Y-63944047D01*
X159092902Y-63944047D02*
X159061950Y-64005952D01*
X159061950Y-64005952D02*
X159030997Y-64036904D01*
X159030997Y-64036904D02*
X158969092Y-64067857D01*
X158969092Y-64067857D02*
X158814330Y-64067857D01*
X158814330Y-64067857D02*
X158752426Y-64036904D01*
X158752426Y-64036904D02*
X158721473Y-64005952D01*
X158721473Y-64005952D02*
X158690521Y-63944047D01*
X158690521Y-63944047D02*
X158690521Y-63820238D01*
X158690521Y-63820238D02*
X158721473Y-63758333D01*
X158721473Y-63758333D02*
X158752426Y-63727380D01*
X158752426Y-63727380D02*
X158814330Y-63696428D01*
X169541666Y-90042902D02*
X169541666Y-90507188D01*
X169541666Y-90507188D02*
X169572619Y-90600045D01*
X169572619Y-90600045D02*
X169634523Y-90661950D01*
X169634523Y-90661950D02*
X169727381Y-90692902D01*
X169727381Y-90692902D02*
X169789285Y-90692902D01*
X169232143Y-90692902D02*
X169232143Y-90042902D01*
X169232143Y-90042902D02*
X168984524Y-90042902D01*
X168984524Y-90042902D02*
X168922619Y-90073854D01*
X168922619Y-90073854D02*
X168891666Y-90104807D01*
X168891666Y-90104807D02*
X168860714Y-90166711D01*
X168860714Y-90166711D02*
X168860714Y-90259569D01*
X168860714Y-90259569D02*
X168891666Y-90321473D01*
X168891666Y-90321473D02*
X168922619Y-90352426D01*
X168922619Y-90352426D02*
X168984524Y-90383378D01*
X168984524Y-90383378D02*
X169232143Y-90383378D01*
X168551190Y-90692902D02*
X168427381Y-90692902D01*
X168427381Y-90692902D02*
X168365476Y-90661950D01*
X168365476Y-90661950D02*
X168334524Y-90630997D01*
X168334524Y-90630997D02*
X168272619Y-90538140D01*
X168272619Y-90538140D02*
X168241666Y-90414330D01*
X168241666Y-90414330D02*
X168241666Y-90166711D01*
X168241666Y-90166711D02*
X168272619Y-90104807D01*
X168272619Y-90104807D02*
X168303571Y-90073854D01*
X168303571Y-90073854D02*
X168365476Y-90042902D01*
X168365476Y-90042902D02*
X168489285Y-90042902D01*
X168489285Y-90042902D02*
X168551190Y-90073854D01*
X168551190Y-90073854D02*
X168582143Y-90104807D01*
X168582143Y-90104807D02*
X168613095Y-90166711D01*
X168613095Y-90166711D02*
X168613095Y-90321473D01*
X168613095Y-90321473D02*
X168582143Y-90383378D01*
X168582143Y-90383378D02*
X168551190Y-90414330D01*
X168551190Y-90414330D02*
X168489285Y-90445283D01*
X168489285Y-90445283D02*
X168365476Y-90445283D01*
X168365476Y-90445283D02*
X168303571Y-90414330D01*
X168303571Y-90414330D02*
X168272619Y-90383378D01*
X168272619Y-90383378D02*
X168241666Y-90321473D01*
X172341666Y-90042902D02*
X172341666Y-90507188D01*
X172341666Y-90507188D02*
X172372619Y-90600045D01*
X172372619Y-90600045D02*
X172434523Y-90661950D01*
X172434523Y-90661950D02*
X172527381Y-90692902D01*
X172527381Y-90692902D02*
X172589285Y-90692902D01*
X172032143Y-90692902D02*
X172032143Y-90042902D01*
X172032143Y-90042902D02*
X171784524Y-90042902D01*
X171784524Y-90042902D02*
X171722619Y-90073854D01*
X171722619Y-90073854D02*
X171691666Y-90104807D01*
X171691666Y-90104807D02*
X171660714Y-90166711D01*
X171660714Y-90166711D02*
X171660714Y-90259569D01*
X171660714Y-90259569D02*
X171691666Y-90321473D01*
X171691666Y-90321473D02*
X171722619Y-90352426D01*
X171722619Y-90352426D02*
X171784524Y-90383378D01*
X171784524Y-90383378D02*
X172032143Y-90383378D01*
X171041666Y-90692902D02*
X171413095Y-90692902D01*
X171227381Y-90692902D02*
X171227381Y-90042902D01*
X171227381Y-90042902D02*
X171289285Y-90135759D01*
X171289285Y-90135759D02*
X171351190Y-90197664D01*
X171351190Y-90197664D02*
X171413095Y-90228616D01*
X172341666Y-113442902D02*
X172341666Y-113907188D01*
X172341666Y-113907188D02*
X172372619Y-114000045D01*
X172372619Y-114000045D02*
X172434523Y-114061950D01*
X172434523Y-114061950D02*
X172527381Y-114092902D01*
X172527381Y-114092902D02*
X172589285Y-114092902D01*
X172032143Y-114092902D02*
X172032143Y-113442902D01*
X172032143Y-113442902D02*
X171784524Y-113442902D01*
X171784524Y-113442902D02*
X171722619Y-113473854D01*
X171722619Y-113473854D02*
X171691666Y-113504807D01*
X171691666Y-113504807D02*
X171660714Y-113566711D01*
X171660714Y-113566711D02*
X171660714Y-113659569D01*
X171660714Y-113659569D02*
X171691666Y-113721473D01*
X171691666Y-113721473D02*
X171722619Y-113752426D01*
X171722619Y-113752426D02*
X171784524Y-113783378D01*
X171784524Y-113783378D02*
X172032143Y-113783378D01*
X171413095Y-113504807D02*
X171382143Y-113473854D01*
X171382143Y-113473854D02*
X171320238Y-113442902D01*
X171320238Y-113442902D02*
X171165476Y-113442902D01*
X171165476Y-113442902D02*
X171103571Y-113473854D01*
X171103571Y-113473854D02*
X171072619Y-113504807D01*
X171072619Y-113504807D02*
X171041666Y-113566711D01*
X171041666Y-113566711D02*
X171041666Y-113628616D01*
X171041666Y-113628616D02*
X171072619Y-113721473D01*
X171072619Y-113721473D02*
X171444047Y-114092902D01*
X171444047Y-114092902D02*
X171041666Y-114092902D01*
D10*
X173754497Y-58095238D02*
X173228307Y-58095238D01*
X173228307Y-58095238D02*
X173166402Y-58064285D01*
X173166402Y-58064285D02*
X173135450Y-58033333D01*
X173135450Y-58033333D02*
X173104497Y-57971428D01*
X173104497Y-57971428D02*
X173104497Y-57847619D01*
X173104497Y-57847619D02*
X173135450Y-57785714D01*
X173135450Y-57785714D02*
X173166402Y-57754761D01*
X173166402Y-57754761D02*
X173228307Y-57723809D01*
X173228307Y-57723809D02*
X173754497Y-57723809D01*
X173692592Y-57445238D02*
X173723545Y-57414286D01*
X173723545Y-57414286D02*
X173754497Y-57352381D01*
X173754497Y-57352381D02*
X173754497Y-57197619D01*
X173754497Y-57197619D02*
X173723545Y-57135714D01*
X173723545Y-57135714D02*
X173692592Y-57104762D01*
X173692592Y-57104762D02*
X173630688Y-57073809D01*
X173630688Y-57073809D02*
X173568783Y-57073809D01*
X173568783Y-57073809D02*
X173475926Y-57104762D01*
X173475926Y-57104762D02*
X173104497Y-57476190D01*
X173104497Y-57476190D02*
X173104497Y-57073809D01*
D11*
X132842902Y-77733334D02*
X133307188Y-77733334D01*
X133307188Y-77733334D02*
X133400045Y-77702381D01*
X133400045Y-77702381D02*
X133461950Y-77640477D01*
X133461950Y-77640477D02*
X133492902Y-77547619D01*
X133492902Y-77547619D02*
X133492902Y-77485715D01*
X133492902Y-78042857D02*
X132842902Y-78042857D01*
X132842902Y-78042857D02*
X132842902Y-78290476D01*
X132842902Y-78290476D02*
X132873854Y-78352381D01*
X132873854Y-78352381D02*
X132904807Y-78383334D01*
X132904807Y-78383334D02*
X132966711Y-78414286D01*
X132966711Y-78414286D02*
X133059569Y-78414286D01*
X133059569Y-78414286D02*
X133121473Y-78383334D01*
X133121473Y-78383334D02*
X133152426Y-78352381D01*
X133152426Y-78352381D02*
X133183378Y-78290476D01*
X133183378Y-78290476D02*
X133183378Y-78042857D01*
X132842902Y-78630953D02*
X132842902Y-79033334D01*
X132842902Y-79033334D02*
X133090521Y-78816667D01*
X133090521Y-78816667D02*
X133090521Y-78909524D01*
X133090521Y-78909524D02*
X133121473Y-78971429D01*
X133121473Y-78971429D02*
X133152426Y-79002381D01*
X133152426Y-79002381D02*
X133214330Y-79033334D01*
X133214330Y-79033334D02*
X133369092Y-79033334D01*
X133369092Y-79033334D02*
X133430997Y-79002381D01*
X133430997Y-79002381D02*
X133461950Y-78971429D01*
X133461950Y-78971429D02*
X133492902Y-78909524D01*
X133492902Y-78909524D02*
X133492902Y-78723810D01*
X133492902Y-78723810D02*
X133461950Y-78661905D01*
X133461950Y-78661905D02*
X133430997Y-78630953D01*
X167051190Y-113442902D02*
X167051190Y-113907188D01*
X167051190Y-113907188D02*
X167082143Y-114000045D01*
X167082143Y-114000045D02*
X167144047Y-114061950D01*
X167144047Y-114061950D02*
X167236905Y-114092902D01*
X167236905Y-114092902D02*
X167298809Y-114092902D01*
X166741667Y-114092902D02*
X166741667Y-113442902D01*
X166741667Y-113442902D02*
X166494048Y-113442902D01*
X166494048Y-113442902D02*
X166432143Y-113473854D01*
X166432143Y-113473854D02*
X166401190Y-113504807D01*
X166401190Y-113504807D02*
X166370238Y-113566711D01*
X166370238Y-113566711D02*
X166370238Y-113659569D01*
X166370238Y-113659569D02*
X166401190Y-113721473D01*
X166401190Y-113721473D02*
X166432143Y-113752426D01*
X166432143Y-113752426D02*
X166494048Y-113783378D01*
X166494048Y-113783378D02*
X166741667Y-113783378D01*
X166122619Y-113504807D02*
X166091667Y-113473854D01*
X166091667Y-113473854D02*
X166029762Y-113442902D01*
X166029762Y-113442902D02*
X165875000Y-113442902D01*
X165875000Y-113442902D02*
X165813095Y-113473854D01*
X165813095Y-113473854D02*
X165782143Y-113504807D01*
X165782143Y-113504807D02*
X165751190Y-113566711D01*
X165751190Y-113566711D02*
X165751190Y-113628616D01*
X165751190Y-113628616D02*
X165782143Y-113721473D01*
X165782143Y-113721473D02*
X166153571Y-114092902D01*
X166153571Y-114092902D02*
X165751190Y-114092902D01*
X165348809Y-113442902D02*
X165286904Y-113442902D01*
X165286904Y-113442902D02*
X165225000Y-113473854D01*
X165225000Y-113473854D02*
X165194047Y-113504807D01*
X165194047Y-113504807D02*
X165163095Y-113566711D01*
X165163095Y-113566711D02*
X165132142Y-113690521D01*
X165132142Y-113690521D02*
X165132142Y-113845283D01*
X165132142Y-113845283D02*
X165163095Y-113969092D01*
X165163095Y-113969092D02*
X165194047Y-114030997D01*
X165194047Y-114030997D02*
X165225000Y-114061950D01*
X165225000Y-114061950D02*
X165286904Y-114092902D01*
X165286904Y-114092902D02*
X165348809Y-114092902D01*
X165348809Y-114092902D02*
X165410714Y-114061950D01*
X165410714Y-114061950D02*
X165441666Y-114030997D01*
X165441666Y-114030997D02*
X165472619Y-113969092D01*
X165472619Y-113969092D02*
X165503571Y-113845283D01*
X165503571Y-113845283D02*
X165503571Y-113690521D01*
X165503571Y-113690521D02*
X165472619Y-113566711D01*
X165472619Y-113566711D02*
X165441666Y-113504807D01*
X165441666Y-113504807D02*
X165410714Y-113473854D01*
X165410714Y-113473854D02*
X165348809Y-113442902D01*
X158442902Y-64748809D02*
X158907188Y-64748809D01*
X158907188Y-64748809D02*
X159000045Y-64717856D01*
X159000045Y-64717856D02*
X159061950Y-64655952D01*
X159061950Y-64655952D02*
X159092902Y-64563094D01*
X159092902Y-64563094D02*
X159092902Y-64501190D01*
X159092902Y-65058332D02*
X158442902Y-65058332D01*
X158442902Y-65058332D02*
X158442902Y-65305951D01*
X158442902Y-65305951D02*
X158473854Y-65367856D01*
X158473854Y-65367856D02*
X158504807Y-65398809D01*
X158504807Y-65398809D02*
X158566711Y-65429761D01*
X158566711Y-65429761D02*
X158659569Y-65429761D01*
X158659569Y-65429761D02*
X158721473Y-65398809D01*
X158721473Y-65398809D02*
X158752426Y-65367856D01*
X158752426Y-65367856D02*
X158783378Y-65305951D01*
X158783378Y-65305951D02*
X158783378Y-65058332D01*
X159092902Y-66048809D02*
X159092902Y-65677380D01*
X159092902Y-65863094D02*
X158442902Y-65863094D01*
X158442902Y-65863094D02*
X158535759Y-65801190D01*
X158535759Y-65801190D02*
X158597664Y-65739285D01*
X158597664Y-65739285D02*
X158628616Y-65677380D01*
X158442902Y-66265476D02*
X158442902Y-66698809D01*
X158442902Y-66698809D02*
X159092902Y-66420238D01*
X136040874Y-107653018D02*
X135712575Y-107981318D01*
X135712575Y-107981318D02*
X135668802Y-108068864D01*
X135668802Y-108068864D02*
X135668802Y-108156411D01*
X135668802Y-108156411D02*
X135712575Y-108243957D01*
X135712575Y-108243957D02*
X135756348Y-108287731D01*
X135362389Y-107893771D02*
X135822008Y-107434152D01*
X135822008Y-107434152D02*
X135646915Y-107259059D01*
X135646915Y-107259059D02*
X135581255Y-107237172D01*
X135581255Y-107237172D02*
X135537482Y-107237172D01*
X135537482Y-107237172D02*
X135471822Y-107259059D01*
X135471822Y-107259059D02*
X135406162Y-107324719D01*
X135406162Y-107324719D02*
X135384275Y-107390379D01*
X135384275Y-107390379D02*
X135384275Y-107434152D01*
X135384275Y-107434152D02*
X135406162Y-107499812D01*
X135406162Y-107499812D02*
X135581255Y-107674905D01*
X134662016Y-107193399D02*
X134924656Y-107456038D01*
X134793336Y-107324719D02*
X135252956Y-106865099D01*
X135252956Y-106865099D02*
X135231069Y-106974532D01*
X135231069Y-106974532D02*
X135231069Y-107062079D01*
X135231069Y-107062079D02*
X135252956Y-107127739D01*
X134443150Y-106974532D02*
X134355603Y-106886986D01*
X134355603Y-106886986D02*
X134333716Y-106821326D01*
X134333716Y-106821326D02*
X134333716Y-106777552D01*
X134333716Y-106777552D02*
X134355603Y-106668119D01*
X134355603Y-106668119D02*
X134421263Y-106558686D01*
X134421263Y-106558686D02*
X134596356Y-106383593D01*
X134596356Y-106383593D02*
X134662016Y-106361706D01*
X134662016Y-106361706D02*
X134705789Y-106361706D01*
X134705789Y-106361706D02*
X134771449Y-106383593D01*
X134771449Y-106383593D02*
X134858996Y-106471139D01*
X134858996Y-106471139D02*
X134880882Y-106536799D01*
X134880882Y-106536799D02*
X134880882Y-106580573D01*
X134880882Y-106580573D02*
X134858996Y-106646233D01*
X134858996Y-106646233D02*
X134749563Y-106755666D01*
X134749563Y-106755666D02*
X134683903Y-106777552D01*
X134683903Y-106777552D02*
X134640129Y-106777552D01*
X134640129Y-106777552D02*
X134574469Y-106755666D01*
X134574469Y-106755666D02*
X134486923Y-106668119D01*
X134486923Y-106668119D02*
X134465036Y-106602459D01*
X134465036Y-106602459D02*
X134465036Y-106558686D01*
X134465036Y-106558686D02*
X134486923Y-106493026D01*
X166941666Y-90042902D02*
X166941666Y-90507188D01*
X166941666Y-90507188D02*
X166972619Y-90600045D01*
X166972619Y-90600045D02*
X167034523Y-90661950D01*
X167034523Y-90661950D02*
X167127381Y-90692902D01*
X167127381Y-90692902D02*
X167189285Y-90692902D01*
X166632143Y-90692902D02*
X166632143Y-90042902D01*
X166632143Y-90042902D02*
X166384524Y-90042902D01*
X166384524Y-90042902D02*
X166322619Y-90073854D01*
X166322619Y-90073854D02*
X166291666Y-90104807D01*
X166291666Y-90104807D02*
X166260714Y-90166711D01*
X166260714Y-90166711D02*
X166260714Y-90259569D01*
X166260714Y-90259569D02*
X166291666Y-90321473D01*
X166291666Y-90321473D02*
X166322619Y-90352426D01*
X166322619Y-90352426D02*
X166384524Y-90383378D01*
X166384524Y-90383378D02*
X166632143Y-90383378D01*
X165889285Y-90321473D02*
X165951190Y-90290521D01*
X165951190Y-90290521D02*
X165982143Y-90259569D01*
X165982143Y-90259569D02*
X166013095Y-90197664D01*
X166013095Y-90197664D02*
X166013095Y-90166711D01*
X166013095Y-90166711D02*
X165982143Y-90104807D01*
X165982143Y-90104807D02*
X165951190Y-90073854D01*
X165951190Y-90073854D02*
X165889285Y-90042902D01*
X165889285Y-90042902D02*
X165765476Y-90042902D01*
X165765476Y-90042902D02*
X165703571Y-90073854D01*
X165703571Y-90073854D02*
X165672619Y-90104807D01*
X165672619Y-90104807D02*
X165641666Y-90166711D01*
X165641666Y-90166711D02*
X165641666Y-90197664D01*
X165641666Y-90197664D02*
X165672619Y-90259569D01*
X165672619Y-90259569D02*
X165703571Y-90290521D01*
X165703571Y-90290521D02*
X165765476Y-90321473D01*
X165765476Y-90321473D02*
X165889285Y-90321473D01*
X165889285Y-90321473D02*
X165951190Y-90352426D01*
X165951190Y-90352426D02*
X165982143Y-90383378D01*
X165982143Y-90383378D02*
X166013095Y-90445283D01*
X166013095Y-90445283D02*
X166013095Y-90569092D01*
X166013095Y-90569092D02*
X165982143Y-90630997D01*
X165982143Y-90630997D02*
X165951190Y-90661950D01*
X165951190Y-90661950D02*
X165889285Y-90692902D01*
X165889285Y-90692902D02*
X165765476Y-90692902D01*
X165765476Y-90692902D02*
X165703571Y-90661950D01*
X165703571Y-90661950D02*
X165672619Y-90630997D01*
X165672619Y-90630997D02*
X165641666Y-90569092D01*
X165641666Y-90569092D02*
X165641666Y-90445283D01*
X165641666Y-90445283D02*
X165672619Y-90383378D01*
X165672619Y-90383378D02*
X165703571Y-90352426D01*
X165703571Y-90352426D02*
X165765476Y-90321473D01*
X132842902Y-81133334D02*
X133307188Y-81133334D01*
X133307188Y-81133334D02*
X133400045Y-81102381D01*
X133400045Y-81102381D02*
X133461950Y-81040477D01*
X133461950Y-81040477D02*
X133492902Y-80947619D01*
X133492902Y-80947619D02*
X133492902Y-80885715D01*
X133492902Y-81442857D02*
X132842902Y-81442857D01*
X132842902Y-81442857D02*
X132842902Y-81690476D01*
X132842902Y-81690476D02*
X132873854Y-81752381D01*
X132873854Y-81752381D02*
X132904807Y-81783334D01*
X132904807Y-81783334D02*
X132966711Y-81814286D01*
X132966711Y-81814286D02*
X133059569Y-81814286D01*
X133059569Y-81814286D02*
X133121473Y-81783334D01*
X133121473Y-81783334D02*
X133152426Y-81752381D01*
X133152426Y-81752381D02*
X133183378Y-81690476D01*
X133183378Y-81690476D02*
X133183378Y-81442857D01*
X133059569Y-82371429D02*
X133492902Y-82371429D01*
X132811950Y-82216667D02*
X133276235Y-82061905D01*
X133276235Y-82061905D02*
X133276235Y-82464286D01*
X133530510Y-96364477D02*
X133858809Y-96692777D01*
X133858809Y-96692777D02*
X133946356Y-96736550D01*
X133946356Y-96736550D02*
X134033902Y-96736550D01*
X134033902Y-96736550D02*
X134121449Y-96692777D01*
X134121449Y-96692777D02*
X134165222Y-96649003D01*
X133771263Y-97042963D02*
X133311643Y-96583343D01*
X133311643Y-96583343D02*
X133136550Y-96758437D01*
X133136550Y-96758437D02*
X133114664Y-96824096D01*
X133114664Y-96824096D02*
X133114664Y-96867870D01*
X133114664Y-96867870D02*
X133136550Y-96933530D01*
X133136550Y-96933530D02*
X133202210Y-96999190D01*
X133202210Y-96999190D02*
X133267870Y-97021076D01*
X133267870Y-97021076D02*
X133311643Y-97021076D01*
X133311643Y-97021076D02*
X133377303Y-96999190D01*
X133377303Y-96999190D02*
X133552396Y-96824096D01*
X132655044Y-97239943D02*
X132742591Y-97152396D01*
X132742591Y-97152396D02*
X132808251Y-97130509D01*
X132808251Y-97130509D02*
X132852024Y-97130509D01*
X132852024Y-97130509D02*
X132961457Y-97152396D01*
X132961457Y-97152396D02*
X133070890Y-97218056D01*
X133070890Y-97218056D02*
X133245983Y-97393149D01*
X133245983Y-97393149D02*
X133267870Y-97458809D01*
X133267870Y-97458809D02*
X133267870Y-97502582D01*
X133267870Y-97502582D02*
X133245983Y-97568242D01*
X133245983Y-97568242D02*
X133158437Y-97655789D01*
X133158437Y-97655789D02*
X133092777Y-97677675D01*
X133092777Y-97677675D02*
X133049004Y-97677675D01*
X133049004Y-97677675D02*
X132983344Y-97655789D01*
X132983344Y-97655789D02*
X132873911Y-97546355D01*
X132873911Y-97546355D02*
X132852024Y-97480696D01*
X132852024Y-97480696D02*
X132852024Y-97436922D01*
X132852024Y-97436922D02*
X132873911Y-97371262D01*
X132873911Y-97371262D02*
X132961457Y-97283716D01*
X132961457Y-97283716D02*
X133027117Y-97261829D01*
X133027117Y-97261829D02*
X133070890Y-97261829D01*
X133070890Y-97261829D02*
X133136550Y-97283716D01*
X135330510Y-94364477D02*
X135658809Y-94692777D01*
X135658809Y-94692777D02*
X135746356Y-94736550D01*
X135746356Y-94736550D02*
X135833902Y-94736550D01*
X135833902Y-94736550D02*
X135921449Y-94692777D01*
X135921449Y-94692777D02*
X135965222Y-94649003D01*
X135571263Y-95042963D02*
X135111643Y-94583343D01*
X135111643Y-94583343D02*
X134936550Y-94758437D01*
X134936550Y-94758437D02*
X134914664Y-94824096D01*
X134914664Y-94824096D02*
X134914664Y-94867870D01*
X134914664Y-94867870D02*
X134936550Y-94933530D01*
X134936550Y-94933530D02*
X135002210Y-94999190D01*
X135002210Y-94999190D02*
X135067870Y-95021076D01*
X135067870Y-95021076D02*
X135111643Y-95021076D01*
X135111643Y-95021076D02*
X135177303Y-94999190D01*
X135177303Y-94999190D02*
X135352396Y-94824096D01*
X134433158Y-95261829D02*
X134652024Y-95042963D01*
X134652024Y-95042963D02*
X134892777Y-95239943D01*
X134892777Y-95239943D02*
X134849004Y-95239943D01*
X134849004Y-95239943D02*
X134783344Y-95261829D01*
X134783344Y-95261829D02*
X134673911Y-95371262D01*
X134673911Y-95371262D02*
X134652024Y-95436922D01*
X134652024Y-95436922D02*
X134652024Y-95480696D01*
X134652024Y-95480696D02*
X134673911Y-95546355D01*
X134673911Y-95546355D02*
X134783344Y-95655789D01*
X134783344Y-95655789D02*
X134849004Y-95677675D01*
X134849004Y-95677675D02*
X134892777Y-95677675D01*
X134892777Y-95677675D02*
X134958437Y-95655789D01*
X134958437Y-95655789D02*
X135067870Y-95546355D01*
X135067870Y-95546355D02*
X135089757Y-95480696D01*
X135089757Y-95480696D02*
X135089757Y-95436922D01*
X158442902Y-59548809D02*
X158907188Y-59548809D01*
X158907188Y-59548809D02*
X159000045Y-59517856D01*
X159000045Y-59517856D02*
X159061950Y-59455952D01*
X159061950Y-59455952D02*
X159092902Y-59363094D01*
X159092902Y-59363094D02*
X159092902Y-59301190D01*
X159092902Y-59858332D02*
X158442902Y-59858332D01*
X158442902Y-59858332D02*
X158442902Y-60105951D01*
X158442902Y-60105951D02*
X158473854Y-60167856D01*
X158473854Y-60167856D02*
X158504807Y-60198809D01*
X158504807Y-60198809D02*
X158566711Y-60229761D01*
X158566711Y-60229761D02*
X158659569Y-60229761D01*
X158659569Y-60229761D02*
X158721473Y-60198809D01*
X158721473Y-60198809D02*
X158752426Y-60167856D01*
X158752426Y-60167856D02*
X158783378Y-60105951D01*
X158783378Y-60105951D02*
X158783378Y-59858332D01*
X159092902Y-60848809D02*
X159092902Y-60477380D01*
X159092902Y-60663094D02*
X158442902Y-60663094D01*
X158442902Y-60663094D02*
X158535759Y-60601190D01*
X158535759Y-60601190D02*
X158597664Y-60539285D01*
X158597664Y-60539285D02*
X158628616Y-60477380D01*
X158442902Y-61436904D02*
X158442902Y-61127380D01*
X158442902Y-61127380D02*
X158752426Y-61096428D01*
X158752426Y-61096428D02*
X158721473Y-61127380D01*
X158721473Y-61127380D02*
X158690521Y-61189285D01*
X158690521Y-61189285D02*
X158690521Y-61344047D01*
X158690521Y-61344047D02*
X158721473Y-61405952D01*
X158721473Y-61405952D02*
X158752426Y-61436904D01*
X158752426Y-61436904D02*
X158814330Y-61467857D01*
X158814330Y-61467857D02*
X158969092Y-61467857D01*
X158969092Y-61467857D02*
X159030997Y-61436904D01*
X159030997Y-61436904D02*
X159061950Y-61405952D01*
X159061950Y-61405952D02*
X159092902Y-61344047D01*
X159092902Y-61344047D02*
X159092902Y-61189285D01*
X159092902Y-61189285D02*
X159061950Y-61127380D01*
X159061950Y-61127380D02*
X159030997Y-61096428D01*
X129051190Y-102042902D02*
X129051190Y-102507188D01*
X129051190Y-102507188D02*
X129082143Y-102600045D01*
X129082143Y-102600045D02*
X129144047Y-102661950D01*
X129144047Y-102661950D02*
X129236905Y-102692902D01*
X129236905Y-102692902D02*
X129298809Y-102692902D01*
X128741667Y-102692902D02*
X128741667Y-102042902D01*
X128741667Y-102042902D02*
X128494048Y-102042902D01*
X128494048Y-102042902D02*
X128432143Y-102073854D01*
X128432143Y-102073854D02*
X128401190Y-102104807D01*
X128401190Y-102104807D02*
X128370238Y-102166711D01*
X128370238Y-102166711D02*
X128370238Y-102259569D01*
X128370238Y-102259569D02*
X128401190Y-102321473D01*
X128401190Y-102321473D02*
X128432143Y-102352426D01*
X128432143Y-102352426D02*
X128494048Y-102383378D01*
X128494048Y-102383378D02*
X128741667Y-102383378D01*
X127751190Y-102692902D02*
X128122619Y-102692902D01*
X127936905Y-102692902D02*
X127936905Y-102042902D01*
X127936905Y-102042902D02*
X127998809Y-102135759D01*
X127998809Y-102135759D02*
X128060714Y-102197664D01*
X128060714Y-102197664D02*
X128122619Y-102228616D01*
X127132142Y-102692902D02*
X127503571Y-102692902D01*
X127317857Y-102692902D02*
X127317857Y-102042902D01*
X127317857Y-102042902D02*
X127379761Y-102135759D01*
X127379761Y-102135759D02*
X127441666Y-102197664D01*
X127441666Y-102197664D02*
X127503571Y-102228616D01*
X158442902Y-67348809D02*
X158907188Y-67348809D01*
X158907188Y-67348809D02*
X159000045Y-67317856D01*
X159000045Y-67317856D02*
X159061950Y-67255952D01*
X159061950Y-67255952D02*
X159092902Y-67163094D01*
X159092902Y-67163094D02*
X159092902Y-67101190D01*
X159092902Y-67658332D02*
X158442902Y-67658332D01*
X158442902Y-67658332D02*
X158442902Y-67905951D01*
X158442902Y-67905951D02*
X158473854Y-67967856D01*
X158473854Y-67967856D02*
X158504807Y-67998809D01*
X158504807Y-67998809D02*
X158566711Y-68029761D01*
X158566711Y-68029761D02*
X158659569Y-68029761D01*
X158659569Y-68029761D02*
X158721473Y-67998809D01*
X158721473Y-67998809D02*
X158752426Y-67967856D01*
X158752426Y-67967856D02*
X158783378Y-67905951D01*
X158783378Y-67905951D02*
X158783378Y-67658332D01*
X159092902Y-68648809D02*
X159092902Y-68277380D01*
X159092902Y-68463094D02*
X158442902Y-68463094D01*
X158442902Y-68463094D02*
X158535759Y-68401190D01*
X158535759Y-68401190D02*
X158597664Y-68339285D01*
X158597664Y-68339285D02*
X158628616Y-68277380D01*
X158659569Y-69205952D02*
X159092902Y-69205952D01*
X158411950Y-69051190D02*
X158876235Y-68896428D01*
X158876235Y-68896428D02*
X158876235Y-69298809D01*
X124651190Y-102042902D02*
X124651190Y-102507188D01*
X124651190Y-102507188D02*
X124682143Y-102600045D01*
X124682143Y-102600045D02*
X124744047Y-102661950D01*
X124744047Y-102661950D02*
X124836905Y-102692902D01*
X124836905Y-102692902D02*
X124898809Y-102692902D01*
X124341667Y-102692902D02*
X124341667Y-102042902D01*
X124341667Y-102042902D02*
X124094048Y-102042902D01*
X124094048Y-102042902D02*
X124032143Y-102073854D01*
X124032143Y-102073854D02*
X124001190Y-102104807D01*
X124001190Y-102104807D02*
X123970238Y-102166711D01*
X123970238Y-102166711D02*
X123970238Y-102259569D01*
X123970238Y-102259569D02*
X124001190Y-102321473D01*
X124001190Y-102321473D02*
X124032143Y-102352426D01*
X124032143Y-102352426D02*
X124094048Y-102383378D01*
X124094048Y-102383378D02*
X124341667Y-102383378D01*
X123351190Y-102692902D02*
X123722619Y-102692902D01*
X123536905Y-102692902D02*
X123536905Y-102042902D01*
X123536905Y-102042902D02*
X123598809Y-102135759D01*
X123598809Y-102135759D02*
X123660714Y-102197664D01*
X123660714Y-102197664D02*
X123722619Y-102228616D01*
X123103571Y-102104807D02*
X123072619Y-102073854D01*
X123072619Y-102073854D02*
X123010714Y-102042902D01*
X123010714Y-102042902D02*
X122855952Y-102042902D01*
X122855952Y-102042902D02*
X122794047Y-102073854D01*
X122794047Y-102073854D02*
X122763095Y-102104807D01*
X122763095Y-102104807D02*
X122732142Y-102166711D01*
X122732142Y-102166711D02*
X122732142Y-102228616D01*
X122732142Y-102228616D02*
X122763095Y-102321473D01*
X122763095Y-102321473D02*
X123134523Y-102692902D01*
X123134523Y-102692902D02*
X122732142Y-102692902D01*
X158442902Y-54348809D02*
X158907188Y-54348809D01*
X158907188Y-54348809D02*
X159000045Y-54317856D01*
X159000045Y-54317856D02*
X159061950Y-54255952D01*
X159061950Y-54255952D02*
X159092902Y-54163094D01*
X159092902Y-54163094D02*
X159092902Y-54101190D01*
X159092902Y-54658332D02*
X158442902Y-54658332D01*
X158442902Y-54658332D02*
X158442902Y-54905951D01*
X158442902Y-54905951D02*
X158473854Y-54967856D01*
X158473854Y-54967856D02*
X158504807Y-54998809D01*
X158504807Y-54998809D02*
X158566711Y-55029761D01*
X158566711Y-55029761D02*
X158659569Y-55029761D01*
X158659569Y-55029761D02*
X158721473Y-54998809D01*
X158721473Y-54998809D02*
X158752426Y-54967856D01*
X158752426Y-54967856D02*
X158783378Y-54905951D01*
X158783378Y-54905951D02*
X158783378Y-54658332D01*
X159092902Y-55648809D02*
X159092902Y-55277380D01*
X159092902Y-55463094D02*
X158442902Y-55463094D01*
X158442902Y-55463094D02*
X158535759Y-55401190D01*
X158535759Y-55401190D02*
X158597664Y-55339285D01*
X158597664Y-55339285D02*
X158628616Y-55277380D01*
X158442902Y-55865476D02*
X158442902Y-56267857D01*
X158442902Y-56267857D02*
X158690521Y-56051190D01*
X158690521Y-56051190D02*
X158690521Y-56144047D01*
X158690521Y-56144047D02*
X158721473Y-56205952D01*
X158721473Y-56205952D02*
X158752426Y-56236904D01*
X158752426Y-56236904D02*
X158814330Y-56267857D01*
X158814330Y-56267857D02*
X158969092Y-56267857D01*
X158969092Y-56267857D02*
X159030997Y-56236904D01*
X159030997Y-56236904D02*
X159061950Y-56205952D01*
X159061950Y-56205952D02*
X159092902Y-56144047D01*
X159092902Y-56144047D02*
X159092902Y-55958333D01*
X159092902Y-55958333D02*
X159061950Y-55896428D01*
X159061950Y-55896428D02*
X159030997Y-55865476D01*
X158442902Y-56948809D02*
X158907188Y-56948809D01*
X158907188Y-56948809D02*
X159000045Y-56917856D01*
X159000045Y-56917856D02*
X159061950Y-56855952D01*
X159061950Y-56855952D02*
X159092902Y-56763094D01*
X159092902Y-56763094D02*
X159092902Y-56701190D01*
X159092902Y-57258332D02*
X158442902Y-57258332D01*
X158442902Y-57258332D02*
X158442902Y-57505951D01*
X158442902Y-57505951D02*
X158473854Y-57567856D01*
X158473854Y-57567856D02*
X158504807Y-57598809D01*
X158504807Y-57598809D02*
X158566711Y-57629761D01*
X158566711Y-57629761D02*
X158659569Y-57629761D01*
X158659569Y-57629761D02*
X158721473Y-57598809D01*
X158721473Y-57598809D02*
X158752426Y-57567856D01*
X158752426Y-57567856D02*
X158783378Y-57505951D01*
X158783378Y-57505951D02*
X158783378Y-57258332D01*
X159092902Y-58248809D02*
X159092902Y-57877380D01*
X159092902Y-58063094D02*
X158442902Y-58063094D01*
X158442902Y-58063094D02*
X158535759Y-58001190D01*
X158535759Y-58001190D02*
X158597664Y-57939285D01*
X158597664Y-57939285D02*
X158628616Y-57877380D01*
X158721473Y-58620238D02*
X158690521Y-58558333D01*
X158690521Y-58558333D02*
X158659569Y-58527380D01*
X158659569Y-58527380D02*
X158597664Y-58496428D01*
X158597664Y-58496428D02*
X158566711Y-58496428D01*
X158566711Y-58496428D02*
X158504807Y-58527380D01*
X158504807Y-58527380D02*
X158473854Y-58558333D01*
X158473854Y-58558333D02*
X158442902Y-58620238D01*
X158442902Y-58620238D02*
X158442902Y-58744047D01*
X158442902Y-58744047D02*
X158473854Y-58805952D01*
X158473854Y-58805952D02*
X158504807Y-58836904D01*
X158504807Y-58836904D02*
X158566711Y-58867857D01*
X158566711Y-58867857D02*
X158597664Y-58867857D01*
X158597664Y-58867857D02*
X158659569Y-58836904D01*
X158659569Y-58836904D02*
X158690521Y-58805952D01*
X158690521Y-58805952D02*
X158721473Y-58744047D01*
X158721473Y-58744047D02*
X158721473Y-58620238D01*
X158721473Y-58620238D02*
X158752426Y-58558333D01*
X158752426Y-58558333D02*
X158783378Y-58527380D01*
X158783378Y-58527380D02*
X158845283Y-58496428D01*
X158845283Y-58496428D02*
X158969092Y-58496428D01*
X158969092Y-58496428D02*
X159030997Y-58527380D01*
X159030997Y-58527380D02*
X159061950Y-58558333D01*
X159061950Y-58558333D02*
X159092902Y-58620238D01*
X159092902Y-58620238D02*
X159092902Y-58744047D01*
X159092902Y-58744047D02*
X159061950Y-58805952D01*
X159061950Y-58805952D02*
X159030997Y-58836904D01*
X159030997Y-58836904D02*
X158969092Y-58867857D01*
X158969092Y-58867857D02*
X158845283Y-58867857D01*
X158845283Y-58867857D02*
X158783378Y-58836904D01*
X158783378Y-58836904D02*
X158752426Y-58805952D01*
X158752426Y-58805952D02*
X158721473Y-58744047D01*
X169541666Y-113442902D02*
X169541666Y-113907188D01*
X169541666Y-113907188D02*
X169572619Y-114000045D01*
X169572619Y-114000045D02*
X169634523Y-114061950D01*
X169634523Y-114061950D02*
X169727381Y-114092902D01*
X169727381Y-114092902D02*
X169789285Y-114092902D01*
X169232143Y-114092902D02*
X169232143Y-113442902D01*
X169232143Y-113442902D02*
X168984524Y-113442902D01*
X168984524Y-113442902D02*
X168922619Y-113473854D01*
X168922619Y-113473854D02*
X168891666Y-113504807D01*
X168891666Y-113504807D02*
X168860714Y-113566711D01*
X168860714Y-113566711D02*
X168860714Y-113659569D01*
X168860714Y-113659569D02*
X168891666Y-113721473D01*
X168891666Y-113721473D02*
X168922619Y-113752426D01*
X168922619Y-113752426D02*
X168984524Y-113783378D01*
X168984524Y-113783378D02*
X169232143Y-113783378D01*
X168644047Y-113442902D02*
X168210714Y-113442902D01*
X168210714Y-113442902D02*
X168489285Y-114092902D01*
X130949376Y-98545611D02*
X131277676Y-98873910D01*
X131277676Y-98873910D02*
X131365222Y-98917683D01*
X131365222Y-98917683D02*
X131452769Y-98917683D01*
X131452769Y-98917683D02*
X131540315Y-98873910D01*
X131540315Y-98873910D02*
X131584089Y-98830137D01*
X131190129Y-99224096D02*
X130730510Y-98764477D01*
X130730510Y-98764477D02*
X130555417Y-98939570D01*
X130555417Y-98939570D02*
X130533530Y-99005230D01*
X130533530Y-99005230D02*
X130533530Y-99049003D01*
X130533530Y-99049003D02*
X130555417Y-99114663D01*
X130555417Y-99114663D02*
X130621077Y-99180323D01*
X130621077Y-99180323D02*
X130686737Y-99202210D01*
X130686737Y-99202210D02*
X130730510Y-99202210D01*
X130730510Y-99202210D02*
X130796170Y-99180323D01*
X130796170Y-99180323D02*
X130971263Y-99005230D01*
X130489757Y-99924469D02*
X130752396Y-99661829D01*
X130621077Y-99793149D02*
X130161457Y-99333529D01*
X130161457Y-99333529D02*
X130270890Y-99355416D01*
X130270890Y-99355416D02*
X130358437Y-99355416D01*
X130358437Y-99355416D02*
X130424097Y-99333529D01*
X129745611Y-99749376D02*
X129701838Y-99793149D01*
X129701838Y-99793149D02*
X129679951Y-99858809D01*
X129679951Y-99858809D02*
X129679951Y-99902582D01*
X129679951Y-99902582D02*
X129701838Y-99968242D01*
X129701838Y-99968242D02*
X129767497Y-100077675D01*
X129767497Y-100077675D02*
X129876931Y-100187109D01*
X129876931Y-100187109D02*
X129986364Y-100252769D01*
X129986364Y-100252769D02*
X130052024Y-100274655D01*
X130052024Y-100274655D02*
X130095797Y-100274655D01*
X130095797Y-100274655D02*
X130161457Y-100252769D01*
X130161457Y-100252769D02*
X130205230Y-100208995D01*
X130205230Y-100208995D02*
X130227117Y-100143335D01*
X130227117Y-100143335D02*
X130227117Y-100099562D01*
X130227117Y-100099562D02*
X130205230Y-100033902D01*
X130205230Y-100033902D02*
X130139570Y-99924469D01*
X130139570Y-99924469D02*
X130030137Y-99815036D01*
X130030137Y-99815036D02*
X129920704Y-99749376D01*
X129920704Y-99749376D02*
X129855044Y-99727489D01*
X129855044Y-99727489D02*
X129811271Y-99727489D01*
X129811271Y-99727489D02*
X129745611Y-99749376D01*
D12*
%TO.C,JP16*%
X159800000Y-62000000D02*
X162600000Y-62000000D01*
X159800000Y-64000000D02*
X159800000Y-62000000D01*
X162600000Y-62000000D02*
X162600000Y-64000000D01*
X162600000Y-64000000D02*
X159800000Y-64000000D01*
%TO.C,JP9*%
X168000000Y-86800000D02*
X170000000Y-86800000D01*
X168000000Y-89600000D02*
X168000000Y-86800000D01*
X170000000Y-86800000D02*
X170000000Y-89600000D01*
X170000000Y-89600000D02*
X168000000Y-89600000D01*
%TO.C,JP1*%
X170800000Y-86800000D02*
X172800000Y-86800000D01*
X170800000Y-89600000D02*
X170800000Y-86800000D01*
X172800000Y-86800000D02*
X172800000Y-89600000D01*
X172800000Y-89600000D02*
X170800000Y-89600000D01*
%TO.C,JP2*%
X170800000Y-109924999D02*
X172800000Y-109924999D01*
X170800000Y-112724999D02*
X170800000Y-109924999D01*
X172800000Y-109924999D02*
X172800000Y-112724999D01*
X172800000Y-112724999D02*
X170800000Y-112724999D01*
%TO.C,JP3*%
X130400000Y-76875001D02*
X132400000Y-76875001D01*
X130400000Y-79675001D02*
X130400000Y-76875001D01*
X132400000Y-76875001D02*
X132400000Y-79675001D01*
X132400000Y-79675001D02*
X130400000Y-79675001D01*
%TO.C,JP20*%
X165200000Y-109924999D02*
X167200000Y-109924999D01*
X165200000Y-112724999D02*
X165200000Y-109924999D01*
X167200000Y-109924999D02*
X167200000Y-112724999D01*
X167200000Y-112724999D02*
X165200000Y-112724999D01*
%TO.C,JP17*%
X159800000Y-64600000D02*
X162600000Y-64600000D01*
X159800000Y-66600000D02*
X159800000Y-64600000D01*
X162600000Y-64600000D02*
X162600000Y-66600000D01*
X162600000Y-66600000D02*
X159800000Y-66600000D01*
%TO.C,JP19*%
X132216638Y-108293591D02*
X133630851Y-106879378D01*
X133630851Y-106879378D02*
X135610750Y-108859277D01*
X134196537Y-110273490D02*
X132216638Y-108293591D01*
X135610750Y-108859277D02*
X134196537Y-110273490D01*
%TO.C,JP8*%
X165200000Y-86800000D02*
X167200000Y-86800000D01*
X165200000Y-89600000D02*
X165200000Y-86800000D01*
X167200000Y-86800000D02*
X167200000Y-89600000D01*
X167200000Y-89600000D02*
X165200000Y-89600000D01*
%TO.C,JP4*%
X130400000Y-80275001D02*
X132400000Y-80275001D01*
X130400000Y-83075001D02*
X130400000Y-80275001D01*
X132400000Y-80275001D02*
X132400000Y-83075001D01*
X132400000Y-83075001D02*
X130400000Y-83075001D01*
%TO.C,JP6*%
X133015596Y-98429809D02*
X134429809Y-97015596D01*
X134429809Y-97015596D02*
X136409708Y-98995495D01*
X134995495Y-100409708D02*
X133015596Y-98429809D01*
X136409708Y-98995495D02*
X134995495Y-100409708D01*
%TO.C,JP5*%
X135015596Y-96429809D02*
X136429809Y-95015596D01*
X136429809Y-95015596D02*
X138409708Y-96995495D01*
X136995495Y-98409708D02*
X135015596Y-96429809D01*
X138409708Y-96995495D02*
X136995495Y-98409708D01*
%TO.C,JP15*%
X159800000Y-59400000D02*
X162600000Y-59400000D01*
X159800000Y-61400000D02*
X159800000Y-59400000D01*
X162600000Y-59400000D02*
X162600000Y-61400000D01*
X162600000Y-61400000D02*
X159800000Y-61400000D01*
%TO.C,JP11*%
X127000000Y-103075001D02*
X129000000Y-103075001D01*
X127000000Y-105875001D02*
X127000000Y-103075001D01*
X129000000Y-103075001D02*
X129000000Y-105875001D01*
X129000000Y-105875001D02*
X127000000Y-105875001D01*
%TO.C,JP14*%
X159800000Y-67200000D02*
X162600000Y-67200000D01*
X159800000Y-69200000D02*
X159800000Y-67200000D01*
X162600000Y-67200000D02*
X162600000Y-69200000D01*
X162600000Y-69200000D02*
X159800000Y-69200000D01*
%TO.C,JP12*%
X123000000Y-103000000D02*
X125000000Y-103000000D01*
X123000000Y-105800000D02*
X123000000Y-103000000D01*
X125000000Y-103000000D02*
X125000000Y-105800000D01*
X125000000Y-105800000D02*
X123000000Y-105800000D01*
%TO.C,JP13*%
X159800000Y-54200000D02*
X162600000Y-54200000D01*
X159800000Y-56200000D02*
X159800000Y-54200000D01*
X162600000Y-54200000D02*
X162600000Y-56200000D01*
X162600000Y-56200000D02*
X159800000Y-56200000D01*
%TO.C,JP18*%
X159800000Y-56800000D02*
X162600000Y-56800000D01*
X159800000Y-58800000D02*
X159800000Y-56800000D01*
X162600000Y-56800000D02*
X162600000Y-58800000D01*
X162600000Y-58800000D02*
X159800000Y-58800000D01*
%TO.C,JP7*%
X168000000Y-109924999D02*
X170000000Y-109924999D01*
X168000000Y-112724999D02*
X168000000Y-109924999D01*
X170000000Y-109924999D02*
X170000000Y-112724999D01*
X170000000Y-112724999D02*
X168000000Y-112724999D01*
%TO.C,JP10*%
X130590292Y-100804505D02*
X132004505Y-99390292D01*
X132004505Y-99390292D02*
X133984404Y-101370191D01*
X132570191Y-102784404D02*
X130590292Y-100804505D01*
X133984404Y-101370191D02*
X132570191Y-102784404D01*
%TD*%
M02*
