%TF.GenerationSoftware,KiCad,Pcbnew,8.0.1*%
%TF.CreationDate,2024-05-18T20:09:52+02:00*%
%TF.ProjectId,STM32H7B0_devboard,53544d33-3248-4374-9230-5f646576626f,rev?*%
%TF.SameCoordinates,Original*%
%TF.FileFunction,Legend,Top*%
%TF.FilePolarity,Positive*%
%FSLAX46Y46*%
G04 Gerber Fmt 4.6, Leading zero omitted, Abs format (unit mm)*
G04 Created by KiCad (PCBNEW 8.0.1) date 2024-05-18 20:09:52*
%MOMM*%
%LPD*%
G01*
G04 APERTURE LIST*
%ADD10C,0.200000*%
%ADD11C,0.100000*%
%ADD12C,0.150000*%
%ADD13C,0.120000*%
%ADD14C,0.152400*%
G04 APERTURE END LIST*
D10*
G36*
X133149153Y-43387654D02*
G01*
X133229751Y-43446142D01*
X133284455Y-43528991D01*
X133318348Y-43620776D01*
X133342145Y-43737683D01*
X133352634Y-43843210D01*
X133356245Y-43965094D01*
X133352634Y-44086393D01*
X133342145Y-44192001D01*
X133318348Y-44309822D01*
X133284455Y-44403154D01*
X133229751Y-44488347D01*
X133149153Y-44549435D01*
X133039706Y-44572281D01*
X132930259Y-44549435D01*
X132849662Y-44488347D01*
X132794958Y-44403154D01*
X132761065Y-44309822D01*
X132737268Y-44192001D01*
X132726779Y-44086393D01*
X132723168Y-43965094D01*
X132723327Y-43959720D01*
X132829658Y-43959720D01*
X132850078Y-44056902D01*
X132913293Y-44133409D01*
X133007321Y-44170041D01*
X133039706Y-44172212D01*
X133140590Y-44148902D01*
X133214335Y-44083626D01*
X133248690Y-43983359D01*
X133249755Y-43959720D01*
X133229335Y-43862444D01*
X133166120Y-43785720D01*
X133072092Y-43748924D01*
X133039706Y-43746741D01*
X132938823Y-43770163D01*
X132865078Y-43835660D01*
X132830723Y-43936077D01*
X132829658Y-43959720D01*
X132723327Y-43959720D01*
X132726779Y-43843210D01*
X132737268Y-43737683D01*
X132761065Y-43620776D01*
X132794958Y-43528991D01*
X132849662Y-43446142D01*
X132930259Y-43387654D01*
X133039706Y-43366210D01*
X133149153Y-43387654D01*
G37*
G36*
X134827590Y-43387654D02*
G01*
X134908188Y-43446142D01*
X134962892Y-43528991D01*
X134996784Y-43620776D01*
X135020582Y-43737683D01*
X135031071Y-43843210D01*
X135034682Y-43965094D01*
X135031071Y-44086393D01*
X135020582Y-44192001D01*
X134996784Y-44309822D01*
X134962892Y-44403154D01*
X134908188Y-44488347D01*
X134827590Y-44549435D01*
X134718143Y-44572281D01*
X134608696Y-44549435D01*
X134528098Y-44488347D01*
X134473394Y-44403154D01*
X134439502Y-44309822D01*
X134415705Y-44192001D01*
X134405215Y-44086393D01*
X134401605Y-43965094D01*
X134401764Y-43959720D01*
X134508094Y-43959720D01*
X134528514Y-44056902D01*
X134591729Y-44133409D01*
X134685758Y-44170041D01*
X134718143Y-44172212D01*
X134819026Y-44148902D01*
X134892772Y-44083626D01*
X134927127Y-43983359D01*
X134928192Y-43959720D01*
X134907772Y-43862444D01*
X134844557Y-43785720D01*
X134750529Y-43748924D01*
X134718143Y-43746741D01*
X134617260Y-43770163D01*
X134543514Y-43835660D01*
X134509160Y-43936077D01*
X134508094Y-43959720D01*
X134401764Y-43959720D01*
X134405215Y-43843210D01*
X134415705Y-43737683D01*
X134439502Y-43620776D01*
X134473394Y-43528991D01*
X134528098Y-43446142D01*
X134608696Y-43387654D01*
X134718143Y-43366210D01*
X134827590Y-43387654D01*
G37*
G36*
X135623757Y-45113485D02*
G01*
X132134581Y-45113485D01*
X132134581Y-43965094D01*
X132356803Y-43965094D01*
X132359954Y-44074188D01*
X132369277Y-44176835D01*
X132394412Y-44318539D01*
X132432348Y-44445278D01*
X132482433Y-44556776D01*
X132544016Y-44652759D01*
X132616443Y-44732952D01*
X132699063Y-44797078D01*
X132791224Y-44844862D01*
X132892273Y-44876030D01*
X133001560Y-44890305D01*
X133039706Y-44891263D01*
X133151718Y-44882679D01*
X133255688Y-44857111D01*
X133350965Y-44814835D01*
X133436900Y-44756126D01*
X133512843Y-44681258D01*
X133578145Y-44590508D01*
X133632156Y-44484151D01*
X133674226Y-44362462D01*
X133703707Y-44225715D01*
X133716045Y-44126323D01*
X133722306Y-44020442D01*
X133723098Y-43965094D01*
X134035240Y-43965094D01*
X134038391Y-44074188D01*
X134047714Y-44176835D01*
X134072849Y-44318539D01*
X134110785Y-44445278D01*
X134160870Y-44556776D01*
X134222452Y-44652759D01*
X134294880Y-44732952D01*
X134377500Y-44797078D01*
X134469661Y-44844862D01*
X134570710Y-44876030D01*
X134679997Y-44890305D01*
X134718143Y-44891263D01*
X134830155Y-44882679D01*
X134934125Y-44857111D01*
X135029402Y-44814835D01*
X135115337Y-44756126D01*
X135191280Y-44681258D01*
X135256582Y-44590508D01*
X135310593Y-44484151D01*
X135352663Y-44362462D01*
X135382144Y-44225715D01*
X135394482Y-44126323D01*
X135400743Y-44020442D01*
X135401535Y-43965094D01*
X135398384Y-43854719D01*
X135389060Y-43751304D01*
X135363921Y-43609281D01*
X135325975Y-43483043D01*
X135275872Y-43372665D01*
X135214262Y-43278222D01*
X135141793Y-43199789D01*
X135059117Y-43137440D01*
X134966882Y-43091251D01*
X134865737Y-43061297D01*
X134756334Y-43047652D01*
X134718143Y-43046741D01*
X134606256Y-43054933D01*
X134502388Y-43079459D01*
X134407192Y-43120245D01*
X134321319Y-43177215D01*
X134245422Y-43250295D01*
X134180152Y-43339409D01*
X134126162Y-43444484D01*
X134084104Y-43565444D01*
X134054630Y-43702214D01*
X134042293Y-43802140D01*
X134036032Y-43909038D01*
X134035240Y-43965094D01*
X133723098Y-43965094D01*
X133719947Y-43854719D01*
X133710623Y-43751304D01*
X133685484Y-43609281D01*
X133647538Y-43483043D01*
X133597435Y-43372665D01*
X133535825Y-43278222D01*
X133463356Y-43199789D01*
X133380680Y-43137440D01*
X133288445Y-43091251D01*
X133187301Y-43061297D01*
X133077897Y-43047652D01*
X133039706Y-43046741D01*
X132927819Y-43054933D01*
X132823951Y-43079459D01*
X132728755Y-43120245D01*
X132642882Y-43177215D01*
X132566985Y-43250295D01*
X132501716Y-43339409D01*
X132447726Y-43444484D01*
X132405667Y-43565444D01*
X132376193Y-43702214D01*
X132363856Y-43802140D01*
X132357595Y-43909038D01*
X132356803Y-43965094D01*
X132134581Y-43965094D01*
X132134581Y-42824519D01*
X135623757Y-42824519D01*
X135623757Y-45113485D01*
G37*
G36*
X141154573Y-76685484D02*
G01*
X141256693Y-76712436D01*
X141339460Y-76779016D01*
X141370107Y-76884473D01*
X141370411Y-76898729D01*
X141350269Y-77003929D01*
X141278564Y-77085893D01*
X141185970Y-77123288D01*
X141080370Y-77137165D01*
X141039706Y-77138087D01*
X140818422Y-77138087D01*
X140818422Y-76678422D01*
X141039706Y-76678422D01*
X141154573Y-76685484D01*
G37*
G36*
X141101310Y-75974944D02*
G01*
X141198727Y-76002088D01*
X141269333Y-76070945D01*
X141286392Y-76157208D01*
X141265704Y-76261642D01*
X141200640Y-76335799D01*
X141101915Y-76373189D01*
X141000628Y-76381912D01*
X140818422Y-76381912D01*
X140818422Y-75969141D01*
X141003558Y-75969141D01*
X141101310Y-75974944D01*
G37*
G36*
X141995634Y-77682222D02*
G01*
X140184895Y-77682222D01*
X140184895Y-75646741D01*
X140407117Y-75646741D01*
X140407117Y-75969141D01*
X140407117Y-76678422D01*
X140407117Y-77460000D01*
X141073412Y-77460000D01*
X141181885Y-77455617D01*
X141284577Y-77442351D01*
X141380420Y-77420025D01*
X141495712Y-77375861D01*
X141594400Y-77314859D01*
X141673954Y-77236603D01*
X141731844Y-77140674D01*
X141765540Y-77026654D01*
X141773412Y-76929016D01*
X141763412Y-76825255D01*
X141725328Y-76719759D01*
X141659317Y-76634606D01*
X141565939Y-76569373D01*
X141467623Y-76529921D01*
X141375785Y-76507941D01*
X141375785Y-76496706D01*
X141468413Y-76462050D01*
X141557370Y-76401479D01*
X141622879Y-76325233D01*
X141670754Y-76223581D01*
X141689106Y-76116320D01*
X141689392Y-76101032D01*
X141676144Y-75980954D01*
X141637995Y-75882290D01*
X141577336Y-75803376D01*
X141496563Y-75742545D01*
X141398066Y-75698132D01*
X141284239Y-75668471D01*
X141157475Y-75651895D01*
X141055352Y-75647050D01*
X141020167Y-75646741D01*
X140407117Y-75646741D01*
X140184895Y-75646741D01*
X140184895Y-75424519D01*
X141995634Y-75424519D01*
X141995634Y-77682222D01*
G37*
G36*
X148980004Y-75986929D02*
G01*
X149094177Y-76015602D01*
X149190711Y-76070580D01*
X149267282Y-76155665D01*
X149312601Y-76247965D01*
X149342465Y-76363912D01*
X149354003Y-76467562D01*
X149356245Y-76545066D01*
X149351228Y-76659305D01*
X149336513Y-76759289D01*
X149302674Y-76871565D01*
X149253676Y-76961232D01*
X149172927Y-77043903D01*
X149072679Y-77096742D01*
X148955258Y-77122801D01*
X148877529Y-77126852D01*
X148810118Y-77126852D01*
X148810118Y-75980376D01*
X148877529Y-75980376D01*
X148980004Y-75986929D01*
G37*
G36*
X150001496Y-77682222D02*
G01*
X148173660Y-77682222D01*
X148173660Y-75646741D01*
X148395882Y-75646741D01*
X148395882Y-75980376D01*
X148395882Y-77460000D01*
X148924912Y-77460000D01*
X149063153Y-77452230D01*
X149192043Y-77428811D01*
X149310655Y-77389571D01*
X149418061Y-77334342D01*
X149513335Y-77262956D01*
X149595548Y-77175242D01*
X149663773Y-77071033D01*
X149717083Y-76950158D01*
X149754551Y-76812449D01*
X149770271Y-76711207D01*
X149778262Y-76602358D01*
X149779274Y-76545066D01*
X149775243Y-76432662D01*
X149763311Y-76328210D01*
X149743715Y-76231613D01*
X149700474Y-76101235D01*
X149641329Y-75987989D01*
X149567086Y-75891548D01*
X149478548Y-75811586D01*
X149376521Y-75747777D01*
X149261807Y-75699795D01*
X149135212Y-75667314D01*
X148997539Y-75650008D01*
X148900000Y-75646741D01*
X148395882Y-75646741D01*
X148173660Y-75646741D01*
X148173660Y-75424519D01*
X150001496Y-75424519D01*
X150001496Y-77682222D01*
G37*
G36*
X137061752Y-76070054D02*
G01*
X137088828Y-76181506D01*
X137117114Y-76293202D01*
X137145723Y-76403153D01*
X137173765Y-76509369D01*
X137182833Y-76543600D01*
X137224842Y-76709685D01*
X136840893Y-76709685D01*
X136882903Y-76543600D01*
X136910036Y-76439072D01*
X136937376Y-76330144D01*
X136964613Y-76218809D01*
X136991438Y-76107054D01*
X137017541Y-75996871D01*
X137026029Y-75960837D01*
X137036775Y-75960837D01*
X137061752Y-76070054D01*
G37*
G36*
X138076723Y-77682222D02*
G01*
X136002690Y-77682222D01*
X136002690Y-77460000D01*
X136224912Y-77460000D01*
X136645010Y-77460000D01*
X136756873Y-77032086D01*
X137308862Y-77032086D01*
X137417794Y-77460000D01*
X137854501Y-77460000D01*
X137286392Y-75646741D01*
X136793510Y-75646741D01*
X136460194Y-76709685D01*
X136224912Y-77460000D01*
X136002690Y-77460000D01*
X136002690Y-75424519D01*
X138076723Y-75424519D01*
X138076723Y-77682222D01*
G37*
G36*
X146018104Y-77713485D02*
G01*
X144128720Y-77713485D01*
X144128720Y-76549462D01*
X144350942Y-76549462D01*
X144355457Y-76662193D01*
X144368682Y-76767906D01*
X144390129Y-76866564D01*
X144436657Y-77001249D01*
X144498958Y-77119866D01*
X144575396Y-77222295D01*
X144664331Y-77308419D01*
X144764128Y-77378120D01*
X144873148Y-77431278D01*
X144989755Y-77467776D01*
X145112310Y-77487496D01*
X145196510Y-77491263D01*
X145308981Y-77484532D01*
X145414925Y-77464468D01*
X145514039Y-77431260D01*
X145606023Y-77385098D01*
X145690573Y-77326172D01*
X145767389Y-77254673D01*
X145795882Y-77222595D01*
X145569225Y-76971514D01*
X145498181Y-77038994D01*
X145409261Y-77095989D01*
X145310313Y-77128996D01*
X145238520Y-77135645D01*
X145139739Y-77125416D01*
X145029288Y-77084629D01*
X144935563Y-77014055D01*
X144874248Y-76937103D01*
X144826420Y-76842723D01*
X144793316Y-76731642D01*
X144776171Y-76604587D01*
X144773970Y-76535296D01*
X144778880Y-76434835D01*
X144799970Y-76313639D01*
X144836371Y-76207836D01*
X144886650Y-76118320D01*
X144966836Y-76030687D01*
X145063677Y-75971640D01*
X145174377Y-75942924D01*
X145221912Y-75940321D01*
X145327221Y-75952441D01*
X145428075Y-75991219D01*
X145516246Y-76051625D01*
X145540893Y-76073189D01*
X145768039Y-75816734D01*
X145691672Y-75750653D01*
X145602239Y-75690355D01*
X145500685Y-75639975D01*
X145407482Y-75608550D01*
X145307067Y-75589277D01*
X145221912Y-75584214D01*
X145087773Y-75593449D01*
X144960504Y-75620842D01*
X144841483Y-75665927D01*
X144732094Y-75728239D01*
X144633717Y-75807310D01*
X144547734Y-75902676D01*
X144475526Y-76013869D01*
X144418475Y-76140424D01*
X144377961Y-76281875D01*
X144360822Y-76384221D01*
X144352056Y-76492842D01*
X144350942Y-76549462D01*
X144128720Y-76549462D01*
X144128720Y-75361992D01*
X146018104Y-75361992D01*
X146018104Y-77713485D01*
G37*
D11*
X155151503Y-113424800D02*
X155151503Y-113472419D01*
X155151503Y-113472419D02*
X155103884Y-113567657D01*
X155103884Y-113567657D02*
X155056265Y-113615276D01*
D10*
G36*
X153917476Y-77682222D02*
G01*
X152235209Y-77682222D01*
X152235209Y-75646741D01*
X152457431Y-75646741D01*
X152457431Y-77460000D01*
X153695254Y-77460000D01*
X153695254Y-77113175D01*
X152871667Y-77113175D01*
X152871667Y-76709685D01*
X153546755Y-76709685D01*
X153546755Y-76365303D01*
X152871667Y-76365303D01*
X152871667Y-75994054D01*
X153666922Y-75994054D01*
X153666922Y-75646741D01*
X152457431Y-75646741D01*
X152235209Y-75646741D01*
X152235209Y-75424519D01*
X153917476Y-75424519D01*
X153917476Y-77682222D01*
G37*
D11*
X140389598Y-101072419D02*
X140389598Y-101786704D01*
X140389598Y-101786704D02*
X140341979Y-101929561D01*
X140341979Y-101929561D02*
X140246741Y-102024800D01*
X140246741Y-102024800D02*
X140103884Y-102072419D01*
X140103884Y-102072419D02*
X140008646Y-102072419D01*
X141341979Y-102072419D02*
X140865789Y-102072419D01*
X140865789Y-102072419D02*
X140865789Y-101072419D01*
X142246741Y-101977180D02*
X142199122Y-102024800D01*
X142199122Y-102024800D02*
X142056265Y-102072419D01*
X142056265Y-102072419D02*
X141961027Y-102072419D01*
X141961027Y-102072419D02*
X141818170Y-102024800D01*
X141818170Y-102024800D02*
X141722932Y-101929561D01*
X141722932Y-101929561D02*
X141675313Y-101834323D01*
X141675313Y-101834323D02*
X141627694Y-101643847D01*
X141627694Y-101643847D02*
X141627694Y-101500990D01*
X141627694Y-101500990D02*
X141675313Y-101310514D01*
X141675313Y-101310514D02*
X141722932Y-101215276D01*
X141722932Y-101215276D02*
X141818170Y-101120038D01*
X141818170Y-101120038D02*
X141961027Y-101072419D01*
X141961027Y-101072419D02*
X142056265Y-101072419D01*
X142056265Y-101072419D02*
X142199122Y-101120038D01*
X142199122Y-101120038D02*
X142246741Y-101167657D01*
X142961027Y-101072419D02*
X142961027Y-101786704D01*
X142961027Y-101786704D02*
X142913408Y-101929561D01*
X142913408Y-101929561D02*
X142818170Y-102024800D01*
X142818170Y-102024800D02*
X142675313Y-102072419D01*
X142675313Y-102072419D02*
X142580075Y-102072419D01*
X143913408Y-102072419D02*
X143437218Y-102072419D01*
X143437218Y-102072419D02*
X143437218Y-101072419D01*
X144818170Y-101977180D02*
X144770551Y-102024800D01*
X144770551Y-102024800D02*
X144627694Y-102072419D01*
X144627694Y-102072419D02*
X144532456Y-102072419D01*
X144532456Y-102072419D02*
X144389599Y-102024800D01*
X144389599Y-102024800D02*
X144294361Y-101929561D01*
X144294361Y-101929561D02*
X144246742Y-101834323D01*
X144246742Y-101834323D02*
X144199123Y-101643847D01*
X144199123Y-101643847D02*
X144199123Y-101500990D01*
X144199123Y-101500990D02*
X144246742Y-101310514D01*
X144246742Y-101310514D02*
X144294361Y-101215276D01*
X144294361Y-101215276D02*
X144389599Y-101120038D01*
X144389599Y-101120038D02*
X144532456Y-101072419D01*
X144532456Y-101072419D02*
X144627694Y-101072419D01*
X144627694Y-101072419D02*
X144770551Y-101120038D01*
X144770551Y-101120038D02*
X144818170Y-101167657D01*
X145532456Y-101072419D02*
X145532456Y-101786704D01*
X145532456Y-101786704D02*
X145484837Y-101929561D01*
X145484837Y-101929561D02*
X145389599Y-102024800D01*
X145389599Y-102024800D02*
X145246742Y-102072419D01*
X145246742Y-102072419D02*
X145151504Y-102072419D01*
X146484837Y-102072419D02*
X146008647Y-102072419D01*
X146008647Y-102072419D02*
X146008647Y-101072419D01*
X147389599Y-101977180D02*
X147341980Y-102024800D01*
X147341980Y-102024800D02*
X147199123Y-102072419D01*
X147199123Y-102072419D02*
X147103885Y-102072419D01*
X147103885Y-102072419D02*
X146961028Y-102024800D01*
X146961028Y-102024800D02*
X146865790Y-101929561D01*
X146865790Y-101929561D02*
X146818171Y-101834323D01*
X146818171Y-101834323D02*
X146770552Y-101643847D01*
X146770552Y-101643847D02*
X146770552Y-101500990D01*
X146770552Y-101500990D02*
X146818171Y-101310514D01*
X146818171Y-101310514D02*
X146865790Y-101215276D01*
X146865790Y-101215276D02*
X146961028Y-101120038D01*
X146961028Y-101120038D02*
X147103885Y-101072419D01*
X147103885Y-101072419D02*
X147199123Y-101072419D01*
X147199123Y-101072419D02*
X147341980Y-101120038D01*
X147341980Y-101120038D02*
X147389599Y-101167657D01*
X148103885Y-101072419D02*
X148103885Y-101786704D01*
X148103885Y-101786704D02*
X148056266Y-101929561D01*
X148056266Y-101929561D02*
X147961028Y-102024800D01*
X147961028Y-102024800D02*
X147818171Y-102072419D01*
X147818171Y-102072419D02*
X147722933Y-102072419D01*
X149056266Y-102072419D02*
X148580076Y-102072419D01*
X148580076Y-102072419D02*
X148580076Y-101072419D01*
X149961028Y-101977180D02*
X149913409Y-102024800D01*
X149913409Y-102024800D02*
X149770552Y-102072419D01*
X149770552Y-102072419D02*
X149675314Y-102072419D01*
X149675314Y-102072419D02*
X149532457Y-102024800D01*
X149532457Y-102024800D02*
X149437219Y-101929561D01*
X149437219Y-101929561D02*
X149389600Y-101834323D01*
X149389600Y-101834323D02*
X149341981Y-101643847D01*
X149341981Y-101643847D02*
X149341981Y-101500990D01*
X149341981Y-101500990D02*
X149389600Y-101310514D01*
X149389600Y-101310514D02*
X149437219Y-101215276D01*
X149437219Y-101215276D02*
X149532457Y-101120038D01*
X149532457Y-101120038D02*
X149675314Y-101072419D01*
X149675314Y-101072419D02*
X149770552Y-101072419D01*
X149770552Y-101072419D02*
X149913409Y-101120038D01*
X149913409Y-101120038D02*
X149961028Y-101167657D01*
D10*
G36*
X135590051Y-75113485D02*
G01*
X132198573Y-75113485D01*
X132198573Y-74860000D01*
X132420795Y-74860000D01*
X133714794Y-74860000D01*
X133714794Y-74642135D01*
X134006908Y-74642135D01*
X134095813Y-74717186D01*
X134181253Y-74772474D01*
X134277834Y-74819272D01*
X134386330Y-74855802D01*
X134482223Y-74876438D01*
X134586630Y-74888454D01*
X134670760Y-74891263D01*
X134772730Y-74885339D01*
X134871316Y-74867776D01*
X134965067Y-74838889D01*
X135080039Y-74783298D01*
X135180395Y-74708878D01*
X135262695Y-74616371D01*
X135323498Y-74506521D01*
X135352924Y-74413201D01*
X135366871Y-74310859D01*
X135367829Y-74274794D01*
X135360568Y-74174952D01*
X135329717Y-74058028D01*
X135277230Y-73959330D01*
X135205893Y-73878543D01*
X135118496Y-73815350D01*
X135017824Y-73769439D01*
X134906667Y-73740493D01*
X134787812Y-73728199D01*
X134757222Y-73727690D01*
X134657825Y-73733809D01*
X134559213Y-73756673D01*
X134522260Y-73769699D01*
X134553035Y-73425317D01*
X135286741Y-73425317D01*
X135286741Y-73078004D01*
X134197418Y-73078004D01*
X134150034Y-73988053D01*
X134331751Y-74104312D01*
X134422093Y-74058520D01*
X134516860Y-74026484D01*
X134620806Y-74015963D01*
X134631681Y-74015896D01*
X134731269Y-74025714D01*
X134829375Y-74061580D01*
X134911042Y-74133896D01*
X134949792Y-74223792D01*
X134956036Y-74286029D01*
X134936434Y-74391003D01*
X134870615Y-74480291D01*
X134780923Y-74531020D01*
X134684374Y-74553757D01*
X134611653Y-74558115D01*
X134506042Y-74547699D01*
X134409066Y-74518822D01*
X134319680Y-74475044D01*
X134236842Y-74419924D01*
X134192044Y-74384703D01*
X134006908Y-74642135D01*
X133714794Y-74642135D01*
X133714794Y-74526852D01*
X133311304Y-74526852D01*
X133311304Y-73078004D01*
X133008932Y-73078004D01*
X132919146Y-73126516D01*
X132824670Y-73166210D01*
X132717589Y-73198927D01*
X132609774Y-73222812D01*
X132504815Y-73240669D01*
X132504815Y-73495659D01*
X132900000Y-73495659D01*
X132900000Y-74526852D01*
X132420795Y-74526852D01*
X132420795Y-74860000D01*
X132198573Y-74860000D01*
X132198573Y-72855782D01*
X135590051Y-72855782D01*
X135590051Y-75113485D01*
G37*
D12*
X168182142Y-95692902D02*
X167965475Y-95383378D01*
X167810713Y-95692902D02*
X167810713Y-95042902D01*
X167810713Y-95042902D02*
X168058332Y-95042902D01*
X168058332Y-95042902D02*
X168120237Y-95073854D01*
X168120237Y-95073854D02*
X168151190Y-95104807D01*
X168151190Y-95104807D02*
X168182142Y-95166711D01*
X168182142Y-95166711D02*
X168182142Y-95259569D01*
X168182142Y-95259569D02*
X168151190Y-95321473D01*
X168151190Y-95321473D02*
X168120237Y-95352426D01*
X168120237Y-95352426D02*
X168058332Y-95383378D01*
X168058332Y-95383378D02*
X167810713Y-95383378D01*
X168429761Y-95104807D02*
X168460713Y-95073854D01*
X168460713Y-95073854D02*
X168522618Y-95042902D01*
X168522618Y-95042902D02*
X168677380Y-95042902D01*
X168677380Y-95042902D02*
X168739285Y-95073854D01*
X168739285Y-95073854D02*
X168770237Y-95104807D01*
X168770237Y-95104807D02*
X168801190Y-95166711D01*
X168801190Y-95166711D02*
X168801190Y-95228616D01*
X168801190Y-95228616D02*
X168770237Y-95321473D01*
X168770237Y-95321473D02*
X168398809Y-95692902D01*
X168398809Y-95692902D02*
X168801190Y-95692902D01*
X169358333Y-95042902D02*
X169234523Y-95042902D01*
X169234523Y-95042902D02*
X169172619Y-95073854D01*
X169172619Y-95073854D02*
X169141666Y-95104807D01*
X169141666Y-95104807D02*
X169079761Y-95197664D01*
X169079761Y-95197664D02*
X169048809Y-95321473D01*
X169048809Y-95321473D02*
X169048809Y-95569092D01*
X169048809Y-95569092D02*
X169079761Y-95630997D01*
X169079761Y-95630997D02*
X169110714Y-95661950D01*
X169110714Y-95661950D02*
X169172619Y-95692902D01*
X169172619Y-95692902D02*
X169296428Y-95692902D01*
X169296428Y-95692902D02*
X169358333Y-95661950D01*
X169358333Y-95661950D02*
X169389285Y-95630997D01*
X169389285Y-95630997D02*
X169420238Y-95569092D01*
X169420238Y-95569092D02*
X169420238Y-95414330D01*
X169420238Y-95414330D02*
X169389285Y-95352426D01*
X169389285Y-95352426D02*
X169358333Y-95321473D01*
X169358333Y-95321473D02*
X169296428Y-95290521D01*
X169296428Y-95290521D02*
X169172619Y-95290521D01*
X169172619Y-95290521D02*
X169110714Y-95321473D01*
X169110714Y-95321473D02*
X169079761Y-95352426D01*
X169079761Y-95352426D02*
X169048809Y-95414330D01*
X117754807Y-68861904D02*
X117723854Y-68923809D01*
X117723854Y-68923809D02*
X117661950Y-68985714D01*
X117661950Y-68985714D02*
X117569092Y-69078571D01*
X117569092Y-69078571D02*
X117538140Y-69140476D01*
X117538140Y-69140476D02*
X117538140Y-69202380D01*
X117692902Y-69171428D02*
X117661950Y-69233333D01*
X117661950Y-69233333D02*
X117600045Y-69295238D01*
X117600045Y-69295238D02*
X117476235Y-69326190D01*
X117476235Y-69326190D02*
X117259569Y-69326190D01*
X117259569Y-69326190D02*
X117135759Y-69295238D01*
X117135759Y-69295238D02*
X117073854Y-69233333D01*
X117073854Y-69233333D02*
X117042902Y-69171428D01*
X117042902Y-69171428D02*
X117042902Y-69047619D01*
X117042902Y-69047619D02*
X117073854Y-68985714D01*
X117073854Y-68985714D02*
X117135759Y-68923809D01*
X117135759Y-68923809D02*
X117259569Y-68892857D01*
X117259569Y-68892857D02*
X117476235Y-68892857D01*
X117476235Y-68892857D02*
X117600045Y-68923809D01*
X117600045Y-68923809D02*
X117661950Y-68985714D01*
X117661950Y-68985714D02*
X117692902Y-69047619D01*
X117692902Y-69047619D02*
X117692902Y-69171428D01*
X117104807Y-68645238D02*
X117073854Y-68614286D01*
X117073854Y-68614286D02*
X117042902Y-68552381D01*
X117042902Y-68552381D02*
X117042902Y-68397619D01*
X117042902Y-68397619D02*
X117073854Y-68335714D01*
X117073854Y-68335714D02*
X117104807Y-68304762D01*
X117104807Y-68304762D02*
X117166711Y-68273809D01*
X117166711Y-68273809D02*
X117228616Y-68273809D01*
X117228616Y-68273809D02*
X117321473Y-68304762D01*
X117321473Y-68304762D02*
X117692902Y-68676190D01*
X117692902Y-68676190D02*
X117692902Y-68273809D01*
X122182142Y-112492902D02*
X121965475Y-112183378D01*
X121810713Y-112492902D02*
X121810713Y-111842902D01*
X121810713Y-111842902D02*
X122058332Y-111842902D01*
X122058332Y-111842902D02*
X122120237Y-111873854D01*
X122120237Y-111873854D02*
X122151190Y-111904807D01*
X122151190Y-111904807D02*
X122182142Y-111966711D01*
X122182142Y-111966711D02*
X122182142Y-112059569D01*
X122182142Y-112059569D02*
X122151190Y-112121473D01*
X122151190Y-112121473D02*
X122120237Y-112152426D01*
X122120237Y-112152426D02*
X122058332Y-112183378D01*
X122058332Y-112183378D02*
X121810713Y-112183378D01*
X122801190Y-112492902D02*
X122429761Y-112492902D01*
X122615475Y-112492902D02*
X122615475Y-111842902D01*
X122615475Y-111842902D02*
X122553571Y-111935759D01*
X122553571Y-111935759D02*
X122491666Y-111997664D01*
X122491666Y-111997664D02*
X122429761Y-112028616D01*
X123203571Y-111842902D02*
X123265476Y-111842902D01*
X123265476Y-111842902D02*
X123327380Y-111873854D01*
X123327380Y-111873854D02*
X123358333Y-111904807D01*
X123358333Y-111904807D02*
X123389285Y-111966711D01*
X123389285Y-111966711D02*
X123420238Y-112090521D01*
X123420238Y-112090521D02*
X123420238Y-112245283D01*
X123420238Y-112245283D02*
X123389285Y-112369092D01*
X123389285Y-112369092D02*
X123358333Y-112430997D01*
X123358333Y-112430997D02*
X123327380Y-112461950D01*
X123327380Y-112461950D02*
X123265476Y-112492902D01*
X123265476Y-112492902D02*
X123203571Y-112492902D01*
X123203571Y-112492902D02*
X123141666Y-112461950D01*
X123141666Y-112461950D02*
X123110714Y-112430997D01*
X123110714Y-112430997D02*
X123079761Y-112369092D01*
X123079761Y-112369092D02*
X123048809Y-112245283D01*
X123048809Y-112245283D02*
X123048809Y-112090521D01*
X123048809Y-112090521D02*
X123079761Y-111966711D01*
X123079761Y-111966711D02*
X123110714Y-111904807D01*
X123110714Y-111904807D02*
X123141666Y-111873854D01*
X123141666Y-111873854D02*
X123203571Y-111842902D01*
X166142902Y-100495238D02*
X166669092Y-100495238D01*
X166669092Y-100495238D02*
X166730997Y-100464285D01*
X166730997Y-100464285D02*
X166761950Y-100433333D01*
X166761950Y-100433333D02*
X166792902Y-100371428D01*
X166792902Y-100371428D02*
X166792902Y-100247619D01*
X166792902Y-100247619D02*
X166761950Y-100185714D01*
X166761950Y-100185714D02*
X166730997Y-100154761D01*
X166730997Y-100154761D02*
X166669092Y-100123809D01*
X166669092Y-100123809D02*
X166142902Y-100123809D01*
X166142902Y-99876190D02*
X166142902Y-99473809D01*
X166142902Y-99473809D02*
X166390521Y-99690476D01*
X166390521Y-99690476D02*
X166390521Y-99597619D01*
X166390521Y-99597619D02*
X166421473Y-99535714D01*
X166421473Y-99535714D02*
X166452426Y-99504762D01*
X166452426Y-99504762D02*
X166514330Y-99473809D01*
X166514330Y-99473809D02*
X166669092Y-99473809D01*
X166669092Y-99473809D02*
X166730997Y-99504762D01*
X166730997Y-99504762D02*
X166761950Y-99535714D01*
X166761950Y-99535714D02*
X166792902Y-99597619D01*
X166792902Y-99597619D02*
X166792902Y-99783333D01*
X166792902Y-99783333D02*
X166761950Y-99845238D01*
X166761950Y-99845238D02*
X166730997Y-99876190D01*
X136783333Y-41642902D02*
X136783333Y-42107188D01*
X136783333Y-42107188D02*
X136752380Y-42200045D01*
X136752380Y-42200045D02*
X136690476Y-42261950D01*
X136690476Y-42261950D02*
X136597618Y-42292902D01*
X136597618Y-42292902D02*
X136535714Y-42292902D01*
X137371428Y-41859569D02*
X137371428Y-42292902D01*
X137216666Y-41611950D02*
X137061904Y-42076235D01*
X137061904Y-42076235D02*
X137464285Y-42076235D01*
X118783333Y-79642902D02*
X118783333Y-80107188D01*
X118783333Y-80107188D02*
X118752380Y-80200045D01*
X118752380Y-80200045D02*
X118690476Y-80261950D01*
X118690476Y-80261950D02*
X118597618Y-80292902D01*
X118597618Y-80292902D02*
X118535714Y-80292902D01*
X119030952Y-79642902D02*
X119433333Y-79642902D01*
X119433333Y-79642902D02*
X119216666Y-79890521D01*
X119216666Y-79890521D02*
X119309523Y-79890521D01*
X119309523Y-79890521D02*
X119371428Y-79921473D01*
X119371428Y-79921473D02*
X119402380Y-79952426D01*
X119402380Y-79952426D02*
X119433333Y-80014330D01*
X119433333Y-80014330D02*
X119433333Y-80169092D01*
X119433333Y-80169092D02*
X119402380Y-80230997D01*
X119402380Y-80230997D02*
X119371428Y-80261950D01*
X119371428Y-80261950D02*
X119309523Y-80292902D01*
X119309523Y-80292902D02*
X119123809Y-80292902D01*
X119123809Y-80292902D02*
X119061904Y-80261950D01*
X119061904Y-80261950D02*
X119030952Y-80230997D01*
X125242902Y-59895238D02*
X125769092Y-59895238D01*
X125769092Y-59895238D02*
X125830997Y-59864285D01*
X125830997Y-59864285D02*
X125861950Y-59833333D01*
X125861950Y-59833333D02*
X125892902Y-59771428D01*
X125892902Y-59771428D02*
X125892902Y-59647619D01*
X125892902Y-59647619D02*
X125861950Y-59585714D01*
X125861950Y-59585714D02*
X125830997Y-59554761D01*
X125830997Y-59554761D02*
X125769092Y-59523809D01*
X125769092Y-59523809D02*
X125242902Y-59523809D01*
X125459569Y-58935714D02*
X125892902Y-58935714D01*
X125211950Y-59090476D02*
X125676235Y-59245238D01*
X125676235Y-59245238D02*
X125676235Y-58842857D01*
X154516283Y-112930509D02*
X154581943Y-112558437D01*
X154253643Y-112667870D02*
X154713263Y-112208250D01*
X154713263Y-112208250D02*
X154888356Y-112383343D01*
X154888356Y-112383343D02*
X154910242Y-112449003D01*
X154910242Y-112449003D02*
X154910242Y-112492777D01*
X154910242Y-112492777D02*
X154888356Y-112558437D01*
X154888356Y-112558437D02*
X154822696Y-112624096D01*
X154822696Y-112624096D02*
X154757036Y-112645983D01*
X154757036Y-112645983D02*
X154713263Y-112645983D01*
X154713263Y-112645983D02*
X154647603Y-112624096D01*
X154647603Y-112624096D02*
X154472510Y-112449003D01*
X155107222Y-112689756D02*
X155150995Y-112689756D01*
X155150995Y-112689756D02*
X155216655Y-112711643D01*
X155216655Y-112711643D02*
X155326088Y-112821076D01*
X155326088Y-112821076D02*
X155347975Y-112886736D01*
X155347975Y-112886736D02*
X155347975Y-112930509D01*
X155347975Y-112930509D02*
X155326088Y-112996169D01*
X155326088Y-112996169D02*
X155282315Y-113039943D01*
X155282315Y-113039943D02*
X155194769Y-113083716D01*
X155194769Y-113083716D02*
X154669489Y-113083716D01*
X154669489Y-113083716D02*
X154954016Y-113368242D01*
X118430997Y-64617857D02*
X118461950Y-64648809D01*
X118461950Y-64648809D02*
X118492902Y-64741667D01*
X118492902Y-64741667D02*
X118492902Y-64803571D01*
X118492902Y-64803571D02*
X118461950Y-64896428D01*
X118461950Y-64896428D02*
X118400045Y-64958333D01*
X118400045Y-64958333D02*
X118338140Y-64989286D01*
X118338140Y-64989286D02*
X118214330Y-65020238D01*
X118214330Y-65020238D02*
X118121473Y-65020238D01*
X118121473Y-65020238D02*
X117997664Y-64989286D01*
X117997664Y-64989286D02*
X117935759Y-64958333D01*
X117935759Y-64958333D02*
X117873854Y-64896428D01*
X117873854Y-64896428D02*
X117842902Y-64803571D01*
X117842902Y-64803571D02*
X117842902Y-64741667D01*
X117842902Y-64741667D02*
X117873854Y-64648809D01*
X117873854Y-64648809D02*
X117904807Y-64617857D01*
X118492902Y-63998809D02*
X118492902Y-64370238D01*
X118492902Y-64184524D02*
X117842902Y-64184524D01*
X117842902Y-64184524D02*
X117935759Y-64246428D01*
X117935759Y-64246428D02*
X117997664Y-64308333D01*
X117997664Y-64308333D02*
X118028616Y-64370238D01*
X118492902Y-63689285D02*
X118492902Y-63565476D01*
X118492902Y-63565476D02*
X118461950Y-63503571D01*
X118461950Y-63503571D02*
X118430997Y-63472619D01*
X118430997Y-63472619D02*
X118338140Y-63410714D01*
X118338140Y-63410714D02*
X118214330Y-63379761D01*
X118214330Y-63379761D02*
X117966711Y-63379761D01*
X117966711Y-63379761D02*
X117904807Y-63410714D01*
X117904807Y-63410714D02*
X117873854Y-63441666D01*
X117873854Y-63441666D02*
X117842902Y-63503571D01*
X117842902Y-63503571D02*
X117842902Y-63627380D01*
X117842902Y-63627380D02*
X117873854Y-63689285D01*
X117873854Y-63689285D02*
X117904807Y-63720238D01*
X117904807Y-63720238D02*
X117966711Y-63751190D01*
X117966711Y-63751190D02*
X118121473Y-63751190D01*
X118121473Y-63751190D02*
X118183378Y-63720238D01*
X118183378Y-63720238D02*
X118214330Y-63689285D01*
X118214330Y-63689285D02*
X118245283Y-63627380D01*
X118245283Y-63627380D02*
X118245283Y-63503571D01*
X118245283Y-63503571D02*
X118214330Y-63441666D01*
X118214330Y-63441666D02*
X118183378Y-63410714D01*
X118183378Y-63410714D02*
X118121473Y-63379761D01*
X116492902Y-58308333D02*
X116492902Y-58617857D01*
X116492902Y-58617857D02*
X115842902Y-58617857D01*
X115904807Y-58122619D02*
X115873854Y-58091667D01*
X115873854Y-58091667D02*
X115842902Y-58029762D01*
X115842902Y-58029762D02*
X115842902Y-57875000D01*
X115842902Y-57875000D02*
X115873854Y-57813095D01*
X115873854Y-57813095D02*
X115904807Y-57782143D01*
X115904807Y-57782143D02*
X115966711Y-57751190D01*
X115966711Y-57751190D02*
X116028616Y-57751190D01*
X116028616Y-57751190D02*
X116121473Y-57782143D01*
X116121473Y-57782143D02*
X116492902Y-58153571D01*
X116492902Y-58153571D02*
X116492902Y-57751190D01*
X169582142Y-63092902D02*
X169365475Y-62783378D01*
X169210713Y-63092902D02*
X169210713Y-62442902D01*
X169210713Y-62442902D02*
X169458332Y-62442902D01*
X169458332Y-62442902D02*
X169520237Y-62473854D01*
X169520237Y-62473854D02*
X169551190Y-62504807D01*
X169551190Y-62504807D02*
X169582142Y-62566711D01*
X169582142Y-62566711D02*
X169582142Y-62659569D01*
X169582142Y-62659569D02*
X169551190Y-62721473D01*
X169551190Y-62721473D02*
X169520237Y-62752426D01*
X169520237Y-62752426D02*
X169458332Y-62783378D01*
X169458332Y-62783378D02*
X169210713Y-62783378D01*
X170201190Y-63092902D02*
X169829761Y-63092902D01*
X170015475Y-63092902D02*
X170015475Y-62442902D01*
X170015475Y-62442902D02*
X169953571Y-62535759D01*
X169953571Y-62535759D02*
X169891666Y-62597664D01*
X169891666Y-62597664D02*
X169829761Y-62628616D01*
X170572619Y-62721473D02*
X170510714Y-62690521D01*
X170510714Y-62690521D02*
X170479761Y-62659569D01*
X170479761Y-62659569D02*
X170448809Y-62597664D01*
X170448809Y-62597664D02*
X170448809Y-62566711D01*
X170448809Y-62566711D02*
X170479761Y-62504807D01*
X170479761Y-62504807D02*
X170510714Y-62473854D01*
X170510714Y-62473854D02*
X170572619Y-62442902D01*
X170572619Y-62442902D02*
X170696428Y-62442902D01*
X170696428Y-62442902D02*
X170758333Y-62473854D01*
X170758333Y-62473854D02*
X170789285Y-62504807D01*
X170789285Y-62504807D02*
X170820238Y-62566711D01*
X170820238Y-62566711D02*
X170820238Y-62597664D01*
X170820238Y-62597664D02*
X170789285Y-62659569D01*
X170789285Y-62659569D02*
X170758333Y-62690521D01*
X170758333Y-62690521D02*
X170696428Y-62721473D01*
X170696428Y-62721473D02*
X170572619Y-62721473D01*
X170572619Y-62721473D02*
X170510714Y-62752426D01*
X170510714Y-62752426D02*
X170479761Y-62783378D01*
X170479761Y-62783378D02*
X170448809Y-62845283D01*
X170448809Y-62845283D02*
X170448809Y-62969092D01*
X170448809Y-62969092D02*
X170479761Y-63030997D01*
X170479761Y-63030997D02*
X170510714Y-63061950D01*
X170510714Y-63061950D02*
X170572619Y-63092902D01*
X170572619Y-63092902D02*
X170696428Y-63092902D01*
X170696428Y-63092902D02*
X170758333Y-63061950D01*
X170758333Y-63061950D02*
X170789285Y-63030997D01*
X170789285Y-63030997D02*
X170820238Y-62969092D01*
X170820238Y-62969092D02*
X170820238Y-62845283D01*
X170820238Y-62845283D02*
X170789285Y-62783378D01*
X170789285Y-62783378D02*
X170758333Y-62752426D01*
X170758333Y-62752426D02*
X170696428Y-62721473D01*
X165692902Y-64817857D02*
X165383378Y-65034524D01*
X165692902Y-65189286D02*
X165042902Y-65189286D01*
X165042902Y-65189286D02*
X165042902Y-64941667D01*
X165042902Y-64941667D02*
X165073854Y-64879762D01*
X165073854Y-64879762D02*
X165104807Y-64848809D01*
X165104807Y-64848809D02*
X165166711Y-64817857D01*
X165166711Y-64817857D02*
X165259569Y-64817857D01*
X165259569Y-64817857D02*
X165321473Y-64848809D01*
X165321473Y-64848809D02*
X165352426Y-64879762D01*
X165352426Y-64879762D02*
X165383378Y-64941667D01*
X165383378Y-64941667D02*
X165383378Y-65189286D01*
X165692902Y-64198809D02*
X165692902Y-64570238D01*
X165692902Y-64384524D02*
X165042902Y-64384524D01*
X165042902Y-64384524D02*
X165135759Y-64446428D01*
X165135759Y-64446428D02*
X165197664Y-64508333D01*
X165197664Y-64508333D02*
X165228616Y-64570238D01*
X165042902Y-63641666D02*
X165042902Y-63765476D01*
X165042902Y-63765476D02*
X165073854Y-63827380D01*
X165073854Y-63827380D02*
X165104807Y-63858333D01*
X165104807Y-63858333D02*
X165197664Y-63920238D01*
X165197664Y-63920238D02*
X165321473Y-63951190D01*
X165321473Y-63951190D02*
X165569092Y-63951190D01*
X165569092Y-63951190D02*
X165630997Y-63920238D01*
X165630997Y-63920238D02*
X165661950Y-63889285D01*
X165661950Y-63889285D02*
X165692902Y-63827380D01*
X165692902Y-63827380D02*
X165692902Y-63703571D01*
X165692902Y-63703571D02*
X165661950Y-63641666D01*
X165661950Y-63641666D02*
X165630997Y-63610714D01*
X165630997Y-63610714D02*
X165569092Y-63579761D01*
X165569092Y-63579761D02*
X165414330Y-63579761D01*
X165414330Y-63579761D02*
X165352426Y-63610714D01*
X165352426Y-63610714D02*
X165321473Y-63641666D01*
X165321473Y-63641666D02*
X165290521Y-63703571D01*
X165290521Y-63703571D02*
X165290521Y-63827380D01*
X165290521Y-63827380D02*
X165321473Y-63889285D01*
X165321473Y-63889285D02*
X165352426Y-63920238D01*
X165352426Y-63920238D02*
X165414330Y-63951190D01*
X157327446Y-102719347D02*
X157108580Y-102500480D01*
X157108580Y-102500480D02*
X157568199Y-102040861D01*
X157721405Y-103113306D02*
X157458766Y-102850666D01*
X157590085Y-102981986D02*
X158049705Y-102522366D01*
X158049705Y-102522366D02*
X157940272Y-102544253D01*
X157940272Y-102544253D02*
X157852725Y-102544253D01*
X157852725Y-102544253D02*
X157787065Y-102522366D01*
X123417857Y-62769002D02*
X123448809Y-62738050D01*
X123448809Y-62738050D02*
X123541667Y-62707097D01*
X123541667Y-62707097D02*
X123603571Y-62707097D01*
X123603571Y-62707097D02*
X123696428Y-62738050D01*
X123696428Y-62738050D02*
X123758333Y-62799954D01*
X123758333Y-62799954D02*
X123789286Y-62861859D01*
X123789286Y-62861859D02*
X123820238Y-62985669D01*
X123820238Y-62985669D02*
X123820238Y-63078526D01*
X123820238Y-63078526D02*
X123789286Y-63202335D01*
X123789286Y-63202335D02*
X123758333Y-63264240D01*
X123758333Y-63264240D02*
X123696428Y-63326145D01*
X123696428Y-63326145D02*
X123603571Y-63357097D01*
X123603571Y-63357097D02*
X123541667Y-63357097D01*
X123541667Y-63357097D02*
X123448809Y-63326145D01*
X123448809Y-63326145D02*
X123417857Y-63295192D01*
X122798809Y-62707097D02*
X123170238Y-62707097D01*
X122984524Y-62707097D02*
X122984524Y-63357097D01*
X122984524Y-63357097D02*
X123046428Y-63264240D01*
X123046428Y-63264240D02*
X123108333Y-63202335D01*
X123108333Y-63202335D02*
X123170238Y-63171383D01*
X122427380Y-63078526D02*
X122489285Y-63109478D01*
X122489285Y-63109478D02*
X122520238Y-63140430D01*
X122520238Y-63140430D02*
X122551190Y-63202335D01*
X122551190Y-63202335D02*
X122551190Y-63233288D01*
X122551190Y-63233288D02*
X122520238Y-63295192D01*
X122520238Y-63295192D02*
X122489285Y-63326145D01*
X122489285Y-63326145D02*
X122427380Y-63357097D01*
X122427380Y-63357097D02*
X122303571Y-63357097D01*
X122303571Y-63357097D02*
X122241666Y-63326145D01*
X122241666Y-63326145D02*
X122210714Y-63295192D01*
X122210714Y-63295192D02*
X122179761Y-63233288D01*
X122179761Y-63233288D02*
X122179761Y-63202335D01*
X122179761Y-63202335D02*
X122210714Y-63140430D01*
X122210714Y-63140430D02*
X122241666Y-63109478D01*
X122241666Y-63109478D02*
X122303571Y-63078526D01*
X122303571Y-63078526D02*
X122427380Y-63078526D01*
X122427380Y-63078526D02*
X122489285Y-63047573D01*
X122489285Y-63047573D02*
X122520238Y-63016621D01*
X122520238Y-63016621D02*
X122551190Y-62954716D01*
X122551190Y-62954716D02*
X122551190Y-62830907D01*
X122551190Y-62830907D02*
X122520238Y-62769002D01*
X122520238Y-62769002D02*
X122489285Y-62738050D01*
X122489285Y-62738050D02*
X122427380Y-62707097D01*
X122427380Y-62707097D02*
X122303571Y-62707097D01*
X122303571Y-62707097D02*
X122241666Y-62738050D01*
X122241666Y-62738050D02*
X122210714Y-62769002D01*
X122210714Y-62769002D02*
X122179761Y-62830907D01*
X122179761Y-62830907D02*
X122179761Y-62954716D01*
X122179761Y-62954716D02*
X122210714Y-63016621D01*
X122210714Y-63016621D02*
X122241666Y-63047573D01*
X122241666Y-63047573D02*
X122303571Y-63078526D01*
X128091666Y-112492902D02*
X127874999Y-112183378D01*
X127720237Y-112492902D02*
X127720237Y-111842902D01*
X127720237Y-111842902D02*
X127967856Y-111842902D01*
X127967856Y-111842902D02*
X128029761Y-111873854D01*
X128029761Y-111873854D02*
X128060714Y-111904807D01*
X128060714Y-111904807D02*
X128091666Y-111966711D01*
X128091666Y-111966711D02*
X128091666Y-112059569D01*
X128091666Y-112059569D02*
X128060714Y-112121473D01*
X128060714Y-112121473D02*
X128029761Y-112152426D01*
X128029761Y-112152426D02*
X127967856Y-112183378D01*
X127967856Y-112183378D02*
X127720237Y-112183378D01*
X128401190Y-112492902D02*
X128524999Y-112492902D01*
X128524999Y-112492902D02*
X128586904Y-112461950D01*
X128586904Y-112461950D02*
X128617856Y-112430997D01*
X128617856Y-112430997D02*
X128679761Y-112338140D01*
X128679761Y-112338140D02*
X128710714Y-112214330D01*
X128710714Y-112214330D02*
X128710714Y-111966711D01*
X128710714Y-111966711D02*
X128679761Y-111904807D01*
X128679761Y-111904807D02*
X128648809Y-111873854D01*
X128648809Y-111873854D02*
X128586904Y-111842902D01*
X128586904Y-111842902D02*
X128463095Y-111842902D01*
X128463095Y-111842902D02*
X128401190Y-111873854D01*
X128401190Y-111873854D02*
X128370237Y-111904807D01*
X128370237Y-111904807D02*
X128339285Y-111966711D01*
X128339285Y-111966711D02*
X128339285Y-112121473D01*
X128339285Y-112121473D02*
X128370237Y-112183378D01*
X128370237Y-112183378D02*
X128401190Y-112214330D01*
X128401190Y-112214330D02*
X128463095Y-112245283D01*
X128463095Y-112245283D02*
X128586904Y-112245283D01*
X128586904Y-112245283D02*
X128648809Y-112214330D01*
X128648809Y-112214330D02*
X128679761Y-112183378D01*
X128679761Y-112183378D02*
X128710714Y-112121473D01*
X162092902Y-51417857D02*
X161783378Y-51634524D01*
X162092902Y-51789286D02*
X161442902Y-51789286D01*
X161442902Y-51789286D02*
X161442902Y-51541667D01*
X161442902Y-51541667D02*
X161473854Y-51479762D01*
X161473854Y-51479762D02*
X161504807Y-51448809D01*
X161504807Y-51448809D02*
X161566711Y-51417857D01*
X161566711Y-51417857D02*
X161659569Y-51417857D01*
X161659569Y-51417857D02*
X161721473Y-51448809D01*
X161721473Y-51448809D02*
X161752426Y-51479762D01*
X161752426Y-51479762D02*
X161783378Y-51541667D01*
X161783378Y-51541667D02*
X161783378Y-51789286D01*
X162092902Y-50798809D02*
X162092902Y-51170238D01*
X162092902Y-50984524D02*
X161442902Y-50984524D01*
X161442902Y-50984524D02*
X161535759Y-51046428D01*
X161535759Y-51046428D02*
X161597664Y-51108333D01*
X161597664Y-51108333D02*
X161628616Y-51170238D01*
X161442902Y-50582142D02*
X161442902Y-50179761D01*
X161442902Y-50179761D02*
X161690521Y-50396428D01*
X161690521Y-50396428D02*
X161690521Y-50303571D01*
X161690521Y-50303571D02*
X161721473Y-50241666D01*
X161721473Y-50241666D02*
X161752426Y-50210714D01*
X161752426Y-50210714D02*
X161814330Y-50179761D01*
X161814330Y-50179761D02*
X161969092Y-50179761D01*
X161969092Y-50179761D02*
X162030997Y-50210714D01*
X162030997Y-50210714D02*
X162061950Y-50241666D01*
X162061950Y-50241666D02*
X162092902Y-50303571D01*
X162092902Y-50303571D02*
X162092902Y-50489285D01*
X162092902Y-50489285D02*
X162061950Y-50551190D01*
X162061950Y-50551190D02*
X162030997Y-50582142D01*
X166138095Y-49754807D02*
X166076190Y-49723854D01*
X166076190Y-49723854D02*
X166014285Y-49661950D01*
X166014285Y-49661950D02*
X165921428Y-49569092D01*
X165921428Y-49569092D02*
X165859523Y-49538140D01*
X165859523Y-49538140D02*
X165797619Y-49538140D01*
X165828571Y-49692902D02*
X165766666Y-49661950D01*
X165766666Y-49661950D02*
X165704761Y-49600045D01*
X165704761Y-49600045D02*
X165673809Y-49476235D01*
X165673809Y-49476235D02*
X165673809Y-49259569D01*
X165673809Y-49259569D02*
X165704761Y-49135759D01*
X165704761Y-49135759D02*
X165766666Y-49073854D01*
X165766666Y-49073854D02*
X165828571Y-49042902D01*
X165828571Y-49042902D02*
X165952380Y-49042902D01*
X165952380Y-49042902D02*
X166014285Y-49073854D01*
X166014285Y-49073854D02*
X166076190Y-49135759D01*
X166076190Y-49135759D02*
X166107142Y-49259569D01*
X166107142Y-49259569D02*
X166107142Y-49476235D01*
X166107142Y-49476235D02*
X166076190Y-49600045D01*
X166076190Y-49600045D02*
X166014285Y-49661950D01*
X166014285Y-49661950D02*
X165952380Y-49692902D01*
X165952380Y-49692902D02*
X165828571Y-49692902D01*
X166726190Y-49692902D02*
X166354761Y-49692902D01*
X166540475Y-49692902D02*
X166540475Y-49042902D01*
X166540475Y-49042902D02*
X166478571Y-49135759D01*
X166478571Y-49135759D02*
X166416666Y-49197664D01*
X166416666Y-49197664D02*
X166354761Y-49228616D01*
X125320237Y-67892902D02*
X125320237Y-67242902D01*
X125320237Y-67242902D02*
X125474999Y-67242902D01*
X125474999Y-67242902D02*
X125567856Y-67273854D01*
X125567856Y-67273854D02*
X125629761Y-67335759D01*
X125629761Y-67335759D02*
X125660714Y-67397664D01*
X125660714Y-67397664D02*
X125691666Y-67521473D01*
X125691666Y-67521473D02*
X125691666Y-67614330D01*
X125691666Y-67614330D02*
X125660714Y-67738140D01*
X125660714Y-67738140D02*
X125629761Y-67800045D01*
X125629761Y-67800045D02*
X125567856Y-67861950D01*
X125567856Y-67861950D02*
X125474999Y-67892902D01*
X125474999Y-67892902D02*
X125320237Y-67892902D01*
X125908333Y-67242902D02*
X126310714Y-67242902D01*
X126310714Y-67242902D02*
X126094047Y-67490521D01*
X126094047Y-67490521D02*
X126186904Y-67490521D01*
X126186904Y-67490521D02*
X126248809Y-67521473D01*
X126248809Y-67521473D02*
X126279761Y-67552426D01*
X126279761Y-67552426D02*
X126310714Y-67614330D01*
X126310714Y-67614330D02*
X126310714Y-67769092D01*
X126310714Y-67769092D02*
X126279761Y-67830997D01*
X126279761Y-67830997D02*
X126248809Y-67861950D01*
X126248809Y-67861950D02*
X126186904Y-67892902D01*
X126186904Y-67892902D02*
X126001190Y-67892902D01*
X126001190Y-67892902D02*
X125939285Y-67861950D01*
X125939285Y-67861950D02*
X125908333Y-67830997D01*
X127692902Y-52617857D02*
X127383378Y-52834524D01*
X127692902Y-52989286D02*
X127042902Y-52989286D01*
X127042902Y-52989286D02*
X127042902Y-52741667D01*
X127042902Y-52741667D02*
X127073854Y-52679762D01*
X127073854Y-52679762D02*
X127104807Y-52648809D01*
X127104807Y-52648809D02*
X127166711Y-52617857D01*
X127166711Y-52617857D02*
X127259569Y-52617857D01*
X127259569Y-52617857D02*
X127321473Y-52648809D01*
X127321473Y-52648809D02*
X127352426Y-52679762D01*
X127352426Y-52679762D02*
X127383378Y-52741667D01*
X127383378Y-52741667D02*
X127383378Y-52989286D01*
X127104807Y-52370238D02*
X127073854Y-52339286D01*
X127073854Y-52339286D02*
X127042902Y-52277381D01*
X127042902Y-52277381D02*
X127042902Y-52122619D01*
X127042902Y-52122619D02*
X127073854Y-52060714D01*
X127073854Y-52060714D02*
X127104807Y-52029762D01*
X127104807Y-52029762D02*
X127166711Y-51998809D01*
X127166711Y-51998809D02*
X127228616Y-51998809D01*
X127228616Y-51998809D02*
X127321473Y-52029762D01*
X127321473Y-52029762D02*
X127692902Y-52401190D01*
X127692902Y-52401190D02*
X127692902Y-51998809D01*
X127692902Y-51379761D02*
X127692902Y-51751190D01*
X127692902Y-51565476D02*
X127042902Y-51565476D01*
X127042902Y-51565476D02*
X127135759Y-51627380D01*
X127135759Y-51627380D02*
X127197664Y-51689285D01*
X127197664Y-51689285D02*
X127228616Y-51751190D01*
X149760056Y-108886736D02*
X149716283Y-108886736D01*
X149716283Y-108886736D02*
X149628736Y-108842963D01*
X149628736Y-108842963D02*
X149584963Y-108799190D01*
X149584963Y-108799190D02*
X149541190Y-108711643D01*
X149541190Y-108711643D02*
X149541190Y-108624096D01*
X149541190Y-108624096D02*
X149563076Y-108558437D01*
X149563076Y-108558437D02*
X149628736Y-108449003D01*
X149628736Y-108449003D02*
X149694396Y-108383343D01*
X149694396Y-108383343D02*
X149803829Y-108317684D01*
X149803829Y-108317684D02*
X149869489Y-108295797D01*
X149869489Y-108295797D02*
X149957036Y-108295797D01*
X149957036Y-108295797D02*
X150044582Y-108339570D01*
X150044582Y-108339570D02*
X150088356Y-108383343D01*
X150088356Y-108383343D02*
X150132129Y-108470890D01*
X150132129Y-108470890D02*
X150132129Y-108514663D01*
X150329109Y-108624096D02*
X150635522Y-108930509D01*
X150635522Y-108930509D02*
X149978923Y-109193149D01*
X127292902Y-84217857D02*
X126983378Y-84434524D01*
X127292902Y-84589286D02*
X126642902Y-84589286D01*
X126642902Y-84589286D02*
X126642902Y-84341667D01*
X126642902Y-84341667D02*
X126673854Y-84279762D01*
X126673854Y-84279762D02*
X126704807Y-84248809D01*
X126704807Y-84248809D02*
X126766711Y-84217857D01*
X126766711Y-84217857D02*
X126859569Y-84217857D01*
X126859569Y-84217857D02*
X126921473Y-84248809D01*
X126921473Y-84248809D02*
X126952426Y-84279762D01*
X126952426Y-84279762D02*
X126983378Y-84341667D01*
X126983378Y-84341667D02*
X126983378Y-84589286D01*
X126704807Y-83970238D02*
X126673854Y-83939286D01*
X126673854Y-83939286D02*
X126642902Y-83877381D01*
X126642902Y-83877381D02*
X126642902Y-83722619D01*
X126642902Y-83722619D02*
X126673854Y-83660714D01*
X126673854Y-83660714D02*
X126704807Y-83629762D01*
X126704807Y-83629762D02*
X126766711Y-83598809D01*
X126766711Y-83598809D02*
X126828616Y-83598809D01*
X126828616Y-83598809D02*
X126921473Y-83629762D01*
X126921473Y-83629762D02*
X127292902Y-84001190D01*
X127292902Y-84001190D02*
X127292902Y-83598809D01*
X126704807Y-83351190D02*
X126673854Y-83320238D01*
X126673854Y-83320238D02*
X126642902Y-83258333D01*
X126642902Y-83258333D02*
X126642902Y-83103571D01*
X126642902Y-83103571D02*
X126673854Y-83041666D01*
X126673854Y-83041666D02*
X126704807Y-83010714D01*
X126704807Y-83010714D02*
X126766711Y-82979761D01*
X126766711Y-82979761D02*
X126828616Y-82979761D01*
X126828616Y-82979761D02*
X126921473Y-83010714D01*
X126921473Y-83010714D02*
X127292902Y-83382142D01*
X127292902Y-83382142D02*
X127292902Y-82979761D01*
X130516283Y-107330509D02*
X130581943Y-106958437D01*
X130253643Y-107067870D02*
X130713263Y-106608250D01*
X130713263Y-106608250D02*
X130888356Y-106783343D01*
X130888356Y-106783343D02*
X130910242Y-106849003D01*
X130910242Y-106849003D02*
X130910242Y-106892777D01*
X130910242Y-106892777D02*
X130888356Y-106958437D01*
X130888356Y-106958437D02*
X130822696Y-107024096D01*
X130822696Y-107024096D02*
X130757036Y-107045983D01*
X130757036Y-107045983D02*
X130713263Y-107045983D01*
X130713263Y-107045983D02*
X130647603Y-107024096D01*
X130647603Y-107024096D02*
X130472510Y-106849003D01*
X130954016Y-107768242D02*
X130691376Y-107505602D01*
X130822696Y-107636922D02*
X131282315Y-107177303D01*
X131282315Y-107177303D02*
X131172882Y-107199190D01*
X131172882Y-107199190D02*
X131085335Y-107199190D01*
X131085335Y-107199190D02*
X131019676Y-107177303D01*
X135453643Y-106467870D02*
X135913263Y-106008250D01*
X135913263Y-106008250D02*
X136022696Y-106117684D01*
X136022696Y-106117684D02*
X136066469Y-106205230D01*
X136066469Y-106205230D02*
X136066469Y-106292777D01*
X136066469Y-106292777D02*
X136044582Y-106358437D01*
X136044582Y-106358437D02*
X135978923Y-106467870D01*
X135978923Y-106467870D02*
X135913263Y-106533530D01*
X135913263Y-106533530D02*
X135803829Y-106599190D01*
X135803829Y-106599190D02*
X135738170Y-106621076D01*
X135738170Y-106621076D02*
X135650623Y-106621076D01*
X135650623Y-106621076D02*
X135563076Y-106577303D01*
X135563076Y-106577303D02*
X135453643Y-106467870D01*
X136154016Y-107168242D02*
X135891376Y-106905602D01*
X136022696Y-107036922D02*
X136482315Y-106577303D01*
X136482315Y-106577303D02*
X136372882Y-106599190D01*
X136372882Y-106599190D02*
X136285335Y-106599190D01*
X136285335Y-106599190D02*
X136219676Y-106577303D01*
X146292902Y-116708333D02*
X145983378Y-116925000D01*
X146292902Y-117079762D02*
X145642902Y-117079762D01*
X145642902Y-117079762D02*
X145642902Y-116832143D01*
X145642902Y-116832143D02*
X145673854Y-116770238D01*
X145673854Y-116770238D02*
X145704807Y-116739285D01*
X145704807Y-116739285D02*
X145766711Y-116708333D01*
X145766711Y-116708333D02*
X145859569Y-116708333D01*
X145859569Y-116708333D02*
X145921473Y-116739285D01*
X145921473Y-116739285D02*
X145952426Y-116770238D01*
X145952426Y-116770238D02*
X145983378Y-116832143D01*
X145983378Y-116832143D02*
X145983378Y-117079762D01*
X145642902Y-116151190D02*
X145642902Y-116275000D01*
X145642902Y-116275000D02*
X145673854Y-116336904D01*
X145673854Y-116336904D02*
X145704807Y-116367857D01*
X145704807Y-116367857D02*
X145797664Y-116429762D01*
X145797664Y-116429762D02*
X145921473Y-116460714D01*
X145921473Y-116460714D02*
X146169092Y-116460714D01*
X146169092Y-116460714D02*
X146230997Y-116429762D01*
X146230997Y-116429762D02*
X146261950Y-116398809D01*
X146261950Y-116398809D02*
X146292902Y-116336904D01*
X146292902Y-116336904D02*
X146292902Y-116213095D01*
X146292902Y-116213095D02*
X146261950Y-116151190D01*
X146261950Y-116151190D02*
X146230997Y-116120238D01*
X146230997Y-116120238D02*
X146169092Y-116089285D01*
X146169092Y-116089285D02*
X146014330Y-116089285D01*
X146014330Y-116089285D02*
X145952426Y-116120238D01*
X145952426Y-116120238D02*
X145921473Y-116151190D01*
X145921473Y-116151190D02*
X145890521Y-116213095D01*
X145890521Y-116213095D02*
X145890521Y-116336904D01*
X145890521Y-116336904D02*
X145921473Y-116398809D01*
X145921473Y-116398809D02*
X145952426Y-116429762D01*
X145952426Y-116429762D02*
X146014330Y-116460714D01*
X157067870Y-106458809D02*
X157067870Y-106502583D01*
X157067870Y-106502583D02*
X157024096Y-106590129D01*
X157024096Y-106590129D02*
X156980323Y-106633902D01*
X156980323Y-106633902D02*
X156892776Y-106677676D01*
X156892776Y-106677676D02*
X156805230Y-106677676D01*
X156805230Y-106677676D02*
X156739570Y-106655789D01*
X156739570Y-106655789D02*
X156630137Y-106590129D01*
X156630137Y-106590129D02*
X156564477Y-106524469D01*
X156564477Y-106524469D02*
X156498817Y-106415036D01*
X156498817Y-106415036D02*
X156476930Y-106349376D01*
X156476930Y-106349376D02*
X156476930Y-106261830D01*
X156476930Y-106261830D02*
X156520704Y-106174283D01*
X156520704Y-106174283D02*
X156564477Y-106130510D01*
X156564477Y-106130510D02*
X156652023Y-106086737D01*
X156652023Y-106086737D02*
X156695797Y-106086737D01*
X157549376Y-106064850D02*
X157286736Y-106327490D01*
X157418056Y-106196170D02*
X156958436Y-105736550D01*
X156958436Y-105736550D02*
X156980323Y-105845983D01*
X156980323Y-105845983D02*
X156980323Y-105933530D01*
X156980323Y-105933530D02*
X156958436Y-105999190D01*
X157242963Y-105452024D02*
X157549376Y-105145611D01*
X157549376Y-105145611D02*
X157812016Y-105802210D01*
X149200400Y-114686736D02*
X149156627Y-114686736D01*
X149156627Y-114686736D02*
X149069080Y-114642963D01*
X149069080Y-114642963D02*
X149025307Y-114599190D01*
X149025307Y-114599190D02*
X148981534Y-114511643D01*
X148981534Y-114511643D02*
X148981534Y-114424096D01*
X148981534Y-114424096D02*
X149003420Y-114358437D01*
X149003420Y-114358437D02*
X149069080Y-114249003D01*
X149069080Y-114249003D02*
X149134740Y-114183343D01*
X149134740Y-114183343D02*
X149244173Y-114117684D01*
X149244173Y-114117684D02*
X149309833Y-114095797D01*
X149309833Y-114095797D02*
X149397380Y-114095797D01*
X149397380Y-114095797D02*
X149484926Y-114139570D01*
X149484926Y-114139570D02*
X149528700Y-114183343D01*
X149528700Y-114183343D02*
X149572473Y-114270890D01*
X149572473Y-114270890D02*
X149572473Y-114314663D01*
X149375493Y-114949376D02*
X149463040Y-115036922D01*
X149463040Y-115036922D02*
X149528700Y-115058809D01*
X149528700Y-115058809D02*
X149572473Y-115058809D01*
X149572473Y-115058809D02*
X149681906Y-115036922D01*
X149681906Y-115036922D02*
X149791339Y-114971262D01*
X149791339Y-114971262D02*
X149966432Y-114796169D01*
X149966432Y-114796169D02*
X149988319Y-114730509D01*
X149988319Y-114730509D02*
X149988319Y-114686736D01*
X149988319Y-114686736D02*
X149966432Y-114621076D01*
X149966432Y-114621076D02*
X149878886Y-114533530D01*
X149878886Y-114533530D02*
X149813226Y-114511643D01*
X149813226Y-114511643D02*
X149769453Y-114511643D01*
X149769453Y-114511643D02*
X149703793Y-114533530D01*
X149703793Y-114533530D02*
X149594360Y-114642963D01*
X149594360Y-114642963D02*
X149572473Y-114708623D01*
X149572473Y-114708623D02*
X149572473Y-114752396D01*
X149572473Y-114752396D02*
X149594360Y-114818056D01*
X149594360Y-114818056D02*
X149681906Y-114905602D01*
X149681906Y-114905602D02*
X149747566Y-114927489D01*
X149747566Y-114927489D02*
X149791339Y-114927489D01*
X149791339Y-114927489D02*
X149856999Y-114905602D01*
X140139812Y-112506980D02*
X140096039Y-112506980D01*
X140096039Y-112506980D02*
X140008492Y-112463207D01*
X140008492Y-112463207D02*
X139964719Y-112419434D01*
X139964719Y-112419434D02*
X139920946Y-112331887D01*
X139920946Y-112331887D02*
X139920946Y-112244340D01*
X139920946Y-112244340D02*
X139942832Y-112178681D01*
X139942832Y-112178681D02*
X140008492Y-112069247D01*
X140008492Y-112069247D02*
X140074152Y-112003587D01*
X140074152Y-112003587D02*
X140183585Y-111937928D01*
X140183585Y-111937928D02*
X140249245Y-111916041D01*
X140249245Y-111916041D02*
X140336792Y-111916041D01*
X140336792Y-111916041D02*
X140424338Y-111959814D01*
X140424338Y-111959814D02*
X140468112Y-112003587D01*
X140468112Y-112003587D02*
X140511885Y-112091134D01*
X140511885Y-112091134D02*
X140511885Y-112134907D01*
X140533772Y-112988486D02*
X140271132Y-112725846D01*
X140402452Y-112857166D02*
X140862071Y-112397547D01*
X140862071Y-112397547D02*
X140752638Y-112419434D01*
X140752638Y-112419434D02*
X140665091Y-112419434D01*
X140665091Y-112419434D02*
X140599432Y-112397547D01*
X133316283Y-104530509D02*
X133381943Y-104158437D01*
X133053643Y-104267870D02*
X133513263Y-103808250D01*
X133513263Y-103808250D02*
X133688356Y-103983343D01*
X133688356Y-103983343D02*
X133710242Y-104049003D01*
X133710242Y-104049003D02*
X133710242Y-104092777D01*
X133710242Y-104092777D02*
X133688356Y-104158437D01*
X133688356Y-104158437D02*
X133622696Y-104224096D01*
X133622696Y-104224096D02*
X133557036Y-104245983D01*
X133557036Y-104245983D02*
X133513263Y-104245983D01*
X133513263Y-104245983D02*
X133447603Y-104224096D01*
X133447603Y-104224096D02*
X133272510Y-104049003D01*
X134016655Y-104618056D02*
X133710242Y-104924469D01*
X134082315Y-104333530D02*
X133644582Y-104552396D01*
X133644582Y-104552396D02*
X133929109Y-104836922D01*
X123782142Y-71292902D02*
X123565475Y-70983378D01*
X123410713Y-71292902D02*
X123410713Y-70642902D01*
X123410713Y-70642902D02*
X123658332Y-70642902D01*
X123658332Y-70642902D02*
X123720237Y-70673854D01*
X123720237Y-70673854D02*
X123751190Y-70704807D01*
X123751190Y-70704807D02*
X123782142Y-70766711D01*
X123782142Y-70766711D02*
X123782142Y-70859569D01*
X123782142Y-70859569D02*
X123751190Y-70921473D01*
X123751190Y-70921473D02*
X123720237Y-70952426D01*
X123720237Y-70952426D02*
X123658332Y-70983378D01*
X123658332Y-70983378D02*
X123410713Y-70983378D01*
X124401190Y-71292902D02*
X124029761Y-71292902D01*
X124215475Y-71292902D02*
X124215475Y-70642902D01*
X124215475Y-70642902D02*
X124153571Y-70735759D01*
X124153571Y-70735759D02*
X124091666Y-70797664D01*
X124091666Y-70797664D02*
X124029761Y-70828616D01*
X124710714Y-71292902D02*
X124834523Y-71292902D01*
X124834523Y-71292902D02*
X124896428Y-71261950D01*
X124896428Y-71261950D02*
X124927380Y-71230997D01*
X124927380Y-71230997D02*
X124989285Y-71138140D01*
X124989285Y-71138140D02*
X125020238Y-71014330D01*
X125020238Y-71014330D02*
X125020238Y-70766711D01*
X125020238Y-70766711D02*
X124989285Y-70704807D01*
X124989285Y-70704807D02*
X124958333Y-70673854D01*
X124958333Y-70673854D02*
X124896428Y-70642902D01*
X124896428Y-70642902D02*
X124772619Y-70642902D01*
X124772619Y-70642902D02*
X124710714Y-70673854D01*
X124710714Y-70673854D02*
X124679761Y-70704807D01*
X124679761Y-70704807D02*
X124648809Y-70766711D01*
X124648809Y-70766711D02*
X124648809Y-70921473D01*
X124648809Y-70921473D02*
X124679761Y-70983378D01*
X124679761Y-70983378D02*
X124710714Y-71014330D01*
X124710714Y-71014330D02*
X124772619Y-71045283D01*
X124772619Y-71045283D02*
X124896428Y-71045283D01*
X124896428Y-71045283D02*
X124958333Y-71014330D01*
X124958333Y-71014330D02*
X124989285Y-70983378D01*
X124989285Y-70983378D02*
X125020238Y-70921473D01*
X170382142Y-95692902D02*
X170165475Y-95383378D01*
X170010713Y-95692902D02*
X170010713Y-95042902D01*
X170010713Y-95042902D02*
X170258332Y-95042902D01*
X170258332Y-95042902D02*
X170320237Y-95073854D01*
X170320237Y-95073854D02*
X170351190Y-95104807D01*
X170351190Y-95104807D02*
X170382142Y-95166711D01*
X170382142Y-95166711D02*
X170382142Y-95259569D01*
X170382142Y-95259569D02*
X170351190Y-95321473D01*
X170351190Y-95321473D02*
X170320237Y-95352426D01*
X170320237Y-95352426D02*
X170258332Y-95383378D01*
X170258332Y-95383378D02*
X170010713Y-95383378D01*
X170629761Y-95104807D02*
X170660713Y-95073854D01*
X170660713Y-95073854D02*
X170722618Y-95042902D01*
X170722618Y-95042902D02*
X170877380Y-95042902D01*
X170877380Y-95042902D02*
X170939285Y-95073854D01*
X170939285Y-95073854D02*
X170970237Y-95104807D01*
X170970237Y-95104807D02*
X171001190Y-95166711D01*
X171001190Y-95166711D02*
X171001190Y-95228616D01*
X171001190Y-95228616D02*
X170970237Y-95321473D01*
X170970237Y-95321473D02*
X170598809Y-95692902D01*
X170598809Y-95692902D02*
X171001190Y-95692902D01*
X171217857Y-95042902D02*
X171651190Y-95042902D01*
X171651190Y-95042902D02*
X171372619Y-95692902D01*
X118782142Y-48630997D02*
X118751190Y-48661950D01*
X118751190Y-48661950D02*
X118658332Y-48692902D01*
X118658332Y-48692902D02*
X118596428Y-48692902D01*
X118596428Y-48692902D02*
X118503571Y-48661950D01*
X118503571Y-48661950D02*
X118441666Y-48600045D01*
X118441666Y-48600045D02*
X118410713Y-48538140D01*
X118410713Y-48538140D02*
X118379761Y-48414330D01*
X118379761Y-48414330D02*
X118379761Y-48321473D01*
X118379761Y-48321473D02*
X118410713Y-48197664D01*
X118410713Y-48197664D02*
X118441666Y-48135759D01*
X118441666Y-48135759D02*
X118503571Y-48073854D01*
X118503571Y-48073854D02*
X118596428Y-48042902D01*
X118596428Y-48042902D02*
X118658332Y-48042902D01*
X118658332Y-48042902D02*
X118751190Y-48073854D01*
X118751190Y-48073854D02*
X118782142Y-48104807D01*
X119029761Y-48104807D02*
X119060713Y-48073854D01*
X119060713Y-48073854D02*
X119122618Y-48042902D01*
X119122618Y-48042902D02*
X119277380Y-48042902D01*
X119277380Y-48042902D02*
X119339285Y-48073854D01*
X119339285Y-48073854D02*
X119370237Y-48104807D01*
X119370237Y-48104807D02*
X119401190Y-48166711D01*
X119401190Y-48166711D02*
X119401190Y-48228616D01*
X119401190Y-48228616D02*
X119370237Y-48321473D01*
X119370237Y-48321473D02*
X118998809Y-48692902D01*
X118998809Y-48692902D02*
X119401190Y-48692902D01*
X119648809Y-48104807D02*
X119679761Y-48073854D01*
X119679761Y-48073854D02*
X119741666Y-48042902D01*
X119741666Y-48042902D02*
X119896428Y-48042902D01*
X119896428Y-48042902D02*
X119958333Y-48073854D01*
X119958333Y-48073854D02*
X119989285Y-48104807D01*
X119989285Y-48104807D02*
X120020238Y-48166711D01*
X120020238Y-48166711D02*
X120020238Y-48228616D01*
X120020238Y-48228616D02*
X119989285Y-48321473D01*
X119989285Y-48321473D02*
X119617857Y-48692902D01*
X119617857Y-48692902D02*
X120020238Y-48692902D01*
X132047573Y-79520238D02*
X132047573Y-79303571D01*
X131707097Y-79303571D02*
X132357097Y-79303571D01*
X132357097Y-79303571D02*
X132357097Y-79613095D01*
X131707097Y-80170238D02*
X131707097Y-79860714D01*
X131707097Y-79860714D02*
X132357097Y-79860714D01*
X131707097Y-80727381D02*
X131707097Y-80355952D01*
X131707097Y-80541666D02*
X132357097Y-80541666D01*
X132357097Y-80541666D02*
X132264240Y-80479762D01*
X132264240Y-80479762D02*
X132202335Y-80417857D01*
X132202335Y-80417857D02*
X132171383Y-80355952D01*
X157141190Y-108467870D02*
X157097416Y-108467870D01*
X157097416Y-108467870D02*
X157009870Y-108424096D01*
X157009870Y-108424096D02*
X156966097Y-108380323D01*
X156966097Y-108380323D02*
X156922323Y-108292776D01*
X156922323Y-108292776D02*
X156922323Y-108205230D01*
X156922323Y-108205230D02*
X156944210Y-108139570D01*
X156944210Y-108139570D02*
X157009870Y-108030137D01*
X157009870Y-108030137D02*
X157075530Y-107964477D01*
X157075530Y-107964477D02*
X157184963Y-107898817D01*
X157184963Y-107898817D02*
X157250623Y-107876930D01*
X157250623Y-107876930D02*
X157338169Y-107876930D01*
X157338169Y-107876930D02*
X157425716Y-107920704D01*
X157425716Y-107920704D02*
X157469489Y-107964477D01*
X157469489Y-107964477D02*
X157513262Y-108052023D01*
X157513262Y-108052023D02*
X157513262Y-108095797D01*
X157535149Y-108949376D02*
X157272509Y-108686736D01*
X157403829Y-108818056D02*
X157863449Y-108358436D01*
X157863449Y-108358436D02*
X157754016Y-108380323D01*
X157754016Y-108380323D02*
X157666469Y-108380323D01*
X157666469Y-108380323D02*
X157600809Y-108358436D01*
X157972882Y-109387109D02*
X157710242Y-109124469D01*
X157841562Y-109255789D02*
X158301182Y-108796169D01*
X158301182Y-108796169D02*
X158191749Y-108818056D01*
X158191749Y-108818056D02*
X158104202Y-108818056D01*
X158104202Y-108818056D02*
X158038542Y-108796169D01*
X145486736Y-88039944D02*
X145486736Y-88083717D01*
X145486736Y-88083717D02*
X145442963Y-88171264D01*
X145442963Y-88171264D02*
X145399190Y-88215037D01*
X145399190Y-88215037D02*
X145311643Y-88258810D01*
X145311643Y-88258810D02*
X145224096Y-88258810D01*
X145224096Y-88258810D02*
X145158437Y-88236924D01*
X145158437Y-88236924D02*
X145049003Y-88171264D01*
X145049003Y-88171264D02*
X144983343Y-88105604D01*
X144983343Y-88105604D02*
X144917684Y-87996171D01*
X144917684Y-87996171D02*
X144895797Y-87930511D01*
X144895797Y-87930511D02*
X144895797Y-87842964D01*
X144895797Y-87842964D02*
X144939570Y-87755418D01*
X144939570Y-87755418D02*
X144983343Y-87711644D01*
X144983343Y-87711644D02*
X145070890Y-87667871D01*
X145070890Y-87667871D02*
X145114663Y-87667871D01*
X145486736Y-87208252D02*
X145267870Y-87427118D01*
X145267870Y-87427118D02*
X145464849Y-87667871D01*
X145464849Y-87667871D02*
X145464849Y-87624098D01*
X145464849Y-87624098D02*
X145486736Y-87558438D01*
X145486736Y-87558438D02*
X145596169Y-87449005D01*
X145596169Y-87449005D02*
X145661829Y-87427118D01*
X145661829Y-87427118D02*
X145705602Y-87427118D01*
X145705602Y-87427118D02*
X145771262Y-87449005D01*
X145771262Y-87449005D02*
X145880696Y-87558438D01*
X145880696Y-87558438D02*
X145902582Y-87624098D01*
X145902582Y-87624098D02*
X145902582Y-87667871D01*
X145902582Y-87667871D02*
X145880696Y-87733531D01*
X145880696Y-87733531D02*
X145771262Y-87842964D01*
X145771262Y-87842964D02*
X145705602Y-87864851D01*
X145705602Y-87864851D02*
X145661829Y-87864851D01*
X144783333Y-36042902D02*
X144783333Y-36507188D01*
X144783333Y-36507188D02*
X144752380Y-36600045D01*
X144752380Y-36600045D02*
X144690476Y-36661950D01*
X144690476Y-36661950D02*
X144597618Y-36692902D01*
X144597618Y-36692902D02*
X144535714Y-36692902D01*
X145123809Y-36692902D02*
X145247618Y-36692902D01*
X145247618Y-36692902D02*
X145309523Y-36661950D01*
X145309523Y-36661950D02*
X145340475Y-36630997D01*
X145340475Y-36630997D02*
X145402380Y-36538140D01*
X145402380Y-36538140D02*
X145433333Y-36414330D01*
X145433333Y-36414330D02*
X145433333Y-36166711D01*
X145433333Y-36166711D02*
X145402380Y-36104807D01*
X145402380Y-36104807D02*
X145371428Y-36073854D01*
X145371428Y-36073854D02*
X145309523Y-36042902D01*
X145309523Y-36042902D02*
X145185714Y-36042902D01*
X145185714Y-36042902D02*
X145123809Y-36073854D01*
X145123809Y-36073854D02*
X145092856Y-36104807D01*
X145092856Y-36104807D02*
X145061904Y-36166711D01*
X145061904Y-36166711D02*
X145061904Y-36321473D01*
X145061904Y-36321473D02*
X145092856Y-36383378D01*
X145092856Y-36383378D02*
X145123809Y-36414330D01*
X145123809Y-36414330D02*
X145185714Y-36445283D01*
X145185714Y-36445283D02*
X145309523Y-36445283D01*
X145309523Y-36445283D02*
X145371428Y-36414330D01*
X145371428Y-36414330D02*
X145402380Y-36383378D01*
X145402380Y-36383378D02*
X145433333Y-36321473D01*
X128080998Y-64617857D02*
X128111951Y-64648809D01*
X128111951Y-64648809D02*
X128142903Y-64741667D01*
X128142903Y-64741667D02*
X128142903Y-64803571D01*
X128142903Y-64803571D02*
X128111951Y-64896428D01*
X128111951Y-64896428D02*
X128050046Y-64958333D01*
X128050046Y-64958333D02*
X127988141Y-64989286D01*
X127988141Y-64989286D02*
X127864331Y-65020238D01*
X127864331Y-65020238D02*
X127771474Y-65020238D01*
X127771474Y-65020238D02*
X127647665Y-64989286D01*
X127647665Y-64989286D02*
X127585760Y-64958333D01*
X127585760Y-64958333D02*
X127523855Y-64896428D01*
X127523855Y-64896428D02*
X127492903Y-64803571D01*
X127492903Y-64803571D02*
X127492903Y-64741667D01*
X127492903Y-64741667D02*
X127523855Y-64648809D01*
X127523855Y-64648809D02*
X127554808Y-64617857D01*
X127554808Y-64370238D02*
X127523855Y-64339286D01*
X127523855Y-64339286D02*
X127492903Y-64277381D01*
X127492903Y-64277381D02*
X127492903Y-64122619D01*
X127492903Y-64122619D02*
X127523855Y-64060714D01*
X127523855Y-64060714D02*
X127554808Y-64029762D01*
X127554808Y-64029762D02*
X127616712Y-63998809D01*
X127616712Y-63998809D02*
X127678617Y-63998809D01*
X127678617Y-63998809D02*
X127771474Y-64029762D01*
X127771474Y-64029762D02*
X128142903Y-64401190D01*
X128142903Y-64401190D02*
X128142903Y-63998809D01*
X127492903Y-63596428D02*
X127492903Y-63534523D01*
X127492903Y-63534523D02*
X127523855Y-63472619D01*
X127523855Y-63472619D02*
X127554808Y-63441666D01*
X127554808Y-63441666D02*
X127616712Y-63410714D01*
X127616712Y-63410714D02*
X127740522Y-63379761D01*
X127740522Y-63379761D02*
X127895284Y-63379761D01*
X127895284Y-63379761D02*
X128019093Y-63410714D01*
X128019093Y-63410714D02*
X128080998Y-63441666D01*
X128080998Y-63441666D02*
X128111951Y-63472619D01*
X128111951Y-63472619D02*
X128142903Y-63534523D01*
X128142903Y-63534523D02*
X128142903Y-63596428D01*
X128142903Y-63596428D02*
X128111951Y-63658333D01*
X128111951Y-63658333D02*
X128080998Y-63689285D01*
X128080998Y-63689285D02*
X128019093Y-63720238D01*
X128019093Y-63720238D02*
X127895284Y-63751190D01*
X127895284Y-63751190D02*
X127740522Y-63751190D01*
X127740522Y-63751190D02*
X127616712Y-63720238D01*
X127616712Y-63720238D02*
X127554808Y-63689285D01*
X127554808Y-63689285D02*
X127523855Y-63658333D01*
X127523855Y-63658333D02*
X127492903Y-63596428D01*
X147760056Y-113286736D02*
X147716283Y-113286736D01*
X147716283Y-113286736D02*
X147628736Y-113242963D01*
X147628736Y-113242963D02*
X147584963Y-113199190D01*
X147584963Y-113199190D02*
X147541190Y-113111643D01*
X147541190Y-113111643D02*
X147541190Y-113024096D01*
X147541190Y-113024096D02*
X147563076Y-112958437D01*
X147563076Y-112958437D02*
X147628736Y-112849003D01*
X147628736Y-112849003D02*
X147694396Y-112783343D01*
X147694396Y-112783343D02*
X147803829Y-112717684D01*
X147803829Y-112717684D02*
X147869489Y-112695797D01*
X147869489Y-112695797D02*
X147957036Y-112695797D01*
X147957036Y-112695797D02*
X148044582Y-112739570D01*
X148044582Y-112739570D02*
X148088356Y-112783343D01*
X148088356Y-112783343D02*
X148132129Y-112870890D01*
X148132129Y-112870890D02*
X148132129Y-112914663D01*
X148241562Y-113330509D02*
X148219676Y-113264849D01*
X148219676Y-113264849D02*
X148219676Y-113221076D01*
X148219676Y-113221076D02*
X148241562Y-113155416D01*
X148241562Y-113155416D02*
X148263449Y-113133530D01*
X148263449Y-113133530D02*
X148329109Y-113111643D01*
X148329109Y-113111643D02*
X148372882Y-113111643D01*
X148372882Y-113111643D02*
X148438542Y-113133530D01*
X148438542Y-113133530D02*
X148526088Y-113221076D01*
X148526088Y-113221076D02*
X148547975Y-113286736D01*
X148547975Y-113286736D02*
X148547975Y-113330509D01*
X148547975Y-113330509D02*
X148526088Y-113396169D01*
X148526088Y-113396169D02*
X148504202Y-113418056D01*
X148504202Y-113418056D02*
X148438542Y-113439943D01*
X148438542Y-113439943D02*
X148394769Y-113439943D01*
X148394769Y-113439943D02*
X148329109Y-113418056D01*
X148329109Y-113418056D02*
X148241562Y-113330509D01*
X148241562Y-113330509D02*
X148175902Y-113308623D01*
X148175902Y-113308623D02*
X148132129Y-113308623D01*
X148132129Y-113308623D02*
X148066469Y-113330509D01*
X148066469Y-113330509D02*
X147978923Y-113418056D01*
X147978923Y-113418056D02*
X147957036Y-113483716D01*
X147957036Y-113483716D02*
X147957036Y-113527489D01*
X147957036Y-113527489D02*
X147978923Y-113593149D01*
X147978923Y-113593149D02*
X148066469Y-113680696D01*
X148066469Y-113680696D02*
X148132129Y-113702582D01*
X148132129Y-113702582D02*
X148175902Y-113702582D01*
X148175902Y-113702582D02*
X148241562Y-113680696D01*
X148241562Y-113680696D02*
X148329109Y-113593149D01*
X148329109Y-113593149D02*
X148350995Y-113527489D01*
X148350995Y-113527489D02*
X148350995Y-113483716D01*
X148350995Y-113483716D02*
X148329109Y-113418056D01*
X164782142Y-54492902D02*
X164565475Y-54183378D01*
X164410713Y-54492902D02*
X164410713Y-53842902D01*
X164410713Y-53842902D02*
X164658332Y-53842902D01*
X164658332Y-53842902D02*
X164720237Y-53873854D01*
X164720237Y-53873854D02*
X164751190Y-53904807D01*
X164751190Y-53904807D02*
X164782142Y-53966711D01*
X164782142Y-53966711D02*
X164782142Y-54059569D01*
X164782142Y-54059569D02*
X164751190Y-54121473D01*
X164751190Y-54121473D02*
X164720237Y-54152426D01*
X164720237Y-54152426D02*
X164658332Y-54183378D01*
X164658332Y-54183378D02*
X164410713Y-54183378D01*
X165401190Y-54492902D02*
X165029761Y-54492902D01*
X165215475Y-54492902D02*
X165215475Y-53842902D01*
X165215475Y-53842902D02*
X165153571Y-53935759D01*
X165153571Y-53935759D02*
X165091666Y-53997664D01*
X165091666Y-53997664D02*
X165029761Y-54028616D01*
X165648809Y-53904807D02*
X165679761Y-53873854D01*
X165679761Y-53873854D02*
X165741666Y-53842902D01*
X165741666Y-53842902D02*
X165896428Y-53842902D01*
X165896428Y-53842902D02*
X165958333Y-53873854D01*
X165958333Y-53873854D02*
X165989285Y-53904807D01*
X165989285Y-53904807D02*
X166020238Y-53966711D01*
X166020238Y-53966711D02*
X166020238Y-54028616D01*
X166020238Y-54028616D02*
X165989285Y-54121473D01*
X165989285Y-54121473D02*
X165617857Y-54492902D01*
X165617857Y-54492902D02*
X166020238Y-54492902D01*
X140783333Y-41642902D02*
X140783333Y-42107188D01*
X140783333Y-42107188D02*
X140752380Y-42200045D01*
X140752380Y-42200045D02*
X140690476Y-42261950D01*
X140690476Y-42261950D02*
X140597618Y-42292902D01*
X140597618Y-42292902D02*
X140535714Y-42292902D01*
X141402380Y-41642902D02*
X141092856Y-41642902D01*
X141092856Y-41642902D02*
X141061904Y-41952426D01*
X141061904Y-41952426D02*
X141092856Y-41921473D01*
X141092856Y-41921473D02*
X141154761Y-41890521D01*
X141154761Y-41890521D02*
X141309523Y-41890521D01*
X141309523Y-41890521D02*
X141371428Y-41921473D01*
X141371428Y-41921473D02*
X141402380Y-41952426D01*
X141402380Y-41952426D02*
X141433333Y-42014330D01*
X141433333Y-42014330D02*
X141433333Y-42169092D01*
X141433333Y-42169092D02*
X141402380Y-42230997D01*
X141402380Y-42230997D02*
X141371428Y-42261950D01*
X141371428Y-42261950D02*
X141309523Y-42292902D01*
X141309523Y-42292902D02*
X141154761Y-42292902D01*
X141154761Y-42292902D02*
X141092856Y-42261950D01*
X141092856Y-42261950D02*
X141061904Y-42230997D01*
X120183333Y-73872426D02*
X119966666Y-73872426D01*
X119966666Y-74212902D02*
X119966666Y-73562902D01*
X119966666Y-73562902D02*
X120276190Y-73562902D01*
X120864286Y-74212902D02*
X120492857Y-74212902D01*
X120678571Y-74212902D02*
X120678571Y-73562902D01*
X120678571Y-73562902D02*
X120616667Y-73655759D01*
X120616667Y-73655759D02*
X120554762Y-73717664D01*
X120554762Y-73717664D02*
X120492857Y-73748616D01*
X121382142Y-48630997D02*
X121351190Y-48661950D01*
X121351190Y-48661950D02*
X121258332Y-48692902D01*
X121258332Y-48692902D02*
X121196428Y-48692902D01*
X121196428Y-48692902D02*
X121103571Y-48661950D01*
X121103571Y-48661950D02*
X121041666Y-48600045D01*
X121041666Y-48600045D02*
X121010713Y-48538140D01*
X121010713Y-48538140D02*
X120979761Y-48414330D01*
X120979761Y-48414330D02*
X120979761Y-48321473D01*
X120979761Y-48321473D02*
X121010713Y-48197664D01*
X121010713Y-48197664D02*
X121041666Y-48135759D01*
X121041666Y-48135759D02*
X121103571Y-48073854D01*
X121103571Y-48073854D02*
X121196428Y-48042902D01*
X121196428Y-48042902D02*
X121258332Y-48042902D01*
X121258332Y-48042902D02*
X121351190Y-48073854D01*
X121351190Y-48073854D02*
X121382142Y-48104807D01*
X121629761Y-48104807D02*
X121660713Y-48073854D01*
X121660713Y-48073854D02*
X121722618Y-48042902D01*
X121722618Y-48042902D02*
X121877380Y-48042902D01*
X121877380Y-48042902D02*
X121939285Y-48073854D01*
X121939285Y-48073854D02*
X121970237Y-48104807D01*
X121970237Y-48104807D02*
X122001190Y-48166711D01*
X122001190Y-48166711D02*
X122001190Y-48228616D01*
X122001190Y-48228616D02*
X121970237Y-48321473D01*
X121970237Y-48321473D02*
X121598809Y-48692902D01*
X121598809Y-48692902D02*
X122001190Y-48692902D01*
X122217857Y-48042902D02*
X122620238Y-48042902D01*
X122620238Y-48042902D02*
X122403571Y-48290521D01*
X122403571Y-48290521D02*
X122496428Y-48290521D01*
X122496428Y-48290521D02*
X122558333Y-48321473D01*
X122558333Y-48321473D02*
X122589285Y-48352426D01*
X122589285Y-48352426D02*
X122620238Y-48414330D01*
X122620238Y-48414330D02*
X122620238Y-48569092D01*
X122620238Y-48569092D02*
X122589285Y-48630997D01*
X122589285Y-48630997D02*
X122558333Y-48661950D01*
X122558333Y-48661950D02*
X122496428Y-48692902D01*
X122496428Y-48692902D02*
X122310714Y-48692902D01*
X122310714Y-48692902D02*
X122248809Y-48661950D01*
X122248809Y-48661950D02*
X122217857Y-48630997D01*
X147360056Y-110686736D02*
X147316283Y-110686736D01*
X147316283Y-110686736D02*
X147228736Y-110642963D01*
X147228736Y-110642963D02*
X147184963Y-110599190D01*
X147184963Y-110599190D02*
X147141190Y-110511643D01*
X147141190Y-110511643D02*
X147141190Y-110424096D01*
X147141190Y-110424096D02*
X147163076Y-110358437D01*
X147163076Y-110358437D02*
X147228736Y-110249003D01*
X147228736Y-110249003D02*
X147294396Y-110183343D01*
X147294396Y-110183343D02*
X147403829Y-110117684D01*
X147403829Y-110117684D02*
X147469489Y-110095797D01*
X147469489Y-110095797D02*
X147557036Y-110095797D01*
X147557036Y-110095797D02*
X147644582Y-110139570D01*
X147644582Y-110139570D02*
X147688356Y-110183343D01*
X147688356Y-110183343D02*
X147732129Y-110270890D01*
X147732129Y-110270890D02*
X147732129Y-110314663D01*
X147907222Y-110489756D02*
X147950995Y-110489756D01*
X147950995Y-110489756D02*
X148016655Y-110511643D01*
X148016655Y-110511643D02*
X148126088Y-110621076D01*
X148126088Y-110621076D02*
X148147975Y-110686736D01*
X148147975Y-110686736D02*
X148147975Y-110730509D01*
X148147975Y-110730509D02*
X148126088Y-110796169D01*
X148126088Y-110796169D02*
X148082315Y-110839943D01*
X148082315Y-110839943D02*
X147994769Y-110883716D01*
X147994769Y-110883716D02*
X147469489Y-110883716D01*
X147469489Y-110883716D02*
X147754016Y-111168242D01*
X121983333Y-95977902D02*
X121983333Y-96442188D01*
X121983333Y-96442188D02*
X121952380Y-96535045D01*
X121952380Y-96535045D02*
X121890476Y-96596950D01*
X121890476Y-96596950D02*
X121797618Y-96627902D01*
X121797618Y-96627902D02*
X121735714Y-96627902D01*
X122261904Y-96039807D02*
X122292856Y-96008854D01*
X122292856Y-96008854D02*
X122354761Y-95977902D01*
X122354761Y-95977902D02*
X122509523Y-95977902D01*
X122509523Y-95977902D02*
X122571428Y-96008854D01*
X122571428Y-96008854D02*
X122602380Y-96039807D01*
X122602380Y-96039807D02*
X122633333Y-96101711D01*
X122633333Y-96101711D02*
X122633333Y-96163616D01*
X122633333Y-96163616D02*
X122602380Y-96256473D01*
X122602380Y-96256473D02*
X122230952Y-96627902D01*
X122230952Y-96627902D02*
X122633333Y-96627902D01*
X166830997Y-56297857D02*
X166861950Y-56328809D01*
X166861950Y-56328809D02*
X166892902Y-56421667D01*
X166892902Y-56421667D02*
X166892902Y-56483571D01*
X166892902Y-56483571D02*
X166861950Y-56576428D01*
X166861950Y-56576428D02*
X166800045Y-56638333D01*
X166800045Y-56638333D02*
X166738140Y-56669286D01*
X166738140Y-56669286D02*
X166614330Y-56700238D01*
X166614330Y-56700238D02*
X166521473Y-56700238D01*
X166521473Y-56700238D02*
X166397664Y-56669286D01*
X166397664Y-56669286D02*
X166335759Y-56638333D01*
X166335759Y-56638333D02*
X166273854Y-56576428D01*
X166273854Y-56576428D02*
X166242902Y-56483571D01*
X166242902Y-56483571D02*
X166242902Y-56421667D01*
X166242902Y-56421667D02*
X166273854Y-56328809D01*
X166273854Y-56328809D02*
X166304807Y-56297857D01*
X166892902Y-55678809D02*
X166892902Y-56050238D01*
X166892902Y-55864524D02*
X166242902Y-55864524D01*
X166242902Y-55864524D02*
X166335759Y-55926428D01*
X166335759Y-55926428D02*
X166397664Y-55988333D01*
X166397664Y-55988333D02*
X166428616Y-56050238D01*
X166459569Y-55121666D02*
X166892902Y-55121666D01*
X166211950Y-55276428D02*
X166676235Y-55431190D01*
X166676235Y-55431190D02*
X166676235Y-55028809D01*
X132253643Y-109267871D02*
X132713263Y-108808251D01*
X132713263Y-108808251D02*
X132822696Y-108917685D01*
X132822696Y-108917685D02*
X132866469Y-109005231D01*
X132866469Y-109005231D02*
X132866469Y-109092778D01*
X132866469Y-109092778D02*
X132844582Y-109158438D01*
X132844582Y-109158438D02*
X132778923Y-109267871D01*
X132778923Y-109267871D02*
X132713263Y-109333531D01*
X132713263Y-109333531D02*
X132603829Y-109399191D01*
X132603829Y-109399191D02*
X132538170Y-109421077D01*
X132538170Y-109421077D02*
X132450623Y-109421077D01*
X132450623Y-109421077D02*
X132363076Y-109377304D01*
X132363076Y-109377304D02*
X132253643Y-109267871D01*
X133107222Y-109289757D02*
X133150995Y-109289757D01*
X133150995Y-109289757D02*
X133216655Y-109311644D01*
X133216655Y-109311644D02*
X133326088Y-109421077D01*
X133326088Y-109421077D02*
X133347975Y-109486737D01*
X133347975Y-109486737D02*
X133347975Y-109530510D01*
X133347975Y-109530510D02*
X133326088Y-109596170D01*
X133326088Y-109596170D02*
X133282315Y-109639944D01*
X133282315Y-109639944D02*
X133194769Y-109683717D01*
X133194769Y-109683717D02*
X132669489Y-109683717D01*
X132669489Y-109683717D02*
X132954016Y-109968243D01*
X126230997Y-56417857D02*
X126261950Y-56448809D01*
X126261950Y-56448809D02*
X126292902Y-56541667D01*
X126292902Y-56541667D02*
X126292902Y-56603571D01*
X126292902Y-56603571D02*
X126261950Y-56696428D01*
X126261950Y-56696428D02*
X126200045Y-56758333D01*
X126200045Y-56758333D02*
X126138140Y-56789286D01*
X126138140Y-56789286D02*
X126014330Y-56820238D01*
X126014330Y-56820238D02*
X125921473Y-56820238D01*
X125921473Y-56820238D02*
X125797664Y-56789286D01*
X125797664Y-56789286D02*
X125735759Y-56758333D01*
X125735759Y-56758333D02*
X125673854Y-56696428D01*
X125673854Y-56696428D02*
X125642902Y-56603571D01*
X125642902Y-56603571D02*
X125642902Y-56541667D01*
X125642902Y-56541667D02*
X125673854Y-56448809D01*
X125673854Y-56448809D02*
X125704807Y-56417857D01*
X125704807Y-56170238D02*
X125673854Y-56139286D01*
X125673854Y-56139286D02*
X125642902Y-56077381D01*
X125642902Y-56077381D02*
X125642902Y-55922619D01*
X125642902Y-55922619D02*
X125673854Y-55860714D01*
X125673854Y-55860714D02*
X125704807Y-55829762D01*
X125704807Y-55829762D02*
X125766711Y-55798809D01*
X125766711Y-55798809D02*
X125828616Y-55798809D01*
X125828616Y-55798809D02*
X125921473Y-55829762D01*
X125921473Y-55829762D02*
X126292902Y-56201190D01*
X126292902Y-56201190D02*
X126292902Y-55798809D01*
X126292902Y-55179761D02*
X126292902Y-55551190D01*
X126292902Y-55365476D02*
X125642902Y-55365476D01*
X125642902Y-55365476D02*
X125735759Y-55427380D01*
X125735759Y-55427380D02*
X125797664Y-55489285D01*
X125797664Y-55489285D02*
X125828616Y-55551190D01*
X168782142Y-104892902D02*
X168565475Y-104583378D01*
X168410713Y-104892902D02*
X168410713Y-104242902D01*
X168410713Y-104242902D02*
X168658332Y-104242902D01*
X168658332Y-104242902D02*
X168720237Y-104273854D01*
X168720237Y-104273854D02*
X168751190Y-104304807D01*
X168751190Y-104304807D02*
X168782142Y-104366711D01*
X168782142Y-104366711D02*
X168782142Y-104459569D01*
X168782142Y-104459569D02*
X168751190Y-104521473D01*
X168751190Y-104521473D02*
X168720237Y-104552426D01*
X168720237Y-104552426D02*
X168658332Y-104583378D01*
X168658332Y-104583378D02*
X168410713Y-104583378D01*
X169029761Y-104304807D02*
X169060713Y-104273854D01*
X169060713Y-104273854D02*
X169122618Y-104242902D01*
X169122618Y-104242902D02*
X169277380Y-104242902D01*
X169277380Y-104242902D02*
X169339285Y-104273854D01*
X169339285Y-104273854D02*
X169370237Y-104304807D01*
X169370237Y-104304807D02*
X169401190Y-104366711D01*
X169401190Y-104366711D02*
X169401190Y-104428616D01*
X169401190Y-104428616D02*
X169370237Y-104521473D01*
X169370237Y-104521473D02*
X168998809Y-104892902D01*
X168998809Y-104892902D02*
X169401190Y-104892902D01*
X169958333Y-104459569D02*
X169958333Y-104892902D01*
X169803571Y-104211950D02*
X169648809Y-104676235D01*
X169648809Y-104676235D02*
X170051190Y-104676235D01*
X148541190Y-88467870D02*
X148497416Y-88467870D01*
X148497416Y-88467870D02*
X148409870Y-88424096D01*
X148409870Y-88424096D02*
X148366097Y-88380323D01*
X148366097Y-88380323D02*
X148322323Y-88292776D01*
X148322323Y-88292776D02*
X148322323Y-88205230D01*
X148322323Y-88205230D02*
X148344210Y-88139570D01*
X148344210Y-88139570D02*
X148409870Y-88030137D01*
X148409870Y-88030137D02*
X148475530Y-87964477D01*
X148475530Y-87964477D02*
X148584963Y-87898817D01*
X148584963Y-87898817D02*
X148650623Y-87876930D01*
X148650623Y-87876930D02*
X148738169Y-87876930D01*
X148738169Y-87876930D02*
X148825716Y-87920704D01*
X148825716Y-87920704D02*
X148869489Y-87964477D01*
X148869489Y-87964477D02*
X148913262Y-88052023D01*
X148913262Y-88052023D02*
X148913262Y-88095797D01*
X148935149Y-88949376D02*
X148672509Y-88686736D01*
X148803829Y-88818056D02*
X149263449Y-88358436D01*
X149263449Y-88358436D02*
X149154016Y-88380323D01*
X149154016Y-88380323D02*
X149066469Y-88380323D01*
X149066469Y-88380323D02*
X149000809Y-88358436D01*
X149526089Y-88708623D02*
X149569862Y-88708623D01*
X149569862Y-88708623D02*
X149635522Y-88730510D01*
X149635522Y-88730510D02*
X149744955Y-88839943D01*
X149744955Y-88839943D02*
X149766842Y-88905603D01*
X149766842Y-88905603D02*
X149766842Y-88949376D01*
X149766842Y-88949376D02*
X149744955Y-89015036D01*
X149744955Y-89015036D02*
X149701182Y-89058809D01*
X149701182Y-89058809D02*
X149613635Y-89102582D01*
X149613635Y-89102582D02*
X149088356Y-89102582D01*
X149088356Y-89102582D02*
X149372882Y-89387109D01*
X123692902Y-52617857D02*
X123383378Y-52834524D01*
X123692902Y-52989286D02*
X123042902Y-52989286D01*
X123042902Y-52989286D02*
X123042902Y-52741667D01*
X123042902Y-52741667D02*
X123073854Y-52679762D01*
X123073854Y-52679762D02*
X123104807Y-52648809D01*
X123104807Y-52648809D02*
X123166711Y-52617857D01*
X123166711Y-52617857D02*
X123259569Y-52617857D01*
X123259569Y-52617857D02*
X123321473Y-52648809D01*
X123321473Y-52648809D02*
X123352426Y-52679762D01*
X123352426Y-52679762D02*
X123383378Y-52741667D01*
X123383378Y-52741667D02*
X123383378Y-52989286D01*
X123104807Y-52370238D02*
X123073854Y-52339286D01*
X123073854Y-52339286D02*
X123042902Y-52277381D01*
X123042902Y-52277381D02*
X123042902Y-52122619D01*
X123042902Y-52122619D02*
X123073854Y-52060714D01*
X123073854Y-52060714D02*
X123104807Y-52029762D01*
X123104807Y-52029762D02*
X123166711Y-51998809D01*
X123166711Y-51998809D02*
X123228616Y-51998809D01*
X123228616Y-51998809D02*
X123321473Y-52029762D01*
X123321473Y-52029762D02*
X123692902Y-52401190D01*
X123692902Y-52401190D02*
X123692902Y-51998809D01*
X123042902Y-51596428D02*
X123042902Y-51534523D01*
X123042902Y-51534523D02*
X123073854Y-51472619D01*
X123073854Y-51472619D02*
X123104807Y-51441666D01*
X123104807Y-51441666D02*
X123166711Y-51410714D01*
X123166711Y-51410714D02*
X123290521Y-51379761D01*
X123290521Y-51379761D02*
X123445283Y-51379761D01*
X123445283Y-51379761D02*
X123569092Y-51410714D01*
X123569092Y-51410714D02*
X123630997Y-51441666D01*
X123630997Y-51441666D02*
X123661950Y-51472619D01*
X123661950Y-51472619D02*
X123692902Y-51534523D01*
X123692902Y-51534523D02*
X123692902Y-51596428D01*
X123692902Y-51596428D02*
X123661950Y-51658333D01*
X123661950Y-51658333D02*
X123630997Y-51689285D01*
X123630997Y-51689285D02*
X123569092Y-51720238D01*
X123569092Y-51720238D02*
X123445283Y-51751190D01*
X123445283Y-51751190D02*
X123290521Y-51751190D01*
X123290521Y-51751190D02*
X123166711Y-51720238D01*
X123166711Y-51720238D02*
X123104807Y-51689285D01*
X123104807Y-51689285D02*
X123073854Y-51658333D01*
X123073854Y-51658333D02*
X123042902Y-51596428D01*
X172582142Y-95692902D02*
X172365475Y-95383378D01*
X172210713Y-95692902D02*
X172210713Y-95042902D01*
X172210713Y-95042902D02*
X172458332Y-95042902D01*
X172458332Y-95042902D02*
X172520237Y-95073854D01*
X172520237Y-95073854D02*
X172551190Y-95104807D01*
X172551190Y-95104807D02*
X172582142Y-95166711D01*
X172582142Y-95166711D02*
X172582142Y-95259569D01*
X172582142Y-95259569D02*
X172551190Y-95321473D01*
X172551190Y-95321473D02*
X172520237Y-95352426D01*
X172520237Y-95352426D02*
X172458332Y-95383378D01*
X172458332Y-95383378D02*
X172210713Y-95383378D01*
X172829761Y-95104807D02*
X172860713Y-95073854D01*
X172860713Y-95073854D02*
X172922618Y-95042902D01*
X172922618Y-95042902D02*
X173077380Y-95042902D01*
X173077380Y-95042902D02*
X173139285Y-95073854D01*
X173139285Y-95073854D02*
X173170237Y-95104807D01*
X173170237Y-95104807D02*
X173201190Y-95166711D01*
X173201190Y-95166711D02*
X173201190Y-95228616D01*
X173201190Y-95228616D02*
X173170237Y-95321473D01*
X173170237Y-95321473D02*
X172798809Y-95692902D01*
X172798809Y-95692902D02*
X173201190Y-95692902D01*
X173572619Y-95321473D02*
X173510714Y-95290521D01*
X173510714Y-95290521D02*
X173479761Y-95259569D01*
X173479761Y-95259569D02*
X173448809Y-95197664D01*
X173448809Y-95197664D02*
X173448809Y-95166711D01*
X173448809Y-95166711D02*
X173479761Y-95104807D01*
X173479761Y-95104807D02*
X173510714Y-95073854D01*
X173510714Y-95073854D02*
X173572619Y-95042902D01*
X173572619Y-95042902D02*
X173696428Y-95042902D01*
X173696428Y-95042902D02*
X173758333Y-95073854D01*
X173758333Y-95073854D02*
X173789285Y-95104807D01*
X173789285Y-95104807D02*
X173820238Y-95166711D01*
X173820238Y-95166711D02*
X173820238Y-95197664D01*
X173820238Y-95197664D02*
X173789285Y-95259569D01*
X173789285Y-95259569D02*
X173758333Y-95290521D01*
X173758333Y-95290521D02*
X173696428Y-95321473D01*
X173696428Y-95321473D02*
X173572619Y-95321473D01*
X173572619Y-95321473D02*
X173510714Y-95352426D01*
X173510714Y-95352426D02*
X173479761Y-95383378D01*
X173479761Y-95383378D02*
X173448809Y-95445283D01*
X173448809Y-95445283D02*
X173448809Y-95569092D01*
X173448809Y-95569092D02*
X173479761Y-95630997D01*
X173479761Y-95630997D02*
X173510714Y-95661950D01*
X173510714Y-95661950D02*
X173572619Y-95692902D01*
X173572619Y-95692902D02*
X173696428Y-95692902D01*
X173696428Y-95692902D02*
X173758333Y-95661950D01*
X173758333Y-95661950D02*
X173789285Y-95630997D01*
X173789285Y-95630997D02*
X173820238Y-95569092D01*
X173820238Y-95569092D02*
X173820238Y-95445283D01*
X173820238Y-95445283D02*
X173789285Y-95383378D01*
X173789285Y-95383378D02*
X173758333Y-95352426D01*
X173758333Y-95352426D02*
X173696428Y-95321473D01*
X169582142Y-60692902D02*
X169365475Y-60383378D01*
X169210713Y-60692902D02*
X169210713Y-60042902D01*
X169210713Y-60042902D02*
X169458332Y-60042902D01*
X169458332Y-60042902D02*
X169520237Y-60073854D01*
X169520237Y-60073854D02*
X169551190Y-60104807D01*
X169551190Y-60104807D02*
X169582142Y-60166711D01*
X169582142Y-60166711D02*
X169582142Y-60259569D01*
X169582142Y-60259569D02*
X169551190Y-60321473D01*
X169551190Y-60321473D02*
X169520237Y-60352426D01*
X169520237Y-60352426D02*
X169458332Y-60383378D01*
X169458332Y-60383378D02*
X169210713Y-60383378D01*
X170201190Y-60692902D02*
X169829761Y-60692902D01*
X170015475Y-60692902D02*
X170015475Y-60042902D01*
X170015475Y-60042902D02*
X169953571Y-60135759D01*
X169953571Y-60135759D02*
X169891666Y-60197664D01*
X169891666Y-60197664D02*
X169829761Y-60228616D01*
X170789285Y-60042902D02*
X170479761Y-60042902D01*
X170479761Y-60042902D02*
X170448809Y-60352426D01*
X170448809Y-60352426D02*
X170479761Y-60321473D01*
X170479761Y-60321473D02*
X170541666Y-60290521D01*
X170541666Y-60290521D02*
X170696428Y-60290521D01*
X170696428Y-60290521D02*
X170758333Y-60321473D01*
X170758333Y-60321473D02*
X170789285Y-60352426D01*
X170789285Y-60352426D02*
X170820238Y-60414330D01*
X170820238Y-60414330D02*
X170820238Y-60569092D01*
X170820238Y-60569092D02*
X170789285Y-60630997D01*
X170789285Y-60630997D02*
X170758333Y-60661950D01*
X170758333Y-60661950D02*
X170696428Y-60692902D01*
X170696428Y-60692902D02*
X170541666Y-60692902D01*
X170541666Y-60692902D02*
X170479761Y-60661950D01*
X170479761Y-60661950D02*
X170448809Y-60630997D01*
X152769380Y-114007113D02*
X152988247Y-114225979D01*
X152375421Y-113919566D02*
X152769380Y-114007113D01*
X152769380Y-114007113D02*
X152681834Y-113613153D01*
X153535413Y-113678813D02*
X153272773Y-113941453D01*
X153404093Y-113810133D02*
X152944473Y-113350513D01*
X152944473Y-113350513D02*
X152966360Y-113459947D01*
X152966360Y-113459947D02*
X152966360Y-113547493D01*
X152966360Y-113547493D02*
X152944473Y-113613153D01*
X170782142Y-104892902D02*
X170565475Y-104583378D01*
X170410713Y-104892902D02*
X170410713Y-104242902D01*
X170410713Y-104242902D02*
X170658332Y-104242902D01*
X170658332Y-104242902D02*
X170720237Y-104273854D01*
X170720237Y-104273854D02*
X170751190Y-104304807D01*
X170751190Y-104304807D02*
X170782142Y-104366711D01*
X170782142Y-104366711D02*
X170782142Y-104459569D01*
X170782142Y-104459569D02*
X170751190Y-104521473D01*
X170751190Y-104521473D02*
X170720237Y-104552426D01*
X170720237Y-104552426D02*
X170658332Y-104583378D01*
X170658332Y-104583378D02*
X170410713Y-104583378D01*
X171029761Y-104304807D02*
X171060713Y-104273854D01*
X171060713Y-104273854D02*
X171122618Y-104242902D01*
X171122618Y-104242902D02*
X171277380Y-104242902D01*
X171277380Y-104242902D02*
X171339285Y-104273854D01*
X171339285Y-104273854D02*
X171370237Y-104304807D01*
X171370237Y-104304807D02*
X171401190Y-104366711D01*
X171401190Y-104366711D02*
X171401190Y-104428616D01*
X171401190Y-104428616D02*
X171370237Y-104521473D01*
X171370237Y-104521473D02*
X170998809Y-104892902D01*
X170998809Y-104892902D02*
X171401190Y-104892902D01*
X171989285Y-104242902D02*
X171679761Y-104242902D01*
X171679761Y-104242902D02*
X171648809Y-104552426D01*
X171648809Y-104552426D02*
X171679761Y-104521473D01*
X171679761Y-104521473D02*
X171741666Y-104490521D01*
X171741666Y-104490521D02*
X171896428Y-104490521D01*
X171896428Y-104490521D02*
X171958333Y-104521473D01*
X171958333Y-104521473D02*
X171989285Y-104552426D01*
X171989285Y-104552426D02*
X172020238Y-104614330D01*
X172020238Y-104614330D02*
X172020238Y-104769092D01*
X172020238Y-104769092D02*
X171989285Y-104830997D01*
X171989285Y-104830997D02*
X171958333Y-104861950D01*
X171958333Y-104861950D02*
X171896428Y-104892902D01*
X171896428Y-104892902D02*
X171741666Y-104892902D01*
X171741666Y-104892902D02*
X171679761Y-104861950D01*
X171679761Y-104861950D02*
X171648809Y-104830997D01*
X144504761Y-99642902D02*
X144504761Y-100169092D01*
X144504761Y-100169092D02*
X144535714Y-100230997D01*
X144535714Y-100230997D02*
X144566666Y-100261950D01*
X144566666Y-100261950D02*
X144628571Y-100292902D01*
X144628571Y-100292902D02*
X144752380Y-100292902D01*
X144752380Y-100292902D02*
X144814285Y-100261950D01*
X144814285Y-100261950D02*
X144845238Y-100230997D01*
X144845238Y-100230997D02*
X144876190Y-100169092D01*
X144876190Y-100169092D02*
X144876190Y-99642902D01*
X145526190Y-100292902D02*
X145154761Y-100292902D01*
X145340475Y-100292902D02*
X145340475Y-99642902D01*
X145340475Y-99642902D02*
X145278571Y-99735759D01*
X145278571Y-99735759D02*
X145216666Y-99797664D01*
X145216666Y-99797664D02*
X145154761Y-99828616D01*
X133267871Y-96858809D02*
X133267871Y-96902583D01*
X133267871Y-96902583D02*
X133224097Y-96990129D01*
X133224097Y-96990129D02*
X133180324Y-97033902D01*
X133180324Y-97033902D02*
X133092777Y-97077676D01*
X133092777Y-97077676D02*
X133005231Y-97077676D01*
X133005231Y-97077676D02*
X132939571Y-97055789D01*
X132939571Y-97055789D02*
X132830138Y-96990129D01*
X132830138Y-96990129D02*
X132764478Y-96924469D01*
X132764478Y-96924469D02*
X132698818Y-96815036D01*
X132698818Y-96815036D02*
X132676931Y-96749376D01*
X132676931Y-96749376D02*
X132676931Y-96661830D01*
X132676931Y-96661830D02*
X132720705Y-96574283D01*
X132720705Y-96574283D02*
X132764478Y-96530510D01*
X132764478Y-96530510D02*
X132852024Y-96486737D01*
X132852024Y-96486737D02*
X132895798Y-96486737D01*
X133749377Y-96464850D02*
X133486737Y-96727490D01*
X133618057Y-96596170D02*
X133158437Y-96136550D01*
X133158437Y-96136550D02*
X133180324Y-96245983D01*
X133180324Y-96245983D02*
X133180324Y-96333530D01*
X133180324Y-96333530D02*
X133158437Y-96399190D01*
X133442964Y-95852024D02*
X133727490Y-95567497D01*
X133727490Y-95567497D02*
X133749377Y-95895797D01*
X133749377Y-95895797D02*
X133815037Y-95830137D01*
X133815037Y-95830137D02*
X133880697Y-95808250D01*
X133880697Y-95808250D02*
X133924470Y-95808250D01*
X133924470Y-95808250D02*
X133990130Y-95830137D01*
X133990130Y-95830137D02*
X134099563Y-95939570D01*
X134099563Y-95939570D02*
X134121450Y-96005230D01*
X134121450Y-96005230D02*
X134121450Y-96049003D01*
X134121450Y-96049003D02*
X134099563Y-96114663D01*
X134099563Y-96114663D02*
X133968243Y-96245983D01*
X133968243Y-96245983D02*
X133902583Y-96267870D01*
X133902583Y-96267870D02*
X133858810Y-96267870D01*
X157667870Y-107058809D02*
X157667870Y-107102583D01*
X157667870Y-107102583D02*
X157624096Y-107190129D01*
X157624096Y-107190129D02*
X157580323Y-107233902D01*
X157580323Y-107233902D02*
X157492776Y-107277676D01*
X157492776Y-107277676D02*
X157405230Y-107277676D01*
X157405230Y-107277676D02*
X157339570Y-107255789D01*
X157339570Y-107255789D02*
X157230137Y-107190129D01*
X157230137Y-107190129D02*
X157164477Y-107124469D01*
X157164477Y-107124469D02*
X157098817Y-107015036D01*
X157098817Y-107015036D02*
X157076930Y-106949376D01*
X157076930Y-106949376D02*
X157076930Y-106861830D01*
X157076930Y-106861830D02*
X157120704Y-106774283D01*
X157120704Y-106774283D02*
X157164477Y-106730510D01*
X157164477Y-106730510D02*
X157252023Y-106686737D01*
X157252023Y-106686737D02*
X157295797Y-106686737D01*
X158149376Y-106664850D02*
X157886736Y-106927490D01*
X158018056Y-106796170D02*
X157558436Y-106336550D01*
X157558436Y-106336550D02*
X157580323Y-106445983D01*
X157580323Y-106445983D02*
X157580323Y-106533530D01*
X157580323Y-106533530D02*
X157558436Y-106599190D01*
X158083716Y-105811271D02*
X157996169Y-105898817D01*
X157996169Y-105898817D02*
X157974283Y-105964477D01*
X157974283Y-105964477D02*
X157974283Y-106008250D01*
X157974283Y-106008250D02*
X157996169Y-106117684D01*
X157996169Y-106117684D02*
X158061829Y-106227117D01*
X158061829Y-106227117D02*
X158236922Y-106402210D01*
X158236922Y-106402210D02*
X158302582Y-106424097D01*
X158302582Y-106424097D02*
X158346356Y-106424097D01*
X158346356Y-106424097D02*
X158412016Y-106402210D01*
X158412016Y-106402210D02*
X158499562Y-106314663D01*
X158499562Y-106314663D02*
X158521449Y-106249003D01*
X158521449Y-106249003D02*
X158521449Y-106205230D01*
X158521449Y-106205230D02*
X158499562Y-106139570D01*
X158499562Y-106139570D02*
X158390129Y-106030137D01*
X158390129Y-106030137D02*
X158324469Y-106008250D01*
X158324469Y-106008250D02*
X158280696Y-106008250D01*
X158280696Y-106008250D02*
X158215036Y-106030137D01*
X158215036Y-106030137D02*
X158127489Y-106117684D01*
X158127489Y-106117684D02*
X158105603Y-106183344D01*
X158105603Y-106183344D02*
X158105603Y-106227117D01*
X158105603Y-106227117D02*
X158127489Y-106292777D01*
X144292902Y-116708333D02*
X143983378Y-116925000D01*
X144292902Y-117079762D02*
X143642902Y-117079762D01*
X143642902Y-117079762D02*
X143642902Y-116832143D01*
X143642902Y-116832143D02*
X143673854Y-116770238D01*
X143673854Y-116770238D02*
X143704807Y-116739285D01*
X143704807Y-116739285D02*
X143766711Y-116708333D01*
X143766711Y-116708333D02*
X143859569Y-116708333D01*
X143859569Y-116708333D02*
X143921473Y-116739285D01*
X143921473Y-116739285D02*
X143952426Y-116770238D01*
X143952426Y-116770238D02*
X143983378Y-116832143D01*
X143983378Y-116832143D02*
X143983378Y-117079762D01*
X143642902Y-116491666D02*
X143642902Y-116058333D01*
X143642902Y-116058333D02*
X144292902Y-116336904D01*
X166782142Y-104892902D02*
X166565475Y-104583378D01*
X166410713Y-104892902D02*
X166410713Y-104242902D01*
X166410713Y-104242902D02*
X166658332Y-104242902D01*
X166658332Y-104242902D02*
X166720237Y-104273854D01*
X166720237Y-104273854D02*
X166751190Y-104304807D01*
X166751190Y-104304807D02*
X166782142Y-104366711D01*
X166782142Y-104366711D02*
X166782142Y-104459569D01*
X166782142Y-104459569D02*
X166751190Y-104521473D01*
X166751190Y-104521473D02*
X166720237Y-104552426D01*
X166720237Y-104552426D02*
X166658332Y-104583378D01*
X166658332Y-104583378D02*
X166410713Y-104583378D01*
X167029761Y-104304807D02*
X167060713Y-104273854D01*
X167060713Y-104273854D02*
X167122618Y-104242902D01*
X167122618Y-104242902D02*
X167277380Y-104242902D01*
X167277380Y-104242902D02*
X167339285Y-104273854D01*
X167339285Y-104273854D02*
X167370237Y-104304807D01*
X167370237Y-104304807D02*
X167401190Y-104366711D01*
X167401190Y-104366711D02*
X167401190Y-104428616D01*
X167401190Y-104428616D02*
X167370237Y-104521473D01*
X167370237Y-104521473D02*
X166998809Y-104892902D01*
X166998809Y-104892902D02*
X167401190Y-104892902D01*
X167617857Y-104242902D02*
X168020238Y-104242902D01*
X168020238Y-104242902D02*
X167803571Y-104490521D01*
X167803571Y-104490521D02*
X167896428Y-104490521D01*
X167896428Y-104490521D02*
X167958333Y-104521473D01*
X167958333Y-104521473D02*
X167989285Y-104552426D01*
X167989285Y-104552426D02*
X168020238Y-104614330D01*
X168020238Y-104614330D02*
X168020238Y-104769092D01*
X168020238Y-104769092D02*
X167989285Y-104830997D01*
X167989285Y-104830997D02*
X167958333Y-104861950D01*
X167958333Y-104861950D02*
X167896428Y-104892902D01*
X167896428Y-104892902D02*
X167710714Y-104892902D01*
X167710714Y-104892902D02*
X167648809Y-104861950D01*
X167648809Y-104861950D02*
X167617857Y-104830997D01*
X152983333Y-41642902D02*
X152983333Y-42107188D01*
X152983333Y-42107188D02*
X152952380Y-42200045D01*
X152952380Y-42200045D02*
X152890476Y-42261950D01*
X152890476Y-42261950D02*
X152797618Y-42292902D01*
X152797618Y-42292902D02*
X152735714Y-42292902D01*
X153385714Y-41921473D02*
X153323809Y-41890521D01*
X153323809Y-41890521D02*
X153292856Y-41859569D01*
X153292856Y-41859569D02*
X153261904Y-41797664D01*
X153261904Y-41797664D02*
X153261904Y-41766711D01*
X153261904Y-41766711D02*
X153292856Y-41704807D01*
X153292856Y-41704807D02*
X153323809Y-41673854D01*
X153323809Y-41673854D02*
X153385714Y-41642902D01*
X153385714Y-41642902D02*
X153509523Y-41642902D01*
X153509523Y-41642902D02*
X153571428Y-41673854D01*
X153571428Y-41673854D02*
X153602380Y-41704807D01*
X153602380Y-41704807D02*
X153633333Y-41766711D01*
X153633333Y-41766711D02*
X153633333Y-41797664D01*
X153633333Y-41797664D02*
X153602380Y-41859569D01*
X153602380Y-41859569D02*
X153571428Y-41890521D01*
X153571428Y-41890521D02*
X153509523Y-41921473D01*
X153509523Y-41921473D02*
X153385714Y-41921473D01*
X153385714Y-41921473D02*
X153323809Y-41952426D01*
X153323809Y-41952426D02*
X153292856Y-41983378D01*
X153292856Y-41983378D02*
X153261904Y-42045283D01*
X153261904Y-42045283D02*
X153261904Y-42169092D01*
X153261904Y-42169092D02*
X153292856Y-42230997D01*
X153292856Y-42230997D02*
X153323809Y-42261950D01*
X153323809Y-42261950D02*
X153385714Y-42292902D01*
X153385714Y-42292902D02*
X153509523Y-42292902D01*
X153509523Y-42292902D02*
X153571428Y-42261950D01*
X153571428Y-42261950D02*
X153602380Y-42230997D01*
X153602380Y-42230997D02*
X153633333Y-42169092D01*
X153633333Y-42169092D02*
X153633333Y-42045283D01*
X153633333Y-42045283D02*
X153602380Y-41983378D01*
X153602380Y-41983378D02*
X153571428Y-41952426D01*
X153571428Y-41952426D02*
X153509523Y-41921473D01*
X156160056Y-96286737D02*
X156116283Y-96286737D01*
X156116283Y-96286737D02*
X156028736Y-96242964D01*
X156028736Y-96242964D02*
X155984963Y-96199191D01*
X155984963Y-96199191D02*
X155941190Y-96111644D01*
X155941190Y-96111644D02*
X155941190Y-96024097D01*
X155941190Y-96024097D02*
X155963076Y-95958438D01*
X155963076Y-95958438D02*
X156028736Y-95849004D01*
X156028736Y-95849004D02*
X156094396Y-95783344D01*
X156094396Y-95783344D02*
X156203829Y-95717685D01*
X156203829Y-95717685D02*
X156269489Y-95695798D01*
X156269489Y-95695798D02*
X156357036Y-95695798D01*
X156357036Y-95695798D02*
X156444582Y-95739571D01*
X156444582Y-95739571D02*
X156488356Y-95783344D01*
X156488356Y-95783344D02*
X156532129Y-95870891D01*
X156532129Y-95870891D02*
X156532129Y-95914664D01*
X156969862Y-96264850D02*
X156882315Y-96177304D01*
X156882315Y-96177304D02*
X156816655Y-96155417D01*
X156816655Y-96155417D02*
X156772882Y-96155417D01*
X156772882Y-96155417D02*
X156663449Y-96177304D01*
X156663449Y-96177304D02*
X156554016Y-96242964D01*
X156554016Y-96242964D02*
X156378923Y-96418057D01*
X156378923Y-96418057D02*
X156357036Y-96483717D01*
X156357036Y-96483717D02*
X156357036Y-96527490D01*
X156357036Y-96527490D02*
X156378923Y-96593150D01*
X156378923Y-96593150D02*
X156466469Y-96680697D01*
X156466469Y-96680697D02*
X156532129Y-96702583D01*
X156532129Y-96702583D02*
X156575902Y-96702583D01*
X156575902Y-96702583D02*
X156641562Y-96680697D01*
X156641562Y-96680697D02*
X156750995Y-96571263D01*
X156750995Y-96571263D02*
X156772882Y-96505603D01*
X156772882Y-96505603D02*
X156772882Y-96461830D01*
X156772882Y-96461830D02*
X156750995Y-96396170D01*
X156750995Y-96396170D02*
X156663449Y-96308624D01*
X156663449Y-96308624D02*
X156597789Y-96286737D01*
X156597789Y-96286737D02*
X156554016Y-96286737D01*
X156554016Y-96286737D02*
X156488356Y-96308624D01*
X155969380Y-110807113D02*
X156188247Y-111025979D01*
X155575421Y-110719566D02*
X155969380Y-110807113D01*
X155969380Y-110807113D02*
X155881834Y-110413153D01*
X156056927Y-110325606D02*
X156056927Y-110281833D01*
X156056927Y-110281833D02*
X156078813Y-110216173D01*
X156078813Y-110216173D02*
X156188247Y-110106740D01*
X156188247Y-110106740D02*
X156253907Y-110084853D01*
X156253907Y-110084853D02*
X156297680Y-110084853D01*
X156297680Y-110084853D02*
X156363340Y-110106740D01*
X156363340Y-110106740D02*
X156407113Y-110150513D01*
X156407113Y-110150513D02*
X156450886Y-110238060D01*
X156450886Y-110238060D02*
X156450886Y-110763339D01*
X156450886Y-110763339D02*
X156735413Y-110478813D01*
X169830997Y-64817857D02*
X169861950Y-64848809D01*
X169861950Y-64848809D02*
X169892902Y-64941667D01*
X169892902Y-64941667D02*
X169892902Y-65003571D01*
X169892902Y-65003571D02*
X169861950Y-65096428D01*
X169861950Y-65096428D02*
X169800045Y-65158333D01*
X169800045Y-65158333D02*
X169738140Y-65189286D01*
X169738140Y-65189286D02*
X169614330Y-65220238D01*
X169614330Y-65220238D02*
X169521473Y-65220238D01*
X169521473Y-65220238D02*
X169397664Y-65189286D01*
X169397664Y-65189286D02*
X169335759Y-65158333D01*
X169335759Y-65158333D02*
X169273854Y-65096428D01*
X169273854Y-65096428D02*
X169242902Y-65003571D01*
X169242902Y-65003571D02*
X169242902Y-64941667D01*
X169242902Y-64941667D02*
X169273854Y-64848809D01*
X169273854Y-64848809D02*
X169304807Y-64817857D01*
X169892902Y-64198809D02*
X169892902Y-64570238D01*
X169892902Y-64384524D02*
X169242902Y-64384524D01*
X169242902Y-64384524D02*
X169335759Y-64446428D01*
X169335759Y-64446428D02*
X169397664Y-64508333D01*
X169397664Y-64508333D02*
X169428616Y-64570238D01*
X169242902Y-63610714D02*
X169242902Y-63920238D01*
X169242902Y-63920238D02*
X169552426Y-63951190D01*
X169552426Y-63951190D02*
X169521473Y-63920238D01*
X169521473Y-63920238D02*
X169490521Y-63858333D01*
X169490521Y-63858333D02*
X169490521Y-63703571D01*
X169490521Y-63703571D02*
X169521473Y-63641666D01*
X169521473Y-63641666D02*
X169552426Y-63610714D01*
X169552426Y-63610714D02*
X169614330Y-63579761D01*
X169614330Y-63579761D02*
X169769092Y-63579761D01*
X169769092Y-63579761D02*
X169830997Y-63610714D01*
X169830997Y-63610714D02*
X169861950Y-63641666D01*
X169861950Y-63641666D02*
X169892902Y-63703571D01*
X169892902Y-63703571D02*
X169892902Y-63858333D01*
X169892902Y-63858333D02*
X169861950Y-63920238D01*
X169861950Y-63920238D02*
X169830997Y-63951190D01*
X144783333Y-41642902D02*
X144783333Y-42107188D01*
X144783333Y-42107188D02*
X144752380Y-42200045D01*
X144752380Y-42200045D02*
X144690476Y-42261950D01*
X144690476Y-42261950D02*
X144597618Y-42292902D01*
X144597618Y-42292902D02*
X144535714Y-42292902D01*
X145371428Y-41642902D02*
X145247618Y-41642902D01*
X145247618Y-41642902D02*
X145185714Y-41673854D01*
X145185714Y-41673854D02*
X145154761Y-41704807D01*
X145154761Y-41704807D02*
X145092856Y-41797664D01*
X145092856Y-41797664D02*
X145061904Y-41921473D01*
X145061904Y-41921473D02*
X145061904Y-42169092D01*
X145061904Y-42169092D02*
X145092856Y-42230997D01*
X145092856Y-42230997D02*
X145123809Y-42261950D01*
X145123809Y-42261950D02*
X145185714Y-42292902D01*
X145185714Y-42292902D02*
X145309523Y-42292902D01*
X145309523Y-42292902D02*
X145371428Y-42261950D01*
X145371428Y-42261950D02*
X145402380Y-42230997D01*
X145402380Y-42230997D02*
X145433333Y-42169092D01*
X145433333Y-42169092D02*
X145433333Y-42014330D01*
X145433333Y-42014330D02*
X145402380Y-41952426D01*
X145402380Y-41952426D02*
X145371428Y-41921473D01*
X145371428Y-41921473D02*
X145309523Y-41890521D01*
X145309523Y-41890521D02*
X145185714Y-41890521D01*
X145185714Y-41890521D02*
X145123809Y-41921473D01*
X145123809Y-41921473D02*
X145092856Y-41952426D01*
X145092856Y-41952426D02*
X145061904Y-42014330D01*
X140122902Y-116698332D02*
X139813378Y-116914999D01*
X140122902Y-117069761D02*
X139472902Y-117069761D01*
X139472902Y-117069761D02*
X139472902Y-116822142D01*
X139472902Y-116822142D02*
X139503854Y-116760237D01*
X139503854Y-116760237D02*
X139534807Y-116729284D01*
X139534807Y-116729284D02*
X139596711Y-116698332D01*
X139596711Y-116698332D02*
X139689569Y-116698332D01*
X139689569Y-116698332D02*
X139751473Y-116729284D01*
X139751473Y-116729284D02*
X139782426Y-116760237D01*
X139782426Y-116760237D02*
X139813378Y-116822142D01*
X139813378Y-116822142D02*
X139813378Y-117069761D01*
X139751473Y-116326903D02*
X139720521Y-116388808D01*
X139720521Y-116388808D02*
X139689569Y-116419761D01*
X139689569Y-116419761D02*
X139627664Y-116450713D01*
X139627664Y-116450713D02*
X139596711Y-116450713D01*
X139596711Y-116450713D02*
X139534807Y-116419761D01*
X139534807Y-116419761D02*
X139503854Y-116388808D01*
X139503854Y-116388808D02*
X139472902Y-116326903D01*
X139472902Y-116326903D02*
X139472902Y-116203094D01*
X139472902Y-116203094D02*
X139503854Y-116141189D01*
X139503854Y-116141189D02*
X139534807Y-116110237D01*
X139534807Y-116110237D02*
X139596711Y-116079284D01*
X139596711Y-116079284D02*
X139627664Y-116079284D01*
X139627664Y-116079284D02*
X139689569Y-116110237D01*
X139689569Y-116110237D02*
X139720521Y-116141189D01*
X139720521Y-116141189D02*
X139751473Y-116203094D01*
X139751473Y-116203094D02*
X139751473Y-116326903D01*
X139751473Y-116326903D02*
X139782426Y-116388808D01*
X139782426Y-116388808D02*
X139813378Y-116419761D01*
X139813378Y-116419761D02*
X139875283Y-116450713D01*
X139875283Y-116450713D02*
X139999092Y-116450713D01*
X139999092Y-116450713D02*
X140060997Y-116419761D01*
X140060997Y-116419761D02*
X140091950Y-116388808D01*
X140091950Y-116388808D02*
X140122902Y-116326903D01*
X140122902Y-116326903D02*
X140122902Y-116203094D01*
X140122902Y-116203094D02*
X140091950Y-116141189D01*
X140091950Y-116141189D02*
X140060997Y-116110237D01*
X140060997Y-116110237D02*
X139999092Y-116079284D01*
X139999092Y-116079284D02*
X139875283Y-116079284D01*
X139875283Y-116079284D02*
X139813378Y-116110237D01*
X139813378Y-116110237D02*
X139782426Y-116141189D01*
X139782426Y-116141189D02*
X139751473Y-116203094D01*
X126402261Y-77242902D02*
X126402261Y-77769092D01*
X126402261Y-77769092D02*
X126433214Y-77830997D01*
X126433214Y-77830997D02*
X126464166Y-77861950D01*
X126464166Y-77861950D02*
X126526071Y-77892902D01*
X126526071Y-77892902D02*
X126649880Y-77892902D01*
X126649880Y-77892902D02*
X126711785Y-77861950D01*
X126711785Y-77861950D02*
X126742738Y-77830997D01*
X126742738Y-77830997D02*
X126773690Y-77769092D01*
X126773690Y-77769092D02*
X126773690Y-77242902D01*
X127392737Y-77242902D02*
X127083213Y-77242902D01*
X127083213Y-77242902D02*
X127052261Y-77552426D01*
X127052261Y-77552426D02*
X127083213Y-77521473D01*
X127083213Y-77521473D02*
X127145118Y-77490521D01*
X127145118Y-77490521D02*
X127299880Y-77490521D01*
X127299880Y-77490521D02*
X127361785Y-77521473D01*
X127361785Y-77521473D02*
X127392737Y-77552426D01*
X127392737Y-77552426D02*
X127423690Y-77614330D01*
X127423690Y-77614330D02*
X127423690Y-77769092D01*
X127423690Y-77769092D02*
X127392737Y-77830997D01*
X127392737Y-77830997D02*
X127361785Y-77861950D01*
X127361785Y-77861950D02*
X127299880Y-77892902D01*
X127299880Y-77892902D02*
X127145118Y-77892902D01*
X127145118Y-77892902D02*
X127083213Y-77861950D01*
X127083213Y-77861950D02*
X127052261Y-77830997D01*
X164922902Y-106417857D02*
X164613378Y-106634524D01*
X164922902Y-106789286D02*
X164272902Y-106789286D01*
X164272902Y-106789286D02*
X164272902Y-106541667D01*
X164272902Y-106541667D02*
X164303854Y-106479762D01*
X164303854Y-106479762D02*
X164334807Y-106448809D01*
X164334807Y-106448809D02*
X164396711Y-106417857D01*
X164396711Y-106417857D02*
X164489569Y-106417857D01*
X164489569Y-106417857D02*
X164551473Y-106448809D01*
X164551473Y-106448809D02*
X164582426Y-106479762D01*
X164582426Y-106479762D02*
X164613378Y-106541667D01*
X164613378Y-106541667D02*
X164613378Y-106789286D01*
X164922902Y-105798809D02*
X164922902Y-106170238D01*
X164922902Y-105984524D02*
X164272902Y-105984524D01*
X164272902Y-105984524D02*
X164365759Y-106046428D01*
X164365759Y-106046428D02*
X164427664Y-106108333D01*
X164427664Y-106108333D02*
X164458616Y-106170238D01*
X164922902Y-105179761D02*
X164922902Y-105551190D01*
X164922902Y-105365476D02*
X164272902Y-105365476D01*
X164272902Y-105365476D02*
X164365759Y-105427380D01*
X164365759Y-105427380D02*
X164427664Y-105489285D01*
X164427664Y-105489285D02*
X164458616Y-105551190D01*
X148783333Y-41642902D02*
X148783333Y-42107188D01*
X148783333Y-42107188D02*
X148752380Y-42200045D01*
X148752380Y-42200045D02*
X148690476Y-42261950D01*
X148690476Y-42261950D02*
X148597618Y-42292902D01*
X148597618Y-42292902D02*
X148535714Y-42292902D01*
X149030952Y-41642902D02*
X149464285Y-41642902D01*
X149464285Y-41642902D02*
X149185714Y-42292902D01*
X142960056Y-112086736D02*
X142916283Y-112086736D01*
X142916283Y-112086736D02*
X142828736Y-112042963D01*
X142828736Y-112042963D02*
X142784963Y-111999190D01*
X142784963Y-111999190D02*
X142741190Y-111911643D01*
X142741190Y-111911643D02*
X142741190Y-111824096D01*
X142741190Y-111824096D02*
X142763076Y-111758437D01*
X142763076Y-111758437D02*
X142828736Y-111649003D01*
X142828736Y-111649003D02*
X142894396Y-111583343D01*
X142894396Y-111583343D02*
X143003829Y-111517684D01*
X143003829Y-111517684D02*
X143069489Y-111495797D01*
X143069489Y-111495797D02*
X143157036Y-111495797D01*
X143157036Y-111495797D02*
X143244582Y-111539570D01*
X143244582Y-111539570D02*
X143288356Y-111583343D01*
X143288356Y-111583343D02*
X143332129Y-111670890D01*
X143332129Y-111670890D02*
X143332129Y-111714663D01*
X143529109Y-111824096D02*
X143813635Y-112108623D01*
X143813635Y-112108623D02*
X143485335Y-112130509D01*
X143485335Y-112130509D02*
X143550995Y-112196169D01*
X143550995Y-112196169D02*
X143572882Y-112261829D01*
X143572882Y-112261829D02*
X143572882Y-112305602D01*
X143572882Y-112305602D02*
X143550995Y-112371262D01*
X143550995Y-112371262D02*
X143441562Y-112480696D01*
X143441562Y-112480696D02*
X143375902Y-112502582D01*
X143375902Y-112502582D02*
X143332129Y-112502582D01*
X143332129Y-112502582D02*
X143266469Y-112480696D01*
X143266469Y-112480696D02*
X143135149Y-112349376D01*
X143135149Y-112349376D02*
X143113263Y-112283716D01*
X143113263Y-112283716D02*
X143113263Y-112239943D01*
X137357142Y-122454819D02*
X137023809Y-121978628D01*
X136785714Y-122454819D02*
X136785714Y-121454819D01*
X136785714Y-121454819D02*
X137166666Y-121454819D01*
X137166666Y-121454819D02*
X137261904Y-121502438D01*
X137261904Y-121502438D02*
X137309523Y-121550057D01*
X137309523Y-121550057D02*
X137357142Y-121645295D01*
X137357142Y-121645295D02*
X137357142Y-121788152D01*
X137357142Y-121788152D02*
X137309523Y-121883390D01*
X137309523Y-121883390D02*
X137261904Y-121931009D01*
X137261904Y-121931009D02*
X137166666Y-121978628D01*
X137166666Y-121978628D02*
X136785714Y-121978628D01*
X137738095Y-121550057D02*
X137785714Y-121502438D01*
X137785714Y-121502438D02*
X137880952Y-121454819D01*
X137880952Y-121454819D02*
X138119047Y-121454819D01*
X138119047Y-121454819D02*
X138214285Y-121502438D01*
X138214285Y-121502438D02*
X138261904Y-121550057D01*
X138261904Y-121550057D02*
X138309523Y-121645295D01*
X138309523Y-121645295D02*
X138309523Y-121740533D01*
X138309523Y-121740533D02*
X138261904Y-121883390D01*
X138261904Y-121883390D02*
X137690476Y-122454819D01*
X137690476Y-122454819D02*
X138309523Y-122454819D01*
X138785714Y-122454819D02*
X138976190Y-122454819D01*
X138976190Y-122454819D02*
X139071428Y-122407200D01*
X139071428Y-122407200D02*
X139119047Y-122359580D01*
X139119047Y-122359580D02*
X139214285Y-122216723D01*
X139214285Y-122216723D02*
X139261904Y-122026247D01*
X139261904Y-122026247D02*
X139261904Y-121645295D01*
X139261904Y-121645295D02*
X139214285Y-121550057D01*
X139214285Y-121550057D02*
X139166666Y-121502438D01*
X139166666Y-121502438D02*
X139071428Y-121454819D01*
X139071428Y-121454819D02*
X138880952Y-121454819D01*
X138880952Y-121454819D02*
X138785714Y-121502438D01*
X138785714Y-121502438D02*
X138738095Y-121550057D01*
X138738095Y-121550057D02*
X138690476Y-121645295D01*
X138690476Y-121645295D02*
X138690476Y-121883390D01*
X138690476Y-121883390D02*
X138738095Y-121978628D01*
X138738095Y-121978628D02*
X138785714Y-122026247D01*
X138785714Y-122026247D02*
X138880952Y-122073866D01*
X138880952Y-122073866D02*
X139071428Y-122073866D01*
X139071428Y-122073866D02*
X139166666Y-122026247D01*
X139166666Y-122026247D02*
X139214285Y-121978628D01*
X139214285Y-121978628D02*
X139261904Y-121883390D01*
X148292902Y-116708333D02*
X147983378Y-116925000D01*
X148292902Y-117079762D02*
X147642902Y-117079762D01*
X147642902Y-117079762D02*
X147642902Y-116832143D01*
X147642902Y-116832143D02*
X147673854Y-116770238D01*
X147673854Y-116770238D02*
X147704807Y-116739285D01*
X147704807Y-116739285D02*
X147766711Y-116708333D01*
X147766711Y-116708333D02*
X147859569Y-116708333D01*
X147859569Y-116708333D02*
X147921473Y-116739285D01*
X147921473Y-116739285D02*
X147952426Y-116770238D01*
X147952426Y-116770238D02*
X147983378Y-116832143D01*
X147983378Y-116832143D02*
X147983378Y-117079762D01*
X147642902Y-116120238D02*
X147642902Y-116429762D01*
X147642902Y-116429762D02*
X147952426Y-116460714D01*
X147952426Y-116460714D02*
X147921473Y-116429762D01*
X147921473Y-116429762D02*
X147890521Y-116367857D01*
X147890521Y-116367857D02*
X147890521Y-116213095D01*
X147890521Y-116213095D02*
X147921473Y-116151190D01*
X147921473Y-116151190D02*
X147952426Y-116120238D01*
X147952426Y-116120238D02*
X148014330Y-116089285D01*
X148014330Y-116089285D02*
X148169092Y-116089285D01*
X148169092Y-116089285D02*
X148230997Y-116120238D01*
X148230997Y-116120238D02*
X148261950Y-116151190D01*
X148261950Y-116151190D02*
X148292902Y-116213095D01*
X148292902Y-116213095D02*
X148292902Y-116367857D01*
X148292902Y-116367857D02*
X148261950Y-116429762D01*
X148261950Y-116429762D02*
X148230997Y-116460714D01*
X162092902Y-53617857D02*
X161783378Y-53834524D01*
X162092902Y-53989286D02*
X161442902Y-53989286D01*
X161442902Y-53989286D02*
X161442902Y-53741667D01*
X161442902Y-53741667D02*
X161473854Y-53679762D01*
X161473854Y-53679762D02*
X161504807Y-53648809D01*
X161504807Y-53648809D02*
X161566711Y-53617857D01*
X161566711Y-53617857D02*
X161659569Y-53617857D01*
X161659569Y-53617857D02*
X161721473Y-53648809D01*
X161721473Y-53648809D02*
X161752426Y-53679762D01*
X161752426Y-53679762D02*
X161783378Y-53741667D01*
X161783378Y-53741667D02*
X161783378Y-53989286D01*
X162092902Y-52998809D02*
X162092902Y-53370238D01*
X162092902Y-53184524D02*
X161442902Y-53184524D01*
X161442902Y-53184524D02*
X161535759Y-53246428D01*
X161535759Y-53246428D02*
X161597664Y-53308333D01*
X161597664Y-53308333D02*
X161628616Y-53370238D01*
X161659569Y-52441666D02*
X162092902Y-52441666D01*
X161411950Y-52596428D02*
X161876235Y-52751190D01*
X161876235Y-52751190D02*
X161876235Y-52348809D01*
X132539812Y-99967569D02*
X132496039Y-99967569D01*
X132496039Y-99967569D02*
X132408492Y-99923796D01*
X132408492Y-99923796D02*
X132364719Y-99880023D01*
X132364719Y-99880023D02*
X132320946Y-99792476D01*
X132320946Y-99792476D02*
X132320946Y-99704929D01*
X132320946Y-99704929D02*
X132342832Y-99639270D01*
X132342832Y-99639270D02*
X132408492Y-99529836D01*
X132408492Y-99529836D02*
X132474152Y-99464176D01*
X132474152Y-99464176D02*
X132583585Y-99398517D01*
X132583585Y-99398517D02*
X132649245Y-99376630D01*
X132649245Y-99376630D02*
X132736792Y-99376630D01*
X132736792Y-99376630D02*
X132824338Y-99420403D01*
X132824338Y-99420403D02*
X132868112Y-99464176D01*
X132868112Y-99464176D02*
X132911885Y-99551723D01*
X132911885Y-99551723D02*
X132911885Y-99595496D01*
X133196411Y-100098889D02*
X132889998Y-100405302D01*
X133262071Y-99814363D02*
X132824338Y-100033229D01*
X132824338Y-100033229D02*
X133108865Y-100317755D01*
X169582142Y-61892902D02*
X169365475Y-61583378D01*
X169210713Y-61892902D02*
X169210713Y-61242902D01*
X169210713Y-61242902D02*
X169458332Y-61242902D01*
X169458332Y-61242902D02*
X169520237Y-61273854D01*
X169520237Y-61273854D02*
X169551190Y-61304807D01*
X169551190Y-61304807D02*
X169582142Y-61366711D01*
X169582142Y-61366711D02*
X169582142Y-61459569D01*
X169582142Y-61459569D02*
X169551190Y-61521473D01*
X169551190Y-61521473D02*
X169520237Y-61552426D01*
X169520237Y-61552426D02*
X169458332Y-61583378D01*
X169458332Y-61583378D02*
X169210713Y-61583378D01*
X170201190Y-61892902D02*
X169829761Y-61892902D01*
X170015475Y-61892902D02*
X170015475Y-61242902D01*
X170015475Y-61242902D02*
X169953571Y-61335759D01*
X169953571Y-61335759D02*
X169891666Y-61397664D01*
X169891666Y-61397664D02*
X169829761Y-61428616D01*
X170417857Y-61242902D02*
X170851190Y-61242902D01*
X170851190Y-61242902D02*
X170572619Y-61892902D01*
X151516283Y-107130509D02*
X151581943Y-106758437D01*
X151253643Y-106867870D02*
X151713263Y-106408250D01*
X151713263Y-106408250D02*
X151888356Y-106583343D01*
X151888356Y-106583343D02*
X151910242Y-106649003D01*
X151910242Y-106649003D02*
X151910242Y-106692777D01*
X151910242Y-106692777D02*
X151888356Y-106758437D01*
X151888356Y-106758437D02*
X151822696Y-106824096D01*
X151822696Y-106824096D02*
X151757036Y-106845983D01*
X151757036Y-106845983D02*
X151713263Y-106845983D01*
X151713263Y-106845983D02*
X151647603Y-106824096D01*
X151647603Y-106824096D02*
X151472510Y-106649003D01*
X152129109Y-106824096D02*
X152413635Y-107108623D01*
X152413635Y-107108623D02*
X152085335Y-107130509D01*
X152085335Y-107130509D02*
X152150995Y-107196169D01*
X152150995Y-107196169D02*
X152172882Y-107261829D01*
X152172882Y-107261829D02*
X152172882Y-107305602D01*
X152172882Y-107305602D02*
X152150995Y-107371262D01*
X152150995Y-107371262D02*
X152041562Y-107480696D01*
X152041562Y-107480696D02*
X151975902Y-107502582D01*
X151975902Y-107502582D02*
X151932129Y-107502582D01*
X151932129Y-107502582D02*
X151866469Y-107480696D01*
X151866469Y-107480696D02*
X151735149Y-107349376D01*
X151735149Y-107349376D02*
X151713263Y-107283716D01*
X151713263Y-107283716D02*
X151713263Y-107239943D01*
X155541190Y-113867870D02*
X155497416Y-113867870D01*
X155497416Y-113867870D02*
X155409870Y-113824096D01*
X155409870Y-113824096D02*
X155366097Y-113780323D01*
X155366097Y-113780323D02*
X155322323Y-113692776D01*
X155322323Y-113692776D02*
X155322323Y-113605230D01*
X155322323Y-113605230D02*
X155344210Y-113539570D01*
X155344210Y-113539570D02*
X155409870Y-113430137D01*
X155409870Y-113430137D02*
X155475530Y-113364477D01*
X155475530Y-113364477D02*
X155584963Y-113298817D01*
X155584963Y-113298817D02*
X155650623Y-113276930D01*
X155650623Y-113276930D02*
X155738169Y-113276930D01*
X155738169Y-113276930D02*
X155825716Y-113320704D01*
X155825716Y-113320704D02*
X155869489Y-113364477D01*
X155869489Y-113364477D02*
X155913262Y-113452023D01*
X155913262Y-113452023D02*
X155913262Y-113495797D01*
X155935149Y-114349376D02*
X155672509Y-114086736D01*
X155803829Y-114218056D02*
X156263449Y-113758436D01*
X156263449Y-113758436D02*
X156154016Y-113780323D01*
X156154016Y-113780323D02*
X156066469Y-113780323D01*
X156066469Y-113780323D02*
X156000809Y-113758436D01*
X156679295Y-114174283D02*
X156723068Y-114218056D01*
X156723068Y-114218056D02*
X156744955Y-114283716D01*
X156744955Y-114283716D02*
X156744955Y-114327489D01*
X156744955Y-114327489D02*
X156723068Y-114393149D01*
X156723068Y-114393149D02*
X156657408Y-114502582D01*
X156657408Y-114502582D02*
X156547975Y-114612016D01*
X156547975Y-114612016D02*
X156438542Y-114677675D01*
X156438542Y-114677675D02*
X156372882Y-114699562D01*
X156372882Y-114699562D02*
X156329109Y-114699562D01*
X156329109Y-114699562D02*
X156263449Y-114677675D01*
X156263449Y-114677675D02*
X156219676Y-114633902D01*
X156219676Y-114633902D02*
X156197789Y-114568242D01*
X156197789Y-114568242D02*
X156197789Y-114524469D01*
X156197789Y-114524469D02*
X156219676Y-114458809D01*
X156219676Y-114458809D02*
X156285336Y-114349376D01*
X156285336Y-114349376D02*
X156394769Y-114239943D01*
X156394769Y-114239943D02*
X156504202Y-114174283D01*
X156504202Y-114174283D02*
X156569862Y-114152396D01*
X156569862Y-114152396D02*
X156613635Y-114152396D01*
X156613635Y-114152396D02*
X156679295Y-114174283D01*
D13*
%TO.C,R26*%
X168677500Y-93637259D02*
X168677500Y-93162743D01*
X169722500Y-93637259D02*
X169722500Y-93162743D01*
%TO.C,Q2*%
X120000000Y-67239999D02*
X119350000Y-67240000D01*
X120000000Y-67239999D02*
X120650000Y-67240000D01*
X120000000Y-70360001D02*
X119350000Y-70360000D01*
X120000000Y-70360001D02*
X120650000Y-70360000D01*
X121402500Y-70640000D02*
X120922500Y-70639999D01*
X121162500Y-70310000D01*
X121402500Y-70640000D01*
G36*
X121402500Y-70640000D02*
G01*
X120922500Y-70639999D01*
X121162500Y-70310000D01*
X121402500Y-70640000D01*
G37*
%TO.C,R10*%
X124753641Y-111820000D02*
X124446359Y-111820000D01*
X124753641Y-112580000D02*
X124446359Y-112580000D01*
D12*
%TO.C,U3*%
X167425000Y-102075001D02*
X167425000Y-97924999D01*
X172575000Y-102075001D02*
X172575000Y-97924999D01*
D13*
X167500000Y-102750000D02*
X167170000Y-102990000D01*
X167170000Y-102510000D01*
X167500000Y-102750000D01*
G36*
X167500000Y-102750000D02*
G01*
X167170000Y-102990000D01*
X167170000Y-102510000D01*
X167500000Y-102750000D01*
G37*
%TO.C,J4*%
X135880000Y-45000000D02*
X135880000Y-75060000D01*
X135880000Y-45000000D02*
X138000000Y-45000000D01*
X135880000Y-75060000D02*
X138000000Y-75060000D01*
X136940000Y-42940000D02*
X138000000Y-42940000D01*
X138000000Y-42940000D02*
X138000000Y-44000000D01*
X138000000Y-45000000D02*
X138000000Y-75060000D01*
%TO.C,J3*%
X120780000Y-75300000D02*
X119000000Y-75300000D01*
X120780000Y-84700000D02*
X119000000Y-84700000D01*
X123700000Y-77200000D02*
X123699999Y-76400000D01*
%TO.C,U4*%
X123000000Y-57890000D02*
X122200000Y-57890001D01*
X123000000Y-57890000D02*
X123800000Y-57890001D01*
X123000000Y-61010002D02*
X122200000Y-61010001D01*
X123000000Y-61010002D02*
X123800000Y-61010001D01*
X121700000Y-57940001D02*
X121460000Y-57610001D01*
X121940000Y-57610001D01*
X121700000Y-57940001D01*
G36*
X121700000Y-57940001D02*
G01*
X121460000Y-57610001D01*
X121940000Y-57610001D01*
X121700000Y-57940001D01*
G37*
%TO.C,R2*%
X151222659Y-109720684D02*
X151439940Y-109937965D01*
X151760060Y-109183283D02*
X151977341Y-109400564D01*
%TO.C,C19*%
X119090000Y-63488748D02*
X119090000Y-64911252D01*
X120910000Y-63488748D02*
X120910000Y-64911252D01*
%TO.C,L2*%
X116840000Y-56440000D02*
X116990000Y-56440000D01*
X116840000Y-59960000D02*
X116840000Y-56440000D01*
X116840000Y-59960000D02*
X116990000Y-59960000D01*
X120360000Y-56440000D02*
X120210000Y-56440000D01*
X120360000Y-59960000D02*
X120210000Y-59960000D01*
X120360000Y-59960000D02*
X120360000Y-56440000D01*
%TO.C,R18*%
X166563610Y-62420000D02*
X166870892Y-62420000D01*
X166563610Y-63180000D02*
X166870892Y-63180000D01*
%TO.C,R16*%
X166047250Y-64246359D02*
X166047250Y-64553641D01*
X166807250Y-64246359D02*
X166807250Y-64553641D01*
%TO.C,L1*%
X156124273Y-103845522D02*
X156354478Y-104075727D01*
X156845522Y-103124273D02*
X157075727Y-103354478D01*
D14*
%TO.C,C18*%
X123076200Y-67095600D02*
G75*
G02*
X122923800Y-67095600I-76200J0D01*
G01*
X122923800Y-67095600D02*
G75*
G02*
X123076200Y-67095600I76200J0D01*
G01*
D13*
%TO.C,R9*%
X126446359Y-111820000D02*
X126753641Y-111820000D01*
X126446359Y-112580000D02*
X126753641Y-112580000D01*
%TO.C,R13*%
X163047250Y-51153641D02*
X163047250Y-50846359D01*
X163807250Y-51153641D02*
X163807250Y-50846359D01*
%TO.C,Q1*%
X166227250Y-50239999D02*
X165577250Y-50240000D01*
X166227250Y-50239999D02*
X166877250Y-50240000D01*
X166227250Y-53360001D02*
X165577250Y-53360000D01*
X166227250Y-53360001D02*
X166877250Y-53360000D01*
X165304750Y-49960001D02*
X165064750Y-50290000D01*
X164824750Y-49960000D01*
X165304750Y-49960001D01*
G36*
X165304750Y-49960001D02*
G01*
X165064750Y-50290000D01*
X164824750Y-49960000D01*
X165304750Y-49960001D01*
G37*
%TO.C,D3*%
X122340000Y-67199999D02*
X122340000Y-68400001D01*
X124300000Y-67200000D02*
X122340000Y-67199999D01*
X124300000Y-68400000D02*
X122340000Y-68400001D01*
%TO.C,R21*%
X125677500Y-51962742D02*
X125677500Y-52437258D01*
X126722500Y-51962742D02*
X126722500Y-52437258D01*
%TO.C,C7*%
X150821693Y-107469190D02*
X150669190Y-107621693D01*
X151330810Y-107978307D02*
X151178307Y-108130810D01*
%TO.C,R22*%
X125037500Y-84037258D02*
X125037500Y-83562742D01*
X126082500Y-84037258D02*
X126082500Y-83562742D01*
%TO.C,R1*%
X132598303Y-105737230D02*
X132262770Y-105401697D01*
X133337230Y-104998303D02*
X133001697Y-104662770D01*
%TO.C,D1*%
X133475287Y-106914734D02*
X135091026Y-108530473D01*
X134514734Y-105875287D02*
X133475287Y-106914734D01*
X136130473Y-107491026D02*
X134514734Y-105875287D01*
%TO.C,R6*%
X146620000Y-116743639D02*
X146620000Y-116436357D01*
X147380000Y-116743639D02*
X147380000Y-116436357D01*
%TO.C,C17*%
X154221693Y-104069190D02*
X154069190Y-104221693D01*
X154730810Y-104578307D02*
X154578307Y-104730810D01*
%TO.C,C9*%
X150082282Y-114191399D02*
X149929779Y-114038896D01*
X150591399Y-113682282D02*
X150438896Y-113529779D01*
%TO.C,C1*%
X141021693Y-111930810D02*
X140869190Y-111778307D01*
X141530810Y-111421693D02*
X141378307Y-111269190D01*
%TO.C,R4*%
X131131400Y-106533067D02*
X131466933Y-106868600D01*
X131870327Y-105794140D02*
X132205860Y-106129673D01*
%TO.C,R19*%
X123562742Y-69277500D02*
X124037258Y-69277500D01*
X123562742Y-70322500D02*
X124037258Y-70322500D01*
%TO.C,J1*%
X139940000Y-119039998D02*
X139940000Y-123159998D01*
X148000000Y-121099998D02*
X148000000Y-123159998D01*
X148000000Y-123159998D02*
X139940000Y-123159998D01*
X150060000Y-119039998D02*
X139940000Y-119039998D01*
X150060000Y-119039998D02*
X150060000Y-121099998D01*
X150060000Y-121099998D02*
X148000000Y-121099998D01*
X150060000Y-122099998D02*
X150060000Y-123159998D01*
X150060000Y-123159998D02*
X149000000Y-123159998D01*
%TO.C,R27*%
X170277500Y-93637259D02*
X170277500Y-93162743D01*
X171322500Y-93637259D02*
X171322500Y-93162743D01*
%TO.C,C22*%
X118290000Y-52111252D02*
X118290000Y-50688748D01*
X120110000Y-52111252D02*
X120110000Y-50688748D01*
D14*
%TO.C,FL1*%
X129472000Y-79709186D02*
X129472000Y-80290814D01*
X131123000Y-80290814D02*
X131123000Y-79709186D01*
X130830900Y-77805000D02*
G75*
G02*
X130576900Y-77805000I-127000J0D01*
G01*
X130576900Y-77805000D02*
G75*
G02*
X130830900Y-77805000I127000J0D01*
G01*
D13*
%TO.C,C11*%
X155821693Y-107330810D02*
X155669190Y-107178307D01*
X156330810Y-106821693D02*
X156178307Y-106669190D01*
%TO.C,C5*%
X145669190Y-88421693D02*
X145821693Y-88269190D01*
X146178307Y-88930810D02*
X146330810Y-88778307D01*
%TO.C,J9*%
X136940000Y-36940000D02*
X136940000Y-41060000D01*
X151000000Y-39000000D02*
X151000000Y-41060000D01*
X151000000Y-41060000D02*
X136940000Y-41060000D01*
X153060000Y-36940000D02*
X136940000Y-36940000D01*
X153060000Y-36940000D02*
X153060000Y-39000000D01*
X153060000Y-39000000D02*
X151000000Y-39000000D01*
X153060000Y-40000000D02*
X153060000Y-41060000D01*
X153060000Y-41060000D02*
X152000000Y-41060000D01*
%TO.C,C20*%
X125090000Y-63488748D02*
X125090000Y-64911252D01*
X126910000Y-63488748D02*
X126910000Y-64911252D01*
%TO.C,C8*%
X148469190Y-112578307D02*
X148621693Y-112730810D01*
X148978307Y-112069190D02*
X149130810Y-112221693D01*
%TO.C,R12*%
X166983608Y-53820000D02*
X167290890Y-53820000D01*
X166983608Y-54580000D02*
X167290890Y-54580000D01*
%TO.C,J5*%
X139930000Y-45000000D02*
X139930000Y-75060000D01*
X139930000Y-45000000D02*
X142050000Y-45000000D01*
X139930000Y-75060000D02*
X142050000Y-75060000D01*
X140990000Y-42940000D02*
X142050000Y-42940000D01*
X142050000Y-42940000D02*
X142050000Y-44000000D01*
X142050000Y-45000000D02*
X142050000Y-75060000D01*
%TO.C,F1*%
X121002064Y-71190000D02*
X119797936Y-71190000D01*
X121002064Y-73010000D02*
X119797936Y-73010000D01*
%TO.C,C23*%
X120890000Y-52111252D02*
X120890000Y-50688748D01*
X122710000Y-52111252D02*
X122710000Y-50688748D01*
%TO.C,C2*%
X148821693Y-109469190D02*
X148669190Y-109621693D01*
X149330810Y-109978307D02*
X149178307Y-110130810D01*
%TO.C,J2*%
X117060000Y-97275000D02*
X117060000Y-110725000D01*
X117060000Y-110725000D02*
X127340000Y-110725000D01*
X119550000Y-97335000D02*
X119550000Y-110665000D01*
X119550000Y-110665000D02*
X124850000Y-110665000D01*
X121200000Y-97335000D02*
X119550000Y-97335000D01*
X124850000Y-97335000D02*
X123200000Y-97335000D01*
X124850000Y-110665000D02*
X124850000Y-97335000D01*
X127340000Y-97275000D02*
X117060000Y-97275000D01*
X127340000Y-110725000D02*
X127340000Y-97275000D01*
X123200000Y-97335000D02*
G75*
G02*
X121200000Y-97335000I-1000000J0D01*
G01*
%TO.C,C14*%
X167267250Y-55772164D02*
X167267250Y-55987836D01*
X167987250Y-55772164D02*
X167987250Y-55987836D01*
%TO.C,D2*%
X132343917Y-108046104D02*
X133959656Y-109661843D01*
X133383364Y-107006657D02*
X132343917Y-108046104D01*
X134999103Y-108622396D02*
X133383364Y-107006657D01*
%TO.C,C21*%
X122288748Y-55090000D02*
X123711252Y-55090000D01*
X122288748Y-56910000D02*
X123711252Y-56910000D01*
%TO.C,R24*%
X168677499Y-106862258D02*
X168677499Y-106387742D01*
X169722499Y-106862258D02*
X169722499Y-106387742D01*
%TO.C,C12*%
X147821693Y-89530810D02*
X147669190Y-89378307D01*
X148330810Y-89021693D02*
X148178307Y-88869190D01*
%TO.C,R20*%
X124077500Y-51962742D02*
X124077500Y-52437258D01*
X125122500Y-51962742D02*
X125122500Y-52437258D01*
%TO.C,R28*%
X171877499Y-93662258D02*
X171877499Y-93187742D01*
X172922499Y-93662258D02*
X172922499Y-93187742D01*
%TO.C,R15*%
X166563610Y-60020000D02*
X166870892Y-60020000D01*
X166563610Y-60780000D02*
X166870892Y-60780000D01*
%TO.C,Y1*%
X150858579Y-112896016D02*
X149903984Y-111941421D01*
X152096016Y-111658579D02*
X151141421Y-110703984D01*
%TO.C,R25*%
X170277500Y-106837258D02*
X170277500Y-106362742D01*
X171322500Y-106837258D02*
X171322500Y-106362742D01*
%TO.C,U1*%
X134944942Y-100000000D02*
X135439916Y-99505025D01*
X135439916Y-100494975D02*
X134944942Y-100000000D01*
X144505025Y-109560084D02*
X145000000Y-110055058D01*
X145000000Y-89944942D02*
X144505025Y-90439916D01*
X145000000Y-110055058D02*
X145494975Y-109560084D01*
X145494975Y-90439916D02*
X145000000Y-89944942D01*
X154560084Y-99505025D02*
X155055058Y-100000000D01*
X155055058Y-100000000D02*
X154560084Y-100494975D01*
X145846760Y-110576550D02*
X145365928Y-110095717D01*
X145938684Y-110003793D01*
X145846760Y-110576550D01*
G36*
X145846760Y-110576550D02*
G01*
X145365928Y-110095717D01*
X145938684Y-110003793D01*
X145846760Y-110576550D01*
G37*
%TO.C,C13*%
X134021693Y-96669190D02*
X133869190Y-96821693D01*
X134530810Y-97178307D02*
X134378307Y-97330810D01*
%TO.C,C16*%
X155021693Y-104869190D02*
X154869190Y-105021693D01*
X155530810Y-105378307D02*
X155378307Y-105530810D01*
%TO.C,R7*%
X144620000Y-116743640D02*
X144620000Y-116436358D01*
X145380000Y-116743640D02*
X145380000Y-116436358D01*
%TO.C,R23*%
X167077499Y-106837258D02*
X167077499Y-106362742D01*
X168122499Y-106837258D02*
X168122499Y-106362742D01*
%TO.C,J8*%
X152080000Y-45000000D02*
X152080000Y-75060000D01*
X152080000Y-45000000D02*
X154200000Y-45000000D01*
X152080000Y-75060000D02*
X154200000Y-75060000D01*
X153140000Y-42940000D02*
X154200000Y-42940000D01*
X154200000Y-42940000D02*
X154200000Y-44000000D01*
X154200000Y-45000000D02*
X154200000Y-75060000D01*
%TO.C,C6*%
X155469190Y-97178307D02*
X155621693Y-97330810D01*
X155978307Y-96669190D02*
X156130810Y-96821693D01*
%TO.C,Y2*%
X151595837Y-108331371D02*
X154424264Y-111159798D01*
X153929290Y-105997918D02*
X151595837Y-108331371D01*
%TO.C,C15*%
X167267250Y-64292164D02*
X167267250Y-64507836D01*
X167987250Y-64292164D02*
X167987250Y-64507836D01*
%TO.C,J6*%
X143980000Y-45000000D02*
X143980000Y-75060000D01*
X143980000Y-45000000D02*
X146100000Y-45000000D01*
X143980000Y-75060000D02*
X146100000Y-75060000D01*
X145040000Y-42940000D02*
X146100000Y-42940000D01*
X146100000Y-42940000D02*
X146100000Y-44000000D01*
X146100000Y-45000000D02*
X146100000Y-75060000D01*
%TO.C,R8*%
X140620000Y-116743640D02*
X140620000Y-116436358D01*
X141380000Y-116743640D02*
X141380000Y-116436358D01*
%TO.C,U5*%
X126897500Y-78439999D02*
X126097500Y-78440000D01*
X126897500Y-78439999D02*
X127697500Y-78440000D01*
X126897500Y-81560001D02*
X126097500Y-81560000D01*
X126897500Y-81560001D02*
X127697500Y-81560000D01*
X125597500Y-78490000D02*
X125357500Y-78160000D01*
X125837500Y-78160000D01*
X125597500Y-78490000D01*
G36*
X125597500Y-78490000D02*
G01*
X125357500Y-78160000D01*
X125837500Y-78160000D01*
X125597500Y-78490000D01*
G37*
%TO.C,R11*%
X165420000Y-106153641D02*
X165420000Y-105846359D01*
X166180000Y-106153641D02*
X166180000Y-105846359D01*
%TO.C,J7*%
X148030000Y-45000000D02*
X148030000Y-75060000D01*
X148030000Y-45000000D02*
X150150000Y-45000000D01*
X148030000Y-75060000D02*
X150150000Y-75060000D01*
X149090000Y-42940000D02*
X150150000Y-42940000D01*
X150150000Y-42940000D02*
X150150000Y-44000000D01*
X150150000Y-45000000D02*
X150150000Y-75060000D01*
%TO.C,C3*%
X141821693Y-111130810D02*
X141669190Y-110978307D01*
X142330810Y-110621693D02*
X142178307Y-110469190D01*
%TO.C,R29*%
X137846359Y-122820000D02*
X138153641Y-122820000D01*
X137846359Y-123580000D02*
X138153641Y-123580000D01*
%TO.C,R5*%
X148620000Y-116743640D02*
X148620000Y-116436358D01*
X149380000Y-116743640D02*
X149380000Y-116436358D01*
%TO.C,R14*%
X163047250Y-53353641D02*
X163047250Y-53046359D01*
X163807250Y-53353641D02*
X163807250Y-53046359D01*
%TO.C,C4*%
X133421693Y-99391399D02*
X133269190Y-99238896D01*
X133930810Y-98882282D02*
X133778307Y-98729779D01*
%TO.C,R17*%
X166870892Y-61220000D02*
X166563610Y-61220000D01*
X166870892Y-61980000D02*
X166563610Y-61980000D01*
%TO.C,R3*%
X152422659Y-105839940D02*
X152639940Y-105622659D01*
X152960060Y-106377341D02*
X153177341Y-106160060D01*
%TO.C,C10*%
X152669190Y-111178307D02*
X152821693Y-111330810D01*
X153178307Y-110669190D02*
X153330810Y-110821693D01*
%TD*%
M02*
